<svg width="150" height="310" viewBox="0 0 150 310" fill="none" xmlns="http://www.w3.org/2000/svg">
<path fill-rule="evenodd" clip-rule="evenodd" d="M3.99999 145.995L5.99999 145.995L5.99999 147.995L3.99999 147.995L3.99999 149.995L1.99999 149.995L1.99999 147.995L-6.46872e-06 147.995L-6.3813e-06 145.995L1.99999 145.995L1.99999 143.995L3.99999 143.995L3.99999 145.995ZM3.99999 129.996L5.99999 129.996L5.99999 131.996L3.99999 131.996L3.99999 133.996L1.99999 133.996L1.99999 131.996L-5.76939e-06 131.996L-5.68198e-06 129.996L1.99999 129.996L1.99999 127.996L3.99999 127.996L3.99999 129.996ZM4 113.996L6 113.996L5.99999 115.996L3.99999 115.996L3.99999 117.996L1.99999 117.996L1.99999 115.996L-5.07007e-06 115.996L-4.98266e-06 113.996L2 113.996L2 111.996L4 111.996L4 113.996ZM4 97.9968L6 97.9968L6 99.9967L4 99.9967L4 101.997L2 101.997L2 99.9967L-4.37075e-06 99.9967L-4.28334e-06 97.9968L2 97.9968L2 95.9968L4 95.9968L4 97.9968ZM4 81.9973L6 81.9973L6 83.9972L4 83.9972L4 85.9972L2 85.9972L2 83.9972L-3.67143e-06 83.9972L-3.58402e-06 81.9973L2 81.9973L2 79.9974L4 79.9974L4 81.9973ZM4 65.9978L6 65.9978L6 67.9978L4 67.9978L4 69.9977L2 69.9977L2 67.9978L-2.97211e-06 67.9978L-2.8847e-06 65.9978L2 65.9978L2 63.9979L4 63.9979L4 65.9978ZM4 49.9984L6 49.9984L6 51.9983L4 51.9983L4 53.9982L2 53.9982L2 51.9983L-2.27279e-06 51.9983L-2.18538e-06 49.9984L2 49.9984L2 47.9984L4 47.9984L4 49.9984ZM4 33.9989L6 33.9989L6 35.9988L4 35.9988L4 37.9988L2 37.9988L2 35.9988L-1.57347e-06 35.9988L-1.48606e-06 33.9989L2 33.9989L2 31.999L4 31.999L4 33.9989ZM4 17.9994L6 17.9994L6 19.9994L4 19.9994L4 21.9993L2 21.9993L2 19.9994L-8.74151e-07 19.9994L-7.86736e-07 17.9994L2 17.9994L2 15.9995L4 15.9995L4 17.9994ZM4 1.99995L6 1.99995L6 3.99988L4 3.99988L4 5.99982L2 5.99982L2 3.99988L-1.7483e-07 3.99988L-8.74151e-08 1.99995L2 1.99995L2 1.64185e-05L4 1.6506e-05L4 1.99995ZM20 145.995L22 145.995L22 147.995L20 147.995L20 149.995L18 149.995L18 147.995L16 147.995L16 145.995L18 145.995L18 143.995L20 143.995L20 145.995ZM20 129.996L22 129.996L22 131.996L20 131.996L20 133.996L18 133.996L18 131.996L16 131.996L16 129.996L18 129.996L18 127.996L20 127.996L20 129.996ZM20 113.996L22 113.996L22 115.996L20 115.996L20 117.996L18 117.996L18 115.996L16 115.996L16 113.996L18 113.996L18 111.996L20 111.996L20 113.996ZM20 97.9968L22 97.9968L22 99.9967L20 99.9967L20 101.997L18 101.997L18 99.9967L16 99.9967L16 97.9968L18 97.9968L18 95.9968L20 95.9968L20 97.9968ZM20 81.9973L22 81.9973L22 83.9972L20 83.9972L20 85.9972L18 85.9972L18 83.9972L16 83.9972L16 81.9973L18 81.9973L18 79.9974L20 79.9974L20 81.9973ZM20 65.9978L22 65.9978L22 67.9978L20 67.9978L20 69.9977L18 69.9977L18 67.9978L16 67.9978L16 65.9978L18 65.9978L18 63.9979L20 63.9979L20 65.9978ZM20 49.9984L22 49.9984L22 51.9983L20 51.9983L20 53.9982L18 53.9982L18 51.9983L16 51.9983L16 49.9984L18 49.9984L18 47.9984L20 47.9984L20 49.9984ZM20 33.9989L22 33.9989L22 35.9988L20 35.9988L20 37.9988L18 37.9988L18 35.9988L16 35.9988L16 33.9989L18 33.9989L18 31.999L20 31.999L20 33.9989ZM20 17.9994L22 17.9994L22 19.9994L20 19.9994L20 21.9993L18 21.9993L18 19.9994L16 19.9994L16 17.9994L18 17.9994L18 15.9995L20 15.9995L20 17.9994ZM20 1.99995L22 1.99995L22 3.99988L20 3.99988L20 5.99982L18 5.99982L18 3.99988L16 3.99988L16 1.99995L18 1.99995L18 1.7118e-05L20 1.72054e-05L20 1.99995ZM36 145.995L38 145.995L38 147.995L36 147.995L36 149.995L34 149.995L34 147.995L32 147.995L32 145.995L34 145.995L34 143.995L36 143.995L36 145.995ZM36 129.996L38 129.996L38 131.996L36 131.996L36 133.996L34 133.996L34 131.996L32 131.996L32 129.996L34 129.996L34 127.996L36 127.996L36 129.996ZM36 113.996L38 113.996L38 115.996L36 115.996L36 117.996L34 117.996L34 115.996L32 115.996L32 113.996L34 113.996L34 111.996L36 111.996L36 113.996ZM36 97.9968L38 97.9968L38 99.9967L36 99.9967L36 101.997L34 101.997L34 99.9967L32 99.9967L32 97.9968L34 97.9968L34 95.9968L36 95.9968L36 97.9968ZM36 81.9973L38 81.9973L38 83.9972L36 83.9972L36 85.9972L34 85.9972L34 83.9972L32 83.9972L32 81.9973L34 81.9973L34 79.9974L36 79.9974L36 81.9973ZM36 65.9978L38 65.9978L38 67.9978L36 67.9978L36 69.9977L34 69.9977L34 67.9978L32 67.9978L32 65.9978L34 65.9978L34 63.9979L36 63.9979L36 65.9978ZM36 49.9984L38 49.9984L38 51.9983L36 51.9983L36 53.9982L34 53.9982L34 51.9983L32 51.9983L32 49.9984L34 49.9984L34 47.9984L36 47.9984L36 49.9984ZM36 33.9989L38 33.9989L38 35.9988L36 35.9988L36 37.9988L34 37.9988L34 35.9988L32 35.9988L32 33.9989L34 33.9989L34 31.999L36 31.999L36 33.9989ZM36 17.9994L38 17.9994L38 19.9994L36 19.9994L36 21.9993L34 21.9993L34 19.9994L32 19.9994L32 17.9994L34 17.9994L34 15.9995L36 15.9995L36 17.9994ZM36 1.99995L38 1.99995L38 3.99989L36 3.99989L36 5.99982L34 5.99982L34 3.99989L32 3.99989L32 1.99995L34 1.99995L34 1.78174e-05L36 1.79048e-05L36 1.99995ZM52 145.995L54 145.995L54 147.995L52 147.995L52 149.995L50 149.995L50 147.995L48 147.995L48 145.995L50 145.995L50 143.995L52 143.995L52 145.995ZM52 129.996L54 129.996L54 131.996L52 131.996L52 133.996L50 133.996L50 131.996L48 131.996L48 129.996L50 129.996L50 127.996L52 127.996L52 129.996ZM52 113.996L54 113.996L54 115.996L52 115.996L52 117.996L50 117.996L50 115.996L48 115.996L48 113.996L50 113.996L50 111.996L52 111.996L52 113.996ZM52 97.9968L54 97.9968L54 99.9967L52 99.9967L52 101.997L50 101.997L50 99.9967L48 99.9967L48 97.9968L50 97.9968L50 95.9968L52 95.9968L52 97.9968ZM52 81.9973L54 81.9973L54 83.9972L52 83.9972L52 85.9972L50 85.9972L50 83.9972L48 83.9972L48 81.9973L50 81.9973L50 79.9974L52 79.9974L52 81.9973ZM52 65.9978L54 65.9978L54 67.9978L52 67.9978L52 69.9977L50 69.9977L50 67.9978L48 67.9978L48 65.9978L50 65.9978L50 63.9979L52 63.9979L52 65.9978ZM52 49.9984L54 49.9984L54 51.9983L52 51.9983L52 53.9982L50 53.9982L50 51.9983L48 51.9983L48 49.9984L50 49.9984L50 47.9984L52 47.9984L52 49.9984ZM52 33.9989L54 33.9989L54 35.9988L52 35.9988L52 37.9988L50 37.9988L50 35.9988L48 35.9988L48 33.9989L50 33.9989L50 31.999L52 31.999L52 33.9989ZM52 17.9994L54 17.9994L54 19.9994L52 19.9994L52 21.9993L50 21.9993L50 19.9994L48 19.9994L48 17.9994L50 17.9994L50 15.9995L52 15.9995L52 17.9994ZM52 1.99995L54 1.99995L54 3.99989L52 3.99989L52 5.99982L50 5.99982L50 3.99989L48 3.99989L48 1.99995L50 1.99995L50 1.85168e-05L52 1.86042e-05L52 1.99995ZM68 145.995L70 145.995L70 147.995L68 147.995L68 149.995L66 149.995L66 147.995L64 147.995L64 145.995L66 145.995L66 143.995L68 143.995L68 145.995ZM68 129.996L70 129.996L70 131.996L68 131.996L68 133.996L66 133.996L66 131.996L64 131.996L64 129.996L66 129.996L66 127.996L68 127.996L68 129.996ZM68 113.996L70 113.996L70 115.996L68 115.996L68 117.996L66 117.996L66 115.996L64 115.996L64 113.996L66 113.996L66 111.996L68 111.996L68 113.996ZM68 97.9968L70 97.9968L70 99.9967L68 99.9967L68 101.997L66 101.997L66 99.9967L64 99.9967L64 97.9968L66 97.9968L66 95.9968L68 95.9968L68 97.9968ZM68 81.9973L70 81.9973L70 83.9972L68 83.9972L68 85.9972L66 85.9972L66 83.9972L64 83.9972L64 81.9973L66 81.9973L66 79.9974L68 79.9974L68 81.9973ZM68 65.9978L70 65.9978L70 67.9978L68 67.9978L68 69.9977L66 69.9977L66 67.9978L64 67.9978L64 65.9978L66 65.9978L66 63.9979L68 63.9979L68 65.9978ZM68 49.9984L70 49.9984L70 51.9983L68 51.9983L68 53.9982L66 53.9982L66 51.9983L64 51.9983L64 49.9984L66 49.9984L66 47.9984L68 47.9984L68 49.9984ZM68 33.9989L70 33.9989L70 35.9988L68 35.9988L68 37.9988L66 37.9988L66 35.9988L64 35.9988L64 33.9989L66 33.9989L66 31.999L68 31.999L68 33.9989ZM68 17.9994L70 17.9994L70 19.9994L68 19.9994L68 21.9993L66 21.9993L66 19.9994L64 19.9994L64 17.9994L66 17.9994L66 15.9995L68 15.9995L68 17.9994ZM68 1.99995L70 1.99995L70 3.99989L68 3.99989L68 5.99982L66 5.99982L66 3.99989L64 3.99989L64 1.99995L66 1.99995L66 1.92162e-05L68 1.93037e-05L68 1.99995ZM84 145.995L86 145.995L86 147.995L84 147.995L84 149.995L82 149.995L82 147.995L80 147.995L80 145.995L82 145.995L82 143.995L84 143.995L84 145.995ZM84 129.996L86 129.996L86 131.996L84 131.996L84 133.996L82 133.996L82 131.996L80 131.996L80 129.996L82 129.996L82 127.996L84 127.996L84 129.996ZM84 113.996L86 113.996L86 115.996L84 115.996L84 117.996L82 117.996L82 115.996L80 115.996L80 113.996L82 113.996L82 111.996L84 111.996L84 113.996ZM84 97.9968L86 97.9968L86 99.9967L84 99.9967L84 101.997L82 101.997L82 99.9967L80 99.9967L80 97.9968L82 97.9968L82 95.9968L84 95.9968L84 97.9968ZM84 81.9973L86 81.9973L86 83.9972L84 83.9972L84 85.9972L82 85.9972L82 83.9972L80 83.9972L80 81.9973L82 81.9973L82 79.9974L84 79.9974L84 81.9973ZM84 65.9978L86 65.9978L86 67.9978L84 67.9978L84 69.9977L82 69.9977L82 67.9978L80 67.9978L80 65.9978L82 65.9978L82 63.9979L84 63.9979L84 65.9978ZM84 49.9984L86 49.9984L86 51.9983L84 51.9983L84 53.9982L82 53.9982L82 51.9983L80 51.9983L80 49.9984L82 49.9984L82 47.9984L84 47.9984L84 49.9984ZM84 33.9989L86 33.9989L86 35.9988L84 35.9988L84 37.9988L82 37.9988L82 35.9988L80 35.9988L80 33.9989L82 33.9989L82 31.999L84 31.999L84 33.9989ZM84 17.9994L86 17.9994L86 19.9994L84 19.9994L84 21.9993L82 21.9993L82 19.9994L80 19.9994L80 17.9994L82 17.9994L82 15.9995L84 15.9995L84 17.9994ZM84 1.99995L86 1.99995L86 3.99989L84 3.99989L84 5.99982L82 5.99982L82 3.99989L80 3.99989L80 1.99995L82 1.99995L82 1.99156e-05L84 2.00031e-05L84 1.99995ZM100 145.995L102 145.995L102 147.995L100 147.995L100 149.995L98 149.995L98 147.995L96 147.995L96 145.995L98 145.995L98 143.995L100 143.995L100 145.995ZM100 129.996L102 129.996L102 131.996L100 131.996L100 133.996L98 133.996L98 131.996L96 131.996L96 129.996L98 129.996L98 127.996L100 127.996L100 129.996ZM100 113.996L102 113.996L102 115.996L100 115.996L100 117.996L98 117.996L98 115.996L96 115.996L96 113.996L98 113.996L98 111.996L100 111.996L100 113.996ZM100 97.9968L102 97.9968L102 99.9967L100 99.9967L100 101.997L98 101.997L98 99.9967L96 99.9967L96 97.9968L98 97.9968L98 95.9968L100 95.9968L100 97.9968ZM100 81.9973L102 81.9973L102 83.9972L100 83.9972L100 85.9972L98 85.9972L98 83.9972L96 83.9972L96 81.9973L98 81.9973L98 79.9974L100 79.9974L100 81.9973ZM100 65.9978L102 65.9978L102 67.9978L100 67.9978L100 69.9977L98 69.9977L98 67.9978L96 67.9978L96 65.9978L98 65.9978L98 63.9979L100 63.9979L100 65.9978ZM100 49.9984L102 49.9984L102 51.9983L100 51.9983L100 53.9982L98 53.9982L98 51.9983L96 51.9983L96 49.9984L98 49.9984L98 47.9984L100 47.9984L100 49.9984ZM100 33.9989L102 33.9989L102 35.9988L100 35.9988L100 37.9988L98 37.9988L98 35.9988L96 35.9988L96 33.9989L98 33.9989L98 31.999L100 31.999L100 33.9989ZM100 17.9994L102 17.9994L102 19.9994L100 19.9994L100 21.9993L98 21.9993L98 19.9994L96 19.9994L96 17.9994L98 17.9994L98 15.9995L100 15.9995L100 17.9994ZM100 1.99995L102 1.99995L102 3.99989L100 3.99989L100 5.99982L98 5.99982L98 3.99989L96 3.99989L96 1.99995L98 1.99995L98 2.06151e-05L100 2.07025e-05L100 1.99995ZM116 145.995L118 145.995L118 147.995L116 147.995L116 149.995L114 149.995L114 147.995L112 147.995L112 145.995L114 145.995L114 143.995L116 143.995L116 145.995ZM116 129.996L118 129.996L118 131.996L116 131.996L116 133.996L114 133.996L114 131.996L112 131.996L112 129.996L114 129.996L114 127.996L116 127.996L116 129.996ZM116 113.996L118 113.996L118 115.996L116 115.996L116 117.996L114 117.996L114 115.996L112 115.996L112 113.996L114 113.996L114 111.996L116 111.996L116 113.996ZM116 97.9968L118 97.9968L118 99.9967L116 99.9967L116 101.997L114 101.997L114 99.9967L112 99.9967L112 97.9968L114 97.9968L114 95.9968L116 95.9968L116 97.9968ZM116 81.9973L118 81.9973L118 83.9972L116 83.9972L116 85.9972L114 85.9972L114 83.9972L112 83.9972L112 81.9973L114 81.9973L114 79.9974L116 79.9974L116 81.9973ZM116 65.9978L118 65.9978L118 67.9978L116 67.9978L116 69.9977L114 69.9977L114 67.9978L112 67.9978L112 65.9978L114 65.9978L114 63.9979L116 63.9979L116 65.9978ZM116 49.9984L118 49.9984L118 51.9983L116 51.9983L116 53.9982L114 53.9982L114 51.9983L112 51.9983L112 49.9984L114 49.9984L114 47.9984L116 47.9984L116 49.9984ZM116 33.9989L118 33.9989L118 35.9988L116 35.9988L116 37.9988L114 37.9988L114 35.9988L112 35.9988L112 33.9989L114 33.9989L114 31.999L116 31.999L116 33.9989ZM116 17.9994L118 17.9994L118 19.9994L116 19.9994L116 21.9993L114 21.9993L114 19.9994L112 19.9994L112 17.9994L114 17.9994L114 15.9995L116 15.9995L116 17.9994ZM116 1.99996L118 1.99996L118 3.99989L116 3.99989L116 5.99982L114 5.99982L114 3.99989L112 3.99989L112 1.99995L114 1.99996L114 2.13145e-05L116 2.14019e-05L116 1.99996ZM132 145.995L134 145.995L134 147.995L132 147.995L132 149.995L130 149.995L130 147.995L128 147.995L128 145.995L130 145.995L130 143.995L132 143.995L132 145.995ZM132 129.996L134 129.996L134 131.996L132 131.996L132 133.996L130 133.996L130 131.996L128 131.996L128 129.996L130 129.996L130 127.996L132 127.996L132 129.996ZM132 113.996L134 113.996L134 115.996L132 115.996L132 117.996L130 117.996L130 115.996L128 115.996L128 113.996L130 113.996L130 111.996L132 111.996L132 113.996ZM132 97.9968L134 97.9968L134 99.9967L132 99.9967L132 101.997L130 101.997L130 99.9967L128 99.9967L128 97.9968L130 97.9968L130 95.9968L132 95.9968L132 97.9968ZM132 81.9973L134 81.9973L134 83.9972L132 83.9972L132 85.9972L130 85.9972L130 83.9972L128 83.9972L128 81.9973L130 81.9973L130 79.9974L132 79.9974L132 81.9973ZM132 65.9978L134 65.9978L134 67.9978L132 67.9978L132 69.9977L130 69.9977L130 67.9978L128 67.9978L128 65.9978L130 65.9978L130 63.9979L132 63.9979L132 65.9978ZM132 49.9984L134 49.9984L134 51.9983L132 51.9983L132 53.9982L130 53.9982L130 51.9983L128 51.9983L128 49.9984L130 49.9984L130 47.9984L132 47.9984L132 49.9984ZM132 33.9989L134 33.9989L134 35.9988L132 35.9988L132 37.9988L130 37.9988L130 35.9988L128 35.9988L128 33.9989L130 33.9989L130 31.999L132 31.999L132 33.9989ZM132 17.9994L134 17.9994L134 19.9994L132 19.9994L132 21.9993L130 21.9993L130 19.9994L128 19.9994L128 17.9994L130 17.9994L130 15.9995L132 15.9995L132 17.9994ZM132 1.99996L134 1.99996L134 3.99989L132 3.99989L132 5.99982L130 5.99982L130 3.99989L128 3.99989L128 1.99996L130 1.99996L130 2.20139e-05L132 2.21013e-05L132 1.99996ZM148 145.995L150 145.995L150 147.995L148 147.995L148 149.995L146 149.995L146 147.995L144 147.995L144 145.995L146 145.995L146 143.995L148 143.995L148 145.995ZM148 129.996L150 129.996L150 131.996L148 131.996L148 133.996L146 133.996L146 131.996L144 131.996L144 129.996L146 129.996L146 127.996L148 127.996L148 129.996ZM148 113.996L150 113.996L150 115.996L148 115.996L148 117.996L146 117.996L146 115.996L144 115.996L144 113.996L146 113.996L146 111.996L148 111.996L148 113.996ZM148 97.9968L150 97.9968L150 99.9967L148 99.9967L148 101.997L146 101.997L146 99.9967L144 99.9967L144 97.9968L146 97.9968L146 95.9968L148 95.9968L148 97.9968ZM148 81.9973L150 81.9973L150 83.9972L148 83.9972L148 85.9972L146 85.9972L146 83.9972L144 83.9972L144 81.9973L146 81.9973L146 79.9974L148 79.9974L148 81.9973ZM148 65.9978L150 65.9978L150 67.9978L148 67.9978L148 69.9977L146 69.9977L146 67.9978L144 67.9978L144 65.9978L146 65.9978L146 63.9979L148 63.9979L148 65.9978ZM148 49.9984L150 49.9984L150 51.9983L148 51.9983L148 53.9982L146 53.9982L146 51.9983L144 51.9983L144 49.9984L146 49.9984L146 47.9984L148 47.9984L148 49.9984ZM148 33.9989L150 33.9989L150 35.9988L148 35.9988L148 37.9988L146 37.9988L146 35.9988L144 35.9988L144 33.9989L146 33.9989L146 31.999L148 31.999L148 33.9989ZM148 17.9994L150 17.9994L150 19.9994L148 19.9994L148 21.9993L146 21.9993L146 19.9994L144 19.9994L144 17.9994L146 17.9994L146 15.9995L148 15.9995L148 17.9994ZM148 1.99996L150 1.99996L150 3.99989L148 3.99989L148 5.99982L146 5.99982L146 3.99989L144 3.99989L144 1.99996L146 1.99996L146 2.27133e-05L148 2.28008e-05L148 1.99996Z" fill="#F1574B" fill-opacity="0.2"/>
<path fill-rule="evenodd" clip-rule="evenodd" d="M3.99999 305.99L5.99999 305.99L5.99999 307.99L3.99999 307.99L3.99999 309.99L1.99999 309.99L1.99999 307.99L-6.46893e-06 307.99L-6.38151e-06 305.99L1.99999 305.99L1.99999 303.99L3.99999 303.99L3.99999 305.99ZM3.99999 289.991L5.99999 289.991L5.99999 291.991L3.99999 291.991L3.99999 293.991L1.99999 293.991L1.99999 291.991L-5.76959e-06 291.991L-5.68217e-06 289.991L1.99999 289.991L1.99999 287.991L3.99999 287.991L3.99999 289.991ZM4 273.991L6 273.991L5.99999 275.991L3.99999 275.991L3.99999 277.991L1.99999 277.991L1.99999 275.991L-5.07024e-06 275.991L-4.98282e-06 273.991L2 273.991L2 271.991L4 271.991L4 273.991ZM4 257.992L6 257.992L6 259.992L4 259.992L4 261.992L2 261.992L2 259.992L-4.3709e-06 259.992L-4.28348e-06 257.992L2 257.992L2 255.992L4 255.992L4 257.992ZM4 241.992L6 241.992L6 243.992L4 243.992L4 245.992L2 245.992L2 243.992L-3.67155e-06 243.992L-3.58414e-06 241.992L2 241.992L2 239.992L4 239.992L4 241.992ZM4 225.993L6 225.993L6 227.993L4 227.993L4 229.993L2 229.993L2 227.993L-2.97221e-06 227.993L-2.88479e-06 225.993L2 225.993L2 223.993L4 223.993L4 225.993ZM4 209.993L6 209.993L6 211.993L4 211.993L4 213.993L2 213.993L2 211.993L-2.27287e-06 211.993L-2.18545e-06 209.993L2 209.993L2 207.993L4 207.993L4 209.993ZM4 193.994L6 193.994L6 195.994L4 195.994L4 197.994L2 197.994L2 195.994L-1.57352e-06 195.994L-1.48611e-06 193.994L2 193.994L2 191.994L4 191.994L4 193.994ZM4 177.994L6 177.994L6 179.994L4 179.994L4 181.994L2 181.994L2 179.994L-8.7418e-07 179.994L-7.86762e-07 177.994L2 177.994L2 175.994L4 175.994L4 177.994ZM4 161.995L6 161.995L6 163.995L4 163.995L4 165.995L2 165.995L2 163.995L-1.74836e-07 163.995L-8.7418e-08 161.995L2 161.995L2 159.995L4 159.995L4 161.995ZM20 305.99L22 305.99L22 307.99L20 307.99L20 309.99L18 309.99L18 307.99L16 307.99L16 305.99L18 305.99L18 303.99L20 303.99L20 305.99ZM20 289.991L22 289.991L22 291.991L20 291.991L20 293.991L18 293.991L18 291.991L16 291.991L16 289.991L18 289.991L18 287.991L20 287.991L20 289.991ZM20 273.991L22 273.991L22 275.991L20 275.991L20 277.991L18 277.991L18 275.991L16 275.991L16 273.991L18 273.991L18 271.991L20 271.991L20 273.991ZM20 257.992L22 257.992L22 259.992L20 259.992L20 261.992L18 261.992L18 259.992L16 259.992L16 257.992L18 257.992L18 255.992L20 255.992L20 257.992ZM20 241.992L22 241.992L22 243.992L20 243.992L20 245.992L18 245.992L18 243.992L16 243.992L16 241.992L18 241.992L18 239.992L20 239.992L20 241.992ZM20 225.993L22 225.993L22 227.993L20 227.993L20 229.993L18 229.993L18 227.993L16 227.993L16 225.993L18 225.993L18 223.993L20 223.993L20 225.993ZM20 209.993L22 209.993L22 211.993L20 211.993L20 213.993L18 213.993L18 211.993L16 211.993L16 209.993L18 209.993L18 207.993L20 207.993L20 209.993ZM20 193.994L22 193.994L22 195.994L20 195.994L20 197.994L18 197.994L18 195.994L16 195.994L16 193.994L18 193.994L18 191.994L20 191.994L20 193.994ZM20 177.994L22 177.994L22 179.994L20 179.994L20 181.994L18 181.994L18 179.994L16 179.994L16 177.994L18 177.994L18 175.994L20 175.994L20 177.994ZM20 161.995L22 161.995L22 163.995L20 163.995L20 165.995L18 165.995L18 163.995L16 163.995L16 161.995L18 161.995L18 159.995L20 159.995L20 161.995ZM36 305.99L38 305.99L38 307.99L36 307.99L36 309.99L34 309.99L34 307.99L32 307.99L32 305.99L34 305.99L34 303.99L36 303.99L36 305.99ZM36 289.991L38 289.991L38 291.991L36 291.991L36 293.991L34 293.991L34 291.991L32 291.991L32 289.991L34 289.991L34 287.991L36 287.991L36 289.991ZM36 273.991L38 273.991L38 275.991L36 275.991L36 277.991L34 277.991L34 275.991L32 275.991L32 273.991L34 273.991L34 271.991L36 271.991L36 273.991ZM36 257.992L38 257.992L38 259.992L36 259.992L36 261.992L34 261.992L34 259.992L32 259.992L32 257.992L34 257.992L34 255.992L36 255.992L36 257.992ZM36 241.992L38 241.992L38 243.992L36 243.992L36 245.992L34 245.992L34 243.992L32 243.992L32 241.992L34 241.992L34 239.992L36 239.992L36 241.992ZM36 225.993L38 225.993L38 227.993L36 227.993L36 229.993L34 229.993L34 227.993L32 227.993L32 225.993L34 225.993L34 223.993L36 223.993L36 225.993ZM36 209.993L38 209.993L38 211.993L36 211.993L36 213.993L34 213.993L34 211.993L32 211.993L32 209.993L34 209.993L34 207.993L36 207.993L36 209.993ZM36 193.994L38 193.994L38 195.994L36 195.994L36 197.994L34 197.994L34 195.994L32 195.994L32 193.994L34 193.994L34 191.994L36 191.994L36 193.994ZM36 177.994L38 177.994L38 179.994L36 179.994L36 181.994L34 181.994L34 179.994L32 179.994L32 177.994L34 177.994L34 175.994L36 175.994L36 177.994ZM36 161.995L38 161.995L38 163.995L36 163.995L36 165.995L34 165.995L34 163.995L32 163.995L32 161.995L34 161.995L34 159.995L36 159.995L36 161.995ZM52 305.99L54 305.99L54 307.99L52 307.99L52 309.99L50 309.99L50 307.99L48 307.99L48 305.99L50 305.99L50 303.99L52 303.99L52 305.99ZM52 289.991L54 289.991L54 291.991L52 291.991L52 293.991L50 293.991L50 291.991L48 291.991L48 289.991L50 289.991L50 287.991L52 287.991L52 289.991ZM52 273.991L54 273.991L54 275.991L52 275.991L52 277.991L50 277.991L50 275.991L48 275.991L48 273.991L50 273.991L50 271.991L52 271.991L52 273.991ZM52 257.992L54 257.992L54 259.992L52 259.992L52 261.992L50 261.992L50 259.992L48 259.992L48 257.992L50 257.992L50 255.992L52 255.992L52 257.992ZM52 241.992L54 241.992L54 243.992L52 243.992L52 245.992L50 245.992L50 243.992L48 243.992L48 241.992L50 241.992L50 239.992L52 239.992L52 241.992ZM52 225.993L54 225.993L54 227.993L52 227.993L52 229.993L50 229.993L50 227.993L48 227.993L48 225.993L50 225.993L50 223.993L52 223.993L52 225.993ZM52 209.993L54 209.993L54 211.993L52 211.993L52 213.993L50 213.993L50 211.993L48 211.993L48 209.993L50 209.993L50 207.993L52 207.993L52 209.993ZM52 193.994L54 193.994L54 195.994L52 195.994L52 197.994L50 197.994L50 195.994L48 195.994L48 193.994L50 193.994L50 191.994L52 191.994L52 193.994ZM52 177.994L54 177.994L54 179.994L52 179.994L52 181.994L50 181.994L50 179.994L48 179.994L48 177.994L50 177.994L50 175.994L52 175.994L52 177.994ZM52 161.995L54 161.995L54 163.995L52 163.995L52 165.995L50 165.995L50 163.995L48 163.995L48 161.995L50 161.995L50 159.995L52 159.995L52 161.995ZM68 305.99L70 305.99L70 307.99L68 307.99L68 309.99L66 309.99L66 307.99L64 307.99L64 305.99L66 305.99L66 303.99L68 303.99L68 305.99ZM68 289.991L70 289.991L70 291.991L68 291.991L68 293.991L66 293.991L66 291.991L64 291.991L64 289.991L66 289.991L66 287.991L68 287.991L68 289.991ZM68 273.991L70 273.991L70 275.991L68 275.991L68 277.991L66 277.991L66 275.991L64 275.991L64 273.991L66 273.991L66 271.991L68 271.991L68 273.991ZM68 257.992L70 257.992L70 259.992L68 259.992L68 261.992L66 261.992L66 259.992L64 259.992L64 257.992L66 257.992L66 255.992L68 255.992L68 257.992ZM68 241.992L70 241.992L70 243.992L68 243.992L68 245.992L66 245.992L66 243.992L64 243.992L64 241.992L66 241.992L66 239.992L68 239.992L68 241.992ZM68 225.993L70 225.993L70 227.993L68 227.993L68 229.993L66 229.993L66 227.993L64 227.993L64 225.993L66 225.993L66 223.993L68 223.993L68 225.993ZM68 209.993L70 209.993L70 211.993L68 211.993L68 213.993L66 213.993L66 211.993L64 211.993L64 209.993L66 209.993L66 207.993L68 207.993L68 209.993ZM68 193.994L70 193.994L70 195.994L68 195.994L68 197.994L66 197.994L66 195.994L64 195.994L64 193.994L66 193.994L66 191.994L68 191.994L68 193.994ZM68 177.994L70 177.994L70 179.994L68 179.994L68 181.994L66 181.994L66 179.994L64 179.994L64 177.994L66 177.994L66 175.994L68 175.994L68 177.994ZM68 161.995L70 161.995L70 163.995L68 163.995L68 165.995L66 165.995L66 163.995L64 163.995L64 161.995L66 161.995L66 159.995L68 159.995L68 161.995ZM84 305.99L86 305.99L86 307.99L84 307.99L84 309.99L82 309.99L82 307.99L80 307.99L80 305.99L82 305.99L82 303.99L84 303.99L84 305.99ZM84 289.991L86 289.991L86 291.991L84 291.991L84 293.991L82 293.991L82 291.991L80 291.991L80 289.991L82 289.991L82 287.991L84 287.991L84 289.991ZM84 273.991L86 273.991L86 275.991L84 275.991L84 277.991L82 277.991L82 275.991L80 275.991L80 273.991L82 273.991L82 271.991L84 271.991L84 273.991ZM84 257.992L86 257.992L86 259.992L84 259.992L84 261.992L82 261.992L82 259.992L80 259.992L80 257.992L82 257.992L82 255.992L84 255.992L84 257.992ZM84 241.992L86 241.992L86 243.992L84 243.992L84 245.992L82 245.992L82 243.992L80 243.992L80 241.992L82 241.992L82 239.992L84 239.992L84 241.992ZM84 225.993L86 225.993L86 227.993L84 227.993L84 229.993L82 229.993L82 227.993L80 227.993L80 225.993L82 225.993L82 223.993L84 223.993L84 225.993ZM84 209.993L86 209.993L86 211.993L84 211.993L84 213.993L82 213.993L82 211.993L80 211.993L80 209.993L82 209.993L82 207.993L84 207.993L84 209.993ZM84 193.994L86 193.994L86 195.994L84 195.994L84 197.994L82 197.994L82 195.994L80 195.994L80 193.994L82 193.994L82 191.994L84 191.994L84 193.994ZM84 177.994L86 177.994L86 179.994L84 179.994L84 181.994L82 181.994L82 179.994L80 179.994L80 177.994L82 177.994L82 175.994L84 175.994L84 177.994ZM84 161.995L86 161.995L86 163.995L84 163.995L84 165.995L82 165.995L82 163.995L80 163.995L80 161.995L82 161.995L82 159.995L84 159.995L84 161.995ZM100 305.99L102 305.99L102 307.99L100 307.99L100 309.99L98 309.99L98 307.99L96 307.99L96 305.99L98 305.99L98 303.99L100 303.99L100 305.99ZM100 289.991L102 289.991L102 291.991L100 291.991L100 293.991L98 293.991L98 291.991L96 291.991L96 289.991L98 289.991L98 287.991L100 287.991L100 289.991ZM100 273.991L102 273.991L102 275.991L100 275.991L100 277.991L98 277.991L98 275.991L96 275.991L96 273.991L98 273.991L98 271.991L100 271.991L100 273.991ZM100 257.992L102 257.992L102 259.992L100 259.992L100 261.992L98 261.992L98 259.992L96 259.992L96 257.992L98 257.992L98 255.992L100 255.992L100 257.992ZM100 241.992L102 241.992L102 243.992L100 243.992L100 245.992L98 245.992L98 243.992L96 243.992L96 241.992L98 241.992L98 239.992L100 239.992L100 241.992ZM100 225.993L102 225.993L102 227.993L100 227.993L100 229.993L98 229.993L98 227.993L96 227.993L96 225.993L98 225.993L98 223.993L100 223.993L100 225.993ZM100 209.993L102 209.993L102 211.993L100 211.993L100 213.993L98 213.993L98 211.993L96 211.993L96 209.993L98 209.993L98 207.993L100 207.993L100 209.993ZM100 193.994L102 193.994L102 195.994L100 195.994L100 197.994L98 197.994L98 195.994L96 195.994L96 193.994L98 193.994L98 191.994L100 191.994L100 193.994ZM100 177.994L102 177.994L102 179.994L100 179.994L100 181.994L98 181.994L98 179.994L96 179.994L96 177.994L98 177.994L98 175.994L100 175.994L100 177.994ZM100 161.995L102 161.995L102 163.995L100 163.995L100 165.995L98 165.995L98 163.995L96 163.995L96 161.995L98 161.995L98 159.995L100 159.995L100 161.995ZM116 305.99L118 305.99L118 307.99L116 307.99L116 309.99L114 309.99L114 307.99L112 307.99L112 305.99L114 305.99L114 303.99L116 303.99L116 305.99ZM116 289.991L118 289.991L118 291.991L116 291.991L116 293.991L114 293.991L114 291.991L112 291.991L112 289.991L114 289.991L114 287.991L116 287.991L116 289.991ZM116 273.991L118 273.991L118 275.991L116 275.991L116 277.991L114 277.991L114 275.991L112 275.991L112 273.991L114 273.991L114 271.991L116 271.991L116 273.991ZM116 257.992L118 257.992L118 259.992L116 259.992L116 261.992L114 261.992L114 259.992L112 259.992L112 257.992L114 257.992L114 255.992L116 255.992L116 257.992ZM116 241.992L118 241.992L118 243.992L116 243.992L116 245.992L114 245.992L114 243.992L112 243.992L112 241.992L114 241.992L114 239.992L116 239.992L116 241.992ZM116 225.993L118 225.993L118 227.993L116 227.993L116 229.993L114 229.993L114 227.993L112 227.993L112 225.993L114 225.993L114 223.993L116 223.993L116 225.993ZM116 209.993L118 209.993L118 211.993L116 211.993L116 213.993L114 213.993L114 211.993L112 211.993L112 209.993L114 209.993L114 207.993L116 207.993L116 209.993ZM116 193.994L118 193.994L118 195.994L116 195.994L116 197.994L114 197.994L114 195.994L112 195.994L112 193.994L114 193.994L114 191.994L116 191.994L116 193.994ZM116 177.994L118 177.994L118 179.994L116 179.994L116 181.994L114 181.994L114 179.994L112 179.994L112 177.994L114 177.994L114 175.994L116 175.994L116 177.994ZM116 161.995L118 161.995L118 163.995L116 163.995L116 165.995L114 165.995L114 163.995L112 163.995L112 161.995L114 161.995L114 159.995L116 159.995L116 161.995ZM132 305.99L134 305.99L134 307.99L132 307.99L132 309.99L130 309.99L130 307.99L128 307.99L128 305.99L130 305.99L130 303.99L132 303.99L132 305.99ZM132 289.991L134 289.991L134 291.991L132 291.991L132 293.991L130 293.991L130 291.991L128 291.991L128 289.991L130 289.991L130 287.991L132 287.991L132 289.991ZM132 273.991L134 273.991L134 275.991L132 275.991L132 277.991L130 277.991L130 275.991L128 275.991L128 273.991L130 273.991L130 271.991L132 271.991L132 273.991ZM132 257.992L134 257.992L134 259.992L132 259.992L132 261.992L130 261.992L130 259.992L128 259.992L128 257.992L130 257.992L130 255.992L132 255.992L132 257.992ZM132 241.992L134 241.992L134 243.992L132 243.992L132 245.992L130 245.992L130 243.992L128 243.992L128 241.992L130 241.992L130 239.992L132 239.992L132 241.992ZM132 225.993L134 225.993L134 227.993L132 227.993L132 229.993L130 229.993L130 227.993L128 227.993L128 225.993L130 225.993L130 223.993L132 223.993L132 225.993ZM132 209.993L134 209.993L134 211.993L132 211.993L132 213.993L130 213.993L130 211.993L128 211.993L128 209.993L130 209.993L130 207.993L132 207.993L132 209.993ZM132 193.994L134 193.994L134 195.994L132 195.994L132 197.994L130 197.994L130 195.994L128 195.994L128 193.994L130 193.994L130 191.994L132 191.994L132 193.994ZM132 177.994L134 177.994L134 179.994L132 179.994L132 181.994L130 181.994L130 179.994L128 179.994L128 177.994L130 177.994L130 175.994L132 175.994L132 177.994ZM132 161.995L134 161.995L134 163.995L132 163.995L132 165.995L130 165.995L130 163.995L128 163.995L128 161.995L130 161.995L130 159.995L132 159.995L132 161.995ZM148 305.99L150 305.99L150 307.99L148 307.99L148 309.99L146 309.99L146 307.99L144 307.99L144 305.99L146 305.99L146 303.99L148 303.99L148 305.99ZM148 289.991L150 289.991L150 291.991L148 291.991L148 293.991L146 293.991L146 291.991L144 291.991L144 289.991L146 289.991L146 287.991L148 287.991L148 289.991ZM148 273.991L150 273.991L150 275.991L148 275.991L148 277.991L146 277.991L146 275.991L144 275.991L144 273.991L146 273.991L146 271.991L148 271.991L148 273.991ZM148 257.992L150 257.992L150 259.992L148 259.992L148 261.992L146 261.992L146 259.992L144 259.992L144 257.992L146 257.992L146 255.992L148 255.992L148 257.992ZM148 241.992L150 241.992L150 243.992L148 243.992L148 245.992L146 245.992L146 243.992L144 243.992L144 241.992L146 241.992L146 239.992L148 239.992L148 241.992ZM148 225.993L150 225.993L150 227.993L148 227.993L148 229.993L146 229.993L146 227.993L144 227.993L144 225.993L146 225.993L146 223.993L148 223.993L148 225.993ZM148 209.993L150 209.993L150 211.993L148 211.993L148 213.993L146 213.993L146 211.993L144 211.993L144 209.993L146 209.993L146 207.993L148 207.993L148 209.993ZM148 193.994L150 193.994L150 195.994L148 195.994L148 197.994L146 197.994L146 195.994L144 195.994L144 193.994L146 193.994L146 191.994L148 191.994L148 193.994ZM148 177.994L150 177.994L150 179.994L148 179.994L148 181.994L146 181.994L146 179.994L144 179.994L144 177.994L146 177.994L146 175.994L148 175.994L148 177.994ZM148 161.995L150 161.995L150 163.995L148 163.995L148 165.995L146 165.995L146 163.995L144 163.995L144 161.995L146 161.995L146 159.995L148 159.995L148 161.995Z" fill="#F1574B" fill-opacity="0.2"/>
</svg>
