<svg width="150" height="182" viewBox="0 0 150 182" fill="none" xmlns="http://www.w3.org/2000/svg">
<g opacity="0.2">
<path fill-rule="evenodd" clip-rule="evenodd" d="M3.99997 36L3.99997 38L2.00003 38L2.00003 36L0.000104317 36L0.000104492 34L2.00003 34L2.00003 32L3.99997 32L3.99997 34L5.99991 34L5.99991 36L3.99997 36ZM19.9994 36L19.9994 38L17.9995 38L17.9995 36L15.9996 36L15.9996 34L17.9995 34L17.9995 32L19.9994 32L19.9994 34L21.9994 34L21.9994 36L19.9994 36ZM35.9989 36L35.9989 38L33.999 38L33.999 36L31.999 36L31.999 34L33.999 34L33.999 32L35.9989 32L35.9989 34L37.9988 34L37.9988 36L35.9989 36ZM51.9984 36L51.9984 38L49.9984 38L49.9984 36L47.9985 36L47.9985 34L49.9984 34L49.9984 32L51.9984 32L51.9984 34L53.9983 34L53.9983 36L51.9984 36ZM67.9978 36L67.9978 38L65.9979 38L65.9979 36L63.998 36L63.998 34L65.9979 34L65.9979 32L67.9978 32L67.9978 34L69.9978 34L69.9978 36L67.9978 36ZM83.9973 36L83.9973 38L81.9974 38L81.9974 36L79.9974 36L79.9974 34L81.9974 34L81.9974 32L83.9973 32L83.9973 34L85.9973 34L85.9973 36L83.9973 36ZM99.9968 36L99.9968 38L97.9969 38L97.9969 36L95.9969 36L95.9969 34L97.9969 34L97.9969 32L99.9968 32L99.9968 34L101.997 34L101.997 36L99.9968 36ZM115.996 36L115.996 38L113.996 38L113.996 36L111.996 36L111.996 34L113.996 34L113.996 32L115.996 32L115.996 34L117.996 34L117.996 36L115.996 36ZM131.996 36L131.996 38L129.996 38L129.996 36L127.996 36L127.996 34L129.996 34L129.996 32L131.996 32L131.996 34L133.996 34L133.996 36L131.996 36ZM147.995 36L147.995 38L145.995 38L145.995 36L143.995 36L143.995 34L145.995 34L145.995 32L147.995 32L147.995 34L149.995 34L149.995 36L147.995 36ZM3.99997 52L3.99997 54L2.00003 54L2.00003 52L0.000102918 52L0.000103093 50L2.00003 50L2.00003 48L3.99997 48L3.99997 50L5.9999 50L5.9999 52L3.99997 52ZM19.9994 52L19.9994 54L17.9995 54L17.9995 52L15.9996 52L15.9996 50L17.9995 50L17.9995 48L19.9994 48L19.9994 50L21.9994 50L21.9994 52L19.9994 52ZM35.9989 52L35.9989 54L33.999 54L33.999 52L31.999 52L31.999 50L33.999 50L33.999 48L35.9989 48L35.9989 50L37.9988 50L37.9988 52L35.9989 52ZM51.9984 52L51.9984 54L49.9984 54L49.9984 52L47.9985 52L47.9985 50L49.9984 50L49.9984 48L51.9984 48L51.9984 50L53.9983 50L53.9983 52L51.9984 52ZM67.9978 52L67.9978 54L65.9979 54L65.9979 52L63.998 52L63.998 50L65.9979 50L65.9979 48L67.9978 48L67.9978 50L69.9978 50L69.9978 52L67.9978 52ZM83.9973 52L83.9973 54L81.9974 54L81.9974 52L79.9974 52L79.9974 50L81.9974 50L81.9974 48L83.9973 48L83.9973 50L85.9972 50L85.9972 52L83.9973 52ZM99.9968 52L99.9968 54L97.9969 54L97.9969 52L95.9969 52L95.9969 50L97.9969 50L97.9969 48L99.9968 48L99.9968 50L101.997 50L101.997 52L99.9968 52ZM115.996 52L115.996 54L113.996 54L113.996 52L111.996 52L111.996 50L113.996 50L113.996 48L115.996 48L115.996 50L117.996 50L117.996 52L115.996 52ZM131.996 52L131.996 54L129.996 54L129.996 52L127.996 52L127.996 50L129.996 50L129.996 48L131.996 48L131.996 50L133.996 50L133.996 52L131.996 52ZM147.995 52L147.995 54L145.995 54L145.995 52L143.995 52L143.995 50L145.995 50L145.995 48L147.995 48L147.995 50L149.995 50L149.995 52L147.995 52ZM3.99996 68L3.99996 70L2.00003 70L2.00003 68L0.000101519 68L0.000101694 66L2.00003 66L2.00003 64L3.99996 64L3.99996 66L5.9999 66L5.9999 68L3.99996 68ZM19.9994 68L19.9994 70L17.9995 70L17.9995 68L15.9996 68L15.9996 66L17.9995 66L17.9995 64L19.9994 64L19.9994 66L21.9994 66L21.9994 68L19.9994 68ZM35.9989 68L35.9989 70L33.999 70L33.999 68L31.999 68L31.999 66L33.999 66L33.999 64L35.9989 64L35.9989 66L37.9988 66L37.9988 68L35.9989 68ZM51.9984 68L51.9984 70L49.9984 70L49.9984 68L47.9985 68L47.9985 66L49.9984 66L49.9984 64L51.9984 64L51.9984 66L53.9983 66L53.9983 68L51.9984 68ZM67.9978 68L67.9978 70L65.9979 70L65.9979 68L63.998 68L63.998 66L65.9979 66L65.9979 64L67.9978 64L67.9978 66L69.9978 66L69.9978 68L67.9978 68ZM83.9973 68L83.9973 70L81.9974 70L81.9974 68L79.9974 68L79.9974 66L81.9974 66L81.9974 64L83.9973 64L83.9973 66L85.9972 66L85.9972 68L83.9973 68ZM99.9968 68L99.9968 70L97.9969 70L97.9969 68L95.9969 68L95.9969 66L97.9969 66L97.9969 64L99.9968 64L99.9968 66L101.997 66L101.997 68L99.9968 68ZM115.996 68L115.996 70L113.996 70L113.996 68L111.996 68L111.996 66L113.996 66L113.996 64L115.996 64L115.996 66L117.996 66L117.996 68L115.996 68ZM131.996 68L131.996 70L129.996 70L129.996 68L127.996 68L127.996 66L129.996 66L129.996 64L131.996 64L131.996 66L133.996 66L133.996 68L131.996 68ZM147.995 68L147.995 70L145.995 70L145.995 68L143.995 68L143.995 66L145.995 66L145.995 64L147.995 64L147.995 66L149.995 66L149.995 68L147.995 68ZM3.99996 84L3.99996 86L2.00002 86L2.00002 84L0.00010012 84L0.000100295 82L2.00002 82L2.00002 80L3.99996 80L3.99996 82L5.9999 82L5.9999 84L3.99996 84ZM19.9994 84L19.9994 86L17.9995 86L17.9995 84L15.9996 84L15.9996 82L17.9995 82L17.9995 80L19.9994 80L19.9994 82L21.9994 82L21.9994 84L19.9994 84ZM35.9989 84L35.9989 86L33.999 86L33.999 84L31.999 84L31.999 82L33.999 82L33.999 80L35.9989 80L35.9989 82L37.9988 82L37.9988 84L35.9989 84ZM51.9984 84L51.9984 86L49.9984 86L49.9984 84L47.9985 84L47.9985 82L49.9984 82L49.9984 80L51.9984 80L51.9984 82L53.9983 82L53.9983 84L51.9984 84ZM67.9978 84L67.9978 86L65.9979 86L65.9979 84L63.998 84L63.998 82L65.9979 82L65.9979 80L67.9978 80L67.9978 82L69.9978 82L69.9978 84L67.9978 84ZM83.9973 84L83.9973 86L81.9974 86L81.9974 84L79.9974 84L79.9974 82L81.9974 82L81.9974 80L83.9973 80L83.9973 82L85.9972 82L85.9972 84L83.9973 84ZM99.9968 84L99.9968 86L97.9968 86L97.9968 84L95.9969 84L95.9969 82L97.9969 82L97.9969 80L99.9968 80L99.9968 82L101.997 82L101.997 84L99.9968 84ZM115.996 84L115.996 86L113.996 86L113.996 84L111.996 84L111.996 82L113.996 82L113.996 80L115.996 80L115.996 82L117.996 82L117.996 84L115.996 84ZM131.996 84L131.996 86L129.996 86L129.996 84L127.996 84L127.996 82L129.996 82L129.996 80L131.996 80L131.996 82L133.996 82L133.996 84L131.996 84ZM147.995 84L147.995 86L145.995 86L145.995 84L143.995 84L143.995 82L145.995 82L145.995 80L147.995 80L147.995 82L149.995 82L149.995 84L147.995 84ZM3.99996 100L3.99996 102L2.00002 102L2.00002 100L9.87216e-05 100L9.88964e-05 98L2.00002 98L2.00002 96L3.99996 96L3.99996 98L5.9999 98L5.9999 100L3.99996 100ZM19.9994 100L19.9994 102L17.9995 102L17.9995 100L15.9996 100L15.9996 98L17.9995 98L17.9995 96L19.9994 96L19.9994 98L21.9994 98L21.9994 100L19.9994 100ZM35.9989 100L35.9989 102L33.999 102L33.999 100L31.999 100L31.999 98L33.999 98L33.999 96L35.9989 96L35.9989 98L37.9988 98L37.9988 100L35.9989 100ZM51.9984 100L51.9984 102L49.9984 102L49.9984 100L47.9985 100L47.9985 98L49.9984 98L49.9984 96L51.9984 96L51.9984 98L53.9983 98L53.9983 100L51.9984 100ZM67.9978 100L67.9978 102L65.9979 102L65.9979 100L63.998 100L63.998 98L65.9979 98L65.9979 96L67.9978 96L67.9978 98L69.9978 98L69.9978 100L67.9978 100ZM83.9973 100L83.9973 102L81.9974 102L81.9974 100L79.9974 100L79.9974 98L81.9974 98L81.9974 96L83.9973 96L83.9973 98L85.9972 98L85.9972 100L83.9973 100ZM99.9968 100L99.9968 102L97.9968 102L97.9968 100L95.9969 100L95.9969 98L97.9968 98L97.9968 96L99.9968 96L99.9968 98L101.997 98L101.997 100L99.9968 100ZM115.996 100L115.996 102L113.996 102L113.996 100L111.996 100L111.996 98L113.996 98L113.996 96L115.996 96L115.996 98L117.996 98L117.996 100L115.996 100ZM131.996 100L131.996 102L129.996 102L129.996 100L127.996 100L127.996 98L129.996 98L129.996 96L131.996 96L131.996 98L133.996 98L133.996 100L131.996 100ZM147.995 100L147.995 102L145.995 102L145.995 100L143.995 100L143.995 98L145.995 98L145.995 96L147.995 96L147.995 98L149.995 98L149.995 100L147.995 100ZM3.99996 116L3.99996 118L2.00002 118L2.00002 116L9.73228e-05 116L9.74976e-05 114L2.00002 114L2.00002 112L3.99996 112L3.99996 114L5.9999 114L5.9999 116L3.99996 116ZM19.9994 116L19.9994 118L17.9995 118L17.9995 116L15.9996 116L15.9996 114L17.9995 114L17.9995 112L19.9994 112L19.9994 114L21.9994 114L21.9994 116L19.9994 116ZM35.9989 116L35.9989 118L33.999 118L33.999 116L31.999 116L31.999 114L33.999 114L33.999 112L35.9989 112L35.9989 114L37.9988 114L37.9988 116L35.9989 116ZM51.9984 116L51.9984 118L49.9984 118L49.9984 116L47.9985 116L47.9985 114L49.9984 114L49.9984 112L51.9984 112L51.9984 114L53.9983 114L53.9983 116L51.9984 116ZM67.9978 116L67.9978 118L65.9979 118L65.9979 116L63.998 116L63.998 114L65.9979 114L65.9979 112L67.9978 112L67.9978 114L69.9978 114L69.9978 116L67.9978 116ZM83.9973 116L83.9973 118L81.9974 118L81.9974 116L79.9974 116L79.9974 114L81.9974 114L81.9974 112L83.9973 112L83.9973 114L85.9972 114L85.9972 116L83.9973 116ZM99.9968 116L99.9968 118L97.9968 118L97.9968 116L95.9969 116L95.9969 114L97.9968 114L97.9968 112L99.9968 112L99.9968 114L101.997 114L101.997 116L99.9968 116ZM115.996 116L115.996 118L113.996 118L113.996 116L111.996 116L111.996 114L113.996 114L113.996 112L115.996 112L115.996 114L117.996 114L117.996 116L115.996 116ZM131.996 116L131.996 118L129.996 118L129.996 116L127.996 116L127.996 114L129.996 114L129.996 112L131.996 112L131.996 114L133.996 114L133.996 116L131.996 116ZM147.995 116L147.995 118L145.995 118L145.995 116L143.995 116L143.995 114L145.995 114L145.995 112L147.995 112L147.995 114L149.995 114L149.995 116L147.995 116ZM3.99996 132L3.99996 134L2.00002 134L2.00002 132L9.5924e-05 132L9.60988e-05 130L2.00002 130L2.00002 128L3.99996 128L3.99996 130L5.9999 130L5.9999 132L3.99996 132ZM19.9994 132L19.9994 134L17.9995 134L17.9995 132L15.9996 132L15.9996 130L17.9995 130L17.9995 128L19.9994 128L19.9994 130L21.9994 130L21.9994 132L19.9994 132ZM35.9989 132L35.9989 134L33.999 134L33.999 132L31.999 132L31.999 130L33.999 130L33.999 128L35.9989 128L35.9989 130L37.9988 130L37.9988 132L35.9989 132ZM51.9984 132L51.9984 134L49.9984 134L49.9984 132L47.9985 132L47.9985 130L49.9984 130L49.9984 128L51.9984 128L51.9984 130L53.9983 130L53.9983 132L51.9984 132ZM67.9978 132L67.9978 134L65.9979 134L65.9979 132L63.998 132L63.998 130L65.9979 130L65.9979 128L67.9978 128L67.9978 130L69.9978 130L69.9978 132L67.9978 132ZM83.9973 132L83.9973 134L81.9974 134L81.9974 132L79.9974 132L79.9974 130L81.9974 130L81.9974 128L83.9973 128L83.9973 130L85.9972 130L85.9972 132L83.9973 132ZM99.9968 132L99.9968 134L97.9968 134L97.9968 132L95.9969 132L95.9969 130L97.9968 130L97.9968 128L99.9968 128L99.9968 130L101.997 130L101.997 132L99.9968 132ZM115.996 132L115.996 134L113.996 134L113.996 132L111.996 132L111.996 130L113.996 130L113.996 128L115.996 128L115.996 130L117.996 130L117.996 132L115.996 132ZM131.996 132L131.996 134L129.996 134L129.996 132L127.996 132L127.996 130L129.996 130L129.996 128L131.996 128L131.996 130L133.996 130L133.996 132L131.996 132ZM147.995 132L147.995 134L145.995 134L145.995 132L143.995 132L143.995 130L145.995 130L145.995 128L147.995 128L147.995 130L149.995 130L149.995 132L147.995 132ZM3.99996 148L3.99996 150L2.00002 150L2.00002 148L9.45252e-05 148L9.47e-05 146L2.00002 146L2.00002 144L3.99996 144L3.99996 146L5.9999 146L5.9999 148L3.99996 148ZM19.9994 148L19.9994 150L17.9995 150L17.9995 148L15.9996 148L15.9996 146L17.9995 146L17.9995 144L19.9994 144L19.9994 146L21.9994 146L21.9994 148L19.9994 148ZM35.9989 148L35.9989 150L33.999 150L33.999 148L31.999 148L31.999 146L33.999 146L33.999 144L35.9989 144L35.9989 146L37.9988 146L37.9988 148L35.9989 148ZM51.9984 148L51.9984 150L49.9984 150L49.9984 148L47.9985 148L47.9985 146L49.9984 146L49.9984 144L51.9984 144L51.9984 146L53.9983 146L53.9983 148L51.9984 148ZM67.9978 148L67.9978 150L65.9979 150L65.9979 148L63.998 148L63.998 146L65.9979 146L65.9979 144L67.9978 144L67.9978 146L69.9978 146L69.9978 148L67.9978 148ZM83.9973 148L83.9973 150L81.9974 150L81.9974 148L79.9974 148L79.9974 146L81.9974 146L81.9974 144L83.9973 144L83.9973 146L85.9972 146L85.9972 148L83.9973 148ZM99.9968 148L99.9968 150L97.9968 150L97.9968 148L95.9969 148L95.9969 146L97.9968 146L97.9968 144L99.9968 144L99.9968 146L101.997 146L101.997 148L99.9968 148ZM115.996 148L115.996 150L113.996 150L113.996 148L111.996 148L111.996 146L113.996 146L113.996 144L115.996 144L115.996 146L117.996 146L117.996 148L115.996 148ZM131.996 148L131.996 150L129.996 150L129.996 148L127.996 148L127.996 146L129.996 146L129.996 144L131.996 144L131.996 146L133.996 146L133.996 148L131.996 148ZM147.995 148L147.995 150L145.995 150L145.995 148L143.995 148L143.995 146L145.995 146L145.995 144L147.995 144L147.995 146L149.995 146L149.995 148L147.995 148ZM3.99996 164L3.99996 166L2.00002 166L2.00002 164L9.31264e-05 164L9.33012e-05 162L2.00002 162L2.00002 160L3.99996 160L3.99996 162L5.99989 162L5.99989 164L3.99996 164ZM19.9994 164L19.9994 166L17.9995 166L17.9995 164L15.9996 164L15.9996 162L17.9995 162L17.9995 160L19.9994 160L19.9994 162L21.9994 162L21.9994 164L19.9994 164ZM35.9989 164L35.9989 166L33.999 166L33.999 164L31.999 164L31.999 162L33.999 162L33.999 160L35.9989 160L35.9989 162L37.9988 162L37.9988 164L35.9989 164ZM51.9984 164L51.9984 166L49.9984 166L49.9984 164L47.9985 164L47.9985 162L49.9984 162L49.9984 160L51.9984 160L51.9984 162L53.9983 162L53.9983 164L51.9984 164ZM67.9978 164L67.9978 166L65.9979 166L65.9979 164L63.998 164L63.998 162L65.9979 162L65.9979 160L67.9978 160L67.9978 162L69.9978 162L69.9978 164L67.9978 164ZM83.9973 164L83.9973 166L81.9974 166L81.9974 164L79.9974 164L79.9974 162L81.9974 162L81.9974 160L83.9973 160L83.9973 162L85.9972 162L85.9972 164L83.9973 164ZM99.9968 164L99.9968 166L97.9968 166L97.9968 164L95.9969 164L95.9969 162L97.9968 162L97.9968 160L99.9968 160L99.9968 162L101.997 162L101.997 164L99.9968 164ZM115.996 164L115.996 166L113.996 166L113.996 164L111.996 164L111.996 162L113.996 162L113.996 160L115.996 160L115.996 162L117.996 162L117.996 164L115.996 164ZM131.996 164L131.996 166L129.996 166L129.996 164L127.996 164L127.996 162L129.996 162L129.996 160L131.996 160L131.996 162L133.996 162L133.996 164L131.996 164ZM147.995 164L147.995 166L145.995 166L145.995 164L143.995 164L143.995 162L145.995 162L145.995 160L147.995 160L147.995 162L149.995 162L149.995 164L147.995 164ZM3.99995 180L3.99995 182L2.00002 182L2.00002 180L9.17276e-05 180L9.19024e-05 178L2.00002 178L2.00002 176L3.99995 176L3.99995 178L5.99989 178L5.99989 180L3.99995 180ZM19.9994 180L19.9994 182L17.9995 182L17.9995 180L15.9996 180L15.9996 178L17.9995 178L17.9995 176L19.9994 176L19.9994 178L21.9994 178L21.9994 180L19.9994 180ZM35.9989 180L35.9989 182L33.999 182L33.999 180L31.999 180L31.999 178L33.999 178L33.999 176L35.9989 176L35.9989 178L37.9988 178L37.9988 180L35.9989 180ZM51.9984 180L51.9984 182L49.9984 182L49.9984 180L47.9985 180L47.9985 178L49.9984 178L49.9984 176L51.9984 176L51.9984 178L53.9983 178L53.9983 180L51.9984 180ZM67.9978 180L67.9978 182L65.9979 182L65.9979 180L63.998 180L63.998 178L65.9979 178L65.9979 176L67.9978 176L67.9978 178L69.9978 178L69.9978 180L67.9978 180ZM83.9973 180L83.9973 182L81.9974 182L81.9974 180L79.9974 180L79.9974 178L81.9974 178L81.9974 176L83.9973 176L83.9973 178L85.9972 178L85.9972 180L83.9973 180ZM99.9968 180L99.9968 182L97.9968 182L97.9968 180L95.9969 180L95.9969 178L97.9968 178L97.9968 176L99.9968 176L99.9968 178L101.997 178L101.997 180L99.9968 180ZM115.996 180L115.996 182L113.996 182L113.996 180L111.996 180L111.996 178L113.996 178L113.996 176L115.996 176L115.996 178L117.996 178L117.996 180L115.996 180ZM131.996 180L131.996 182L129.996 182L129.996 180L127.996 180L127.996 178L129.996 178L129.996 176L131.996 176L131.996 178L133.996 178L133.996 180L131.996 180ZM147.995 180L147.995 182L145.995 182L145.995 180L143.995 180L143.995 178L145.995 178L145.995 176L147.995 176L147.995 178L149.995 178L149.995 180L147.995 180Z" fill="#3D4146"/>
<path fill-rule="evenodd" clip-rule="evenodd" d="M3.99996 3.99999L3.99996 5.99999L2.00002 5.99999L2.00002 3.99999L9.31264e-05 3.99999L9.33012e-05 1.99999L2.00002 1.99999L2.00002 -1.2938e-05L3.99996 -1.27632e-05L3.99996 1.99999L5.99989 1.99999L5.99989 3.99999L3.99996 3.99999ZM19.9994 3.99999L19.9994 5.99999L17.9995 5.99999L17.9995 3.99999L15.9996 3.99999L15.9996 1.99999L17.9995 1.99999L17.9995 -1.15393e-05L19.9994 -1.13645e-05L19.9994 1.99999L21.9994 1.99999L21.9994 3.99999L19.9994 3.99999ZM35.9989 3.99999L35.9989 5.99999L33.999 5.99999L33.999 3.99999L31.999 3.99999L31.999 1.99999L33.999 1.99999L33.999 -1.01406e-05L35.9989 -9.96576e-06L35.9989 1.99999L37.9988 1.99999L37.9988 3.99999L35.9989 3.99999ZM51.9984 3.99999L51.9984 5.99999L49.9984 5.99999L49.9984 3.99999L47.9985 3.99999L47.9985 1.99999L49.9984 1.99999L49.9984 -8.74189e-06L51.9984 -8.56705e-06L51.9984 1.99999L53.9983 1.99999L53.9983 3.99999L51.9984 3.99999ZM67.9978 3.99999L67.9978 5.99999L65.9979 5.99999L65.9979 3.99999L63.998 3.99999L63.998 1.99999L65.9979 1.99999L65.9979 -7.34319e-06L67.9978 -7.16835e-06L67.9978 1.99999L69.9978 1.99999L69.9978 3.99999L67.9978 3.99999ZM83.9973 3.99999L83.9973 5.99999L81.9974 5.99999L81.9974 3.99999L79.9974 3.99999L79.9974 1.99999L81.9974 1.99999L81.9974 -5.94449e-06L83.9973 -5.76965e-06L83.9973 1.99999L85.9972 1.99999L85.9972 3.99999L83.9973 3.99999ZM99.9968 4L99.9968 6L97.9968 6L97.9968 4L95.9969 4L95.9969 2L97.9968 2L97.9968 -4.54578e-06L99.9968 -4.37095e-06L99.9968 2L101.997 2L101.997 4L99.9968 4ZM115.996 4L115.996 6L113.996 6L113.996 4L111.996 4L111.996 2L113.996 2L113.996 -3.14708e-06L115.996 -2.97224e-06L115.996 2L117.996 2L117.996 4L115.996 4ZM131.996 4L131.996 6L129.996 6L129.996 4L127.996 4L127.996 2L129.996 2L129.996 -1.74838e-06L131.996 -1.57354e-06L131.996 2L133.996 2L133.996 4L131.996 4ZM147.995 4L147.995 6L145.995 6L145.995 4L143.995 4L143.995 2L145.995 2L145.995 -3.49676e-07L147.995 -1.74838e-07L147.995 2L149.995 2L149.995 4L147.995 4ZM3.99995 20L3.99995 22L2.00002 22L2.00002 20L9.17276e-05 20L9.19024e-05 18L2.00002 18L2.00002 16L3.99995 16L3.99995 18L5.99989 18L5.99989 20L3.99995 20ZM19.9994 20L19.9994 22L17.9995 22L17.9995 20L15.9996 20L15.9996 18L17.9995 18L17.9995 16L19.9994 16L19.9994 18L21.9994 18L21.9994 20L19.9994 20ZM35.9989 20L35.9989 22L33.999 22L33.999 20L31.999 20L31.999 18L33.999 18L33.999 16L35.9989 16L35.9989 18L37.9988 18L37.9988 20L35.9989 20ZM51.9984 20L51.9984 22L49.9984 22L49.9984 20L47.9985 20L47.9985 18L49.9984 18L49.9984 16L51.9984 16L51.9984 18L53.9983 18L53.9983 20L51.9984 20ZM67.9978 20L67.9978 22L65.9979 22L65.9979 20L63.998 20L63.998 18L65.9979 18L65.9979 16L67.9978 16L67.9978 18L69.9978 18L69.9978 20L67.9978 20ZM83.9973 20L83.9973 22L81.9974 22L81.9974 20L79.9974 20L79.9974 18L81.9974 18L81.9974 16L83.9973 16L83.9973 18L85.9972 18L85.9972 20L83.9973 20ZM99.9968 20L99.9968 22L97.9968 22L97.9968 20L95.9969 20L95.9969 18L97.9968 18L97.9968 16L99.9968 16L99.9968 18L101.997 18L101.997 20L99.9968 20ZM115.996 20L115.996 22L113.996 22L113.996 20L111.996 20L111.996 18L113.996 18L113.996 16L115.996 16L115.996 18L117.996 18L117.996 20L115.996 20ZM131.996 20L131.996 22L129.996 22L129.996 20L127.996 20L127.996 18L129.996 18L129.996 16L131.996 16L131.996 18L133.996 18L133.996 20L131.996 20ZM147.995 20L147.995 22L145.995 22L145.995 20L143.995 20L143.995 18L145.995 18L145.995 16L147.995 16L147.995 18L149.995 18L149.995 20L147.995 20Z" fill="#3D4146"/>
</g>
</svg>
