<svg xmlns="http://www.w3.org/2000/svg" viewBox="0 0 498.82 497.88"><defs><style>.cls-1{fill:#5c5856;}.cls-2{fill:#f1574b;}</style></defs><title>Skilled operator not</title><g id="Layer_2" data-name="Layer 2"><g id="Layer_1-2" data-name="Layer 1"><path class="cls-1" d="M36.39,300.18Q235.9,296,434.86,292.44l-2.78,3L414.54,1.88l1.79,1.65L15.92,11.17,20.4,6.34C26,103.85,31.06,201.61,36.39,300.18Zm-3.85,4.17C25.47,205.82,18.14,106.5,11.33,6.91A4.51,4.51,0,0,1,15.52,2.1l.29,0L416.28,0a1.79,1.79,0,0,1,1.79,1.65L437.73,295.1a2.83,2.83,0,0,1-2.63,3H435Q233.76,301.67,32.54,304.35Z"/><path class="cls-1" d="M61.13,408.17q210.39-4.77,421.37-8.67l-1.16,1.84L432.28,296.46l2.68,1.69-400.24,7.6L37,302.88C45.26,338,53.28,373,61.13,408.17Zm-3.48,4.48C49,376.49,40.57,340.12,32.39,303.94h0a2.35,2.35,0,0,1,1.77-2.8,1.89,1.89,0,0,1,.47-.06l400.22-8.67h0a2.85,2.85,0,0,1,2.65,1.69l46.19,106.18h0a1.31,1.31,0,0,1-.67,1.72,1.45,1.45,0,0,1-.49.11Q270.63,407.7,57.65,412.65Z"/><polygon class="cls-1" points="13.59 2.42 3.45 25.55 8.23 292.37 34.68 303.41 13.59 2.42"/><path class="cls-1" d="M13.33,3.93A121.39,121.39,0,0,0,9.7,16.18C8.75,20,7.8,23.45,6.61,26.93l.28-1.45L11.67,292.3l-2.11-3.12,26,12.19-3.06,2.19c-3.38-49.82-6.64-99.52-9.72-149.39Zm.52-3L25.52,151.66c3.94,50.46,7.71,101.09,11.36,151.6a2.21,2.21,0,0,1-2,2.35,2.12,2.12,0,0,1-.91-.12l-.11,0L6.9,295.54a3.22,3.22,0,0,1-2.12-3v-.15L0,25.61v-.19a2.66,2.66,0,0,1,.29-1.26c2.19-4.23,4.62-8.49,7.05-12.37S12,4.41,13.85.91Z"/><polyline class="cls-2" points="70.4 497.74 59.39 410.41 481.84 401.36 498.04 486.14"/><path class="cls-1" d="M67.9,494.7a43.66,43.66,0,0,1-1.49-5.15c-.44-1.72-.79-3.45-1.09-5.2-.58-3.48-1-7-1.48-10.48l-2.86-21-2.64-21c-.85-7-1.57-14-2.37-21v0a3.42,3.42,0,0,1,3-3.8,1.67,1.67,0,0,1,.32,0L481.79,399h0a2.28,2.28,0,0,1,2.3,1.89L498.81,486a.79.79,0,0,1-1.55.3L479.54,401.8l2.35,1.9L59.47,413.86,62.81,410c1,7,2,14,2.93,21l2.66,21,2.44,21c.38,3.51.87,7,1.16,10.52.15,1.76.24,3.53.24,5.31a43.64,43.64,0,0,1-.16,5.35,2.16,2.16,0,0,1-2.35,1.95A2.13,2.13,0,0,1,67.9,494.7Z"/><path class="cls-1" d="M497.3,487.71,70.42,497.88a.54.54,0,1,1,0-1.07l426.83-12.2a1.55,1.55,0,1,1,.09,3.1Z"/><polygon class="cls-1" points="34.68 303.41 59.39 410.41 69.99 494.44 9.99 484.83 8.23 292.37 34.68 303.41"/><path class="cls-1" d="M70,497.88a3.39,3.39,0,0,1-.55,0l-60-9.61a3.44,3.44,0,0,1-2.9-3.37L4.78,292.4a3.45,3.45,0,0,1,4.78-3.22L36,300.23a3.43,3.43,0,0,1,2,2.41l24.72,107a2.14,2.14,0,0,1,.06.35l10.6,84a3.46,3.46,0,0,1-1,2.91A3.42,3.42,0,0,1,70,497.88Zm-56.58-16L66,490.31,56,411,31.72,305.91l-20-8.35Z"/><path class="cls-1" d="M356.73,113.52A10,10,0,0,0,348,104.4l-19-2.2c-5.8-.67-9-7.39-5.77-11.94L334,75.4a9.33,9.33,0,0,0-1.55-12.19L325.75,57a9.25,9.25,0,0,0-12.23-.72L299.47,68c-4.3,3.61-11.22.81-12.29-4.94l-3.49-18.81A10,10,0,0,0,274,36.12h-8.83a8.42,8.42,0,0,0-8.55,8.12l-.93,18.81c-.27,5.75-6.8,8.55-11.59,4.94L228.43,56.25a9.1,9.1,0,0,0-12.15.72l-5.82,6.24a9.16,9.16,0,0,0,.13,12.19l12.78,14.86c3.91,4.55,1.58,11.27-4.13,11.94l-18.66,2.2a8.36,8.36,0,0,0-7.34,6.84l1.84,2.15L199,118a6.25,6.25,0,0,1,.08,8.34l-.71.76-1.59,1.72a9.73,9.73,0,0,0,5.66,2.71l19,2.2c5.81.67,9,7.39,5.77,11.95l-10.73,14.85A9.32,9.32,0,0,0,218,172.67l6.68,6.24a9.27,9.27,0,0,0,12.24.72l14-11.75c4.3-3.59,11.22-.8,12.29,5l3.49,18.81a10,10,0,0,0,9.69,8.12h8.83a8.46,8.46,0,0,0,8.57-8.12l.9-18.81c.28-5.75,6.81-8.54,11.6-5L322,179.63a9.08,9.08,0,0,0,12.14-.72l5.82-6.24a9.15,9.15,0,0,0-.13-12.19l-12.77-14.85c-3.9-4.56-1.59-11.28,4.12-11.95l18.68-2.2a8.44,8.44,0,0,0,7.47-9.12ZM277,144a28.28,28.28,0,0,1-27.8-26,24,24,0,0,1,24.22-26,28.29,28.29,0,0,1,27.8,26A24,24,0,0,1,277,144Z"/><path class="cls-1" d="M359.29,116.64l-.16-2.78c0-.42-.08-1.06-.16-1.62A12.44,12.44,0,0,0,348.55,102l-11.13-1.39-5.53-.68c-.89-.13-1.9-.22-2.7-.35a5.27,5.27,0,0,1-1.74-.59c-2.22-1.16-3.4-4.17-2.49-6.21a2.67,2.67,0,0,1,.4-.74l.1-.18.21-.27.4-.57,1.65-2.25,3.3-4.49,3.3-4.5L336,77.52c.14-.2.26-.32.44-.6l.5-.78a12.34,12.34,0,0,0,.81-1.68,12.49,12.49,0,0,0-3.24-13.39l-4-3.85-2-1.9-.52-.49-.65-.58a12.6,12.6,0,0,0-1.45-1.07,12.83,12.83,0,0,0-7-2,11.74,11.74,0,0,0-7,2.44l-8.71,7.12-4.32,3.52c-.68.57-1.59,1.31-1.83,1.46a3.67,3.67,0,0,1-1.34.45,4.43,4.43,0,0,1-3-.72,4.6,4.6,0,0,1-1.87-2.5c-.05-.3-.12-.38-.21-.93l-.23-1.38-.48-2.75-1-5.48-1-5.5-.47-2.75-.13-.71-.21-1a10.48,10.48,0,0,0-.63-1.81,13.7,13.7,0,0,0-11.95-8.41l-5.72-.1-2.78,0h-.7c-.23,0-.65,0-.95,0a12.22,12.22,0,0,0-2,.28,12.44,12.44,0,0,0-6.94,4.14,12.66,12.66,0,0,0-2.93,7.52l-.63,11.12-.32,5.58-.08,1.39-.05.67,0,.29a2.05,2.05,0,0,1-.36,1,2.82,2.82,0,0,1-3.89.58l-8.54-6.43-4.46-3.35-2.24-1.68a19.28,19.28,0,0,0-3-2,14.2,14.2,0,0,0-8-1.39,13,13,0,0,0-7.54,3.66l-.37.37-.23.24-.48.52-1,1-1.89,2-1.91,2a17.71,17.71,0,0,0-1.23,1.43A14.17,14.17,0,0,0,205.14,63a13.44,13.44,0,0,0,2.2,15.32c2.7,2.59,5.9,4.74,8.51,7.4,1.29,1.33,2.54,2.72,3.8,4.08l1.87,2a6.22,6.22,0,0,1,1.07,1.65,4.66,4.66,0,0,1-2.52,6.21,4.18,4.18,0,0,1-.94.24c-.32.07-.87.12-1.31.18l-2.76.33-5.55.68-5.53.69-2.77.34a14.71,14.71,0,0,0-3.15.68,10.42,10.42,0,0,0-5.31,4.27,11.33,11.33,0,0,0-1.08,2.28l1.57,1.83,1.84,2.15a6.59,6.59,0,0,1,1-4.11,6.16,6.16,0,0,1,3.32-2.47,36.56,36.56,0,0,1,5.06-.7l5.55-.61,5.54-.64,2.77-.32c.48-.06.86-.08,1.45-.19A9.13,9.13,0,0,0,226.84,99a9.69,9.69,0,0,0,.17-7.16,10.82,10.82,0,0,0-1.77-3.14l-1.74-2.18c-1.15-1.46-2.35-2.89-3.46-4.38-2.25-3-3.9-6.45-6-9.51a7.91,7.91,0,0,1-1.18-2.81,4.31,4.31,0,0,1,.39-2.66,4.37,4.37,0,0,1,.32-.55c.14-.16.21-.26.6-.68l1.91-2,3.67-4a4.48,4.48,0,0,1,5.17-.63,46.66,46.66,0,0,1,3.87,2.76l4.46,3.35,4.46,3.33,2.25,1.67c.81.57,1.28,1,2.67,1.86a11.89,11.89,0,0,0,8.47,1.45,11.08,11.08,0,0,0,7.28-5.06,10.56,10.56,0,0,0,1.54-4.23l.11-1.1,0-.73.05-1.39.23-5.56.43-11.16a4.38,4.38,0,0,1,3.37-4.26,4.64,4.64,0,0,1,.76-.13c.16,0,.21,0,.45,0h.7l2.78,0,5.43-.07a6.22,6.22,0,0,1,5.42,3.66,7.14,7.14,0,0,1,.31.81l.11.42.13.65.53,2.73,1.08,5.48,1.09,5.47.53,2.73c.2.92.29,1.7.71,3.14a11.47,11.47,0,0,0,12.5,7.76,10.21,10.21,0,0,0,3.85-1.46,27.57,27.57,0,0,0,2.53-2l4.25-3.62,8.41-7.16a6,6,0,0,1,6.92-.23,7.56,7.56,0,0,1,.79.57l.41.33.5.49,2.05,1.88,4.09,3.78a6.66,6.66,0,0,1,1.91,7,8.58,8.58,0,0,1-.37.82l-.26.39a4.82,4.82,0,0,1-.37.55l-1.62,2.26L326.49,81l-3.23,4.54-1.62,2.28-.4.57-.21.29-.26.4a8.54,8.54,0,0,0-.88,1.73,10.05,10.05,0,0,0,.18,7.44,10.8,10.8,0,0,0,4.87,5.37,10.5,10.5,0,0,0,3.53,1.13c1,.15,1.87.21,2.83.33l5.54.59,11,1.22A7.6,7.6,0,0,1,354,112a8,8,0,0,1,.27,1c0,.36.08.65.11,1.17l.22,2.78.42,5.56A6.25,6.25,0,0,1,351,129a31,31,0,0,1-5,.76l-5.55.66-5.53.67-2.77.34c-.5.06-.87.08-1.45.19a8.47,8.47,0,0,0-1.75.44,8.68,8.68,0,0,0-5.19,4.91,9.33,9.33,0,0,0-.08,7,10.51,10.51,0,0,0,1.78,3l1.83,2.12,3.64,4.22,7.26,8.47a7.14,7.14,0,0,1,1.11,8,7,7,0,0,1-.55.86c-.22.26-.4.47-.77.84l-1.93,2-3.8,4a6.48,6.48,0,0,1-7.49.87,42.41,42.41,0,0,1-4.12-3l-4.41-3.39-4.42-3.41-2.21-1.7c-.78-.58-1.31-1.08-2.48-1.83a10.46,10.46,0,0,0-7.42-1.41,9.75,9.75,0,0,0-6.47,4.35,9.51,9.51,0,0,0-1.42,3.74l-.12,1-.05.71-.09,1.39-.36,5.58-.71,11.12a5,5,0,0,1-4,4.66,3.25,3.25,0,0,1-.83.1h-1.18l-2.78,0-5.43-.08a6.24,6.24,0,0,1-5.32-3.87,6.07,6.07,0,0,1-.26-.79l-.1-.41-.11-.66-.47-2.75-1-5.5-1-5.48-.48-2.75-.26-1.37-.07-.34-.11-.49-.26-1a12.06,12.06,0,0,0-13.11-8.28,11.19,11.19,0,0,0-4.14,1.52,31.71,31.71,0,0,0-2.64,2.05l-4.29,3.56-8.49,7a5.12,5.12,0,0,1-5.72.08,6.32,6.32,0,0,1-.68-.47l-.36-.31-.5-.47-2-1.91-4.09-3.75a5.64,5.64,0,0,1-1.7-5.9c.06-.24.18-.45.27-.7l.2-.32.35-.53,1.59-2.3,3.17-4.59,3.15-4.59,1.59-2.3.39-.58.21-.29.25-.44a9.24,9.24,0,0,0,.93-1.86,10.47,10.47,0,0,0-.28-7.89,11.11,11.11,0,0,0-8.84-6.68c-1.07-.11-1.9-.16-2.87-.26l-5.54-.49-11.07-1a7.41,7.41,0,0,1-4.18-1.93l-1.59,1.72-1.62,1.74a12.37,12.37,0,0,0,6.72,3.4L213,135.48l5.53.81c.89.13,1.91.25,2.68.4a4.82,4.82,0,0,1,3.71,3.19,3.94,3.94,0,0,1,0,3,3.56,3.56,0,0,1-.36.62l-.1.14-.19.28-.42.56-1.7,2.22-3.36,4.44-3.37,4.45-1.68,2.23c-.14.21-.26.31-.45.6l-.57.86a16,16,0,0,0-.89,1.81,13.49,13.49,0,0,0,3.43,14.52l4,3.87,2,1.91.5.48.7.62a14.28,14.28,0,0,0,1.58,1.16,13.9,13.9,0,0,0,7.55,2.13,12.55,12.55,0,0,0,7.65-2.71l8.64-7.25,4.27-3.59c1.78-1.53,1.91-1.63,2.78-1.82a3.61,3.61,0,0,1,2.54.58,4,4,0,0,1,1.7,2.12,2.37,2.37,0,0,0,.08.34c0,.06,0,.09.05.19l.06.34.26,1.37.52,2.74,1,5.48,1.08,5.46.55,2.74.15.71.22,1a11.78,11.78,0,0,0,.67,1.83,13.72,13.72,0,0,0,12.06,8.2l.49,0h.34l.69,0,1.41,0,2.78,0,2.78,0,.71,0,.91,0A13.91,13.91,0,0,0,288,203a11.85,11.85,0,0,0,9.25-11.27l.36-11.14.18-5.58,0-1.39,0-.68,0-.41a3.32,3.32,0,0,1,.48-1.44,3.69,3.69,0,0,1,2.46-1.76,4.52,4.52,0,0,1,3.32.52c.4.22,1.32.9,2,1.42l2.24,1.63,4.52,3.3,4.51,3.29,2.24,1.65a19.28,19.28,0,0,0,2.74,1.74,12.14,12.14,0,0,0,6.87,1.1,10.75,10.75,0,0,0,6.32-3.14c1.39-1.48,2.54-2.78,3.82-4.18l1.88-2.06c.27-.3.69-.79,1.05-1.26a11.17,11.17,0,0,0,.92-1.52A11.66,11.66,0,0,0,341.39,159l-7.28-8.44-3.64-4.24-1.79-2.12a6,6,0,0,1-1-1.76,5.05,5.05,0,0,1,.05-3.84,4.08,4.08,0,0,1,1.07-1.55,3.92,3.92,0,0,1,1.58-.95,4.22,4.22,0,0,1,1-.24c.32-.07.87-.12,1.31-.17l2.76-.32,5.55-.65,5.53-.64,2.78-.33a13.73,13.73,0,0,0,3.19-.61,10.56,10.56,0,0,0,5.48-4.25,11.09,11.09,0,0,0,1.74-6.7Z"/><path class="cls-1" d="M303.53,117.79a31.81,31.81,0,0,0-3-10.6c-.38-.82-.87-1.6-1.31-2.41s-1-1.52-1.48-2.31a37.15,37.15,0,0,0-3.43-4.32,31,31,0,0,0-19.89-9.89A26,26,0,0,0,253,96.44a23.57,23.57,0,0,0-5.34,10.41,31.56,31.56,0,0,0-.42,11.23,19.11,19.11,0,0,1,.25,2.73c.11.92.29,1.83.48,2.73s.54,1.75.81,2.64.66,1.71.94,2.6.68,1.73.95,2.65,0,2.25.25,3.29a19.62,19.62,0,0,0,3.73,4.56A30.26,30.26,0,0,0,276,147.77a29.9,29.9,0,0,0,11.37-2.41,27.8,27.8,0,0,0,9.35-6.66,26.54,26.54,0,0,0,5.69-9.82A27.74,27.74,0,0,0,303.53,117.79Zm-27.28,22.26a25.73,25.73,0,0,1-15.33-7.32c-.49-.52-1-1-1.47-1.55a8,8,0,0,0-1.48-1.59c-.67-.4-2-.42-2.58-1a12.33,12.33,0,0,1-1.44-1.86,18.69,18.69,0,0,1-1-2.1c-.25-.74-.5-1.47-.73-2.23s-.39-1.52-.6-2.28a14,14,0,0,1-.37-2.33,20,20,0,0,1,2.23-8.91,25.7,25.7,0,0,1,5.34-6.84,23.28,23.28,0,0,1,15.42-6.35A24.5,24.5,0,0,1,291,101.6a26.91,26.91,0,0,1,3.27,3.39,25,25,0,0,1,2.41,4.05,23.22,23.22,0,0,1,2.25,9,21.73,21.73,0,0,1-6.5,16.48A20.37,20.37,0,0,1,276.25,140.05Z"/><polygon class="cls-1" points="318.93 51.45 332.81 51.48 324.38 57.49 318.93 51.45"/><path class="cls-2" d="M206.72,113.52l.6,8.84a10,10,0,0,0,8.74,9.12l19,2.2c5.8.67,9.05,7.4,5.77,11.95l-10.73,14.86a9.32,9.32,0,0,0,1.55,12.18l6.68,6.25a9.28,9.28,0,0,0,12.24.71l14-11.75c4.3-3.59,11.22-.8,12.29,5l3.49,18.82a10,10,0,0,0,9.68,8.11h8.84a8.45,8.45,0,0,0,8.56-8.11l.9-18.82c.28-5.75,6.82-8.54,11.61-5l15.67,11.75a9.08,9.08,0,0,0,12.13-.71l5.83-6.25a9.14,9.14,0,0,0-.13-12.18l-12.77-14.86c-3.91-4.55-1.59-11.28,4.12-11.95l18.67-2.2a8.45,8.45,0,0,0,7.49-9.12l-.61-8.84a10,10,0,0,0-8.74-9.12l-19-2.2c-5.8-.67-9-7.4-5.77-12l10.73-14.86a9.32,9.32,0,0,0-1.55-12.18L339.38,57a9.28,9.28,0,0,0-12.24-.71L313.09,68c-4.3,3.59-11.22.81-12.29-5l-3.49-18.82a10,10,0,0,0-9.68-8.11h-8.84a8.45,8.45,0,0,0-8.56,8.11l-.9,18.82c-.28,5.76-6.82,8.54-11.61,5L242.05,56.25a9.08,9.08,0,0,0-12.13.71l-5.82,6.25a9.13,9.13,0,0,0,.12,12.18L237,90.25c3.91,4.55,1.59,11.28-4.12,12l-18.67,2.2A8.44,8.44,0,0,0,206.72,113.52Zm108.13,4.42a24,24,0,0,1-24.22,26,28.29,28.29,0,0,1-27.8-26,24,24,0,0,1,24.22-26A28.29,28.29,0,0,1,314.85,117.94Z"/><path class="cls-1" d="M208.71,113.38l.51,5.56.25,2.78c0,.51.1.81.15,1.17a9.22,9.22,0,0,0,.28,1,7.7,7.7,0,0,0,6.29,5l11.05,1,5.56.49c.95.09,1.78.14,2.85.27a10.92,10.92,0,0,1,3.67,1.12,11.28,11.28,0,0,1,5.18,5.55,10.52,10.52,0,0,1,.28,7.89,9.2,9.2,0,0,1-.92,1.86l-.27.44-.21.29-.39.58-1.58,2.29-3.16,4.6-3.16,4.6-1.58,2.3c-.12.17-.31.42-.36.52l-.19.33a5.42,5.42,0,0,0-.29.7,5.65,5.65,0,0,0,1.7,5.89l4.1,3.76,2,1.9.52.47.35.3a5.14,5.14,0,0,0,.67.48,5.06,5.06,0,0,0,5.72-.09l8.5-7,4.29-3.56a30.77,30.77,0,0,1,2.63-2.05,11.08,11.08,0,0,1,4.14-1.52,12.08,12.08,0,0,1,13.12,8.27l.26,1,.11.49.07.35.24,1.37.5,2.74,1,5.49.95,5.49.48,2.75.11.66.09.41a5,5,0,0,0,.27.8,6.25,6.25,0,0,0,5.31,3.86l5.43.08,2.79,0h1.17a3.86,3.86,0,0,0,.84-.1,5,5,0,0,0,4-4.66l.72-11.13.35-5.57.09-1.39.05-.72.13-1a9.57,9.57,0,0,1,1.41-3.75,9.76,9.76,0,0,1,6.48-4.34,10.38,10.38,0,0,1,7.41,1.4c1.17.75,1.7,1.24,2.49,1.83l2.2,1.7,4.42,3.41,4.42,3.4a47.22,47.22,0,0,0,4.11,3,6.5,6.5,0,0,0,7.5-.87l3.8-4,1.93-2c.36-.38.54-.6.77-.86a6.86,6.86,0,0,0,.55-.85,7.14,7.14,0,0,0-1.12-8l-7.25-8.47-3.65-4.22L339,147a10.45,10.45,0,0,1-1.79-3,9.4,9.4,0,0,1,.08-7,8.7,8.7,0,0,1,5.19-4.92,8.92,8.92,0,0,1,1.76-.45c.58-.1,1-.12,1.44-.19l2.77-.33,5.54-.66,5.54-.66a32.88,32.88,0,0,0,5-.78,6.21,6.21,0,0,0,4.07-6.43l-.43-5.56-.21-2.78c0-.52-.08-.81-.12-1.16a9,9,0,0,0-.26-1,7.66,7.66,0,0,0-6.15-5.12l-11-1.2-5.55-.61c-.95-.11-1.78-.17-2.83-.32a10.61,10.61,0,0,1-8.39-6.5,10,10,0,0,1-.18-7.44,8.21,8.21,0,0,1,.88-1.72l.26-.42.2-.28.41-.57,1.61-2.28L340.11,81l3.23-4.55L345,74.18c.12-.17.3-.41.37-.54l.25-.38a6.92,6.92,0,0,0,.37-.84,6.65,6.65,0,0,0-1.9-7L340,61.61l-2-1.89-.52-.47-.4-.34a5.39,5.39,0,0,0-.79-.56,6,6,0,0,0-6.91.21l-8.42,7.17-4.24,3.62a28.68,28.68,0,0,1-2.53,2,10.36,10.36,0,0,1-3.86,1.46,11.45,11.45,0,0,1-12.49-7.76,30.4,30.4,0,0,1-.71-3.14l-.54-2.73-1.07-5.48-1.09-5.47-.54-2.73-.13-.66-.11-.41a6.08,6.08,0,0,0-.3-.81A6.22,6.22,0,0,0,287.84,40l-5.43,0-2.79,0h-.7c-.24,0-.29,0-.45,0a4.83,4.83,0,0,0-.76.13,4.39,4.39,0,0,0-3.37,4.26l-.43,11.15-.22,5.57-.06,1.39,0,.73-.12,1.09A10.88,10.88,0,0,1,272,68.68a11.12,11.12,0,0,1-7.28,5,11.92,11.92,0,0,1-8.48-1.45c-1.39-.87-1.85-1.29-2.67-1.87l-2.24-1.66-4.46-3.33-4.47-3.34a47.35,47.35,0,0,0-3.87-2.77,4.48,4.48,0,0,0-5.16.62l-3.69,4-1.89,2.05a8.79,8.79,0,0,0-.6.68,4.34,4.34,0,0,0-.33.54,4.27,4.27,0,0,0-.38,2.65,7.71,7.71,0,0,0,1.18,2.82c2.15,3,3.79,6.54,6,9.51,1.12,1.49,2.31,2.92,3.46,4.38l1.75,2.19a10.74,10.74,0,0,1,1.77,3.13,9.69,9.69,0,0,1-.18,7.16,8.84,8.84,0,0,1-5.28,4.93,9.14,9.14,0,0,1-1.77.43c-.59.11-1,.13-1.45.19l-2.77.32-5.54.63-5.54.61a40.34,40.34,0,0,0-5.07.7,6.22,6.22,0,0,0-3.31,2.48A6.44,6.44,0,0,0,208.71,113.38Zm-4,.28a11.11,11.11,0,0,1,1.66-6.53,10.44,10.44,0,0,1,5.3-4.27,14.14,14.14,0,0,1,3.16-.67l2.77-.35,5.53-.69,5.54-.68,2.76-.33c.44-.06,1-.11,1.32-.17a5.51,5.51,0,0,0,.93-.24,4.66,4.66,0,0,0,2.52-6.22,6.15,6.15,0,0,0-1.05-1.65l-1.88-2c-1.28-1.35-2.51-2.74-3.81-4.07-2.6-2.67-5.81-4.82-8.5-7.41A13.44,13.44,0,0,1,218.76,63a15.09,15.09,0,0,1,1.14-1.83c.43-.55,1-1.16,1.23-1.42l1.9-2,1.9-2,1-1,.47-.51.24-.26.37-.37a13,13,0,0,1,7.54-3.64,14,14,0,0,1,8,1.38,19.2,19.2,0,0,1,3,2l2.23,1.68,4.46,3.35,8.54,6.43a2.84,2.84,0,0,0,3.9-.58,2.2,2.2,0,0,0,.36-1,2.5,2.5,0,0,1,.05-.29l0-.67.08-1.39.32-5.57.64-11.13A12.64,12.64,0,0,1,269,36.59,12.45,12.45,0,0,1,276,32.44a12.31,12.31,0,0,1,2-.26l.94,0h.7l2.79,0,5.72.08a13.8,13.8,0,0,1,12,8.41,15,15,0,0,1,.62,1.82l.21,1,.13.71.47,2.75,1,5.49,1,5.5.48,2.74.24,1.38c.08.55.15.62.2.94a4.57,4.57,0,0,0,1.88,2.48,4.38,4.38,0,0,0,3,.74,3.63,3.63,0,0,0,1.33-.46c.26-.15,1.16-.89,1.84-1.45l4.31-3.54,8.72-7.11a11.76,11.76,0,0,1,7-2.44,12.74,12.74,0,0,1,7,2,13,13,0,0,1,1.46,1.07l.65.58.51.48,2,1.92,4.05,3.85a12.47,12.47,0,0,1,3.23,13.38,11.74,11.74,0,0,1-.8,1.68l-.51.78c-.18.27-.29.4-.44.61l-1.65,2.24-3.29,4.5-3.3,4.5L339.7,91l-.41.56-.2.28L339,92a3.12,3.12,0,0,0-.4.74c-.91,2,.27,5,2.49,6.21a5.57,5.57,0,0,0,1.75.59c.79.12,1.81.23,2.7.35l5.54.68L362.18,102a12.5,12.5,0,0,1,10,8.56,12.21,12.21,0,0,1,.4,1.69c.08.57.14,1.2.16,1.61l.17,2.79.34,5.56a11.08,11.08,0,0,1-1.73,6.7,10.59,10.59,0,0,1-5.48,4.25,14.42,14.42,0,0,1-3.2.62l-2.77.32-5.54.64-5.54.65-2.77.32c-.43.05-1,.1-1.32.17a4.17,4.17,0,0,0-.94.23,4.09,4.09,0,0,0-1.59,1,4.19,4.19,0,0,0-1.07,1.55,5.1,5.1,0,0,0-.05,3.84,6.33,6.33,0,0,0,1,1.76l1.8,2.11,3.63,4.24L355,159a11.66,11.66,0,0,1,1.9,12.83,11.07,11.07,0,0,1-.92,1.51c-.36.47-.78,1-1.06,1.26l-1.87,2.06c-1.28,1.4-2.42,2.7-3.83,4.19a10.93,10.93,0,0,1-6.31,3.14,12.1,12.1,0,0,1-6.87-1.11,17.9,17.9,0,0,1-2.74-1.75l-2.25-1.64-4.51-3.29L322,172.92l-2.25-1.64c-.72-.51-1.62-1.2-2-1.42a4.6,4.6,0,0,0-3.31-.53A3.72,3.72,0,0,0,312,171.1a3.45,3.45,0,0,0-.47,1.44l0,.41,0,.67,0,1.4-.18,5.57-.36,11.15A11.88,11.88,0,0,1,301.6,203a11.42,11.42,0,0,1-1.92.29l-.92,0h-.7l-2.79,0-2.78,0h-2.44l-.49,0a13.74,13.74,0,0,1-12.06-8.2,13.37,13.37,0,0,1-.67-1.83l-.22-1-.15-.71-.54-2.73-1.09-5.47-1-5.48-.52-2.74L273,174l-.06-.34-.06-.19c0-.12-.06-.23-.08-.34a4,4,0,0,0-1.7-2.13,3.72,3.72,0,0,0-2.54-.57c-.87.18-1,.28-2.78,1.81l-4.27,3.6-8.63,7.26a12.68,12.68,0,0,1-7.65,2.7,14,14,0,0,1-9.13-3.29l-.7-.62-.51-.48-2-1.91-4-3.86a13.08,13.08,0,0,1-2.54-16.35l.57-.84c.19-.29.29-.4.45-.61l1.68-2.22,3.37-4.45,3.36-4.45,1.69-2.22.42-.56.2-.27.1-.15a2.53,2.53,0,0,0,.35-.62,3.94,3.94,0,0,0,0-3,5,5,0,0,0-2.12-2.6,5.17,5.17,0,0,0-1.59-.6c-.77-.14-1.8-.27-2.69-.4l-5.52-.8-11.1-1.57a12.42,12.42,0,0,1-9.88-8.62,13.62,13.62,0,0,1-.38-1.68c-.06-.56-.12-1.18-.13-1.59l-.13-2.79Z"/><path class="cls-1" d="M316.85,117.8a30.9,30.9,0,0,1-.43,11.23,23.24,23.24,0,0,1-5.33,10.41,26.08,26.08,0,0,1-21.48,8.19,31,31,0,0,1-19.88-9.91,37.26,37.26,0,0,1-3.43-4.31c-.47-.79-1-1.52-1.49-2.31s-.92-1.58-1.31-2.41a32.11,32.11,0,0,1-3-10.59,27.77,27.77,0,0,1,1.15-11.1,26.34,26.34,0,0,1,5.68-9.81,28,28,0,0,1,9.36-6.67,29.68,29.68,0,0,1,11.35-2.4,30.22,30.22,0,0,1,21.38,8.49,20,20,0,0,1,3.74,4.56c.26,1,0,2.36.23,3.28s.66,1.77,1,2.65.65,1.73.94,2.6.58,1.75.81,2.65.37,1.8.48,2.71A19.11,19.11,0,0,0,316.85,117.8Zm-4,.28a13.24,13.24,0,0,0-.36-2.34c-.21-.76-.42-1.51-.6-2.27s-.5-1.49-.74-2.23a17.82,17.82,0,0,0-1-2.1,13.08,13.08,0,0,0-1.45-1.86c-.58-.56-1.91-.59-2.57-1a7.87,7.87,0,0,1-1.47-1.59c-.45-.56-1-1-1.49-1.56a25.74,25.74,0,0,0-15.31-7.32,20.36,20.36,0,0,0-16.2,5.47,21.62,21.62,0,0,0-6.49,16.48,22.91,22.91,0,0,0,2.24,9.06,23.65,23.65,0,0,0,2.41,4,25.6,25.6,0,0,0,3.27,3.39,24.58,24.58,0,0,0,16.81,5.91,23.32,23.32,0,0,0,15.42-6.36,25.5,25.5,0,0,0,5.34-6.84A19.92,19.92,0,0,0,312.85,118.08Z"/><path class="cls-1" d="M231.33,186h13.78l-6.3-7.28Z"/><path class="cls-1" d="M328,184.53h13.78l-6.3-7.28Z"/><polygon class="cls-1" points="236.19 50.32 222.91 50.33 229.32 55.73 236.19 50.32"/><path class="cls-1" d="M304.67,92.87c-11.19-7.28-26.28-8-38.21,5.36,0,0,11.58-9.85,35-2.73C304.82,96.53,300.6,92.09,304.67,92.87Z"/><path class="cls-1" d="M162.92,51.18c.73,3.94,5.47,5.85,8.41,3.39l9.63-8a5.36,5.36,0,0,1,.91-.61l0,0A11.07,11.07,0,0,0,180,44.42a8.75,8.75,0,0,0-4.77-1.37,8.14,8.14,0,0,0-4.83,1.67l-6,4.87-1.61,1.31Z"/><path class="cls-1" d="M172.54,88.79a19.39,19.39,0,0,0-19-17.82,16.85,16.85,0,0,0-9.05,2.59h.24a16.72,16.72,0,0,1,11.51,4,17.55,17.55,0,0,1,2.25,2.31,15.91,15.91,0,0,1,1.65,2.78,15.66,15.66,0,0,1,1.54,6.21,14.79,14.79,0,0,1-4.45,11.29A14,14,0,0,1,146.44,104a18.68,18.68,0,0,0,9.5,2.65A16.42,16.42,0,0,0,172.54,88.79Z"/><path class="cls-1" d="M133.4,54.57c3.28,2.46,7.76.55,7.95-3.39L142,38.29a5.78,5.78,0,0,1,5.87-5.56H151a9.37,9.37,0,0,0-6.07-2.65L141,30l-1.91,0a10.69,10.69,0,0,0-2.49.19,8.51,8.51,0,0,0-4.75,2.85,8.67,8.67,0,0,0-2,5.15l-.43,7.63-.22,3.81-.06,1,0,.45a1.77,1.77,0,0,0,0,.2.09.09,0,0,1,0,0Z"/><path class="cls-1" d="M155.55,144.85a6.84,6.84,0,0,1-6.63-5.56l-2.4-12.89c-.73-4-5.47-5.86-8.42-3.39l-3.84,3.21c.05.12.1.23.14.35s.2.92.32,1.53l.35,1.88.71,3.75.75,3.75.37,1.87.1.49.16.65a8.84,8.84,0,0,0,.45,1.25,9.41,9.41,0,0,0,8.27,5.62l3.91,0,1.91,0a11.55,11.55,0,0,0,2.43-.23,8.18,8.18,0,0,0,4-2.23Z"/><path class="cls-1" d="M186.78,131.06,176,123c-3.28-2.47-7.76-.56-7.95,3.39v.08h0l3.09,2.25,3.09,2.25a28.86,28.86,0,0,0,3.43,2.32,8.24,8.24,0,0,0,4.72.76,7.5,7.5,0,0,0,4.34-2.16l.49-.54C187.11,131.26,186.94,131.18,186.78,131.06Z"/><path class="cls-1" d="M120.09,130.57l-4.57-4.28a6.39,6.39,0,0,1-1.07-8.35l7.35-10.18c2.25-3.12,0-7.73-4-8.19l-13-1.51a6.85,6.85,0,0,1-6-6.24l-.42-6.06a5.78,5.78,0,0,1,5.13-6.25L116.37,78c3.91-.47,5.5-5.08,2.82-8.19l-8.74-10.18a6.26,6.26,0,0,1-.09-8.35l4-4.28A5.64,5.64,0,0,1,117,45.42l-1.28-1a13.18,13.18,0,0,0-2.06-1.34,9.6,9.6,0,0,0-5.48-1,8.92,8.92,0,0,0-5.16,2.5l-2.7,2.87L99,48.93a11.52,11.52,0,0,0-.84,1,9,9,0,0,0-.78,1.25,9.17,9.17,0,0,0,1.52,10.49c1.82,1.79,4,3.25,5.8,5.09.91.9,1.74,1.87,2.61,2.8l1.29,1.4a4.23,4.23,0,0,1,.73,1.12,3.19,3.19,0,0,1-1.72,4.26,3.35,3.35,0,0,1-.64.17c-.22,0-.61.08-.9.12l-1.9.23-3.79.47-3.79.46a21.32,21.32,0,0,0-4.07.7,7.16,7.16,0,0,0-3.63,2.92,7.62,7.62,0,0,0-1.14,4.47l.18,3.82L88,91.58a8.47,8.47,0,0,0,7.12,8.15l7.61,1.08,3.78.54c.61.1,1.31.18,1.84.28a3.67,3.67,0,0,1,1.09.41,3.2,3.2,0,0,1,1.43,3.82,2.18,2.18,0,0,1-.24.42l-.07.1-.14.19-.29.38L109,108.47l-2.31,3-2.31,3-1.15,1.52c-.16.21-.44.6-.69,1a9.09,9.09,0,0,0-.62,1.25,9.27,9.27,0,0,0,2.36,9.95l2.77,2.64,1.39,1.31a11,11,0,0,0,1.9,1.54,9.47,9.47,0,0,0,5.18,1.47,8.67,8.67,0,0,0,5.24-1.85l1.67-1.41A7,7,0,0,1,120.09,130.57Z"/><polygon class="cls-1" points="175.33 43.23 184.85 43.25 179.07 47.37 175.33 43.23"/><path class="cls-1" d="M99.82,85.67l.34,3.8.18,1.91a5.24,5.24,0,0,0,4.6,5l7.57.7,3.81.33c.65.06,1.22.1,2,.18a7.61,7.61,0,0,1,6.07,4.57,7.21,7.21,0,0,1,.19,5.41,6.26,6.26,0,0,1-.63,1.27l-.19.31-.14.2-.27.39-1.08,1.58-2.17,3.14-2.16,3.15-1.08,1.58c-.22.3-.29.45-.38.58a4,4,0,0,0-.2.48,3.9,3.9,0,0,0,1.17,4l2.81,2.58a25.38,25.38,0,0,0,2.45,2.16,3.47,3.47,0,0,0,3.92-.07l5.82-4.81,2.94-2.44a20.61,20.61,0,0,1,1.8-1.41,7.67,7.67,0,0,1,2.84-1,8.27,8.27,0,0,1,9,5.67c.29,1,.34,1.56.47,2.2l.34,1.88.68,3.76.65,3.77.33,1.88.08.45.06.28c.06.18.1.37.18.55a4.29,4.29,0,0,0,3.64,2.64l3.73.06a24.93,24.93,0,0,0,3.28-.05,3.39,3.39,0,0,0,2.73-3.19l.48-7.63.24-3.81.06-1,0-.49.08-.67a6.81,6.81,0,0,1,1-2.58,6.7,6.7,0,0,1,4.46-3,7.12,7.12,0,0,1,5.1,1,21,21,0,0,1,1.71,1.25l1.51,1.17,3,2.33,3,2.34a30.54,30.54,0,0,0,2.81,2.07,4.42,4.42,0,0,0,5.11-.58l2.61-2.7,1.32-1.38a4.77,4.77,0,0,0,.91-1.17,4.83,4.83,0,0,0-.77-5.44l-5-5.81-2.5-2.9-1.25-1.45a7.24,7.24,0,0,1-1.22-2.06,6.38,6.38,0,0,1,.06-4.82,6,6,0,0,1,3.55-3.38,6.39,6.39,0,0,1,1.2-.3c.4-.07.66-.08,1-.13l1.9-.23,3.79-.45,3.8-.46a21.25,21.25,0,0,0,3.44-.53,4.25,4.25,0,0,0,2.79-4.41l-.29-3.81-.14-1.9a5.23,5.23,0,0,0-4.48-5l-7.56-.82L193.15,80l-2-.22a7.39,7.39,0,0,1-2.41-.77,7.23,7.23,0,0,1-3.46-8.78,9,9,0,0,1,1.2-2l1.1-1.56,2.22-3.11,2.21-3.12,1.11-1.55c.21-.3.31-.47.42-.64a4.17,4.17,0,0,0,.26-.57,4.57,4.57,0,0,0-1.3-4.82l-2.81-2.59A25.27,25.27,0,0,0,187.17,48a4.14,4.14,0,0,0-4.74.14L176.67,53l-2.9,2.48A18,18,0,0,1,172,56.89a7.2,7.2,0,0,1-2.64,1,7.88,7.88,0,0,1-8.59-5.33,21,21,0,0,1-.49-2.15l-.37-1.88-.74-3.75-.74-3.74-.37-1.88-.09-.45-.07-.28a5.2,5.2,0,0,0-.21-.55,4.25,4.25,0,0,0-3.69-2.5l-3.72,0a22.51,22.51,0,0,0-3.22.12,3,3,0,0,0-2.3,2.92l-.3,7.64-.15,3.82,0,1,0,.5-.08.75a7.47,7.47,0,0,1-1,2.9,7.63,7.63,0,0,1-5,3.47,8.15,8.15,0,0,1-5.82-1c-.95-.59-1.26-.88-1.82-1.28L129,55.09l-3.06-2.29-3.06-2.29c-1-.7-2.23-1.71-2.65-1.89a3.07,3.07,0,0,0-3.54.42l-2.52,2.71-1.3,1.4a5.22,5.22,0,0,0-.41.47c-.08.12-.16.24-.23.37a2.92,2.92,0,0,0-.26,1.82,5.63,5.63,0,0,0,.8,1.93c1.5,2.08,2.6,4.48,4.16,6.51.75,1,1.58,2,2.37,3l1.2,1.49a7.64,7.64,0,0,1,1.21,2.16,6.64,6.64,0,0,1-.13,4.9A6,6,0,0,1,118,79.18a6.49,6.49,0,0,1-1.21.3c-.4.07-.66.08-1,.12l-1.9.22-3.8.42-3.79.43a29.3,29.3,0,0,0-3.48.48A4.3,4.3,0,0,0,99.82,85.67Zm-2.74.18a7.62,7.62,0,0,1,1.14-4.47,7.12,7.12,0,0,1,3.63-2.92,21.23,21.23,0,0,1,4.06-.7l3.79-.46,3.8-.47,1.89-.23c.3,0,.68-.08.9-.12a3.14,3.14,0,0,0,2.36-4.43,4,4,0,0,0-.73-1.12l-1.28-1.4c-.87-.93-1.7-1.9-2.61-2.8-1.77-1.84-4-3.3-5.81-5.09a9.17,9.17,0,0,1-1.52-10.49,10.05,10.05,0,0,1,.78-1.25c.3-.38.67-.8.84-1l1.31-1.4,2.7-2.87a8.89,8.89,0,0,1,5.16-2.5,9.59,9.59,0,0,1,5.47,1A13.34,13.34,0,0,1,125,44.45l1.52,1.15,3.06,2.3,5.85,4.4a2,2,0,0,0,2.67-.39,1.63,1.63,0,0,0,.25-.66l0-.2,0-.45.06-1,.21-3.81.44-7.63a8.66,8.66,0,0,1,2-5.15,8.51,8.51,0,0,1,4.76-2.85A10.66,10.66,0,0,1,148.4,30l1.91,0,3.92,0a9.48,9.48,0,0,1,8.22,5.77,9.18,9.18,0,0,1,.42,1.25l.15.65.09.49.33,1.88.65,3.77.66,3.76.33,1.88c.1.62.23,1.35.3,1.58a3.16,3.16,0,0,0,3.3,2.2c.71-.11,1-.3,2.16-1.3l3-2.42,6-4.87a8.14,8.14,0,0,1,4.82-1.67,8.76,8.76,0,0,1,4.78,1.37,11.53,11.53,0,0,1,1.79,1.45l1.38,1.32,2.78,2.64A8.54,8.54,0,0,1,197.54,59a6.85,6.85,0,0,1-.55,1.16c-.23.37-.48.73-.65,1l-1.13,1.54L193,65.72,190.7,68.8l-1.13,1.54a5.34,5.34,0,0,0-.77,1.21,3.58,3.58,0,0,0,1.7,4.25,4,4,0,0,0,1.2.41l1.85.24,3.8.46,7.62,1a8.58,8.58,0,0,1,6.86,5.86,8.76,8.76,0,0,1,.38,2.27l.12,1.9.23,3.82a7.58,7.58,0,0,1-1.18,4.59,7.28,7.28,0,0,1-3.76,2.91,9.6,9.6,0,0,1-2.19.42l-1.9.22-3.8.44-3.79.45L194,101c-.29,0-.68.06-.9.11a3.43,3.43,0,0,0-.65.16,3.31,3.31,0,0,0-1.85,4.35,4.14,4.14,0,0,0,.71,1.21l1.23,1.45,2.49,2.9,5,5.78a7.74,7.74,0,0,1-.06,10.7L198.73,129l-2.62,2.87a7.44,7.44,0,0,1-4.33,2.16,8.27,8.27,0,0,1-4.73-.76,29.71,29.71,0,0,1-3.43-2.32l-3.09-2.25-3.09-2.25-1.54-1.12c-.49-.35-1.11-.82-1.39-1a2.87,2.87,0,0,0-3.92.83,2.32,2.32,0,0,0-.32,1l0,.28,0,.46,0,1-.13,3.82-.26,7.63a8.15,8.15,0,0,1-6.34,7.73,11.46,11.46,0,0,1-2.42.23l-1.91,0-3.92,0a9.4,9.4,0,0,1-8.26-5.62,8.88,8.88,0,0,1-.46-1.25l-.15-.65-.1-.49-.38-1.87-.74-3.75-.71-3.75-.36-1.88c-.11-.61-.26-1.36-.32-1.53a2.77,2.77,0,0,0-2.9-1.85c-.6.12-.69.19-1.91,1.24L136,128.42l-5.92,5a8.62,8.62,0,0,1-5.23,1.85,9.47,9.47,0,0,1-5.18-1.47,11.53,11.53,0,0,1-1.91-1.54l-1.39-1.31-2.77-2.64a9.26,9.26,0,0,1-2.35-9.95,8,8,0,0,1,.61-1.25c.26-.4.53-.79.7-1l1.15-1.52,2.31-3,2.3-3,1.16-1.52.29-.38.14-.19.06-.1a1.76,1.76,0,0,0,.24-.42,3.2,3.2,0,0,0-1.42-3.82,3.67,3.67,0,0,0-1.09-.41c-.53-.1-1.24-.18-1.84-.28l-3.79-.54-7.6-1.08a8.5,8.5,0,0,1-6.77-5.91,8.38,8.38,0,0,1-.35-2.24l-.09-1.91Z"/><path class="cls-1" d="M173.91,88.69a21.26,21.26,0,0,1-.29,7.69,16,16,0,0,1-3.65,7.14,17.87,17.87,0,0,1-14.72,5.61,21.34,21.34,0,0,1-13.64-6.78,27.85,27.85,0,0,1-4.25-6.2,21.91,21.91,0,0,1-2-7.25A18.45,18.45,0,0,1,140,74.57,19.13,19.13,0,0,1,146.41,70a20.39,20.39,0,0,1,7.78-1.64,20.83,20.83,0,0,1,14.65,5.81,13.55,13.55,0,0,1,2.56,3.13c.18.7,0,1.61.16,2.25s.45,1.21.66,1.81c.42,1.2.88,2.37,1.19,3.6.11.62.26,1.23.33,1.86A14.44,14.44,0,0,0,173.91,88.69Zm-2.74.19a17,17,0,0,0-.65-3.16L170,84.2a12.09,12.09,0,0,0-.72-1.44,8.75,8.75,0,0,0-1-1.28c-.4-.38-1.31-.4-1.76-.67a5,5,0,0,1-1-1.09c-.31-.38-.68-.71-1-1.07a17.51,17.51,0,0,0-10.49-5,14,14,0,0,0-11.1,3.75,14.81,14.81,0,0,0-4.45,11.29A15.88,15.88,0,0,0,140,94.89a16.2,16.2,0,0,0,1.65,2.77,17,17,0,0,0,2.25,2.31A16.73,16.73,0,0,0,155.42,104,15.92,15.92,0,0,0,166,99.67,17.69,17.69,0,0,0,169.64,95,13.61,13.61,0,0,0,171.17,88.88Z"/><path class="cls-1" d="M115.32,135.42h9.44l-4.32-5Z"/><path class="cls-1" d="M181.55,134.41H191l-4.32-5Z"/><polygon class="cls-1" points="118.65 42.46 109.54 42.46 113.93 46.16 118.65 42.46"/><path class="cls-1" d="M165.56,71.61c-7.66-5-18.29-5.09-26.47,4,0,0,8.23-7.11,24.26-2.23C165.67,74.12,162.78,71.07,165.56,71.61Z"/><path class="cls-1" d="M148.34,244.76c-1.09.09-2.18.14-3.28.14-22.49,0-42-18.29-43.59-40.78A37.14,37.14,0,0,1,139,163.78c1.23,0,2.45.06,3.67.17a41.47,41.47,0,0,1,13.89-3.31A48.26,48.26,0,0,0,139,157.3a43.59,43.59,0,0,0-44,47.26c1.77,25.82,24.22,46.82,50,46.82A45.32,45.32,0,0,0,162.34,248,45.41,45.41,0,0,1,148.34,244.76Z"/><path class="cls-1" d="M118.65,204.34c-1.42-20.68,11.72-38,30.67-42.59A44.48,44.48,0,0,0,139,160.54c-24.19,0-42.46,19.61-40.79,43.8s22.61,43.8,46.81,43.8a43,43,0,0,0,10.12-1.21C135.59,242.33,120.07,225,118.65,204.34Z"/><path class="cls-1" d="M121.76,204.13A45.68,45.68,0,0,0,164,245.94a40.54,40.54,0,0,0,16.14-2.33,37.76,37.76,0,0,0,22.7-22.72,41.64,41.64,0,0,0,2.25-16.47,44.88,44.88,0,0,0-4.35-16.1,46.45,46.45,0,0,0-9.91-13.38,45,45,0,0,0-30-12.2,40.23,40.23,0,0,0-15.87,3,38.06,38.06,0,0,0-13.09,9.08A38.52,38.52,0,0,0,121.76,204.13Zm-6.21.42A45.7,45.7,0,0,1,118,186.38a41.88,41.88,0,0,1,25.16-25.27A44.74,44.74,0,0,1,161,158.49a50,50,0,0,1,46.37,45.77,42.29,42.29,0,0,1-25.95,42.63,44.45,44.45,0,0,1-17.55,3.3,49.23,49.23,0,0,1-32.8-13.39,50.62,50.62,0,0,1-10.79-14.61A48.9,48.9,0,0,1,115.55,204.55Z"/><path class="cls-2" d="M183.43,186.15l-15.8,33.12A3.77,3.77,0,0,1,163,221.2l-.18-.07-19-6.83a3.62,3.62,0,0,1,2.3-6.87l19.31,6-4.82,1.86,19.88-30.84a1.71,1.71,0,0,1,3,1.66Z"/><polygon class="cls-1" points="159.68 158.35 139.11 157.17 150.87 163 159.68 158.35"/><polygon class="cls-1" points="164.42 250.28 144.93 251.28 158.38 247.57 164.42 250.28"/><path class="cls-1" d="M241.09,385.37c-.11-.25-.23-.51-.34-.77l-2.34,0c.22.53.43,1.05.66,1.59a1.89,1.89,0,0,1-.26,1.82,1.68,1.68,0,0,1-.74.55,1.74,1.74,0,0,1-.46.13H237l-6.16.07-12.35.09-24.7.21-49.37.38-12.35.08-6.18.05h-3.09a24.47,24.47,0,0,1-2.8-.05,6.34,6.34,0,0,1-4-2.23,5.87,5.87,0,0,1-.65-1,9.41,9.41,0,0,1-.52-1.18l-1.13-2.88c-1.49-3.83-2.89-7.7-4.3-11.56-2.85-7.75-5.76-15.44-9.1-23s-7-14.91-10.39-22.43a1.55,1.55,0,0,1,1.31-2.24l2.48,0-1-2.49a2.58,2.58,0,0,1-.18-.58l-1.34,0a4.65,4.65,0,0,0-3.9,2.13,4.91,4.91,0,0,0-.42,4.45c2.88,7.71,5.42,15.55,8.31,23.27s6.23,15.25,9.63,22.74c1.71,3.75,3.41,7.5,5,11.28l1.21,2.83a13.7,13.7,0,0,0,.78,1.62,11.41,11.41,0,0,0,1.08,1.59,10.33,10.33,0,0,0,6.6,3.54,11.66,11.66,0,0,0,1.83.06l1.54,0,3.08-.07,6.17-.14,12.35-.28L193.82,392l24.68-.5,12.35-.25,6.17-.13h.38l.54-.05a4.29,4.29,0,0,0,1-.29,4.11,4.11,0,0,0,2.12-5.36Z"/><path class="cls-1" d="M245.18,383.81c-2.37,3.51-3.71,5.62-6.19,6.91,0,0-2.42-6.06-2.22-6.06S243.79,384.43,245.18,383.81Z"/><path class="cls-1" d="M92.67,315.71c-3,2.24-5.78,7.07-5.78,7.07l3.23.59,2.55-2.3Z"/><path class="cls-1" d="M239.58,384.62l-114.35,1.65a8.26,8.26,0,0,1-7.77-5.13l-24.4-59.6-1.85,0a3.15,3.15,0,0,0-2.87,4.34l24.79,60.55a8.25,8.25,0,0,0,7.76,5.13L237.4,389.9a3,3,0,0,0,2.68-4.11Z"/><path class="cls-1" d="M243.4,380.91c-3.15-7.61-6.24-15.23-9.47-22.81s-6.64-15.06-10.09-22.54c-1.72-3.74-3.44-7.48-5.08-11.26l-1.22-2.83-.59-1.36a6.64,6.64,0,0,0-.59-1,6.45,6.45,0,0,0-3.94-2.55,5.93,5.93,0,0,0-1.19-.12h-1.5l-3.08,0-6.17.09-12.35.18-49.38.43c-8.23.05-16.46.21-24.69.34l-12.35.21-6.16.1A1.54,1.54,0,0,0,94.24,320c3.36,7.52,7,14.9,10.39,22.43s6.26,15.22,9.09,23c1.41,3.87,2.82,7.74,4.32,11.57l1.12,2.88a8.14,8.14,0,0,0,.52,1.18,6.21,6.21,0,0,0,4.64,3.2,27,27,0,0,0,2.8.05l3.09,0,6.17,0,12.35-.08,49.38-.36,24.7-.22,12.34-.1,6.17-.05H242a2.12,2.12,0,0,0,.45-.11,1.85,1.85,0,0,0,1-2.38Zm2-.86a4.1,4.1,0,0,1-2.12,5.36,4.75,4.75,0,0,1-1,.3l-.53.05h-.38l-6.17.12-12.35.25-24.68.5-49.38,1.07-12.34.28-6.17.13-3.09.07-1.54,0a11.63,11.63,0,0,1-1.82-.07,10.27,10.27,0,0,1-6.59-3.55,10.06,10.06,0,0,1-1.1-1.57,15.11,15.11,0,0,1-.77-1.62l-1.22-2.84c-1.62-3.78-3.33-7.52-5-11.27-3.4-7.5-6.72-15-9.61-22.75S94,329,91.16,321.29a4.89,4.89,0,0,1,.43-4.44,4.72,4.72,0,0,1,3.9-2.15l6.18-.07,12.34-.16c8.23-.1,16.46-.19,24.69-.38l49.38-1,12.34-.19,6.18-.09,3.08-.05h1.59a9.72,9.72,0,0,1,1.87.19,10,10,0,0,1,6.19,4,9.08,9.08,0,0,1,.94,1.63c.27.57.42,1,.63,1.47l1.18,2.86c1.57,3.8,3,7.64,4.52,11.49,3,7.68,5.91,15.37,9.11,23S242.18,372.49,245.43,380.05Z"/><path class="cls-1" d="M223.36,330.78c-5.26.33-10.52.51-15.78.76l-15.77.5c-10.52.29-21,.44-31.55.53s-21,.13-31.56,0l-15.78-.19c-5.26-.14-10.52-.21-15.78-.42a.47.47,0,0,1-.44-.48.47.47,0,0,1,.43-.45c5.26-.29,10.52-.43,15.78-.65l15.77-.42c10.52-.29,21-.39,31.55-.48s21-.07,31.56.07l15.78.26c5.26.17,10.52.27,15.78.53a.22.22,0,0,1,.22.23A.23.23,0,0,1,223.36,330.78Z"/><path class="cls-1" d="M238.3,368.11c-5.26.33-10.52.51-15.77.76l-15.78.49c-10.51.3-21,.45-31.55.54s-21,.12-31.56,0l-15.78-.19c-5.26-.14-10.52-.21-15.78-.42a.46.46,0,0,1,0-.92c5.25-.29,10.51-.44,15.77-.66l15.77-.42c10.52-.29,21-.38,31.56-.47s21-.08,31.55.06l15.78.26c5.27.18,10.53.28,15.79.53a.23.23,0,0,1,.21.23A.24.24,0,0,1,238.3,368.11Z"/><path class="cls-2" d="M169.6,262.13c-27.73,0-34.43,24.38-34.43,33.94s8.13,37,34.43,56.42C195.89,333.05,204,305.64,204,296.07S197.33,262.13,169.6,262.13Z"/><path class="cls-1" d="M169.6,264.88c-4.76.12-9.53.35-14.09,1.89a16.69,16.69,0,0,0-3.32,1.4,16.16,16.16,0,0,0-3.06,1.91c-.48.37-1,.73-1.44,1.11a17.3,17.3,0,0,0-1.29,1.28l-1.28,1.29L144,275.19a33.46,33.46,0,0,0-6.12,13.18,34,34,0,0,0-1,7.16,33.34,33.34,0,0,0,.88,7.13,80,80,0,0,0,12,27.12c1.34,2.1,2.92,4,4.42,6s3.18,3.86,5,5.62a95,95,0,0,0,11.09,10.11H168.9a105.79,105.79,0,0,0,19.8-22.24,93.88,93.88,0,0,0,7.2-12.92,95.83,95.83,0,0,0,5.27-13.78,33.13,33.13,0,0,0,1.17-7.08,26.86,26.86,0,0,0-.91-7.19A31.74,31.74,0,0,0,195,275.39a28.22,28.22,0,0,0-11.48-8.14A41.5,41.5,0,0,0,169.6,264.88Zm0-5.5a37.23,37.23,0,0,1,15.79,3.5,32.06,32.06,0,0,1,12.25,10.43,43.29,43.29,0,0,1,6.64,14.3,40.56,40.56,0,0,1,1.37,7.84,36.07,36.07,0,0,1-.58,8c-1.76,10.42-6.43,20-12.47,28.52-1.47,2.15-3.14,4.16-4.79,6.16s-3.47,3.88-5.4,5.63c-.94.89-1.86,1.81-2.82,2.67l-3,2.45c-2,1.66-4.18,3.05-6.28,4.53h0a1.2,1.2,0,0,1-1.37,0,89.68,89.68,0,0,1-21.63-21.91,83.09,83.09,0,0,1-12.92-28.1,35.4,35.4,0,0,1-.87-8,32.24,32.24,0,0,1,1.32-7.87,44.16,44.16,0,0,1,2.81-7.38,37.47,37.47,0,0,1,2-3.43,29,29,0,0,1,2.24-3.26A38.36,38.36,0,0,1,154,263.36,34.49,34.49,0,0,1,169.6,259.38Z"/><path class="cls-1" d="M170.85,265c-8.25,0-23.49,13.57-24.56,22.41-2,16.24,11.29,22.41,14.16,30.48s-5.55,18.82,9.15,33.16c3.31,5.11-38.89-21.9-33.69-61.34C141.65,260.48,170.85,265,170.85,265Z"/><path class="cls-1" d="M431.4,385.21l-25.69-60.9a8.21,8.21,0,0,0-7.68-5L282.53,321a3.15,3.15,0,0,0-2.87,4.34l24.79,60.55a8.27,8.27,0,0,0,7.76,5.13l116.51-1.69A3,3,0,0,0,431.4,385.21Zm-49.1-30.49c-1.47,1.34-3,2.63-4.52,3.91a81.73,81.73,0,0,1-9.74,7.06,1.62,1.62,0,0,1-2.16-2.32,84.05,84.05,0,0,1,7.79-9.18,4,4,0,0,0,.29-.29l-32.5-.94a2,2,0,0,1-.1-3.92l29.42-2.4c-1.34-.89-2.69-1.79-4-2.71-3.27-2.3-6.51-4.64-9.6-7.23a1.42,1.42,0,0,1,1.44-2.41c3.74,1.5,7.34,3.25,10.91,5S376.57,343,380,345l1.3.75a5.66,5.66,0,0,1,2.28,2.49A5.6,5.6,0,0,1,382.3,354.72Z"/><path class="cls-1" d="M430.39,385.63c-3.15-7.6-6.25-15.23-9.47-22.8s-6.65-15.06-10.1-22.54c-1.72-3.74-3.44-7.48-5.07-11.26l-1.22-2.83-.59-1.37a7.19,7.19,0,0,0-.6-1,6.41,6.41,0,0,0-3.93-2.54,5.94,5.94,0,0,0-1.19-.13l-1.5,0-3.08,0-6.18.09-12.34.17-49.38.44c-8.24.05-16.47.2-24.69.34l-12.35.21-6.16.1a1.54,1.54,0,0,0-1.31,2.23c3.35,7.52,7,14.9,10.39,22.42s6.25,15.23,9.09,23c1.41,3.87,2.82,7.74,4.31,11.58l1.13,2.87a8.86,8.86,0,0,0,.52,1.19,6.17,6.17,0,0,0,.64,1,6.34,6.34,0,0,0,4,2.23,24.6,24.6,0,0,0,2.81,0l3.09,0,6.17,0,12.35-.08,49.38-.37,24.69-.21,12.35-.11,6.17-.05h.63a2.5,2.5,0,0,0,.45-.12,1.92,1.92,0,0,0,.74-.56A1.84,1.84,0,0,0,430.39,385.63Zm2-.85a4.13,4.13,0,0,1-2.13,5.36,4.16,4.16,0,0,1-1,.29l-.53.05h-.38l-6.18.13-12.34.25-24.69.5-49.37,1.06-12.34.28-6.18.14-3.08.07-1.54,0a12.88,12.88,0,0,1-1.82-.06,10.32,10.32,0,0,1-6.6-3.55,10.81,10.81,0,0,1-1.09-1.58,14.19,14.19,0,0,1-.77-1.61l-1.22-2.84c-1.62-3.78-3.33-7.53-5-11.28-3.4-7.5-6.73-15-9.62-22.74S281,333.73,278.15,326a4.88,4.88,0,0,1,.43-4.45,4.69,4.69,0,0,1,3.89-2.14l6.19-.08L301,319.2c8.23-.11,16.46-.19,24.69-.38l49.38-1,12.34-.18,6.17-.09,3.09-.05,1.59,0a9.82,9.82,0,0,1,1.87.2,10.09,10.09,0,0,1,6.19,4,10.6,10.6,0,0,1,.94,1.63c.27.58.42,1,.63,1.48l1.18,2.85c1.56,3.81,3,7.65,4.52,11.49,3,7.69,5.91,15.38,9.1,23S429.16,377.22,432.42,384.78Z"/><path class="cls-1" d="M436.51,383.22c-2.38,3.51-3.72,5.62-6.2,6.91,0,0-2.42-6.06-2.21-6.06S435.11,383.84,436.51,383.22Z"/><path class="cls-1" d="M284,315.12c-3,2.24-5.78,7.07-5.78,7.07l3.22.59,2.56-2.3Z"/><path class="cls-1" d="M434.72,380.32c-3.14-7.61-6.24-15.23-9.47-22.8s-6.64-15.07-10.09-22.55c-1.72-3.74-3.44-7.48-5.07-11.26l-1.23-2.83-.59-1.36a5.93,5.93,0,0,0-.59-1,6.43,6.43,0,0,0-3.93-2.55,6.88,6.88,0,0,0-1.2-.12h-1.49l-3.09.05-6.17.08-12.35.18-49.38.43c-8.23.06-16.46.21-24.69.35l-12.34.2-6.16.11a1.53,1.53,0,0,0-1.32,2.22c3.36,7.52,7.05,14.91,10.39,22.43s6.26,15.23,9.09,23c1.42,3.87,2.83,7.74,4.32,11.57l1.12,2.88a9.41,9.41,0,0,0,.52,1.18,6.21,6.21,0,0,0,4.64,3.2,27.15,27.15,0,0,0,2.81,0l3.08,0,6.18,0,12.34-.09,49.39-.36,24.69-.21,12.34-.11,6.18-.05H433l.24,0a2.12,2.12,0,0,0,.45-.11,1.85,1.85,0,0,0,1-2.38Zm2-.86a4.1,4.1,0,0,1-2.12,5.36,4.19,4.19,0,0,1-1,.3l-.53.05h-.39l-6.17.12-12.34.25-24.69.51-49.38,1.06-12.34.28-6.17.13-3.09.07-1.54,0a11.71,11.71,0,0,1-1.82-.07,10.3,10.3,0,0,1-6.59-3.54,10.64,10.64,0,0,1-1.1-1.58,16.21,16.21,0,0,1-.77-1.62L305.47,378c-1.63-3.79-3.34-7.53-5-11.28-3.4-7.5-6.73-15-9.62-22.74s-5.44-15.56-8.33-23.28a4.89,4.89,0,0,1,.43-4.44,4.7,4.7,0,0,1,3.9-2.14L293,314l12.35-.16c8.23-.1,16.46-.19,24.69-.38l49.37-1,12.35-.19,6.17-.09,3.08,0,1.59,0a10.8,10.8,0,0,1,1.88.19,10,10,0,0,1,6.18,4,10.2,10.2,0,0,1,1,1.63c.26.57.42,1,.63,1.47l1.17,2.86c1.57,3.8,3.05,7.64,4.53,11.49,2.95,7.69,5.9,15.37,9.1,23S433.5,371.9,436.75,379.46Z"/><path class="cls-2" d="M435.74,379.89,410.05,319a8.2,8.2,0,0,0-7.68-5l-115.51,1.68A3.16,3.16,0,0,0,284,320l24.79,60.54a8.23,8.23,0,0,0,7.76,5.13L433.06,384A3,3,0,0,0,435.74,379.89ZM382.3,354.72c-1.47,1.34-3,2.63-4.52,3.91a81.73,81.73,0,0,1-9.74,7.06,1.62,1.62,0,0,1-2.16-2.32,84.05,84.05,0,0,1,7.79-9.18,4,4,0,0,0,.29-.29l-32.5-.94a2,2,0,0,1-.1-3.92l29.42-2.4c-1.34-.89-2.69-1.79-4-2.71-3.27-2.3-6.51-4.64-9.6-7.23a1.42,1.42,0,0,1,1.44-2.41c3.74,1.5,7.34,3.25,10.91,5S376.57,343,380,345l1.3.75a5.66,5.66,0,0,1,2.28,2.49A5.6,5.6,0,0,1,382.3,354.72Z"/></g></g></svg>