<svg xmlns="http://www.w3.org/2000/svg" viewBox="0 0 499.08 495.47"><defs><style>.cls-1{fill:#5c5856;}.cls-2{fill:#f1574b;}</style></defs><title>Gives cell images for</title><g id="Layer_2" data-name="Layer 2"><g id="Layer_1-2" data-name="Layer 1"><path class="cls-1" d="M47.89,489.94q224.29-4.69,447.94-8.69l-3.12,3.39L463.08,2.11l2,1.86L15,12.55l5-5.43,14.06,241Zm-4.32,4.69-17-243L9.8,7.77h0a5.09,5.09,0,0,1,4.72-5.41h.32L465,0h0a2,2,0,0,1,2,1.86l32,482.37a3.18,3.18,0,0,1-3,3.38h-.17Q269.77,491.61,43.57,494.63Z"/><polygon class="cls-1" points="36.03 492.29 45.73 492.29 14.9 7.45 5.2 7.45 36.03 492.29"/><path class="cls-1" d="M38.21,490a36.61,36.61,0,0,1,7.52-.86l-3.18,3.39L12.92,7.57l2,1.86L5.2,12.56l5.09-5.44C19.89,167.58,28.91,328.33,38.21,490Zm-4.36,4.65Q17,252.21.1,7.77L0,6.4a4,4,0,0,1,3.7-4.24,4.3,4.3,0,0,1,1.49.18l9.7,3.12.71.23a1.84,1.84,0,0,1,1.27,1.63l32,484.76a3.18,3.18,0,0,1-3,3.39h-.22A83.88,83.88,0,0,1,33.85,494.61Z"/><path class="cls-2" d="M181.11,316.59a203.09,203.09,0,0,1-17.73-25.93c-9.26-16.14-16-32.37-19.42-48.31a77.08,77.08,0,0,0-16-11.1c-6.68-3.4-13.1-7.13-19.8-7.74-7.24-.67-13.85,2.74-20.37,5.79s-12.85,6.26-17,12.24c-3.84,5.52-4.71,12.68-6.4,20-1.51,6.5-3.79,13.25-3.5,20.65a99.42,99.42,0,0,0,2.53,21c1.68,6.58,5.84,12.5,8.9,19.06a110.94,110.94,0,0,0,10.4,18c4.27,5.93,7,12.94,12,17.47,5.49,5,12,8.59,17.93,11.61,6.68,3.4,14,3.66,20.67,4.27,7.25.67,14.5,1.47,21-1.57s11.08-8.77,15.23-14.75c3.84-5.52,7.89-11.6,9.58-18.91a80.75,80.75,0,0,0,2-21.18C181.14,317,181.12,316.77,181.11,316.59Z"/><path class="cls-1" d="M131.7,353.78c-7.47-4.13-14.38-11-21.07-19.12-5.58-6.77-10.11-15-14.29-23.9s-8.62-17.41-10.22-26c-1.91-10.34.24-20.21,1.88-28.59,2.28-11.64,7-19.38,15.81-23.47,9.23-4.3,19.49-3.47,30.39,3,1.9,1.27,4,2.85,6.19,4.53a6.66,6.66,0,0,1,1.06-1.76c-1-1-2-1.83-2.75-2.48-7.65-6.36-17.27-9.7-25.67-11.77-10.13-2.51-20.41-2.11-29.44,2.11C72.08,231.68,64.46,242.71,60.24,256c-3.31,10.41-3.8,22.39-2.19,35.16a111.16,111.16,0,0,0,9.63,33c5.16,11,12.24,20.16,19.65,28.15,8.74,9.45,16.9,18.54,27,22.7,12.86,5.29,27.12,5.43,38.63.06,9.36-4.37,15.34-13.1,19.92-23l-10.67,5.81C153.44,362,142.08,359.51,131.7,353.78Z"/><path class="cls-1" d="M100.74,251.54c10.9-5.08,18.73,5.71,22.26,13.62,2.69,6,4.65,12.55,9,17.55,1.8,2.05,4,3.79,5.93,5.7a41.23,41.23,0,0,1,12.18,26c.64,7.62-1.93,17.53-10.1,21.35-1.76.81-3.66,1.16-5.3,2.25a11.65,11.65,0,0,0,4.7,2.59,18.24,18.24,0,0,0,4.06.58c6.35.28,11.78-1,16.35-5.69A34.78,34.78,0,0,0,168,320.76c2-6.91,2.19-14.9,1-23.44a78.06,78.06,0,0,0-6.63-22.13,77,77,0,0,0-13-19c-5.77-6.4-11.16-12.57-17.74-15.46-8.39-3.68-17.62-3.95-25-.51-6,2.81-9.77,8.56-12.62,15.1"/><path class="cls-1" d="M179.23,314.17a51.91,51.91,0,0,1,.17,6.5c0,2.22-.15,4.45-.37,6.66a73.84,73.84,0,0,1-2.38,13,48.47,48.47,0,0,1-5.73,11.79l0,0-.09.16c-1.21,2.59-2.55,5.1-4,7.54a44.23,44.23,0,0,1-4.95,6.85,36.43,36.43,0,0,1-6.25,5.58,25.5,25.5,0,0,1-3.66,2.1l-3.91,1.74,0,0-.12.05-.06,0c-8,4.77-17.65,6.26-26.79,5.17A52,52,0,0,1,107.65,378,41.42,41.42,0,0,1,96,370.94a119.7,119.7,0,0,1-10.06-9.73c-3.19-3.46-6.46-6.94-9.49-10.48a102.36,102.36,0,0,1-15.27-23.28,111.17,111.17,0,0,1-8.58-26.51A101.46,101.46,0,0,1,51,273.19a63.83,63.83,0,0,1,2.73-13.52,60.54,60.54,0,0,1,5.61-12.6,49.94,49.94,0,0,1,3.95-5.6,43.21,43.21,0,0,1,4.78-4.88,39,39,0,0,1,5.58-3.9,52.85,52.85,0,0,1,6.25-2.75l.09,0a1.34,1.34,0,0,0,.24-.12l3.91-2.19a42.12,42.12,0,0,1,19.1-4.11c6.67.1,13.21,2.12,19.47,4.42a48.36,48.36,0,0,1,16.89,10.3c1.5,1.46,3,3,4.4,4.53-.3-1.35-.57-2.71-.81-4.06-.73-.67-1.44-1.35-2.18-2a55.29,55.29,0,0,0-17.81-10.09,93.52,93.52,0,0,0-9.78-2.88,67.42,67.42,0,0,0-10.1-1.71A40.45,40.45,0,0,0,83,225l-4.09,2.2a52.69,52.69,0,0,0-6.68,2.8,42.27,42.27,0,0,0-6.14,4.13,46,46,0,0,0-5.26,5.18,54.89,54.89,0,0,0-4.36,5.94,63.46,63.46,0,0,0-6.18,13.23,64.2,64.2,0,0,0-3.13,14.27c-1.87,19.36,2.07,38.93,10.29,56.39a106,106,0,0,0,16.13,24c3.18,3.63,6.44,7,9.73,10.5a105.27,105.27,0,0,0,10.57,9.85,44.69,44.69,0,0,0,12.7,7.3,54.62,54.62,0,0,0,14.21,3.2,49.36,49.36,0,0,0,14.5-.93,44.68,44.68,0,0,0,7-2.15c.57-.2,1.11-.49,1.66-.73a11.25,11.25,0,0,0,1.62-.83l3-1.8,4.19-1.42a26.69,26.69,0,0,0,4.08-1.94,32.87,32.87,0,0,0,7.11-5.58,48.6,48.6,0,0,0,5.63-7,66.69,66.69,0,0,0,4.35-7.66,52,52,0,0,0,6.33-12.48,46.87,46.87,0,0,0,1.59-6.89q.58-3.43.87-6.92a75.23,75.23,0,0,0,.22-8.88C181.67,317.25,180.44,315.72,179.23,314.17Z"/><path class="cls-1" d="M163.38,290.66C154,274.37,147.25,258,143.86,241.9c-14.3-16-54.2-18.16-54.2-18.16s7.67,56.93,86.53,119l6.68-21.09s-.89-2.19-2.41-5.86A203.8,203.8,0,0,1,163.38,290.66Z"/><path class="cls-2" d="M418.5,271.92a151.2,151.2,0,0,0-6.7-25.4c-11.77,3.18-25.22,1-36.77-5.64-9.45-5.46-16.32-15.57-23.72-26.09-6.27-8.92-12.08-18.9-15.71-30.53a111,111,0,0,1-5.14-34c0-.21,0-.42,0-.62-1.06-.71-2.12-1.4-3.2-2.07-11.64-7.17-24.39-11-36.27-15.25a146.53,146.53,0,0,0-38.16-8.51c-12-.91-23.92-2.38-34.66-.37A41.66,41.66,0,0,1,224,128a63.09,63.09,0,0,1,10.29,12.9c3,5,4,10.56,4.83,15.71.9,5.57,1.43,11.22-.58,16.42,0,.11-.1.21-.14.32a24.67,24.67,0,0,1-1.6,8.92c-3.53,9.19-11.57,16.78-21.59,20.75-7.88,3.12-17.32,2.43-27.29,1.86a85.4,85.4,0,0,1-26.11-5.15l-.87-.36c.79,7.29,2.53,14.81,3.85,22.6,2.09,12.33,3,25.64,8.84,38.22,5.3,11.44,11.27,23.47,19.49,34.39,7.63,10.15,19.11,17.38,29.13,26.52a206.93,206.93,0,0,0,30.94,23.59c11.64,7.17,21.45,17.32,33.33,21.53,13.07,4.64,26.88,6.21,39.35,7.15,14,1.06,26.79-3.75,38.8-7.52,13-4.09,26.11-7.93,35.18-17.88s12.84-23.14,15.7-36.46C418.23,299.2,420.84,285.76,418.5,271.92Z"/><path class="cls-1" d="M386.48,249.65c-.15-1.32-.35-2.66-.58-4A53.61,53.61,0,0,1,375,240.88c-9.45-5.46-16.32-15.57-23.72-26.09-6.27-8.92-12.08-18.9-15.71-30.53a112.72,112.72,0,0,1-4.21-19.21,165.35,165.35,0,0,0-23.78-13.54c-14.59-6.91-28.34-13.69-41.81-13.93A62.31,62.31,0,0,0,236,144.27a52.67,52.67,0,0,1,3.14,12.34c.76,4.73,1.24,9.51.15,14,11,.75,22,8.41,29.4,15.35,9,8.48,17.08,18.34,28.25,23.81,4.6,2.26,9.6,3.69,14.37,5.59a77.18,77.18,0,0,1,39.81,36.19c6.59,12.71,9.31,31.68-2.07,44.17-2.45,2.68-5.49,4.65-7.53,7.71a22,22,0,0,0,10,1.09,33.77,33.77,0,0,0,7.45-1.93c11.17-4.1,19.59-10.31,24.13-21.62C387.15,270.93,387.62,259.94,386.48,249.65Z"/><path class="cls-1" d="M422.67,276.57a65.08,65.08,0,0,0-.89-6.64c-.39-2.15-.83-4.28-1.31-6.41-1-4.25-2.09-8.47-3.47-12.6-.6-1.83-1.24-3.64-1.9-5.44-.59.23-1.19.43-1.79.62a40.83,40.83,0,0,1-4.88,1.19q1,2.85,1.88,5.75c1.2,4,2.3,8,3.2,12,.45,2,.87,4.06,1.22,6.11s.68,4,.86,6c.8,8-.06,16.27-1.42,24.5l0,.11,0,.32c-.44,10.68-1.68,21.34-5.06,31.31a67.22,67.22,0,0,1-6.77,14.19A69.35,69.35,0,0,1,392,359.72l0,0,0,0a1.84,1.84,0,0,0-.23.25,56.83,56.83,0,0,1-4,5.07c-.71.81-1.49,1.56-2.27,2.32s-1.51,1.56-2.35,2.26a81.38,81.38,0,0,1-10.27,7.95,90.59,90.59,0,0,1-11.41,6.21,97.33,97.33,0,0,1-37.78,8.28c-8.58.32-17-1.35-25.31-3.85a218.58,218.58,0,0,1-24.4-9.57c-4-1.8-8-3.67-12.06-5.53s-8-3.73-11.89-5.73c-15.63-7.92-30.39-17.47-43.18-29.21a207.35,207.35,0,0,1-33.94-39.62c-9.46-14.6-17.54-30.32-22.63-46.86a118.23,118.23,0,0,1-5-25.32,113.68,113.68,0,0,1,.61-25.82q.65-4.06,1.6-8.06-2.84-1.76-5.46-3.67a107.56,107.56,0,0,0-2.45,10.74,119.68,119.68,0,0,0-1.15,27.32,120.9,120.9,0,0,0,4.89,26.92,170.39,170.39,0,0,0,9.89,25.34,206.89,206.89,0,0,0,13.3,23.63,214,214,0,0,0,35.26,41.05c13.55,12.15,29,21.89,45.15,29.83,4,2,8.14,3.88,12.18,5.69s8.11,3.66,12.22,5.44a197.38,197.38,0,0,0,25.36,9.39c8.73,2.42,18,4,27.22,3.45a102,102,0,0,0,26.85-4.7,104.31,104.31,0,0,0,12.65-5.13A94.64,94.64,0,0,0,375,380.91c7.32-5.24,14.07-11.45,19-19.1a60.47,60.47,0,0,0,20.14-26.5,85.72,85.72,0,0,0,4.65-16.22,131.37,131.37,0,0,0,2-16.34A94.31,94.31,0,0,0,422.67,276.57Z"/><path class="cls-1" d="M330.56,146.79c-1.43-1-2.85-2-4.34-2.89-3.49-2.22-7.16-4.12-10.84-6a3.5,3.5,0,0,0-.47-.25h0l-.3-.12c-11.69-4.76-23.25-9.61-35.26-13.76-12.29-4.19-25.32-5.24-38-4.59a174.63,174.63,0,0,0-19,2c-2,.3-3.95.67-5.92,1.06q1.4.89,2.73,1.8a160.18,160.18,0,0,1,22.28-2.35c12.5-.38,25.12,1.1,36.64,5.63,5.79,2.32,11.54,4.91,17.2,7.66,5.41,2.62,10.82,5.28,16.12,8.1a3.34,3.34,0,0,0,.82.42l.21.08h.06l.14.05h0a82.6,82.6,0,0,1,17.86,8.8c0-.75,0-1.49,0-2.23C330.47,149.09,330.52,147.94,330.56,146.79Z"/><path class="cls-1" d="M351.31,214.79c-6.27-8.92-12.08-18.9-15.71-30.53a111,111,0,0,1-5.13-33.34c-19-11.35-50.11-24.74-50.11-24.74S322,214.86,363.51,241.45c0,0-.72-5.1-2-12.77C358,224.41,354.72,219.65,351.31,214.79Z"/><path class="cls-1" d="M433.72,227.53c-9.25,2.89-20.17-1.06-29.69-8.13-6.86-5.09-12.78-12.82-18.33-21.75-4.63-7.46-8-16.17-11-25.6s-6.22-18.41-6.65-27.17c-.52-10.5,2.93-20,5.68-28.08,3.81-11.24,9.56-18.27,18.8-21.15,9.73-3,19.78-.84,29.72,7.06,7.22,6.37,17.87,18.86,17.87,18.86s-9.07-13.22-13.45-18C420,96.27,410.87,91.68,402.82,88.5c-9.7-3.84-19.93-4.81-29.45-1.84-12.12,3.78-21.15,13.69-27.1,26.26-4.67,9.87-6.76,21.68-6.86,34.55a111,111,0,0,0,5.13,34c3.63,11.63,9.44,21.61,15.71,30.53,7.41,10.52,14.27,20.63,23.73,26.09,12,7,26.15,9,38.27,5.22,9.87-3.07,17-10.94,22.81-20.11"/><path class="cls-1" d="M387,114c11.47-3.58,17.8,8.16,20.24,16.46,1.86,6.34,2.93,13.07,6.61,18.6,1.51,2.28,3.42,4.29,5.11,6.45a41.25,41.25,0,0,1,8.6,27.42c-.39,7.64-4.26,17.12-12.87,19.8-1.85.58-3.78.67-5.55,1.53a11.73,11.73,0,0,0,4.31,3.19,17.69,17.69,0,0,0,3.95,1.12c6.26,1.13,11.82.53,17-3.46a34.69,34.69,0,0,0,10-13.54c2.92-6.57,4.16-14.47,4.11-23.09a78.2,78.2,0,0,0-3.61-22.83A77.25,77.25,0,0,0,434.48,125c-4.87-7.12-9.38-14-15.52-17.7-7.82-4.77-16.94-6.26-24.71-3.84-6.33,2-10.83,7.18-14.52,13.28"/><path class="cls-1" d="M373,85.32A40.39,40.39,0,0,1,393.54,85a67.2,67.2,0,0,1,9.78,3,92.18,92.18,0,0,1,9.32,4.15,55.5,55.5,0,0,1,16.3,12.39c4.43,5.21,8.48,10.6,12.62,16h0a1.72,1.72,0,0,1-2.67,2.17l-.07-.08,0,0h0l2.69-2.15A65.69,65.69,0,0,1,448,132.85q2.55,6.43,4.54,13a131.31,131.31,0,0,1,3.62,13.27c1,4.49,1.59,9.09,2.23,13.56a98.81,98.81,0,0,1,1.34,13.79,65.47,65.47,0,0,1-1.69,13.88q-.75,3.4-1.79,6.74a45.22,45.22,0,0,1-2.5,6.62,52.23,52.23,0,0,1-8,11.6l.14-.18a66,66,0,0,1-5.41,7.11,46.76,46.76,0,0,1-6.52,6.21A33,33,0,0,1,426.2,243a28.69,28.69,0,0,1-4.3,1.38l-4.38.85h0l.2-.07-3.37,1.43a11.6,11.6,0,0,1-1.71.61c-.58.16-1.16.37-1.75.5a44.72,44.72,0,0,1-7.17,1.2,49.42,49.42,0,0,1-14.5-1,54.74,54.74,0,0,1-13.65-5.07,44.68,44.68,0,0,1-11.61-8.94,105,105,0,0,1-9.16-11.16c-2.8-3.88-5.58-7.69-8.25-11.71a106.24,106.24,0,0,1-12.77-25.93c-5.82-18.4-7.11-38.32-2.67-57.26a65.81,65.81,0,0,1,12.9-26,54.41,54.41,0,0,1,5.11-5.3A45.76,45.76,0,0,1,355,92.11a41.8,41.8,0,0,1,6.64-3.28,55.17,55.17,0,0,1,7.13-1.92l-.35.12Zm.84,2.68-4.17,1.65-.26.09-.1,0a52.26,52.26,0,0,0-6.55,1.89,38.87,38.87,0,0,0-6,3.12,42.83,42.83,0,0,0-5.39,4.2,51.67,51.67,0,0,0-4.67,5,60.88,60.88,0,0,0-7.24,11.74,63.36,63.36,0,0,0-4.5,13,101.32,101.32,0,0,0-2.21,27.71,110.4,110.4,0,0,0,5,27.42,102.38,102.38,0,0,0,12,25.1c2.53,3.92,5.3,7.81,8,11.66a119.71,119.71,0,0,0,8.67,11,41.43,41.43,0,0,0,10.63,8.6,52.63,52.63,0,0,0,12.83,5.13c8.91,2.29,18.7,2.11,27.23-1.55l.07,0,.12,0h.05l4.1-1.21a26.64,26.64,0,0,0,3.91-1.58,36.72,36.72,0,0,0,6.94-4.71,44.39,44.39,0,0,0,5.82-6.12c1.75-2.22,3.42-4.53,5-6.94l.11-.15,0,0a48.67,48.67,0,0,0,7.25-10.92,73.36,73.36,0,0,0,4.1-12.57c.51-2.16.91-4.35,1.25-6.55a51.11,51.11,0,0,0,.71-6.57,98.13,98.13,0,0,0-.76-13.39,111,111,0,0,0-5.12-26.53c-2.79-8.58-5.93-17.21-11.82-23.9a1.72,1.72,0,0,1,.16-2.43,1.74,1.74,0,0,1,2.44.15h0l.09.12h0l0,0-2.74,2.1h0a199,199,0,0,0-11.39-16.62A48.37,48.37,0,0,0,412,93.46c-5.9-3.12-12.11-6-18.71-7A42.23,42.23,0,0,0,373.79,88Z"/><path class="cls-1" d="M274.8,124.24C257,118.78,238,120,221.94,122.42c-1.4.22-2.79.47-4.18.74A42.5,42.5,0,0,1,224,128c1.3,1.25,2.51,2.56,3.68,3.89,10.8-5.32,23.85-7.07,39.1-4.89,17.7,3.47,46.71,13.59,46.71,13.59S286.38,127.8,274.8,124.24Z"/><path class="cls-1" d="M403.31,317.92c-12.21,13.4-33.6,17.34-55.67,14.92-15.89-1.74-32.78-8.64-50.19-17.83-14.53-7.67-28.26-18.54-41.93-31s-27.45-23.86-36.44-37.62c-8.63-13.22-12.52-27.8-15.37-41.14a145.59,145.59,0,0,1-15.75-.37,85.4,85.4,0,0,1-26.11-5.15,88.8,88.8,0,0,1-8.44-3.78,122.36,122.36,0,0,0,.22,19.4c1.78,20.37,9.57,41.44,21.57,62.34a207.91,207.91,0,0,0,40.44,50.08c16.86,15.37,35.69,26,54.25,34.49,21.91,10,42.56,19.85,63,19.75,26-.14,50.78-10.18,66.8-27.75,13-14.3,17.05-33.7,17.85-54.06Z"/><path class="cls-1" d="M235.38,160.93c-2.69,7-10.35,11.74-19.23,14.13-6.39,1.71-14,1.59-22,.66-6.77-.77-13.7-2.9-20.84-5.65s-14.18-5.08-19.72-9c-6.63-4.74-10.74-11.41-14.33-17-5-7.73-6.49-14.61-3.8-21.61,2.84-7.37,9-12.42,18.6-14.66,7.35-1.32,20.07-1.78,20.07-1.78s-12.4-.85-17.41-.48c-7.69.56-14.85,3.88-20.66,7.24-7,4-12.52,9.8-15.3,17-3.54,9.19-1.86,19.45,2.91,29.11,3.75,7.6,9.93,14.55,17.7,20.81a82.2,82.2,0,0,0,49.24,18.4c10,.56,19.41,1.26,27.29-1.86,10-4,18.06-11.56,21.6-20.75,2.87-7.47,1.51-15.57-1.24-23.54"/><path class="cls-1" d="M143.87,134.64c3.34-8.7,13.53-6.89,19.75-4.38,4.75,1.92,9.35,4.51,14.48,4.94,2.11.18,4.26,0,6.38,0a32,32,0,0,1,20.8,8c4.46,3.91,8.36,10.82,5.84,17.35a29.49,29.49,0,0,0-1.74,4.1,8.81,8.81,0,0,0,4-1.08,13.67,13.67,0,0,0,2.59-1.86c3.69-3.26,6-6.92,6.06-12a26.94,26.94,0,0,0-3.41-12.6c-2.59-4.94-6.79-9.49-12.06-13.62a57.88,57.88,0,0,0-33.12-12.39c-6.67-.47-13-1-18.23.91-6.66,2.46-12,7.28-14.23,13.17-1.85,4.8-.85,10,1.08,15.21"/><path class="cls-1" d="M119.7,129.39a31.7,31.7,0,0,1,9.72-12.67,53.8,53.8,0,0,1,6.56-4.47,72.84,72.84,0,0,1,7-3.66,43,43,0,0,1,15.37-3.94c5.31-.19,10.54-.06,15.81,0h0a1.34,1.34,0,0,1,0,2.68h-.11v-2.68c7.3.49,14.15,3,20.72,5.47a101.78,101.78,0,0,1,9.81,4.19c3.19,1.57,6.29,3.41,9.31,5.17a75.6,75.6,0,0,1,9,5.83,50.48,50.48,0,0,1,7.63,7.7q1.71,2.1,3.24,4.34a37,37,0,0,1,2.81,4.7,40.41,40.41,0,0,1,3.2,10.45l-.05-.17A43.41,43.41,0,0,1,242.14,166a25.44,25.44,0,0,1-1,6.94,21.88,21.88,0,0,1-1.23,3.28l-1.6,3.07v0l0-.14c-1.66,7.4-6.26,13.85-12.06,18.62a42.11,42.11,0,0,1-9.65,5.86,34.73,34.73,0,0,1-11,2.76,82.11,82.11,0,0,1-11.19.19c-3.7-.17-7.36-.31-11.09-.63a82.36,82.36,0,0,1-21.9-4.72,85.32,85.32,0,0,1-36.08-26,50.84,50.84,0,0,1-9.6-20.36,35.92,35.92,0,0,1-.61-11.38,32.58,32.58,0,0,1,1.2-5.61,43,43,0,0,1,2.27-5.26l-.1.27Zm2,.78-1,3.34,0,.08a1,1,0,0,1-.08.18c-3.4,6.27-3.89,13.72-2.26,20.63a48.72,48.72,0,0,0,9.39,19.06,82.4,82.4,0,0,0,34.84,24.86,79.61,79.61,0,0,0,21,4.78c3.6.35,7.3.54,10.94.74a91.38,91.38,0,0,0,10.85,0,32.2,32.2,0,0,0,10.34-2.32,40.91,40.91,0,0,0,9.3-5.33c5.68-4.31,10.33-10.33,12.17-17.3v0l0-.1v0a34.15,34.15,0,0,0,2.16-6.21A28.81,28.81,0,0,0,240,166a46.94,46.94,0,0,0-2.75-12.83.83.83,0,0,1,0-.15v0a38.19,38.19,0,0,0-3.15-9.67,58.48,58.48,0,0,0-5.66-8.54c-1.07-1.35-2.21-2.65-3.38-3.92a42.56,42.56,0,0,0-3.65-3.59,76.53,76.53,0,0,0-8.51-6,86.54,86.54,0,0,0-18.58-9.65c-6.57-2.44-13.32-4.69-20.22-4.33a1.34,1.34,0,0,1-.13-2.67H174l0,2.68h0c-5.17-.56-10.41-1-15.58-1.08a37.59,37.59,0,0,0-15,3.34c-4.73,2.09-9.47,4.47-13.25,8A32.62,32.62,0,0,0,121.73,130.17Z"/><path class="cls-2" d="M231.45,48.81c-.33,4.53-.51,9,1.51,13.16,1.87,3.82,5.56,6.52,9.07,9.7,3.13,2.84,6.15,6.18,10.33,8.31a63.26,63.26,0,0,0,12.36,5.07c4.14,1.1,8.7.63,13.27,1a70.82,70.82,0,0,0,13.14-.19c4.59-.53,9.32.12,13.35-1.24a51.17,51.17,0,0,0,11.95-6.32c3.94-2.64,6.33-6.59,8.73-10.09,2.61-3.8,5.29-7.56,5.62-12.1s-1.42-8.82-3.44-13c-1.87-3.82-4-7.94-7.49-11.12a51.65,51.65,0,0,0-11.09-7.64c-3.8-1.93-8.26-2.88-12.72-4.07A83.55,83.55,0,0,0,269.66,18c-4.59.52-8.79,2.16-12.82,3.52a49.62,49.62,0,0,0-11.92,5.7c-3.94,2.64-8,5-10.38,8.55C231.94,39.57,231.78,44.27,231.45,48.81Z"/><path class="cls-1" d="M325.41,47.38C325,53.48,320.11,59,313.74,63c-4.59,2.86-10.51,4.55-17.05,5.74a70,70,0,0,1-17.61.52c-6.24-.46-12.28-.61-17.54-2.39-6.3-2.13-11.09-6.36-15.21-9.86-5.72-4.85-8.53-9.86-8.08-16,.47-6.42,4.09-11.83,11.05-15.85A152.7,152.7,0,0,1,264.55,19s-9.89,2.27-13.71,3.74C245,25,240.16,29.31,236.42,33.3c-4.51,4.82-7.46,10.62-7.92,16.91-.58,8,3.16,15.63,9.17,22,4.73,5,11.2,9,18.75,12.06a70.16,70.16,0,0,0,21.2,4.86A69.71,69.71,0,0,0,299.23,87c7.91-1.92,15.45-3.61,20.86-7.91,6.89-5.47,11.37-13.31,12-21.32.48-6.51-2.5-12.51-6.54-18.09"/><path class="cls-1" d="M247.73,48.52c.55-7.58,8.93-8.58,14.38-8.09,4.17.37,8.37,1.3,12.48.43,1.69-.37,3.32-1,5-1.52a26.13,26.13,0,0,1,18.13,1.3c4.4,2,9.08,6.48,8.67,12.17a23.17,23.17,0,0,0-.39,3.62,7.38,7.38,0,0,0,2.87-1.8,11,11,0,0,0,1.58-2.06c2.11-3.42,3.05-6.83,1.9-10.78a21.94,21.94,0,0,0-5.65-9A35.52,35.52,0,0,0,294.05,25a49.35,49.35,0,0,0-14.27-3.17,48.7,48.7,0,0,0-14.53,1.34c-5.32,1.21-10.38,2.28-14,5-4.62,3.5-7.62,8.52-8,13.65-.31,4.19,1.71,8,4.44,11.63"/><path class="cls-1" d="M227.62,50.15A25.77,25.77,0,0,1,232.21,38a39.45,39.45,0,0,1,4.06-5,57.87,57.87,0,0,1,4.61-4.52A35,35,0,0,1,252,21.67c4.09-1.4,8.21-2.54,12.34-3.72h0A1.09,1.09,0,0,1,265,20l-.06,0h0L264.23,18c5.82-1.35,11.75-1,17.48-.64a84.67,84.67,0,0,1,8.65.94c2.86.47,5.71,1.18,8.49,1.84a62.67,62.67,0,0,1,8.43,2.41,41.84,41.84,0,0,1,7.77,4.21,42.53,42.53,0,0,1,6.87,5.62,32.82,32.82,0,0,1,5,7.41l-.08-.13a35.3,35.3,0,0,1,5.08,10.11,20.84,20.84,0,0,1,.9,5.65,25.16,25.16,0,0,1-.71,5.63v-.1a28,28,0,0,1-5,17.4,34.88,34.88,0,0,1-6.15,6.86,28.29,28.29,0,0,1-8,4.76,65.56,65.56,0,0,1-8.69,2.8c-2.93.75-5.82,1.5-8.81,2.14a67.39,67.39,0,0,1-18.22,1.5,69.6,69.6,0,0,1-34.32-11.72A41.31,41.31,0,0,1,230.62,71a29.09,29.09,0,0,1-3.17-8.74,26.06,26.06,0,0,1-.39-4.67,32.79,32.79,0,0,1,.53-4.64l0,.23Zm1.77.13v2.9a.88.88,0,0,1,0,.17A23.87,23.87,0,0,0,232.5,70a39.61,39.61,0,0,0,11.85,12.66,67.14,67.14,0,0,0,33.08,11.16A65,65,0,0,0,295,92.56c2.89-.58,5.82-1.31,8.71-2A74.24,74.24,0,0,0,312.19,88a25.91,25.91,0,0,0,7.53-4.26,33.21,33.21,0,0,0,6-6.36A26.78,26.78,0,0,0,331.12,61v-.16a27.71,27.71,0,0,0,.21-5.37,23,23,0,0,0-1.15-5.17A37.94,37.94,0,0,0,325,40.92l-.06-.11v0a30.44,30.44,0,0,0-4.75-6.8,47.74,47.74,0,0,0-6.44-5.33c-1.16-.8-2.35-1.54-3.57-2.25a33.6,33.6,0,0,0-3.7-1.95,62.87,62.87,0,0,0-8.06-2.66,70.44,70.44,0,0,0-16.8-3.13c-5.7-.35-11.5-.51-16.8,1.4a1.08,1.08,0,0,1-1.4-.65,1.09,1.09,0,0,1,.65-1.4h0l.08,0h0l.6,2.1h0a126.3,126.3,0,0,0-12.42,2.84,30.75,30.75,0,0,0-10.9,6.15A38.31,38.31,0,0,0,233,38.46,26.6,26.6,0,0,0,229.39,50.28Z"/><path class="cls-1" d="M491.17,418c-37.39.73-74.79,1.08-112.19,1.39q-28,.22-56.1-.07l-28.05-.13-14,.11-14,.23c-37.39.68-74.75,3.58-112.14,4.38-18.7.44-37.4.58-56.1.59s-37.4-.26-56.11-1.05a3.19,3.19,0,0,1-.08-6.37c18.69-1.24,37.38-1.91,56.07-2.41s37.4-.75,56.1-.77c37.39-.11,74.82,1.88,112.22,1.65l14-.11,14-.24,28-.81q28-1,56.09-1.43c37.39-.6,74.78-1.16,112.18-1.33a3.19,3.19,0,0,1,.08,6.37Z"/><path class="cls-1" d="M74.93,439.88l119-2a2.19,2.19,0,0,1,.11,4.38l-119,4.08a3.24,3.24,0,0,1-.22-6.47Z"/><path class="cls-1" d="M76.16,463.16l68.48-.7a2.19,2.19,0,0,1,.11,4.37l-68.42,2.8a3.24,3.24,0,0,1-.26-6.47Z"/><path class="cls-1" d="M448.62,477a22.25,22.25,0,0,1-21.72-20h0a18.44,18.44,0,0,1,18.63-20.4,22.26,22.26,0,0,1,21.72,20A18.45,18.45,0,0,1,448.62,477Zm-3.09-35.52a13.77,13.77,0,0,0-10.3,4.39,13.91,13.91,0,0,0-3.5,10.74h0a17.33,17.33,0,0,0,16.89,15.54A13.59,13.59,0,0,0,462.42,457,17.32,17.32,0,0,0,445.53,441.44Z"/><ellipse class="cls-2" cx="388.03" cy="456.77" rx="17" ry="18.55" transform="translate(-210.25 421.19) rotate(-46.25)"/><path class="cls-1" d="M389.58,477a22.27,22.27,0,0,1-21.73-20,18.44,18.44,0,0,1,18.63-20.4,22.25,22.25,0,0,1,21.72,20A18.44,18.44,0,0,1,389.58,477Zm-3.1-35.52a13.59,13.59,0,0,0-13.79,15.13,17.32,17.32,0,0,0,16.89,15.54A13.59,13.59,0,0,0,403.37,457,17.32,17.32,0,0,0,386.48,441.44Z"/></g></g></svg>