<svg xmlns="http://www.w3.org/2000/svg" viewBox="0 0 497.49 494.01"><defs><style>.cls-1{fill:#f1574b;}.cls-2{fill:#5c5856;}</style></defs><title>Reagent-less &amp;amp;</title><g id="Layer_2" data-name="Layer 2"><g id="Layer_1-2" data-name="Layer 1"><path class="cls-1" d="M59.23,160.3a55.85,55.85,0,1,0,55.85,55.85A55.85,55.85,0,0,0,59.23,160.3Zm0,95.16a39.31,39.31,0,1,1,39.31-39.31A39.31,39.31,0,0,1,59.23,255.46Z"/><path class="cls-2" d="M5.16,216.15a54.28,54.28,0,0,0,75,50.5,54.59,54.59,0,1,0-71-71.24A54.26,54.26,0,0,0,5.16,216.15Zm-3.57,0a57.31,57.31,0,0,1,97.92-40.29,57.18,57.18,0,0,1-80.86,80.86A57.54,57.54,0,0,1,1.59,216.15Z"/><path class="cls-2" d="M3.37,216.15A55.85,55.85,0,0,0,59.23,272c1.36,0,4.68-.64,4.59-1.43-29.37.78-52.32-24.94-52.32-54.42S34.1,159.86,66.83,162c-1.33-.1-6.24-1.74-7.6-1.74A55.85,55.85,0,0,0,3.37,216.15Z"/><path class="cls-2" d="M21.7,216.15a37.9,37.9,0,0,0,37.53,37.9,37.9,37.9,0,1,0-26.62-64.51A37.65,37.65,0,0,0,21.7,216.15Zm-3.57,0a40.73,40.73,0,0,1,69.71-28.62,40.73,40.73,0,0,1-57.6,57.61A41.16,41.16,0,0,1,18.13,216.15Z"/><path class="cls-2" d="M56,210.5c7.51-4.61,16-9.46,24.41-1.89,6.87,6.08,6.67,15.39.64,24.07l8.72,7.72L85,245.85l-8.65-7.67A35.12,35.12,0,0,1,56,247.61l-3.52-8.74a32,32,0,0,0,17-6.83L57,221.09c-7.34,4.54-15.54,9.2-23.76,1.91-6.62-5.86-6.52-14.82-.49-23.38l-7.22-6.9L29.44,187l8.1,7.17A37,37,0,0,1,53,185.34l3.75,8.72a37.39,37.39,0,0,0-12.2,6.31Zm-6.67,3.8-9.71-8.6c-2.08,3.35-2.19,6.46.16,8.53C42.54,216.64,45.78,216.1,49.36,214.3Zm24.8,12.25c2.16-3.82,2.07-7.21-.52-9.51-2.91-2.58-6.32-1.84-10.12.08Z"/><path class="cls-1" d="M279.33,41.51a55.85,55.85,0,1,0,27.41,74.08A55.85,55.85,0,0,0,279.33,41.51Zm12.38,67.17a39.32,39.32,0,1,1-19.29-52.14A39.31,39.31,0,0,1,291.71,108.68Z"/><path class="cls-2" d="M206.87,69.67a54.4,54.4,0,0,0,26.31,72.19,54.67,54.67,0,1,0-14-89.36A54.27,54.27,0,0,0,206.87,69.67Zm-3.25-1.49A57.39,57.39,0,0,1,297.84,53.5a57.13,57.13,0,1,1-99.31,36.56A58,58,0,0,1,203.62,68.18Z"/><path class="cls-2" d="M205.25,68.92A55.86,55.86,0,0,0,232.66,143c1.24.56,4.52,1.37,4.77.61-27-11.57-37.12-44.52-24.8-71.3s44.06-41.7,72.88-26c-1.17-.64-4.94-4.19-6.18-4.76A55.85,55.85,0,0,0,205.25,68.92Z"/><path class="cls-2" d="M221.9,76.58A37.89,37.89,0,0,0,269.23,128,37.9,37.9,0,1,0,242.93,57,37.68,37.68,0,0,0,221.9,76.58Zm-3.25-1.49A40.73,40.73,0,0,1,294,78.21a40.73,40.73,0,0,1-76.4,28.27A41.16,41.16,0,0,1,218.65,75.09Z"/><path class="cls-2" d="M257.52,85.9c8.73-1.19,18.45-2.21,23.1,8.11,3.83,8.33-.1,16.78-9.12,22.29l4.87,10.58-6.61,3-4.83-10.51a35.08,35.08,0,0,1-22.45.41l.31-9.41a32,32,0,0,0,18.27.59l-6.9-15c-8.54,1.2-17.92,2.15-22.51-7.83-3.7-8,0-16.19,9-21.59l-4.55-9.91,6.6-3,4.52,9.84a36.87,36.87,0,0,1,17.73-1.79l-.09,9.49a37.55,37.55,0,0,0-13.7.85Zm-7.64.79L244.46,74.9c-3.25,2.22-4.6,5-3.29,7.88C242.69,86.08,245.88,86.89,249.88,86.69Zm17.76,21.2c3.52-2.62,4.8-5.76,3.35-8.91-1.62-3.53-5-4.23-9.29-4Z"/><path class="cls-2" d="M19.91,184.72c14.32,18.58,50.45,38.54,94,42.8a64.12,64.12,0,0,0,.41-11.37L42.59,164.94S20.76,174.91,19.91,184.72Z"/><circle class="cls-1" cx="334.11" cy="311.33" r="13.09"/><path class="cls-2" d="M480,373.12c-.88-2.25-3.24-1.72-6.68-2.1-5.22-.56-12.21.49-18.55,3-12.07,4.8-54.36,6.64-83.11.14C260.33,349,255.51,406,251.59,415.28c-7.2,17.09,5.76,38.74,5.76,38.74-.44.14,54.09-14.54,109.32-31.82,3.55-1.11-15.65-27.52,4.17-29.36,17.82-1.65,11.29,24.46,13.69,23.68C436.32,399.77,483.49,381.86,480,373.12Z"/><circle class="cls-1" cx="306.75" cy="244.96" r="4.06"/><path class="cls-1" d="M489.54,387.39c-6.05-12.46-9.19-15.37-9.19-15.37-1,6.23-4.64,7.45-15.88,9.26-13.07,2.1-13.54,9.13-30.81,15-21.23,7.18-51.77-10.45-83.6-4.83C324,396,275.4,426,259.3,417.76c0,0-84.93,120.46,101.17,53.64,78.29-28.11,108.9-44.82,123.4-58.06C495.64,402.59,495.4,399.45,489.54,387.39ZM323.18,455.87a4.35,4.35,0,1,1,2.66-5.54A4.36,4.36,0,0,1,323.18,455.87Zm52-45.4a7.78,7.78,0,1,1,4.77-9.92A7.77,7.77,0,0,1,375.19,410.47Z"/><path class="cls-2" d="M266.33,494c-14.2,0-27.1-2.53-30.1-11.08a3.23,3.23,0,1,1,6.1-2.15c1.67,4.76,13.37,8.77,41.2,5.72,25.74-2.81,58.5-10.88,92.25-22.72s64.36-26,86.22-39.91c23.62-15,30.25-25.45,28.58-30.21a3.24,3.24,0,0,1,6.11-2.14c4.26,12.14-14.63,27.26-31.22,37.81-22.26,14.15-53.35,28.55-87.55,40.55s-67.47,20.19-93.69,23.06A167.69,167.69,0,0,1,266.33,494Z"/><path class="cls-2" d="M236.23,482.93a98.29,98.29,0,0,1-4.71-37.79,167.86,167.86,0,0,1,6.76-37.08c7-24.07,17.59-46.69,28.1-69,2.62-5.6,5.24-11.18,7.69-16.81a138.18,138.18,0,0,0,6.43-17,32.27,32.27,0,0,0,1.41-8.47,13.3,13.3,0,0,0-.18-1.93,9.86,9.86,0,0,0-.54-1.88l-1.56-4.32-6.58-17.32c-4.42-11.55-8.77-23.16-12.79-34.9-2-5.88-3.93-11.78-5.61-17.78a124.32,124.32,0,0,1-4.05-18.39,1.8,1.8,0,0,1,3.57-.45v0a121.87,121.87,0,0,0,4.1,17.76c1.71,5.89,3.71,11.72,5.72,17.54,4.11,11.62,8.55,23.13,13.08,34.63l6.76,17.3,1.64,4.38a14.91,14.91,0,0,1,.74,2.57,17.77,17.77,0,0,1,.27,2.68,36.06,36.06,0,0,1-1.48,9.79,142.56,142.56,0,0,1-6.48,17.72c-2.43,5.73-5,11.37-7.58,17-10.3,22.45-20.54,44.93-27.14,68.5a162.27,162.27,0,0,0-6.19,35.81,92.09,92.09,0,0,0,4.71,35.33v0a3.24,3.24,0,0,1-6.1,2.16Z"/><path class="cls-2" d="M412.3,336.86c-21.56-4.54-38.69-12.8-51.08-28.28s-31.15-27.27-29.31-42.74S333.32,249,333.32,249s2.3,30.86,24.18,40,42.95,25.39,42.95,25.39Z"/><path class="cls-2" d="M490.58,393.66a92.11,92.11,0,0,0-18.39-30.52A162.62,162.62,0,0,0,445,339c-19.87-14.27-41.92-25.42-64-36.51-5.52-2.79-11.06-5.59-16.54-8.54a143.76,143.76,0,0,1-16.13-9.78,36.09,36.09,0,0,1-7.27-6.72,17.22,17.22,0,0,1-1.47-2.26,15.46,15.46,0,0,1-1-2.47l-1.46-4.44-5.54-17.73c-3.65-11.81-7.37-23.58-11.43-35.22-2.06-5.8-4.14-11.59-6.49-17.26a120.72,120.72,0,0,0-7.9-16.43v0a1.8,1.8,0,0,1,3.07-1.89,125.35,125.35,0,0,1,8.33,16.89c2.44,5.73,4.6,11.56,6.74,17.39,4.19,11.67,8,23.45,11.82,35.24l5.68,17.63,1.48,4.35a10.82,10.82,0,0,0,.76,1.8,14.14,14.14,0,0,0,1.07,1.62,32.28,32.28,0,0,0,6.39,5.73,138.8,138.8,0,0,0,15.66,9.28c5.43,2.86,11,5.59,16.51,8.32,22.17,10.88,44.58,21.91,65.09,36.34a168.1,168.1,0,0,1,28.44,24.72,98.4,98.4,0,0,1,19.94,32.44,3.24,3.24,0,0,1-6.09,2.19v0Z"/><path class="cls-1" d="M428.24,227a55.62,55.62,0,1,0,55.63,55.62A55.62,55.62,0,0,0,428.24,227ZM450,292.84c3.68,4.08,7.28,8.23,10.65,12.6a2.19,2.19,0,0,1-3.07,3.08c-4.38-3.38-8.53-7-12.6-10.65-3.11-2.78-6.12-5.65-9.12-8.53-3,2.88-6,5.75-9.12,8.53-4.07,3.67-8.22,7.27-12.59,10.65a2.2,2.2,0,0,1-3.08-3.08c3.37-4.37,7-8.52,10.65-12.6,2.77-3.08,5.61-6.08,8.48-9.06-2.93-2.95-5.85-5.91-8.69-9-3.75-4-7.42-8.08-10.88-12.37a2.82,2.82,0,0,1,4-4c4.29,3.46,8.36,7.14,12.37,10.89,3,2.82,6,5.72,8.9,8.64,2.93-2.92,5.88-5.82,8.9-8.64,4-3.75,8.08-7.43,12.38-10.89a2.81,2.81,0,0,1,3.95,4c-3.46,4.29-7.13,8.37-10.88,12.37-2.84,3.05-5.75,6-8.69,9C444.35,286.76,447.19,289.76,450,292.84Z"/><path class="cls-2" d="M372.62,282.6a55.62,55.62,0,0,0,55.62,55.62c1.36,0,4.67-.64,4.58-1.42-29.25.77-52.11-24.84-52.11-54.2s22.51-56.06,55.11-53.89c-1.33-.09-6.22-1.73-7.58-1.73A55.62,55.62,0,0,0,372.62,282.6Z"/><path class="cls-2" d="M374.4,282.6a54.07,54.07,0,0,0,74.67,50.29A54.36,54.36,0,1,0,378.38,262,54.17,54.17,0,0,0,374.4,282.6Zm-3.56,0A57.15,57.15,0,0,1,450,230.12,56.91,56.91,0,1,1,387.84,323a57.22,57.22,0,0,1-17-40.4Z"/><path class="cls-2" d="M254.14,199.36c-.07-.19-.16-.24-.14-.21a1.62,1.62,0,0,0,.39.18,6.4,6.4,0,0,0,1.47.25,24.47,24.47,0,0,0,3.54,0,67.65,67.65,0,0,0,7.41-.81,83.52,83.52,0,0,0,28.47-10,65.86,65.86,0,0,0,6.3-4,25.29,25.29,0,0,0,2.76-2.23,7.51,7.51,0,0,0,1-1.13,1.78,1.78,0,0,0,.2-.4c0-.05,0,0,0,.21s.14.22.1.18a2,2,0,0,0-.41-.17,7.26,7.26,0,0,0-1.48-.24,26.11,26.11,0,0,0-3.53,0,67.08,67.08,0,0,0-7.38.94,91.91,91.91,0,0,0-14.62,3.81,90.78,90.78,0,0,0-13.78,6.2,65.68,65.68,0,0,0-6.33,3.89,24.84,24.84,0,0,0-2.76,2.19,6.11,6.11,0,0,0-1,1.1,2.84,2.84,0,0,0-.21.37S254.21,199.56,254.14,199.36Zm-3.51,1.23a3.41,3.41,0,0,1,0-2.13,5.52,5.52,0,0,1,.68-1.31,10.55,10.55,0,0,1,1.55-1.72A24.57,24.57,0,0,1,256.2,193a61.08,61.08,0,0,1,7-3.58c4.74-2.09,9.58-3.79,14.4-5.51s9.69-3.34,14.7-4.66a63.86,63.86,0,0,1,7.67-1.54,24.93,24.93,0,0,1,4.09-.17,10,10,0,0,1,2.28.37,5.55,5.55,0,0,1,1.33.59,3.08,3.08,0,0,1,1.29,3.7,5.18,5.18,0,0,1-.68,1.29,9.89,9.89,0,0,1-1.56,1.69,23.31,23.31,0,0,1-3.32,2.37,61.53,61.53,0,0,1-7,3.49c-4.75,2-9.59,3.71-14.4,5.44s-9.64,3.41-14.62,4.79a61.33,61.33,0,0,1-7.64,1.67,26,26,0,0,1-4.09.23,10.55,10.55,0,0,1-2.29-.35,5.66,5.66,0,0,1-1.35-.59A3.47,3.47,0,0,1,250.63,200.59Z"/><circle class="cls-1" cx="298.28" cy="344.44" r="6.21"/><circle class="cls-1" cx="396.44" cy="356.47" r="7.78"/><path class="cls-2" d="M283.64,286.67c.63,1.71,2.66,3.41,4.81,4.49a21.17,21.17,0,0,0,7.32,2,29.65,29.65,0,0,0,7.85-.39,43.21,43.21,0,0,0,7.74-2.15h.05a.83.83,0,0,1,.61,1.54,45.24,45.24,0,0,1-7.9,2.9,32.11,32.11,0,0,1-8.49,1.11,24.47,24.47,0,0,1-8.67-1.59,17.79,17.79,0,0,1-4-2.28,11.08,11.08,0,0,1-3.3-3.84h0a2.18,2.18,0,1,1,3.92-1.93A.72.72,0,0,1,283.64,286.67Z"/><path class="cls-2" d="M283.52,311.33c2.55-5.53,5.67-15,14.76-15.3l-12.89-3.25Z"/><path class="cls-2" d="M277.62,198c-9,3.15-23.82,10.11-6.71,55.74,0,0-20.89-45.77-15.93-52.44C255.88,200.24,262.38,202.51,277.62,198Z"/><path class="cls-2" d="M421.91,445.32c-26,10.59-21.61,7.71-40.37,13.26-4.29,1.27-15.12,6.48-28.8,9.53-13.05,2.9-25.34,5.67-36.18,7.82-19.22,3.8-33.86,5.63-40,2.77C261,471.42,255.82,440.91,260.4,408c1.53-11,10.3-36.84,11.65-47.86,2.3-18.75,1.3-24.63,7.65-39,0,0-28.79,47.61-41.24,97.71-7.47,30.07-4.63,58.93,4,67.14C263.88,506.25,412.9,458.17,421.91,445.32Z"/><path class="cls-1" d="M133.62,2.44A108.06,108.06,0,1,0,241.68,110.5,108.06,108.06,0,0,0,133.62,2.44Zm0,184.12a76.06,76.06,0,1,1,76.06-76.06A76.06,76.06,0,0,1,133.62,186.56Z"/><path class="cls-2" d="M25.56,110.51A108.05,108.05,0,0,0,133.62,218.56c2.64,0,9.06-1.24,8.89-2.77-56.83,1.5-101.23-48.25-101.23-105.28S85,1.59,148.34,5.81c-2.59-.18-12.08-3.36-14.72-3.36A108,108,0,0,0,25.56,110.51Z"/><path class="cls-2" d="M61,110.5A72.84,72.84,0,0,0,82.13,162a73.26,73.26,0,0,0,79.64,16.49,73.19,73.19,0,0,0,24-15.78,73.5,73.5,0,0,0,0-104.39A73.27,73.27,0,0,0,61,110.5Zm-6.91,0A79.52,79.52,0,0,1,77.54,54.42a78.85,78.85,0,0,1,86.13-16.48A79.61,79.61,0,0,1,189,55.13a78.67,78.67,0,0,1,0,110.74A78.88,78.88,0,0,1,54.1,110.5Z"/><path class="cls-2" d="M135.61,99.16c16.8-2.83,35.53-5.36,45.14,14.32,7.9,15.88.79,32.45-16.32,43.64l10,20.17-12.59,6.27-10-20a67.81,67.81,0,0,1-43.39,2.12l0-18.22c12.5,3.6,25.22,3.34,35.38.07L129.7,118.87c-16.44,2.82-34.53,5.22-44-13.82-7.62-15.31-.94-31.31,16.1-42.28L92.42,43.88,105,37.62l9.32,18.75a71.38,71.38,0,0,1,34.18-4.5l.38,18.37a72.27,72.27,0,0,0-26.45,2.44Zm-14.73,2L109.71,78.66c-6.16,4.49-8.6,10-5.9,15.42C106.94,100.38,113.16,101.75,120.88,101.13Zm35.58,40c6.66-5.28,9-11.42,6-17.43-3.35-6.73-10-7.88-18.21-7.19Z"/><path class="cls-2" d="M29,110.5a105.33,105.33,0,0,0,179.58,75A105.57,105.57,0,1,0,59.3,36.18,104.68,104.68,0,0,0,29,110.5Zm-6.9,0A110.8,110.8,0,0,1,235.28,68.39a110.66,110.66,0,0,1-204.46,84.7A111.41,111.41,0,0,1,22.11,110.5Z"/><path class="cls-2" d="M495,161.53c-4-14.06-8.06-28.13-12.86-41.88a201.2,201.2,0,0,0-7.92-20.18A44.17,44.17,0,0,0,469,90.64a9.76,9.76,0,0,0-1.53-1.46,1.74,1.74,0,0,0-.95-.42,1.27,1.27,0,0,0-.54.38,6.43,6.43,0,0,0-1.08,1.56,42,42,0,0,0-3.05,9.68c-.75,3.48-1.36,7-1.91,10.63-1.09,7.17-2,14.43-2.94,21.7s-2,14.56-3.38,21.86-2.92,14.62-6.1,21.83a31.06,31.06,0,0,1-3,5.34,14.87,14.87,0,0,1-5.11,4.66,10.28,10.28,0,0,1-7.65.77,16,16,0,0,1-5.91-3.36,53.31,53.31,0,0,1-7.7-8.79l-6.42-8.9a60,60,0,0,0-6.74-7.92c-2.41-2.24-5.1-3.91-7.58-3.92s-4.64,1.37-6.43,4a45,45,0,0,0-4.32,9.29c-2.46,6.75-4.71,13.92-8.08,20.72s-7.87,13.31-14,18.1a40.71,40.71,0,0,1-10.08,5.81,32.44,32.44,0,0,1-11.49,2.17c-7.81.07-14.88-2.06-22-2.49a1.67,1.67,0,0,1,.13-3.34h0c3.76.09,7.48.55,11.1,1a64.22,64.22,0,0,0,10.61.67,28,28,0,0,0,9.9-2.2,36.15,36.15,0,0,0,8.71-5.42A46.88,46.88,0,0,0,373.7,186c3-6.41,5.05-13.3,7.46-20.34A50.1,50.1,0,0,1,385.93,155a16.45,16.45,0,0,1,4.6-4.85,12.47,12.47,0,0,1,6.9-2,14.37,14.37,0,0,1,6.65,1.82,25.73,25.73,0,0,1,5.06,3.69,65.53,65.53,0,0,1,7.54,8.73l6.46,8.88a47.48,47.48,0,0,0,6.75,7.69,10,10,0,0,0,3.53,2.08,3.88,3.88,0,0,0,3-.31,8.64,8.64,0,0,0,2.85-2.75,24.77,24.77,0,0,0,2.35-4.23c2.7-6.23,4.31-13.33,5.71-20.38s2.43-14.3,3.46-21.53,2.05-14.5,3.26-21.79c.61-3.64,1.28-7.29,2.13-11,.42-1.83.91-3.67,1.51-5.51A29.67,29.67,0,0,1,460,88a11.62,11.62,0,0,1,2.16-2.84,6.27,6.27,0,0,1,4.34-1.79,6.93,6.93,0,0,1,4.08,1.53A14.94,14.94,0,0,1,473,87.28a48.14,48.14,0,0,1,5.75,10.11,203.53,203.53,0,0,1,7.6,20.89c4.25,14.1,7.9,28.32,11.11,42.63a1.26,1.26,0,0,1-2.45.62Z"/><path class="cls-2" d="M266.75,247.88a62.69,62.69,0,0,1-7.33,8.93,43.39,43.39,0,0,1-9.37,7,48.86,48.86,0,0,1-10.85,4.45,40.19,40.19,0,0,1-11.78,1.56A48.39,48.39,0,0,1,215.73,268c-3.75-1-7.31-2.31-10.81-3.25a32.31,32.31,0,0,0-10.35-1.28,28,28,0,0,0-9.88,2.65c-6.29,3-11.47,8-15.52,13.9a93,93,0,0,0-9.78,19.51c-2.64,6.9-4.83,14-6.95,21.25s-4.14,14.51-6.74,21.77a86.91,86.91,0,0,1-4.58,10.8,30.68,30.68,0,0,1-7.66,10,16.33,16.33,0,0,1-6.27,3.06,14.79,14.79,0,0,1-7.06-.06c-4.61-1.19-8-4-10.89-6.62s-5.44-5.53-8-8.1a31.82,31.82,0,0,0-8.11-6.26,11.46,11.46,0,0,0-8.73-.73c-2.83.88-5.23,3.06-7.31,5.85a94.69,94.69,0,0,0-5.79,9.31,111.63,111.63,0,0,1-6.16,9.8,53.36,53.36,0,0,1-7.9,8.85,42,42,0,0,1-10,6.56c-7.43,3.3-15.35,4.12-23,4.15A103.68,103.68,0,0,1,1.3,386.43,1.67,1.67,0,0,1,2,383.16H2A108,108,0,0,0,24.08,385c7.33-.22,14.74-1.29,21.07-4.34a39.53,39.53,0,0,0,8.67-6,48.55,48.55,0,0,0,7-8.12A109.67,109.67,0,0,0,66.48,357a97.8,97.8,0,0,1,6-10,27.27,27.27,0,0,1,4.22-4.7A17.71,17.71,0,0,1,82.48,339a17.39,17.39,0,0,1,6.73-.9,17.84,17.84,0,0,1,6.51,1.73,37.86,37.86,0,0,1,9.8,7.38c2.77,2.72,5.3,5.51,7.93,7.93s5.39,4.43,8.16,5.1a8.7,8.7,0,0,0,4.15,0,10,10,0,0,0,3.79-1.9,24.61,24.61,0,0,0,5.91-7.93,79.92,79.92,0,0,0,4.19-10c4.82-14,8.33-28.81,13.91-43.13a96.37,96.37,0,0,1,10.73-20.68c4.53-6.41,10.56-12.27,18.1-15.54a33,33,0,0,1,11.92-2.86,37.31,37.31,0,0,1,12,1.74c3.75,1.11,7.26,2.48,10.76,3.53a43.06,43.06,0,0,0,10.54,2,42.06,42.06,0,0,0,20.79-4.71c6.48-3.25,11.82-8.42,16.34-14.33a1.27,1.27,0,0,1,2,1.5Z"/><circle class="cls-1" cx="395.96" cy="151.31" r="13.73"/><path class="cls-2" d="M385.14,151.31a11.89,11.89,0,0,0,2.91,7.9,10.73,10.73,0,0,0,7.91,3.66,11.46,11.46,0,0,0,8.11-19.67A11.44,11.44,0,0,0,396,140a10.82,10.82,0,0,0-7.8,3.55A11.73,11.73,0,0,0,385.14,151.31Zm-5.83,0a15.89,15.89,0,0,1,5-11.61A16.69,16.69,0,0,1,396,135.21a16,16,0,0,1,11.2,27.3,15.91,15.91,0,0,1-11.2,4.7,16.94,16.94,0,0,1-11.52-4.39A15.78,15.78,0,0,1,379.31,151.31Z"/><circle class="cls-1" cx="86.95" cy="340.92" r="13.73"/><path class="cls-2" d="M76.14,340.92a11.84,11.84,0,0,0,2.91,7.9,10.7,10.7,0,0,0,7.9,3.66,11.45,11.45,0,0,0,8.11-19.67A11.47,11.47,0,0,0,87,329.56a10.81,10.81,0,0,0-7.8,3.56A11.64,11.64,0,0,0,76.14,340.92Zm-5.83,0a15.89,15.89,0,0,1,5-11.62A16.71,16.71,0,0,1,87,324.81a16,16,0,0,1,15.87,16.11A16,16,0,0,1,87,356.81a16.85,16.85,0,0,1-11.51-4.38A15.74,15.74,0,0,1,70.31,340.92Z"/></g></g></svg>