<svg width="151" height="150" viewBox="0 0 151 150" fill="none" xmlns="http://www.w3.org/2000/svg">
<path d="M2.399 122.856L95.0818 121.534L95.6693 25.7177L1.46875 27.0396L2.399 122.856Z" fill="white"/>
<path d="M3.03557 122.17C33.7829 121.583 64.3834 120.995 95.0818 120.604L94.1516 121.534L95.0818 25.7177L95.6694 26.3052L1.51778 28.5084L2.98661 26.9906L3.08453 74.4336L3.03557 122.17ZM1.76259 123.492L0.832333 75.4129L0 27.0396C0 26.2073 0.63649 25.5708 1.41986 25.5708L95.6204 25.1301C95.9631 25.1301 96.2079 25.3749 96.2079 25.7177L95.9631 121.534C95.9631 122.024 95.5715 122.464 95.0329 122.464C63.9917 122.905 32.8037 123.199 1.76259 123.492Z" fill="#5C5856"/>
<path d="M12.6324 57.1506C16.9409 49.7086 20.7599 45.8896 23.9913 43.0009C27.1737 40.1123 35.1544 33.8942 43.3308 33.1109C51.4583 32.3275 65.3632 32.6212 73.1969 38.5455C81.0306 44.4698 88.8643 57.7381 89.7946 63.3197C90.7248 68.9012 91.0676 85.2051 88.5216 90.0033C85.9756 94.8015 83.4297 104.202 70.602 110.959C57.7742 117.715 43.2818 117.177 36.5742 114.631C29.8666 112.085 17.0878 103.908 13.5626 95.4379C10.0375 86.9677 6.85502 78.6444 8.91137 70.1742C10.9677 61.704 12.6324 57.1506 12.6324 57.1506Z" fill="white"/>
<path d="M11.8978 56.8079C12.2405 56.1714 12.6322 55.5349 12.9749 54.9473C13.3177 54.3598 13.7093 53.7723 14.101 53.1848C14.8354 52.0097 15.6188 50.8836 16.4512 49.7575C18.0669 47.5053 19.8784 45.351 21.8368 43.3926C22.8161 42.4134 23.7953 41.4342 24.8724 40.5039C25.9495 39.6226 27.0267 38.7413 28.1528 37.909C30.4539 36.2933 32.902 34.8734 35.4969 33.7473C36.1334 33.5025 36.8188 33.2088 37.5043 32.964C38.1897 32.7191 38.8752 32.5233 39.5606 32.3275C39.9034 32.2295 40.2461 32.1806 40.6378 32.0827C40.9805 32.0337 41.3232 31.9358 41.7149 31.8868C42.4493 31.7889 43.1837 31.691 43.8692 31.642C46.66 31.4462 49.4018 31.3972 52.1925 31.4951C57.7251 31.7399 63.3066 32.5233 68.5944 34.6776C69.2309 34.9713 69.8674 35.2651 70.5528 35.5589C71.1893 35.9016 71.8258 36.2443 72.4133 36.636L73.2946 37.2725C73.5884 37.4683 73.8821 37.6642 74.1759 37.909C74.7145 38.3496 75.302 38.7903 75.7916 39.2799C77.848 41.1894 79.7085 43.2947 81.4221 45.449C83.1357 47.6522 84.7025 49.9533 86.0734 52.3035C87.4932 54.7025 88.7662 57.1506 89.7944 59.7455C90.0392 60.382 90.284 61.0674 90.4799 61.7529C90.6757 62.4873 90.8226 63.1728 90.9205 63.8582C91.1163 65.2291 91.2632 66.649 91.3122 68.0199C91.508 70.7617 91.557 73.5035 91.557 76.2942C91.508 79.036 91.4101 81.8268 91.0674 84.5686C90.8715 85.9395 90.6757 87.3594 90.2351 88.7792C90.1861 88.9751 90.1371 89.122 90.0882 89.3178L89.8434 89.8564L89.5986 90.395L89.4027 90.8356C89.109 91.4231 88.8152 92.0107 88.5704 92.6471C87.4443 95.1441 86.2203 97.6901 84.7025 100.04C83.1847 102.439 81.3242 104.594 79.2189 106.503C78.6803 106.944 78.1417 107.433 77.6032 107.874L75.8895 109.147C74.7145 109.93 73.5394 110.714 72.3154 111.35L71.3851 111.84C71.0914 111.987 70.7487 112.134 70.4549 112.28C69.8184 112.574 69.1819 112.917 68.5454 113.162L66.587 113.945C65.9505 114.19 65.265 114.386 64.5796 114.631C59.2429 116.344 53.6613 116.981 48.1288 116.834L47.1006 116.785L46.0724 116.736L45.0442 116.687C44.7015 116.638 44.3588 116.589 44.0161 116.589L42.9879 116.491L41.9597 116.344C41.2743 116.246 40.5888 116.099 39.9034 115.952C39.2179 115.806 38.5325 115.61 37.896 115.463C37.2105 115.218 36.574 115.022 35.9375 114.777C34.6646 114.239 33.3916 113.651 32.1676 113.064C29.7195 111.791 27.3204 110.42 25.0193 108.902C22.7181 107.384 20.4659 105.72 18.4096 103.81C16.3532 101.901 14.3948 99.7954 12.926 97.2005L12.3874 96.2213C12.1916 95.8786 12.0936 95.5848 11.9468 95.2421L11.1144 93.3326C10.5759 92.0596 10.0373 90.7866 9.54768 89.4647C8.56847 86.8698 7.73613 84.128 7.24653 81.3372C6.80588 78.4975 6.659 75.5598 7.1486 72.7201C7.29549 71.9857 7.39341 71.3002 7.58925 70.6148C7.78509 69.8804 7.98094 69.2439 8.17678 68.6074C8.56847 67.2855 8.96015 65.9635 9.4008 64.6905C9.79249 63.3686 10.2331 62.0956 10.6738 60.7737L11.3103 58.8152L11.653 57.836L11.7999 57.3464L11.8978 57.1016L11.9468 56.9547V56.9058L11.8978 56.8079ZM13.3666 57.4933L12.7791 59.3538L12.2405 61.3122C11.8978 62.6342 11.5551 63.9561 11.2613 65.2781C10.9675 66.6 10.6738 67.9219 10.429 69.2439C10.2821 69.9293 10.1842 70.5658 10.0863 71.2023C9.98833 71.8388 9.93937 72.4753 9.89041 73.1118C9.74353 75.6578 10.0373 78.2527 10.5269 80.7986C11.0655 83.3446 11.8488 85.8906 12.6812 88.3876C13.1218 89.6605 13.5625 90.9335 14.0521 92.2065C14.4927 93.4305 15.0313 94.8014 15.5209 95.8786C16.5491 98.1308 18.1648 100.285 19.9274 102.243C23.5015 106.16 27.908 109.49 32.6082 112.085C33.7833 112.721 35.0073 113.358 36.2313 113.847C36.8678 114.141 37.5043 114.288 38.0918 114.533L39.071 114.777C39.4138 114.875 39.7075 114.924 40.0503 115.022C40.6867 115.169 41.3722 115.267 42.0576 115.365L43.0369 115.512L44.065 115.61C44.4078 115.61 44.7505 115.659 45.0932 115.659H46.1214H47.1496H48.1777C50.8706 115.561 53.5634 115.267 56.1583 114.777L58.1168 114.337C58.7533 114.19 59.3898 113.994 60.0752 113.847C60.7117 113.7 61.3482 113.455 61.9847 113.26C62.6212 113.064 63.2577 112.868 63.8941 112.623C66.3911 111.742 68.8392 110.616 71.1403 109.294C73.4415 107.972 75.6447 106.503 77.5542 104.74C79.5126 102.978 81.2752 101.019 82.6951 98.8162C84.1639 96.613 85.339 94.2628 86.514 91.7658C86.8078 91.1294 87.1016 90.5418 87.4443 89.9053C87.5422 89.7585 87.5912 89.5626 87.6891 89.4647L87.8849 89.073L88.0808 88.6813C88.1297 88.5344 88.1787 88.3876 88.2277 88.2407C88.6193 87.0656 88.8641 85.7437 89.06 84.4217C89.4517 81.7778 89.5986 79.085 89.6475 76.3922C89.6965 73.6993 89.6965 70.9575 89.5006 68.2647C89.4027 66.9427 89.3048 65.5718 89.1579 64.2499C89.06 63.5644 88.9621 62.9769 88.7662 62.3894C88.5704 61.7529 88.3745 61.1654 88.1297 60.5289C87.1505 58.0808 85.8775 55.6818 84.5066 53.3806C83.1357 51.0794 81.569 48.8762 79.9533 46.7219C78.2886 44.6166 76.4771 42.6092 74.5186 40.8466C74.029 40.406 73.4905 40.0143 73.0009 39.5737C72.7561 39.3778 72.4623 39.182 72.2175 38.9861L71.4341 38.4476C70.8955 38.1048 70.308 37.8111 69.7205 37.5173L67.9089 36.7339C65.4609 35.7547 62.866 35.1182 60.271 34.7265C57.6272 34.2859 54.9833 34.09 52.2904 34.09C49.5976 34.0411 46.9048 34.139 44.2609 34.4328C43.5754 34.4817 42.9879 34.5797 42.3514 34.6776C42.0576 34.7265 41.7149 34.8245 41.4212 34.8734C41.1274 34.9224 40.7847 35.0203 40.4909 35.1182C39.8544 35.3141 39.2669 35.461 38.6304 35.7058C37.9939 35.9016 37.4064 36.1464 36.8188 36.3912C35.6438 36.9298 34.4198 37.5173 33.2937 38.1538C32.1676 38.7903 30.9925 39.4757 29.9154 40.2591C28.7893 40.9935 27.7121 41.7769 26.684 42.6092C25.6068 43.3926 24.6276 44.2739 23.5994 45.1552C21.592 46.9178 19.7315 48.8272 18.0669 50.9326C17.2345 51.9607 16.4512 53.0868 15.6678 54.164C15.2761 54.7025 14.9334 55.2901 14.5906 55.8776C14.0031 56.3672 13.7093 56.9058 13.3666 57.4933Z" fill="#5C5856"/>
<path d="M84.2127 51.2264C84.2127 51.2264 89.6963 61.0185 89.9901 64.5927C90.3328 68.1668 90.7734 74.4338 89.6473 78.7423C90.1369 83.0998 90.6755 88.5834 86.6607 93.8712C85.1919 96.7599 82.8907 102.244 80.1489 104.692C77.4561 107.14 68.5942 111.889 68.5942 111.889C68.5942 111.889 62.6699 115.169 53.7101 115.904C44.7503 116.638 42.1064 116.295 42.1064 116.295C42.1064 116.295 36.329 114.386 33.6362 113.749C32.2163 112.525 29.6704 110.567 24.7253 108.559L21.9346 105.622C30.6496 109.147 32.7549 102.195 37.8958 104.692C43.0367 107.189 53.857 111.252 59.5364 108.07C65.2159 104.887 64.3346 87.898 73.6371 85.3031C82.9397 82.7082 85.4367 65.8656 80.4427 58.0319C77.0644 52.6952 76.4769 49.3169 70.2589 45.7917C64.0408 42.2665 70.2589 45.7917 70.2589 45.7917C70.2589 45.7917 79.7083 42.0707 84.2127 51.2264Z" fill="#5C5856"/>
<path d="M80.2959 121.73L83.0377 86.9187H87.9338V121.632L80.2959 121.73Z" fill="#5C5856"/>
<path d="M25.9488 63.4176C28.6906 58.6684 31.1386 56.2203 33.195 54.3598C35.2513 52.4993 40.2943 48.5824 45.5331 48.0439C50.7229 47.5543 59.5848 47.7012 64.5788 51.5201C69.5728 55.2901 74.5668 63.7603 75.2033 67.3344C75.8398 70.9086 76.0357 81.2882 74.371 84.3728C72.7553 87.4083 71.0906 93.4305 62.9631 97.7391C54.8357 102.048 45.5331 101.705 41.2246 100.089C36.965 98.4735 28.7885 93.2347 26.5363 87.849C24.2841 82.4633 22.2767 77.1266 23.5987 71.7409C24.9206 66.3062 25.9488 63.4176 25.9488 63.4176Z" fill="#F05255"/>
<path d="M25.0677 63.0258C25.3125 62.6341 25.5573 62.1445 25.8021 61.8018C26.0469 61.4101 26.2917 61.0674 26.4876 60.6757C26.9772 59.9413 27.4668 59.1579 27.9564 58.4235C28.9846 56.9547 30.1107 55.5348 31.3347 54.2129C33.7827 51.52 36.7693 49.3168 40.1966 47.799C41.0779 47.4563 41.9592 47.1136 42.8894 46.8688C43.3301 46.7219 43.8197 46.6729 44.3093 46.575C44.7989 46.526 45.2885 46.4281 45.7292 46.4281C47.5407 46.2812 49.3523 46.2812 51.1149 46.3792C54.689 46.575 58.3121 47.1136 61.7883 48.5334L63.0613 49.121C63.453 49.3658 63.8936 49.5616 64.2853 49.8554C64.677 50.1491 65.0687 50.3939 65.4604 50.6877C65.8031 50.9815 66.1948 51.2752 66.5375 51.618C67.9084 52.8909 69.0835 54.2618 70.1606 55.6817C71.2377 57.1016 72.2659 58.5704 73.1472 60.1371C74.0285 61.7039 74.9098 63.2706 75.5463 64.9843C75.7421 65.4249 75.84 65.8656 75.9869 66.3062C76.0849 66.7958 76.2317 67.2854 76.2807 67.7261C76.4276 68.6563 76.4765 69.5376 76.5745 70.4189C76.6724 72.1815 76.7703 73.9441 76.7703 75.7556C76.7703 77.5182 76.7213 79.3298 76.5255 81.1413C76.3786 82.0716 76.2807 82.9529 75.9869 83.9321C75.938 84.03 75.938 84.1769 75.889 84.2748L75.7421 84.6665L75.5952 85.0582L75.4484 85.3519C75.2525 85.6947 75.1056 86.0864 74.9098 86.478C74.2243 88.0448 73.441 89.7584 72.4128 91.3252C71.4336 92.8919 70.2096 94.3607 68.8387 95.5848C68.4959 95.8785 68.1532 96.2212 67.7615 96.515L66.6354 97.3473C65.8521 97.8369 65.1176 98.3755 64.2853 98.8162C62.6696 99.6975 60.956 100.432 59.2423 100.921C55.7661 101.999 52.0941 102.292 48.5199 102.097C46.7084 101.999 44.9458 101.803 43.1832 101.411C42.7426 101.313 42.3019 101.166 41.8613 101.068C41.4206 100.921 40.98 100.775 40.5883 100.628C39.756 100.285 38.9236 99.9423 38.1402 99.5506C36.5245 98.7672 35.0068 97.8859 33.489 96.9557C32.7056 96.466 31.9712 95.9764 31.2368 95.4868L30.1596 94.7035L29.0825 93.8222C27.6626 92.6471 26.3407 91.2762 25.3125 89.5136L24.9208 88.8282C24.774 88.5834 24.725 88.4365 24.6271 88.1917C24.4312 87.8 24.2354 87.4083 24.0395 87.0166C23.6479 86.2332 23.3051 85.4009 23.0114 84.5686C22.3749 82.8549 21.7873 81.0924 21.4936 79.2318C21.1998 77.3713 21.1998 75.3639 21.5915 73.4545C21.7873 72.5242 22.0811 71.545 22.3749 70.7616L23.2562 68.2646L25.0677 63.0258ZM26.8303 63.8092V63.7602V63.8092V63.8582L26.7813 64.005L26.6834 64.2988L26.4876 64.9353L26.1449 66.1593C25.949 66.9917 25.7532 67.824 25.6063 68.7053C25.3125 70.3699 24.9698 72.1815 24.9698 73.6503C24.9698 76.7348 25.8511 79.7704 26.8793 83.0018L27.7116 85.4009C28.0054 86.1843 28.2991 87.1145 28.5439 87.7021C29.0825 89.073 30.0128 90.3949 31.0409 91.6679C33.1462 94.2138 35.8881 96.466 38.8257 98.1307C39.5601 98.5224 40.3435 98.963 41.1269 99.2568C41.5185 99.4527 41.9102 99.5506 42.3019 99.6975C42.6936 99.7954 43.0853 99.9423 43.5259 99.9912C45.1906 100.334 46.9042 100.383 48.5689 100.285C50.2825 100.187 51.9472 99.9423 53.6119 99.5506L54.8359 99.2568C55.2276 99.1589 55.6192 99.012 56.0599 98.9141C56.4516 98.8162 56.8433 98.6693 57.235 98.5224C57.6266 98.3755 58.0183 98.2776 58.41 98.0818C59.9768 97.4942 61.4456 96.7598 62.8654 95.9764C64.2853 95.1441 65.6562 94.2628 66.8313 93.1857C68.0553 92.1085 69.1324 90.9335 70.0137 89.5626C70.944 88.1917 71.6784 86.7718 72.4128 85.1561C72.6086 84.7644 72.8045 84.3727 73.0003 83.9321L73.1472 83.6383L73.2451 83.4425L73.3431 83.2466C73.392 83.1487 73.392 83.0508 73.441 83.0018C73.6858 82.3164 73.8327 81.484 73.9795 80.7007C74.2243 79.036 74.3712 77.3713 74.4202 75.6577C74.4692 73.9441 74.4691 72.2305 74.3712 70.5168C74.3223 69.6845 74.2733 68.8032 74.1264 68.0198C74.0775 67.5792 73.9795 67.2365 73.8816 66.8937C73.7837 66.502 73.6368 66.1593 73.4899 65.7676C72.2659 62.6831 70.4054 59.7455 68.3001 57.1016C67.223 55.7796 66.0969 54.5556 64.8728 53.4785C64.5791 53.1847 64.2363 52.9889 63.9426 52.6951C63.6488 52.4503 63.3061 52.2545 62.9634 52.0096C62.6206 51.8138 62.2779 51.618 61.9352 51.4221L60.8091 50.9325C59.2913 50.345 57.6756 49.9533 56.0599 49.7085C54.3952 49.4637 52.7306 49.3658 51.0659 49.3658C49.4012 49.3658 47.6876 49.4637 46.0229 49.6106C45.5823 49.6595 45.2396 49.7085 44.8479 49.7575C44.4562 49.8554 44.1135 49.9043 43.7218 50.0512C42.9874 50.2471 42.204 50.5408 41.4696 50.8346C40.0008 51.4711 38.5809 52.3034 37.21 53.1847C36.5245 53.6254 35.8391 54.115 35.1536 54.6046C34.8109 54.8494 34.4682 55.0942 34.1744 55.339L33.1952 56.1224C31.9222 57.1995 30.6982 58.3746 29.6211 59.6475C29.0825 60.284 28.5929 60.9695 28.1033 61.6549C27.8585 61.9977 27.6137 62.3404 27.4178 62.7321C27.173 63.1727 27.0261 63.4665 26.8303 63.8092Z" fill="#5C5856"/>
<path d="M30.845 93.4795C30.8939 92.745 30.9918 92.0596 31.0898 91.3741C31.1877 90.6887 31.2856 89.9543 31.3835 89.2688C31.6283 87.8979 31.9711 86.4781 32.3138 85.1072L32.2648 85.4499C32.3627 84.03 32.4607 82.6591 32.5586 81.2393V81.1413C32.5586 81.0924 32.5586 81.0434 32.5586 80.9945C32.7055 80.309 32.9013 79.6236 33.0482 78.9381C33.244 78.2527 33.4399 77.5672 33.6357 76.9307L33.7336 76.6369C33.9295 76.3432 34.0764 76.0005 34.2722 75.7067C34.4681 75.4129 34.6639 75.0702 34.8597 74.7764L36.0348 72.9649L36.1817 72.7201C36.2306 72.6222 36.2796 72.5732 36.3775 72.5732C37.6505 71.9857 38.8745 71.3981 40.0496 70.7617C41.2246 70.1252 42.3997 69.4397 43.5748 68.7053C44.7009 67.9709 45.778 67.1875 46.8551 66.3552C47.8833 65.4739 48.9115 64.5926 49.9397 63.7603L49.8907 63.8092C50.3803 63.3196 50.821 62.83 51.3106 62.3404C51.8002 61.8508 52.2898 61.4101 52.7794 60.9205L52.5835 61.2143C52.7794 60.5778 53.0242 59.9413 53.22 59.3048C53.4159 58.6683 53.6607 58.0319 53.9055 57.4443C54.0524 57.1016 54.4441 56.9058 54.7868 57.0526C55.1295 57.1995 55.2764 57.5422 55.1785 57.885C54.9826 58.5215 54.7868 59.1579 54.5909 59.7944C54.3951 60.4309 54.1992 61.0674 53.9544 61.7039C53.9055 61.8018 53.8565 61.8998 53.7586 61.9977C53.269 62.4873 52.7794 62.9279 52.2898 63.4175C51.8002 63.8582 51.3106 64.3478 50.772 64.7884L50.723 64.8374C49.5969 65.6208 48.4708 66.3552 47.3447 67.1386C46.1697 67.824 44.9946 68.5584 43.8685 69.2928C42.6935 69.9783 41.5674 70.7127 40.4902 71.545C39.4131 72.3774 38.3849 73.2587 37.3567 74.1889L37.6995 73.7483L37.2099 75.8536C37.1119 76.1963 37.014 76.539 36.9651 76.8818C36.8671 77.2245 36.7692 77.5672 36.6713 77.9099L36.7692 77.6162C36.7202 78.3016 36.6223 79.036 36.5734 79.7215C36.4754 80.4069 36.3775 81.0924 36.2306 81.7778L36.2796 81.533C36.2306 82.9529 36.1817 84.3728 36.0838 85.7437C36.0838 85.8416 36.0348 85.9885 36.0348 86.0864C35.6921 87.4573 35.3493 88.7792 34.9087 90.1501C34.7618 90.8356 34.517 91.521 34.3212 92.1575C34.1253 92.843 33.9295 93.4795 33.6847 94.1649C33.3909 94.9483 32.5096 95.3889 31.7262 95.0952C31.1877 94.8014 30.796 94.1159 30.845 93.4795Z" fill="#5C5856"/>
<path d="M49.1564 76.539C49.3033 77.2734 49.4991 78.0568 49.695 78.7912C49.8908 79.5256 50.0867 80.26 50.2825 80.9944L49.7929 80.358C51.0169 81.3861 52.2409 82.3654 53.465 83.2956C54.1015 83.7363 54.7379 84.1769 55.4234 84.6176C56.0599 85.0582 56.7453 85.4988 57.4308 85.8905L57.2839 85.7926C58.0183 86.0864 58.7527 86.3312 59.5361 86.527C59.9278 86.6249 60.3195 86.7229 60.7112 86.8208C61.1028 86.9187 61.4945 86.9677 61.9352 87.0166C63.0123 87.1146 63.8446 88.0938 63.7467 89.1709C63.6488 90.248 62.6696 91.0804 61.5925 90.9825C61.1518 90.9335 60.7601 90.7377 60.4664 90.4929C60.1726 90.1991 59.8299 89.9543 59.4871 89.7095C59.1444 89.4647 58.8506 89.2688 58.5079 89.024C57.8225 88.5834 57.137 88.1917 56.4516 87.849L56.3536 87.8L56.3047 87.751C55.6682 87.2614 54.9827 86.8698 54.3463 86.4291C53.6608 85.9885 53.0243 85.5968 52.3389 85.1561C51.0169 84.2748 49.695 83.3935 48.3241 82.5612C48.1282 82.4633 48.0303 82.3164 47.9324 82.1206L47.8345 81.9247C47.4917 81.2393 47.198 80.5538 46.8553 79.8684C46.5125 79.1829 46.1698 78.4975 45.7781 77.861C45.2396 76.9307 45.5823 75.8046 46.4636 75.266C47.3938 74.7275 48.5199 75.0702 49.0585 75.9515C49.0585 76.1473 49.1075 76.3432 49.1564 76.539Z" fill="#5C5856"/>
<path d="M34.7133 64.8863C34.8112 64.5436 34.8112 64.2009 34.8602 63.8581C34.9091 63.5154 34.9091 63.1727 34.9581 62.83C35.0071 62.1445 35.0071 61.508 34.9581 60.8226V60.5778C34.9581 60.5288 34.9581 60.4799 35.0071 60.4309C35.3008 59.8434 35.5456 59.2069 35.7904 58.5704C36.0352 57.9339 36.2311 57.2974 36.4269 56.6609C36.4269 56.612 36.4759 56.563 36.4759 56.514C36.7697 55.9265 37.1124 55.339 37.3572 54.7025C37.6509 54.115 37.8958 53.4785 38.1406 52.842L38.1895 52.7441C38.5322 52.1565 38.826 51.52 39.0708 50.9325C39.2177 50.6387 39.3156 50.296 39.4625 49.9533C39.5604 49.6106 39.7073 49.3168 39.8052 48.9251C40.099 47.848 41.1761 47.1625 42.2533 47.4563C43.3304 47.7501 44.0159 48.8272 43.7221 49.9043C43.5752 50.4429 43.2325 50.8835 42.7918 51.1283C42.4981 51.3242 42.2043 51.52 41.9105 51.7159C41.6168 51.9117 41.372 52.1565 41.1272 52.3524C40.6376 52.8909 40.1479 53.3805 39.6583 53.8702L39.7073 53.7722C39.3156 54.3108 38.9239 54.8494 38.5812 55.4369C38.2385 56.0244 37.8957 56.563 37.553 57.1505L37.602 57.0036C37.4061 57.6401 37.2593 58.2766 37.1124 58.9131C36.9655 59.5496 36.8186 60.2351 36.7207 60.8715V60.4309C36.9165 61.0674 37.1613 61.7039 37.4061 62.2914C37.553 62.5852 37.6999 62.9279 37.8468 63.2217C37.9937 63.5154 38.1406 63.8582 38.3364 64.1519C38.9239 65.0822 38.6791 66.3551 37.6999 66.9427C36.7697 67.5302 35.4967 67.2854 34.9091 66.3062C34.6643 65.9635 34.6154 65.3759 34.7133 64.8863Z" fill="#5C5856"/>
<path d="M32.9502 93.0878C35.643 94.6056 38.8255 90.1012 41.3714 89.9543C43.8684 89.8074 46.4144 93.6753 51.2126 89.4647C56.0107 85.254 54.6398 74.6296 59.1932 73.2587C63.7465 71.8878 59.438 62.9769 63.8934 59.8924C68.3488 56.8078 72.0699 60.382 72.0699 60.382C72.0699 60.382 82.8412 80.7007 66.5373 95.3889C51.0657 107.482 34.3701 97.1515 32.9502 93.0878Z" fill="#5C5856"/>
<path d="M86.1217 149.393L149.036 148.56L149.379 84.9113L85.5342 85.7436L86.1217 149.393Z" fill="white"/>
<path d="M86.5629 149.001C107.42 148.609 128.229 148.266 149.037 147.973L148.449 148.56L149.037 84.9112L149.429 85.3029L85.5837 86.6738L86.514 85.7436C86.5629 106.748 86.514 127.752 86.5629 149.001ZM85.7306 149.833C85.3389 128.633 84.8983 107.188 84.6045 85.7436C84.6045 85.205 84.9962 84.8133 85.5347 84.8133L149.38 84.5195C149.575 84.5195 149.771 84.6664 149.771 84.8623L149.624 148.56C149.624 148.903 149.38 149.148 149.037 149.148C127.935 149.442 106.784 149.637 85.7306 149.833Z" fill="#5C5856"/>
<path d="M139.146 133.334C135.425 137.642 132.439 139.698 129.991 141.167C127.543 142.636 121.57 145.721 116.184 145.231C110.798 144.741 101.74 142.832 97.3829 138.034C93.0254 133.187 89.5492 123.59 89.5982 119.82C89.6471 116.05 91.4587 105.426 93.7109 102.586C95.9631 99.7464 98.8028 93.969 107.958 91.1783C117.114 88.3875 126.515 90.4928 130.578 92.9898C134.642 95.4868 141.937 102.39 143.21 108.315C144.483 114.239 145.511 120.065 143.112 125.353C140.762 130.592 139.146 133.334 139.146 133.334Z" fill="#F05255"/>
<path d="M139.979 133.921C139.636 134.313 139.293 134.704 139 135.047C138.706 135.39 138.363 135.733 138.069 136.075C137.433 136.761 136.796 137.397 136.111 138.083C134.789 139.405 133.369 140.629 131.851 141.755C128.816 144.007 125.388 145.721 121.569 146.602C120.59 146.798 119.66 146.945 118.632 147.042C118.142 147.091 117.604 147.091 117.114 147.042C116.624 146.994 116.086 146.994 115.645 146.945C113.785 146.749 111.924 146.406 110.113 145.965C106.49 145.035 102.866 143.811 99.6351 141.706L98.46 140.873C98.0683 140.531 97.6766 140.237 97.3339 139.894C96.9912 139.551 96.5995 139.209 96.3057 138.817C96.012 138.425 95.6692 138.083 95.4244 137.691C94.2983 136.173 93.3191 134.509 92.4868 132.844C91.6545 131.179 90.92 129.466 90.2836 127.703C89.6471 125.94 89.1085 124.178 88.7658 122.268C88.6678 121.828 88.6189 121.289 88.5699 120.799C88.521 120.31 88.521 119.771 88.5699 119.282C88.6189 118.351 88.7168 117.421 88.8147 116.491C89.0595 114.679 89.3043 112.868 89.6471 111.056C89.9898 109.245 90.3815 107.433 90.969 105.622C91.2628 104.691 91.5565 103.81 92.0461 102.88C92.0951 102.782 92.1441 102.635 92.242 102.537L92.4868 102.194L92.7316 101.852L92.9274 101.607C93.1722 101.264 93.417 100.921 93.6618 100.53C94.69 99.0609 95.8161 97.4942 97.1381 96.0743C98.46 94.6544 99.9778 93.4304 101.642 92.4022C102.083 92.1574 102.475 91.9126 102.915 91.6678L104.188 91.0313C105.07 90.6397 105.951 90.2969 106.881 90.0032L107.567 89.7584C107.812 89.7094 108.007 89.6115 108.252 89.5625C108.693 89.4646 109.182 89.3177 109.623 89.2198L111.043 88.975C111.533 88.8771 111.973 88.8281 112.463 88.7791C116.233 88.3875 120.003 88.7791 123.626 89.6604C124.066 89.7584 124.507 89.8563 124.997 90.0032C125.437 90.1501 125.878 90.248 126.319 90.3949L127.004 90.5907L127.641 90.8355C128.081 90.9824 128.522 91.1782 128.914 91.3741C129.354 91.5699 129.746 91.7658 130.187 91.9616C130.578 92.2064 131.019 92.4022 131.411 92.696C132.194 93.1856 132.928 93.7242 133.712 94.3117C135.181 95.4378 136.6 96.6129 137.971 97.8369C138.657 98.4734 139.342 99.1099 139.979 99.7953L140.958 100.823L141.888 101.901C143.112 103.369 144.189 105.034 144.924 106.993L145.169 107.727C145.267 108.021 145.315 108.168 145.364 108.412C145.462 108.853 145.609 109.294 145.707 109.734C145.952 110.616 146.148 111.546 146.295 112.476C146.637 114.337 146.882 116.246 146.784 118.205C146.735 118.694 146.735 119.184 146.686 119.673L146.588 120.408L146.442 121.142C146.344 121.632 146.197 122.121 146.099 122.611C145.952 123.101 145.805 123.59 145.609 124.031C145.413 124.521 145.218 124.961 144.973 125.402C144.728 125.891 144.532 126.234 144.287 126.626L142.916 128.976L139.979 133.921ZM138.363 132.746C138.363 132.795 138.314 132.795 138.363 132.746L138.412 132.697L138.51 132.55L138.657 132.256L138.951 131.669L139.538 130.445C139.93 129.612 140.273 128.78 140.566 127.948C141.203 126.283 141.888 124.521 142.182 123.003C142.77 119.82 142.476 116.54 142.035 113.113L141.643 110.518C141.497 109.685 141.399 108.657 141.252 108.021C140.958 106.552 140.273 104.985 139.44 103.467C137.776 100.432 135.425 97.641 132.733 95.3399C132.047 94.8013 131.362 94.2138 130.627 93.7731C130.285 93.5283 129.893 93.3325 129.501 93.1367C129.109 92.9408 128.718 92.745 128.326 92.5981C127.934 92.4512 127.494 92.3043 127.102 92.1574L126.466 91.9616L125.829 91.8147C125.388 91.7168 124.948 91.6189 124.556 91.5209C124.115 91.423 123.675 91.3741 123.234 91.3251C121.472 91.0803 119.709 91.0313 117.995 91.0803L116.673 91.1782C116.233 91.2272 115.792 91.2761 115.351 91.3251C114.911 91.3741 114.47 91.423 114.078 91.472C113.638 91.521 113.197 91.5699 112.806 91.6678C109.427 92.2554 106.098 93.3815 103.209 95.0461C101.789 95.9274 100.418 96.9066 99.2434 98.1307C98.0194 99.3057 96.9912 100.677 95.914 102.145C95.6203 102.488 95.3755 102.88 95.0817 103.272L94.8859 103.565L94.739 103.761L94.5921 103.957C94.5431 104.055 94.4942 104.104 94.4452 104.202C94.0535 104.838 93.7598 105.671 93.466 106.454C92.8785 108.07 92.4378 109.783 92.0461 111.546C91.6545 113.26 91.3117 115.022 91.1159 116.785C91.018 117.666 90.92 118.547 90.8711 119.38C90.8221 119.82 90.8711 120.212 90.8711 120.604C90.92 120.995 90.969 121.436 91.0669 121.828C91.7034 125.206 93.0743 128.535 94.69 131.669C95.5224 133.236 96.4526 134.704 97.4808 136.026C97.7256 136.369 98.0194 136.663 98.3131 137.006C98.6069 137.348 98.9007 137.593 99.1944 137.887C99.4882 138.181 99.8309 138.425 100.125 138.67L101.153 139.356C102.573 140.237 104.139 140.922 105.804 141.51C107.42 142.097 109.133 142.538 110.847 142.832C112.561 143.175 114.323 143.419 116.037 143.566C116.478 143.615 116.869 143.615 117.261 143.615C117.653 143.615 118.044 143.615 118.436 143.566C119.219 143.517 120.052 143.37 120.884 143.175C121.716 142.979 122.5 142.783 123.332 142.489C124.115 142.195 124.948 141.951 125.731 141.608C126.515 141.265 127.298 140.922 128.081 140.58C128.473 140.384 128.865 140.188 129.256 139.992C129.648 139.796 130.04 139.6 130.431 139.356C131.949 138.523 133.418 137.544 134.789 136.467C135.474 135.928 136.111 135.292 136.747 134.704C137.041 134.411 137.384 134.068 137.678 133.725C137.824 133.333 138.069 133.089 138.363 132.746Z" fill="#5C5856"/>
<path d="M139.783 101.509C137.58 106.503 135.768 111.448 131.264 115.806C126.76 120.212 125.584 125.647 123.479 128.535C121.374 131.424 118.338 135.39 112.659 137.006C106.979 138.621 101.3 138.328 99.3904 138.181C97.481 138.034 108.105 149.197 126.074 143.224C143.945 137.25 147.421 110.763 139.783 101.509Z" fill="#5C5856"/>
<path d="M110.015 105.426C107.029 108.021 110.554 111.007 111.582 115.267C112.659 119.722 111.239 125.353 107.42 126.479C103.454 127.654 95.4249 118.547 98.2156 109.734C100.027 104.104 103.503 99.061 112.659 96.3681C123.479 93.1367 133.272 103.272 130.628 107.58C127.592 112.574 123.528 110.714 119.611 108.315C115.939 106.111 112.414 103.37 110.015 105.426Z" fill="white"/>
<path d="M110.358 105.866C109.966 106.209 109.623 106.601 109.476 107.042C109.33 107.482 109.33 107.972 109.427 108.51C109.672 109.539 110.26 110.616 110.798 111.644C111.337 112.721 111.875 113.847 112.218 115.071C112.561 116.295 112.708 117.568 112.659 118.841C112.659 120.114 112.414 121.387 112.022 122.611C111.582 123.835 110.945 125.059 109.917 125.989C109.427 126.479 108.791 126.871 108.154 127.164C108.008 127.262 107.812 127.311 107.665 127.36C107.469 127.409 107.273 127.458 107.077 127.507C106.686 127.556 106.294 127.556 105.902 127.507C105.168 127.409 104.531 127.115 103.944 126.773C103.356 126.43 102.818 126.038 102.328 125.647C101.349 124.814 100.517 123.835 99.8311 122.807C99.0967 121.779 98.5092 120.653 98.0686 119.527C97.1383 117.225 96.6487 114.679 96.9425 112.182C97.0893 110.958 97.4321 109.685 97.8727 108.559C98.3134 107.433 98.803 106.307 99.4395 105.23C100.663 103.076 102.328 101.166 104.287 99.6974C106.245 98.1796 108.497 97.1025 110.749 96.2701C111.337 96.0743 111.875 95.8784 112.463 95.6826C113.051 95.4867 113.687 95.3399 114.275 95.2419C115.499 95.0461 116.772 94.9482 118.045 95.0461C120.542 95.193 123.039 95.9764 125.193 97.2493C127.347 98.5223 129.257 100.285 130.481 102.488C131.068 103.614 131.558 104.838 131.46 106.209C131.411 106.846 131.166 107.58 130.774 108.07C130.432 108.559 130.04 109.098 129.599 109.539C128.718 110.42 127.543 111.154 126.221 111.35C124.899 111.546 123.577 111.301 122.353 110.909C119.905 110.126 117.8 108.804 115.89 107.531C114.911 106.895 114.03 106.209 113.051 105.769C112.169 105.279 111.141 105.181 110.358 105.866ZM109.623 104.985C110.162 104.545 110.798 104.202 111.533 104.055C112.218 103.957 112.953 104.006 113.589 104.104C114.911 104.349 116.086 104.838 117.163 105.426C119.318 106.601 121.129 108.07 123.088 109.196C124.067 109.734 125.095 110.175 126.172 110.175C127.249 110.175 128.326 109.685 129.11 108.902C129.501 108.51 129.844 108.021 130.138 107.531C130.432 107.042 130.579 106.601 130.579 106.062C130.579 104.985 130.089 103.957 129.452 103.027C128.816 102.096 128.033 101.264 127.151 100.579C126.27 99.8443 125.34 99.2078 124.36 98.6202C122.402 97.5431 120.199 96.7597 117.947 96.5639C116.821 96.466 115.694 96.5149 114.568 96.6618C114.03 96.7597 113.442 96.8577 112.904 97.0045C112.365 97.1514 111.778 97.3473 111.239 97.5431C109.036 98.2775 106.93 99.3057 105.07 100.628C103.209 101.999 101.643 103.712 100.517 105.72C99.9291 106.699 99.4884 107.776 99.0967 108.853C98.705 109.979 98.4113 111.007 98.3134 112.182C98.1175 114.435 98.5582 116.736 99.4884 118.792C100.419 120.848 101.79 122.758 103.552 124.129C104.384 124.814 105.364 125.353 106.294 125.5C106.49 125.549 106.735 125.549 106.93 125.5C107.028 125.5 107.077 125.451 107.224 125.451C107.322 125.402 107.469 125.402 107.567 125.304C108.008 125.108 108.399 124.863 108.791 124.521C109.525 123.835 110.064 122.905 110.456 121.926C110.847 120.897 111.043 119.82 111.141 118.694C111.239 117.568 111.141 116.442 110.945 115.365C110.7 114.288 110.309 113.211 109.819 112.133L109.085 110.469C108.84 109.881 108.595 109.294 108.497 108.657C108.35 108.021 108.35 107.286 108.595 106.601C108.693 105.964 109.134 105.426 109.623 104.985Z" fill="#5C5856"/>
<path d="M107.419 114.533C108.643 116.491 108.643 119.037 106.685 119.771C102.817 120.946 101.74 116.099 102.572 114.777C103.405 113.504 106.391 112.917 107.419 114.533Z" fill="#5C5856"/>
<path d="M116.428 99.1588C117.26 100.432 117.26 102.096 115.939 102.586C113.393 103.369 112.707 100.187 113.246 99.3547C113.833 98.4734 115.743 98.0817 116.428 99.1588Z" fill="#5C5856"/>
<path d="M121.324 99.3057C123.773 100.285 128.228 103.125 127.494 105.768C126.759 108.363 124.36 107.237 123.43 106.307C122.5 105.377 122.157 102.537 120.003 101.803C117.848 100.97 118.827 98.2775 121.324 99.3057Z" fill="#5C5856"/>
<path d="M95.6201 47.4563C95.6201 47.4563 79.7568 47.4563 75.5462 47.4563C71.3845 47.4563 62.2778 41.0914 62.2778 41.0914L57.7734 26.1583H95.6201V47.4563Z" fill="#5C5856"/>
<path d="M148.742 5.49691H75.1054L69.377 0.60083H143.308L148.791 5.30107C148.889 5.35003 148.84 5.49691 148.742 5.49691Z" fill="white"/>
<path d="M148.742 6.42712C142.622 6.52504 136.453 6.57401 130.333 6.52504L121.128 6.47608L111.924 6.37816L93.5144 6.0844L75.1051 5.98648C74.9582 5.98648 74.8603 5.93751 74.7624 5.83959L69.034 0.943515C68.8381 0.747672 68.7892 0.453907 68.985 0.258064C69.0829 0.160142 69.2298 0.111182 69.3767 0.111182C75.5458 0.160142 81.7148 0.209103 87.8349 0.258064C94.004 0.355985 100.173 0.307025 106.293 0.258064C112.511 0.160142 118.68 0.0622208 124.849 0.01326C131.018 -0.0846616 137.187 0.404946 143.308 0.01326C143.405 0.01326 143.503 0.0622208 143.601 0.111182L143.65 0.160142L146.637 2.41234C147.126 2.80402 147.616 3.14675 148.106 3.53844L148.84 4.12597L149.183 4.41973L149.281 4.51765L149.33 4.56661C149.379 4.61557 149.379 4.61557 149.428 4.66453C149.477 4.7135 149.526 4.81142 149.574 4.86038C149.77 5.2031 149.721 5.59479 149.526 5.88855C149.477 6.18232 149.085 6.42712 148.742 6.42712ZM148.742 4.51765C148.497 4.51765 148.155 4.66453 148.057 4.90934C147.91 5.15414 147.91 5.44791 148.008 5.69271C148.057 5.74167 148.057 5.79063 148.106 5.88855L148.155 5.93752L148.106 5.88855L148.008 5.79063L147.665 5.49687L146.98 4.86038C146.539 4.41973 146.049 4.02804 145.609 3.5874L142.965 0.992476L143.308 1.13936C137.138 0.796633 130.969 1.23728 124.849 1.13936C118.68 1.0904 112.511 0.992476 106.391 0.943515C100.222 0.894554 94.053 0.845593 87.9329 0.943515C81.7638 0.992476 75.5947 1.0904 69.4746 1.0904L69.8174 0.209103L75.5458 5.10518L75.2031 4.9583L93.5144 4.86038L111.924 4.61557L121.128 4.51765L130.333 4.46869C136.453 4.41973 142.622 4.46869 148.742 4.51765Z" fill="#5C5856"/>
<path d="M74.9584 43.98L69.4258 38.937V0.600708L75.1542 5.49679V43.931C75.1052 43.98 75.0073 44.0289 74.9584 43.98Z" fill="white"/>
<path d="M74.4689 44.4697L71.6781 41.9726L68.8874 39.4757C68.7405 39.3288 68.6426 39.1329 68.6426 38.8881L68.6915 29.2918C68.7405 26.1094 68.7895 22.8779 68.8384 19.6955L68.9363 14.8973L68.9853 10.0992L69.0343 0.600793C69.0343 0.40495 69.1812 0.209106 69.426 0.209106C69.5239 0.209106 69.6218 0.258067 69.6708 0.307028C71.5802 1.97169 73.4407 3.5874 75.3502 5.25207C75.3992 5.30103 75.4481 5.39895 75.4481 5.44791C75.3992 8.67932 75.3502 11.9107 75.3992 15.0932C75.3992 18.3246 75.4971 21.556 75.5461 24.7385L75.595 29.5856C75.595 31.2013 75.5461 32.817 75.4971 34.4327C75.4481 36.0484 75.4481 37.6641 75.5461 39.2798L75.7419 41.6789C75.7909 42.0706 75.7909 42.4623 75.8398 42.9029C75.8398 43.0988 75.8398 43.2946 75.8888 43.4904V43.7842V43.8332C75.8888 43.8821 75.8888 43.9311 75.8888 43.98C75.8398 44.1759 75.7419 44.3717 75.595 44.4697C75.4481 44.5676 75.2523 44.6655 75.0565 44.6655C74.8116 44.7145 74.6158 44.6165 74.4689 44.4697ZM75.3992 43.4415C75.3013 43.3436 75.1544 43.2946 75.0075 43.2946C74.8606 43.2946 74.7137 43.3436 74.6158 43.4415C74.5179 43.5394 74.42 43.6863 74.42 43.7842C74.42 43.8332 74.42 43.8332 74.42 43.8821V43.8332V43.5394C74.42 43.3436 74.42 43.1477 74.4689 42.9519C74.4689 42.5602 74.5179 42.1685 74.5668 41.7278L74.7627 39.3288C74.8606 37.7131 74.8606 36.0974 74.8116 34.4817C74.7627 32.8659 74.7137 31.2502 74.7137 29.6345L74.7627 24.7874C74.8116 21.556 74.9096 18.3246 74.9096 15.1421C74.9585 11.9107 74.9096 8.67932 74.8606 5.49687L74.9585 5.69271C73.0001 4.07701 71.0906 2.4613 69.1812 0.845597L69.7687 0.551832L69.8176 10.1481L69.8666 14.9463L69.9645 19.7445C70.0135 22.9269 70.1114 26.1583 70.1114 29.3408L70.1604 38.9371L69.9156 38.3496L72.6574 40.8955L75.3992 43.4415Z" fill="#5C5856"/>
<path d="M149.036 5.49683H75.1055V43.8331H149.036V5.49683Z" fill="#F05255"/>
<path d="M150.065 44.8124L140.811 44.9593L131.46 45.0572C125.193 45.1062 118.926 45.1551 112.708 45.1551C106.441 45.1551 100.174 45.1062 93.9067 45.0572L84.5062 44.9103L75.1547 44.7145C74.6651 44.7145 74.2734 44.2738 74.2734 43.7842L74.4693 5.44793C74.4693 5.05625 74.812 4.71352 75.2037 4.71352C81.3728 4.76248 87.5418 4.81144 93.6619 4.8604C99.831 4.90937 106 5.00729 112.12 5.00729L130.578 4.90937L139.832 4.81144C142.916 4.76248 146.001 4.71352 149.086 4.6156C149.526 4.6156 149.918 4.95833 149.918 5.39897V5.44793C149.771 8.67935 149.673 11.9108 149.673 15.1422C149.673 16.7579 149.624 18.3736 149.624 19.9893C149.624 21.605 149.624 23.2207 149.624 24.8364C149.624 28.0678 149.673 31.3482 149.722 34.6286C149.771 38.0069 149.869 41.3362 150.065 44.8124ZM148.057 42.854C148.204 39.9163 148.302 36.8808 148.4 33.7962C148.449 30.7117 148.498 27.5782 148.498 24.4447C148.498 22.878 148.498 21.3112 148.498 19.6955C148.498 18.1288 148.498 16.5131 148.449 14.9463C148.4 11.7639 148.302 8.63039 148.204 5.44793L149.037 6.28027C145.952 6.18235 142.868 6.18235 139.783 6.08442L130.529 5.9865L112.071 5.88858C105.902 5.88858 99.733 5.93754 93.6129 6.03546C87.4439 6.13339 81.2748 6.13339 75.1547 6.18235L75.8891 5.44793L76.085 43.7842L75.1547 42.854L84.3104 42.6581L93.4171 42.5112C99.4882 42.4133 105.51 42.4133 111.582 42.4133C117.653 42.4133 123.675 42.4623 129.795 42.5112L138.951 42.6092L148.057 42.854Z" fill="#5C5856"/>
<path d="M80.7356 32.1316L82.4982 28.7533C83.7222 29.5856 85.2889 30.0752 86.8557 30.0752C90.3319 30.0752 91.9966 27.7741 91.8986 24.1999C90.9194 25.6687 89.1568 26.599 86.8067 26.599C82.7919 26.599 80.2949 24.0041 80.2949 20.0382C80.2949 15.7297 83.2326 13.0858 87.737 13.0858C93.0737 13.0858 96.3541 16.9048 96.3541 23.1228C96.3541 29.5856 92.731 33.7962 87.1494 33.7962C84.9462 33.7473 82.4492 33.1108 80.7356 32.1316ZM91.3601 19.9403C91.409 18.3736 90.2829 16.8558 87.9328 16.8558C85.8765 16.8558 84.5545 17.9819 84.5545 20.0382C84.5545 21.9477 85.7296 23.0738 87.7859 23.0738C90.0871 23.0249 91.3601 21.654 91.3601 19.9403Z" fill="white"/>
<path d="M113.882 18.4226C113.882 20.2341 112.854 21.8008 111.189 22.6821C113.491 23.5634 114.959 25.5219 114.959 27.872C114.959 31.4951 111.777 33.7962 106.783 33.7962C101.74 33.7962 98.6064 31.544 98.6064 27.9209C98.6064 25.5708 100.124 23.6124 102.572 22.6821C100.761 21.7519 99.6346 20.1362 99.6346 18.3246C99.6346 15.0932 102.425 13.0369 106.734 13.0369C111.091 13.0369 113.882 15.0932 113.882 18.4226ZM102.915 27.3824C102.915 29.2429 104.286 30.2711 106.734 30.2711C109.133 30.2711 110.553 29.2429 110.553 27.4313C110.553 25.6198 109.182 24.5916 106.685 24.5916C104.286 24.5916 102.915 25.6198 102.915 27.3824ZM103.454 18.6674C103.454 20.2341 104.629 21.1154 106.734 21.1154C108.79 21.1154 109.965 20.2341 109.965 18.6674C109.965 17.0516 108.79 16.1704 106.734 16.1704C104.678 16.1704 103.454 17.1006 103.454 18.6674Z" fill="white"/>
<path d="M121.911 17.4434C121.911 14.7015 124.212 12.4004 127.15 12.4004C130.039 12.4004 132.389 14.7015 132.389 17.4434C132.389 20.2341 130.039 22.4374 127.15 22.4374C124.212 22.4374 121.911 20.2341 121.911 17.4434ZM139.096 12.7921H143.503L127.493 33.5514H123.086L139.096 12.7921ZM128.766 17.4434C128.766 16.611 128.031 15.9256 127.15 15.9256C126.269 15.9256 125.534 16.611 125.534 17.4434C125.534 18.3246 126.269 18.9611 127.15 18.9611C128.031 18.9611 128.766 18.3246 128.766 17.4434ZM139.586 23.9062C142.475 23.9062 144.825 26.2073 144.825 28.9491C144.825 31.7399 142.475 33.9431 139.586 33.9431C136.648 33.9431 134.347 31.7399 134.347 28.9491C134.298 26.1584 136.648 23.9062 139.586 23.9062ZM139.586 30.418C140.467 30.418 141.202 29.7325 141.202 28.9002C141.202 28.0678 140.467 27.3824 139.586 27.3824C138.705 27.3824 137.97 28.0678 137.97 28.9002C137.97 29.7325 138.705 30.418 139.586 30.418Z" fill="white"/>
<path d="M149.38 74.8743H119.611V84.9112H149.38V74.8743Z" fill="#5C5856"/>
<path d="M35.7903 15.2401H0V27.2845H35.7903V15.2401Z" fill="#5C5856"/>
<path d="M4.16183 20.1852L27.663 20.4789C28.0057 20.4789 28.2995 20.7727 28.2995 21.1644C28.2995 21.5071 28.0057 21.8009 27.663 21.8009L4.16183 22.0947C3.62326 22.0947 3.18262 21.654 3.18262 21.1154C3.18262 20.6258 3.5743 20.1852 4.16183 20.1852Z" fill="white"/>
<path d="M125.34 78.8892L141.986 79.1829C142.329 79.1829 142.623 79.4767 142.623 79.8684C142.623 80.2111 142.329 80.5048 141.986 80.5048L125.34 80.7986C124.801 80.7986 124.36 80.358 124.36 79.8194C124.36 79.3788 124.752 78.8892 125.34 78.8892Z" fill="white"/>
</svg>
