<svg xmlns="http://www.w3.org/2000/svg" viewBox="0 0 496.06 494.67"><defs><style>.cls-1{fill:#5c5856;}.cls-2{fill:#f1574b;}</style></defs><title>Gives 7 Part Counts</title><g id="Layer_2" data-name="Layer 2"><g id="Layer_1-2" data-name="Layer 1"><path class="cls-1" d="M445.5,330.7c17.09,49,33.91,98.14,50.45,147a2.14,2.14,0,0,1-1.34,2.71,1.93,1.93,0,0,1-.62.11L78.34,494.67h0a5.76,5.76,0,0,1-5.8-4.47L38.44,341v0A3.23,3.23,0,0,1,40.86,337a3.05,3.05,0,0,1,.66-.08Q243.51,333.5,445.5,330.7Zm-3.7,5.3q-200.28,4-400.17,7.42l3.09-4,39.18,148-5.85-4.47,415.83-6.65-2,2.83C474.94,431.26,458.24,383.69,441.8,336Z"/><polygon class="cls-1" points="76.85 489.21 29.42 480.85 15.53 333.76 41.58 340.19 76.85 489.21"/><path class="cls-1" d="M82.6,494.64c-9.28-1.18-18.71-2.65-27.8-4.58S37.06,485.82,29,483.5l-.28-.08a2.67,2.67,0,0,1-1.93-2.32L12.49,334a3,3,0,0,1,2.73-3.31,3.16,3.16,0,0,1,.69,0l.36.05L43,334.49a5,5,0,0,1,4.15,3.72l.15.63c6.4,25.54,12.7,51.51,18.58,77.64S77.24,468.78,82.6,494.64ZM71.1,483.78C64.71,460,58.42,436.46,52.56,412.91s-11.34-47.23-16.7-71.37l4.31,4.35L14.8,336.72l3.78-3.25L32.1,480.6l-2.21-2.4c7.7.47,14.87.93,21.58,1.8A172.61,172.61,0,0,1,71.1,483.78Z"/><path class="cls-2" d="M162,72.77H16.49L41.58,340.19l146.72-2.14ZM119.45,267.24H88.69l28.07-91.47H85.18l2.25,16H61.9l-5.49-39.12H145.6l2.78,19.8Z"/><path class="cls-1" d="M62.22,76.28c-25,.41-36.54-1-34.89,12.39s1.44,58,4.75,88,8.67,119.72,8.67,119.72L18.45,74.84Z"/><path class="cls-1" d="M437.72,249.4c-1.57.48-3.16.92-4.79,1.3l7.67,79.92Q242.72,334,44.83,338.12C37,250.55,29.39,163.71,21.35,77.13l225-4.2c.16-1.94.4-3.86.71-5.78L16.43,68.32l-.44,0a4.42,4.42,0,0,0-3.93,4.86c9.46,90.11,19.4,180,29.08,269.05q201-2.76,402.56-6.14H444a2.76,2.76,0,0,0,2.46-3Z"/><path class="cls-1" d="M164.77,72.5c2.43,22.08,4.54,44.2,6.6,66.32,2.26,22.1,2.92,44.35,5.51,66.42,2.39,22.09,6.7,44,9.19,66.06,1.28,11,2.31,22.1,3.21,33.17s1.57,22.17,1.79,33.31a2.79,2.79,0,0,1-5.53.55c-2-11-3.45-22-4.78-33s-2.46-22.09-3.37-33.16c-1.89-22.13-2-44.45-4-66.58-1.79-22.14-5.51-44.1-7.64-66.21-2.31-22.1-4.59-44.19-6.54-66.32a2.77,2.77,0,0,1,5.52-.55Z"/><path class="cls-1" d="M119.63,267.49l-7.53.41-7.69.38c-5.16.28-10.42.51-15.72.66A1.66,1.66,0,0,1,87,267.33a1.84,1.84,0,0,1,.06-.47l0-.11c2.08-7.71,4.24-15.39,6.43-23.05s4.41-15.33,6.72-23,4.59-15.28,7-22.88l3.71-11.38,3.86-11.32,2,2.7L101,177.37c-5.26-.15-10.53-.37-15.79-.46l1.13-1.3q.94,8,2,16.07h0a.93.93,0,0,1-.79,1h-.14c-4.25-.05-8.51,0-12.76,0s-8.51.07-12.77.13a1.06,1.06,0,0,1-1.06-.89v0c-1-6.51-2.14-13-3.21-19.5L54.34,153A2,2,0,0,1,56,150.63l.26,0h.14c7.44-.25,14.87-.32,22.3-.48s14.86-.21,22.3-.3l22.29-.25c7.43-.11,14.87-.07,22.3-.09a3.2,3.2,0,0,1,3.18,2.74v0c1,6.59,1.78,13.21,2.66,19.81v0a3.14,3.14,0,0,1-.11,1.3c-2.51,8-5.11,16-7.71,24s-5.27,15.89-7.91,23.76l-8,23.41C125,252.26,122.34,260,119.63,267.49Zm-.35-.49,6.39-24.44,6.44-24c2.18-7.91,4.32-15.79,6.55-23.61s4.44-15.63,6.75-23.39l-.1,1.33c-1-6.59-2-13.17-2.9-19.78l3.19,2.77c-7.43,0-14.87,0-22.3-.09L101,155.57c-7.44-.09-14.87-.13-22.3-.3s-14.86-.23-22.3-.48l2.08-2.39L60.68,172c.77,6.54,1.47,13.08,2.29,19.62l-1.07-.93c4.26.06,8.51.13,12.77.13s8.51.06,12.76,0l-.92,1.07q-1.16-8-2.46-16a1.12,1.12,0,0,1,.92-1.29h.21c5.26-.09,10.53-.31,15.79-.46l15.79-.49a2,2,0,0,1,2.1,2,2,2,0,0,1-.07.59l0,.13-3.17,11.54-3.3,11.5q-3.44,11.46-7.05,22.86c-2.38,7.61-4.85,15.19-7.32,22.77s-5,15.15-7.61,22.69l-1.62-2.19c5,.15,10,.38,15,.66Z"/><polygon class="cls-1" points="12.76 71.46 3.24 93.16 15.53 333.76 41.58 340.19 12.76 71.46"/><path class="cls-1" d="M12.54,72.88A117.84,117.84,0,0,0,9.13,84.36C8.23,88,7.32,91.2,6.2,94.46L6.47,93,18.76,333.59l-2.45-3,25.76,7.56-2.55,2.23C34.85,295.93,30.3,251.57,25.9,207ZM13,70,28.44,204.61c5.2,45,10.26,90.26,15.2,135.36a2.08,2.08,0,0,1-1.83,2.28,2.19,2.19,0,0,1-.63,0l-.1,0-26.32-5.3a3.07,3.07,0,0,1-2.45-2.84v-.14L0,93.33v-.18a2.62,2.62,0,0,1,.28-1.28c2.05-4,4.32-8,6.6-11.61S11.23,73.33,13,70Z"/><path class="cls-1" d="M414.58,400.49a66.84,66.84,0,0,0-14-7.72,27,27,0,0,0-22.29-.2,56.27,56.27,0,0,0-7,3.67,61.11,61.11,0,0,1-7.52,4.06,16.61,16.61,0,0,1-9.4,1.24,12.57,12.57,0,0,1-4.69-1.86,17.87,17.87,0,0,1-3.41-3.13,12.78,12.78,0,0,0-2.55-2.25,8.51,8.51,0,0,0-3.09-1.12,11.15,11.15,0,0,0-6.86,1c-2.32,1-4.68,2.45-7.14,3.79a35.45,35.45,0,0,1-7.9,3.27,26.69,26.69,0,0,1-8.58.84c-5.78-.4-11.18-2.55-16.12-5.08s-9.62-5.5-14.33-8.1-9.6-4.84-14.44-5a14,14,0,0,0-6.8,1.51,16.27,16.27,0,0,0-5.31,4.67c-1.56,2-2.93,4.29-4.6,6.65a20.43,20.43,0,0,1-6.69,6.42l-1.1.58c-.38.17-.79.29-1.18.43l-1.19.39c-.4.1-.8.14-1.2.21a15.59,15.59,0,0,1-4.87.14c-3.3-.46-6-2-8.37-3a18.9,18.9,0,0,0-7-1.72,18.38,18.38,0,0,0-7.15,1.08c-2.3.83-4.86,2.19-7.58,3.13a45.11,45.11,0,0,1-8.31,2,53.16,53.16,0,0,1-16.76-.36.82.82,0,0,1-.67-1,.84.84,0,0,1,.85-.69,59.24,59.24,0,0,0,15.94-1.4,45.22,45.22,0,0,0,7.47-2.41c2.4-1,4.62-2.36,7.39-3.57a23,23,0,0,1,8.91-1.71,22.4,22.4,0,0,1,4.6.49,27.07,27.07,0,0,1,4.3,1.41c2.69,1.14,4.89,2.22,7.06,2.46a11.07,11.07,0,0,0,6.33-1.14,16.24,16.24,0,0,0,5-4.87c1.54-2.08,3-4.46,4.88-6.75a20.21,20.21,0,0,1,7.15-5.79,18.67,18.67,0,0,1,9.12-1.67c6.18.53,11.35,3.37,16.09,6.19s9.21,6,13.92,8.61,9.66,4.68,14.84,5.06a23.7,23.7,0,0,0,14.81-3.92c2.3-1.36,4.46-3.05,7.06-4.43a19,19,0,0,1,4.25-1.67,14.09,14.09,0,0,1,4.76-.29,12.71,12.71,0,0,1,4.7,1.31,15.34,15.34,0,0,1,3.79,2.92,16.44,16.44,0,0,0,2.68,2.34,7.54,7.54,0,0,0,2.9,1.07c4.29.95,8.86-1.73,13.59-4.5s10.17-5.51,16.15-6a34.26,34.26,0,0,1,17,3.18,63.64,63.64,0,0,1,14.11,9.12,1.32,1.32,0,0,1-1.59,2.1Z"/><path class="cls-1" d="M148.44,467.34l-28.79-111.2a2.19,2.19,0,0,1,4.23-1.13l30.81,110.65a3.23,3.23,0,0,1-6.23,1.74Z"/><path class="cls-1" d="M345.07,153.09c1.29-.39,2.58-.8,3.86-1.25C347.65,152.29,346.36,152.7,345.07,153.09Z"/><path class="cls-1" d="M210,175.91a64.43,64.43,0,0,1-8.75-14.4,67,67,0,0,1-5.73-28.64,71,71,0,0,1,6.56-28.3A76.15,76.15,0,0,1,218.86,81.3a80.26,80.26,0,0,1,23.71-15.69c1.68-.73,3.39-1.39,5.11-2a78.79,78.79,0,0,1,2.51-9.3,72.34,72.34,0,0,0-10.91,3.36A75.46,75.46,0,0,0,213,75.4a78.57,78.57,0,0,0-16.67,26.76,84.63,84.63,0,0,0-5.18,30.71A89.79,89.79,0,0,0,208.55,184,77.06,77.06,0,0,1,210,175.91Z"/><ellipse class="cls-1" cx="375.05" cy="67.15" rx="4.24" ry="5.8" transform="translate(62.37 284.87) rotate(-45)"/><ellipse class="cls-1" cx="386.21" cy="287.89" rx="4.24" ry="5.8" transform="translate(-90.45 357.41) rotate(-45)"/><path class="cls-1" d="M315.43,264.73a77.1,77.1,0,0,1-45.29,4.8c16.78,45.9,69,45.92,69,45.92-21-1.21-29.7-14.85-42.2-26.18s8.15-15,40.58-14.8c2.23,0,2.87-1.12,2.37-3.11A76.55,76.55,0,0,1,315.43,264.73Z"/><path class="cls-1" d="M326.73,321.84c-65.66-5.56-80.67-41.5-80.67-41.5s-84.7-17.93-91.51-103.72c0,0-52-32.52-49.55-103.13H221.27a77.07,77.07,0,0,0-12.05,106.25,77.09,77.09,0,0,0,60.92,89.8c11.06,30.22,37.47,40.56,54.21,44.08Z"/><path class="cls-1" d="M313,263.58a69.2,69.2,0,0,1-28,4.07,87.56,87.56,0,0,1-51.95-21.81,66.82,66.82,0,0,1-22.93-52,70.86,70.86,0,0,1,6.56-28.3,76.24,76.24,0,0,1,16.75-23.27,80.5,80.5,0,0,1,23.72-15.69c1.33-.58,2.68-1.11,4-1.62-1.22-1.65-2.4-3.35-3.5-5.12-.44-.71-.84-1.43-1.26-2.14-.86.3-1.72.6-2.58.94a75.65,75.65,0,0,0-26.31,17.73,78.76,78.76,0,0,0-16.67,26.76,84.24,84.24,0,0,0-5.18,30.71A89.53,89.53,0,0,0,227.93,251a69.41,69.41,0,0,0,25.89,18.23A72.5,72.5,0,0,0,285,274.32a87,87,0,0,0,30.25-7.41c.84-.36,1.66-.76,2.48-1.14Q315.34,264.75,313,263.58Z"/><path class="cls-1" d="M413.71,252.71a82.82,82.82,0,0,1-4.16,17.41,71.9,71.9,0,0,1-15.15,24.81,67.47,67.47,0,0,1-24.31,16.36,69,69,0,0,1-28.76,4.34,87.41,87.41,0,0,1-51.95-21.81,68.05,68.05,0,0,1-15.6-19.92,8.59,8.59,0,0,1-3.95,2.59A88.48,88.48,0,0,0,284.25,299a69.54,69.54,0,0,0,25.88,18.22,72.55,72.55,0,0,0,31.2,5.13,87.06,87.06,0,0,0,30.25-7.41,89.5,89.5,0,0,0,25.73-17.05,82.93,82.93,0,0,0,18.26-25.23,73,73,0,0,0,6.06-20.15A78,78,0,0,1,413.71,252.71Z"/><path class="cls-1" d="M442.83,177.77a77.36,77.36,0,0,1-18.24,14.53c0,.78,0,1.55,0,2.34a76.87,76.87,0,0,1-23.24,55.15l-1.1,2.93,16.79-3.43c-8-.31.78-8.81,8.59-20.79s2.61-16.36,6.26-27.2,7.29-17.34,13-23.07Z"/><path class="cls-1" d="M466.33,137.29a72.19,72.19,0,0,1-5.88,18.9,78.74,78.74,0,0,1-7.1,12.28c6.55,2.2,13.1,1.41,17.26-2.75C477.24,159.09,475.31,146.41,466.33,137.29Z"/><ellipse class="cls-1" cx="473.34" cy="179.94" rx="4.24" ry="5.8" transform="translate(11.4 387.41) rotate(-45)"/><path class="cls-1" d="M494.53,161.66A74.42,74.42,0,0,0,462,109.05c-.17-.12-.35-.21-.52-.32a76.12,76.12,0,0,1,1.67,12,81.42,81.42,0,0,1,25,42.09,69.43,69.43,0,0,1,.38,29,71.13,71.13,0,0,1-11.61,26.84,72.08,72.08,0,0,1-21.46,19.78c-1.07.58-2.15,1.15-3.24,1.69s-2.14,1.16-3.28,1.58c-2.3.82-4.55,1.72-6.84,2.46-2.35.59-4.65,1.25-7,1.87-2.36.43-4.69,1-7,1.48a81.49,81.49,0,0,1-25.14.7,76.29,76.29,0,0,1-5.95,5.55l1,.29a74.32,74.32,0,0,0,31.49,1.5c2.59-.6,5.18-1.19,7.73-1.9s5-1.9,7.39-2.91,4.68-2.48,7-3.7,4.39-2.87,6.62-4.22a82.92,82.92,0,0,0,22-21.82A85.44,85.44,0,0,0,494.53,161.66Z"/><path class="cls-1" d="M466.87,117.5c-.42-2.62-1-5.21-1.59-7.78s-1.62-5-2.43-7.52-2.06-4.83-3-7.26a83,83,0,0,0-17.67-25.46,85.32,85.32,0,0,0-49.57-23.84c1,2,1.85,4.08,2.64,6.15a67.1,67.1,0,0,1,19.61,4.48A70.43,70.43,0,0,1,455,96.94q.59,1.74,1.11,3.48c.33,1.17.77,2.31,1,3.51.4,2.4.9,4.77,1.23,7.16.17,2.41.42,4.8.64,7.18,0,2.4.12,4.79.23,7.17a81.87,81.87,0,0,1-4.8,28.26,71.9,71.9,0,0,1-15.15,24.81,67.3,67.3,0,0,1-14.78,11.72c.07,1.37.12,2.76.13,4.15a91.15,91.15,0,0,0,17.56-13,82.81,82.81,0,0,0,18.26-25.23,74.42,74.42,0,0,0,6.95-30.75C467.25,122.79,467.12,120.14,466.87,117.5Z"/><ellipse class="cls-1" cx="431.77" cy="84.24" rx="5.96" ry="8.15" transform="translate(66.9 329.98) rotate(-45)"/><ellipse class="cls-1" cx="451.01" cy="119.54" rx="2.55" ry="3.49" transform="translate(47.57 353.92) rotate(-45)"/><path class="cls-1" d="M428.19,186.69c-.42-2.62-1-5.21-1.59-7.78-.72-2.54-1.63-5-2.43-7.52s-2.07-4.83-3-7.26a84.09,84.09,0,0,0-36-39.16c-.84,1.15-1.73,2.28-2.64,3.38a70.28,70.28,0,0,1,33.8,37.78c.39,1.16.76,2.32,1.11,3.49s.77,2.3,1,3.5c.4,2.41.9,4.77,1.23,7.16.17,2.42.42,4.8.64,7.18,0,2.4.12,4.79.23,7.18a82.09,82.09,0,0,1-4.8,28.25,71.92,71.92,0,0,1-15.16,24.81,67.37,67.37,0,0,1-24.3,16.37,69,69,0,0,1-28.76,4.33,87.44,87.44,0,0,1-52-21.81,66.91,66.91,0,0,1-22.93-52,70.83,70.83,0,0,1,6.57-28.3,75.88,75.88,0,0,1,11.18-17.4,79,79,0,0,1-7-3.72,77.77,77.77,0,0,0-10,18.71,84.42,84.42,0,0,0-5.19,30.71,89.54,89.54,0,0,0,22.24,57.08,69.35,69.35,0,0,0,25.88,18.22,72.4,72.4,0,0,0,31.2,5.13,86.89,86.89,0,0,0,30.25-7.41,89.11,89.11,0,0,0,25.72-17.05,82.75,82.75,0,0,0,18.27-25.22,74.29,74.29,0,0,0,6.94-30.75C428.57,192,428.43,189.33,428.19,186.69Z"/><path class="cls-1" d="M303.12,242c-12.5-11.33-3.13-23.83-10.82-38.68s-4.22-47.08,37.58-43.17c7.43.69,11-2.09,12.87-6.43A77.27,77.27,0,0,1,287,147.25c-12.19,14.76-18.88,35.26-14.38,61.19,10.38,59.8,72.68,59.78,72.68,59.78C324.3,267,315.62,253.37,303.12,242Z"/><path class="cls-1" d="M272.31,177.63c.9-13.22,7.37-22.89,14.94-30.26A76.48,76.48,0,0,1,260.49,124a98.58,98.58,0,0,0-17.15,10.18c21.69-8.76,25.79,23.06,18.1,36.73s-1.69,25,5.34,39,0,21.13,12.5,36.37,14.07,22.27-2.34,20.32c19.54,9.38,36.46-2.87,36.46-2.87S269.6,217.78,272.31,177.63Z"/><path class="cls-1" d="M259.58,118.71a66.88,66.88,0,0,0,46.91,32,87.45,87.45,0,0,0,55.64-8.91,69.1,69.1,0,0,0,22.13-18.87,67.4,67.4,0,0,0,12-26.73A72,72,0,0,0,396,67.14a82.11,82.11,0,0,0-10.84-26.53c-1.36-2-2.72-3.93-4-6-1.44-1.91-2.91-3.8-4.33-5.77s-3.22-3.59-4.83-5.42c-.82-.91-1.79-1.63-2.69-2.46s-1.84-1.59-2.78-2.37A71.86,71.86,0,0,0,340.22,6.07,71,71,0,0,0,311,5.3a69.12,69.12,0,0,0-26.79,11.16A79.5,79.5,0,0,0,264,36.76,80.41,80.41,0,0,0,252.15,62.6a76,76,0,0,0-1.94,28.61A70.93,70.93,0,0,0,259.58,118.71ZM255.82,121A84.46,84.46,0,0,1,244,92.23a78.59,78.59,0,0,1,0-31.53,75.49,75.49,0,0,1,13-28.95,76.23,76.23,0,0,1,23.73-20.84,85.49,85.49,0,0,1,60.41-8.83,83,83,0,0,1,28.45,12.3c2.08,1.57,4.28,3,6.38,4.58s4.08,3.32,6,5.1,3.72,3.77,5.46,5.77,3.12,4.29,4.64,6.47a74.32,74.32,0,0,1,10.34,29.78,82.94,82.94,0,0,1-2.19,31.06,89.32,89.32,0,0,1-12.85,28.07,87.07,87.07,0,0,1-21.77,22.27,72.59,72.59,0,0,1-29.2,12.11,69.48,69.48,0,0,1-31.61-1.81A89.49,89.49,0,0,1,255.82,121Z"/><ellipse class="cls-1" cx="348.94" cy="34.34" rx="14.34" ry="19.62" transform="translate(236.24 366.37) rotate(-76.87)"/><path class="cls-1" d="M297.37,9.19c-26.26,13.58-14,27.1-27.21,51s-3.13,47,11.24,55.59,13,24.11,29.61,27.13,31.18,10,49.66-.05c0,0-52.89,32.91-93.28-12.39C222.79,80.41,258.36,21.94,297.37,9.19Z"/><path class="cls-1" d="M246.06,122.48c8.22-3.12-2.46-9.11-4.55-24s-7-31.16-20.31-19.36l2.42-7.56,28.31-13.72,14.33,64.6Z"/><path class="cls-1" d="M443.73,445.36l-325,7.25a2.19,2.19,0,0,1-.11-4.38l325-9.33a3.23,3.23,0,1,1,.18,6.46Z"/></g></g></svg>