<svg width="280" height="709" viewBox="0 0 280 709" fill="none" xmlns="http://www.w3.org/2000/svg">
<path opacity="0.02" d="M-190.865 314.087C-180.277 247.097 -168.22 154.511 -140.792 92.2966C-133.696 76.1994 -125.866 60.0582 -113.045 47.2903C-98.6274 33.39 -80.1524 24.4432 -60.3 21.7477C-52.6532 20.3103 -44.7712 20.7468 -37.3289 23.02C-21.0149 28.8583 -14.0654 45.8506 -2.92598 58.1631C19.7314 83.1742 59.0408 87.9047 93.8797 93.2109C128.719 98.5171 168.913 110.82 181.458 140.456C196.418 176.039 161.761 214.946 178.683 249.916C186.042 265.135 201.849 276.136 211.503 290.393C231.542 320.024 217.31 362.017 183.06 374.385C154.418 384.709 115.73 377.167 95.1226 397.33C81.7634 410.391 81.524 430.909 86.4619 448.786C91.3999 466.662 100.717 483.895 104.275 502.015C107.833 520.135 104.194 540.749 87.9669 550.94C62.8528 566.742 24.0525 549.645 -4.11463 561.059C-38.0286 574.788 -37.8663 620.463 -67.4926 640.267C-91.5013 656.277 -132.388 647.292 -147.833 622.593C-155.148 610.889 -157.209 596.915 -166.477 586.286C-181.552 568.956 -210.335 566.477 -228.567 551.607C-251.621 532.818 -250.746 501.587 -247.93 474.972C-239.954 399.904 -206.587 414.055 -190.814 316.268" fill="#E4F1FF"/>
</svg>
