<svg xmlns="http://www.w3.org/2000/svg" viewBox="0 0 581.6 500"><defs><style>.cls-1{fill:#5c5856;}.cls-2{fill:#f1574b;}</style></defs><title>Asset 4</title><g id="Layer_2" data-name="Layer 2"><g id="Layer_1-2" data-name="Layer 1"><path class="cls-1" d="M364.77,435.52a92.16,92.16,0,0,1,15.67,1.17c5.13.78,10.18,1.83,15.18,3.11s9.94,2.79,14.81,4.56a92.45,92.45,0,0,1,14.31,6.5,4.62,4.62,0,0,1-2.21,8.62,92.23,92.23,0,0,1-15.67-1.17c-5.13-.78-10.18-1.83-15.18-3.11s-9.94-2.78-14.81-4.56a91.52,91.52,0,0,1-14.31-6.5,4.62,4.62,0,0,1,2.21-8.62Z"/><path class="cls-1" d="M405.63,418.62a92.16,92.16,0,0,1-1.17,15.67c-.78,5.13-1.83,10.18-3.11,15.18s-2.79,9.94-4.56,14.81a91.52,91.52,0,0,1-6.5,14.31,4.62,4.62,0,0,1-8.62-2.21,92.23,92.23,0,0,1,1.17-15.67c.78-5.12,1.83-10.18,3.11-15.18s2.79-9.93,4.56-14.8a92.13,92.13,0,0,1,6.5-14.32,4.62,4.62,0,0,1,8.62,2.21Z"/><path class="cls-1" d="M63.16,62.69a60.77,60.77,0,0,1,10.25,2.17,106.28,106.28,0,0,1,19.14,7.73,60.64,60.64,0,0,1,8.88,5.57,3.09,3.09,0,0,1-2.22,5.5A61.67,61.67,0,0,1,89,81.49a103.28,103.28,0,0,1-9.76-3.4q-4.77-1.94-9.38-4.33a63,63,0,0,1-8.88-5.57,3.08,3.08,0,0,1,2.23-5.5Z"/><path class="cls-1" d="M91.67,55.15A62.58,62.58,0,0,1,89.5,65.4a103.28,103.28,0,0,1-3.4,9.76,103.27,103.27,0,0,1-4.34,9.38,61.43,61.43,0,0,1-5.56,8.88,3.08,3.08,0,0,1-5.5-2.22,61.66,61.66,0,0,1,2.16-10.26c1-3.32,2.12-6.56,3.41-9.75a103.18,103.18,0,0,1,4.33-9.38,60.64,60.64,0,0,1,5.57-8.88,3.08,3.08,0,0,1,5.5,2.22Z"/><path class="cls-2" d="M86.54,417.52c29.28,10.05,25.17,25.47,79.12,17.24s79.24,8.36,79.24,8.36l-23,56.23c-.6,1.46-120.54,0-120.54,0Z"/><path class="cls-1" d="M134,380.81c-3.85-.86-8.8-3.11-14.35-6.24-34.44-14-61.53-32.24-75.46-50.09l-43,172.36s82.53,2.55,95.53,2.55,15-.41,17.09-6.3C113.8,493.09,148.19,386.81,134,380.81Z"/><path class="cls-1" d="M45.56,326.22c-1-1.24-2-2.47-2.91-3.71a1.71,1.71,0,0,0-.63,1c-6.37,29-13.37,57.82-20.45,86.64L0,496.55a1.18,1.18,0,0,0,2.29.58l22-86.31c7.09-28.2,14.11-56.42,20.55-84.8Z"/><path class="cls-1" d="M258,393.78l3.21,1c-.27.8-.58,1.6-.84,2.41L258,404.09c-1.68,4.55-3.38,9.09-5.14,13.61l-10.36,27.2-10.35,27.2c-1.69,4.55-3.5,9-5.3,13.55s-3.57,9-5.47,13.48v0a.58.58,0,1,0,1.08.42c1.76-4.52,3.63-9,5.5-13.47s3.72-9,5.68-13.4L245.23,446l11.58-26.7q2.87-6.69,5.85-13.33l3.09-6.6c1.09-2.17,1.76-4.52,4.21-6.15a2.95,2.95,0,0,0,1.08-3.67A76.94,76.94,0,0,1,258,393.78Z"/><path class="cls-1" d="M290.41,351.29a51.86,51.86,0,0,0-5.51-10,22.16,22.16,0,0,1-.31,6.47,42.25,42.25,0,0,1,2.45,4.9,23.59,23.59,0,0,1-9.45,31.48c-5.13,3.47-11.11,5.7-17.17,7.41-12.23,3.32-25.1,4.23-37.85,4.08a247.26,247.26,0,0,1-38.17-3.76,305.68,305.68,0,0,1-73.35-22.42,247.52,247.52,0,0,1-33.74-18.22c-10.67-7-20.85-14.89-29.15-24.45-4.08-4.79-7.81-10-10.13-15.7a26.1,26.1,0,0,1-1.53-17.69,26,26,0,0,1,11.21-13.72A41.86,41.86,0,0,1,52.5,277a22.19,22.19,0,0,1,3.29-5.43,51.1,51.1,0,0,0-10.06,5.15A27,27,0,0,0,35,312.39a61.62,61.62,0,0,0,10.8,16.52c8.67,9.85,19.09,17.8,30,24.81A250,250,0,0,0,110,371.91a338.48,338.48,0,0,0,74,22.5,250.42,250.42,0,0,0,38.56,4c12.93.27,26-.5,38.7-3.81a61.83,61.83,0,0,0,18.17-7.66,27,27,0,0,0,11-35.61Z"/><path class="cls-1" d="M282.58,339.38a21.49,21.49,0,0,1-.39,9.81,23.32,23.32,0,0,1-9.93,12.35,52.88,52.88,0,0,1-15.49,6.67c-11,3-22.72,3.83-34.29,3.69a224.08,224.08,0,0,1-34.65-3.32,285.48,285.48,0,0,1-34-8c-22.24-6.8-43.93-15.92-63.53-28.47-9.75-6.29-19.06-13.43-26.68-22.11a52.34,52.34,0,0,1-9.33-14.34,24.12,24.12,0,0,1-1.42-16.35,22.29,22.29,0,0,1,5.68-9q-.39-1.38-.63-2.73a25.18,25.18,0,0,0-7.3,11,26.46,26.46,0,0,0,1.58,17.91,57.65,57.65,0,0,0,9.7,15c7.81,9,17.23,16.25,27.07,22.68,19.8,12.8,41.63,22.11,64.05,29.08s45.74,11.49,69.37,12.07c11.79.24,23.72-.47,35.31-3.5a56.74,56.74,0,0,0,16.66-7,27.27,27.27,0,0,0,11.66-14.4,26.25,26.25,0,0,0,0-14.23A28.81,28.81,0,0,1,282.58,339.38Z"/><path class="cls-1" d="M289.54,313.72a23.7,23.7,0,0,1,.56,13.94,24.57,24.57,0,0,1-10.5,13,54.53,54.53,0,0,1-15.86,6.75c-11.23,2.95-23,3.63-34.6,3.39-23.3-.61-46.38-5.23-68.61-12.08s-43.85-16.15-63.36-28.78c-9.69-6.32-19-13.5-26.48-22.17a53.39,53.39,0,0,1-9.21-14.23,23.61,23.61,0,0,1-1.4-16,22.34,22.34,0,0,1,6.83-9.95c.51-1.65,1.09-3.54,1.73-5.64-.12.08-.25.14-.37.23a24.72,24.72,0,0,0-9.85,32.62,56.67,56.67,0,0,0,9.83,15.08c7.9,9,17.38,16.22,27.27,22.61,19.89,12.72,41.77,21.92,64.22,28.78,22.53,6.64,45.84,11,69.37,11.34,11.74.13,23.59-.72,35-3.79a55.84,55.84,0,0,0,16.29-6.95,23.83,23.83,0,0,0,9.93-30.78C290.06,312,289.79,312.88,289.54,313.72Z"/><path class="cls-1" d="M168,322.77c6.77-5.16,23.91-1.34,38.51-4.42l.32-1.25a196.81,196.81,0,0,1-37.39-7.47c-52.82-16.1-92.58-54.19-98-76.67-2.56,8.42-4.84,15.82-5.83,19.09-7.08,23.2,35.23,56.77,94.93,75.67A76.46,76.46,0,0,0,168,322.77Z"/><path class="cls-1" d="M289.46,320.32a20.78,20.78,0,0,1-5,8.28,30.87,30.87,0,0,1-7.58,5.6A60.79,60.79,0,0,1,259.54,340c-11.91,2.24-24,2.33-35.93,1.56-23.9-1.63-47.34-7.09-69.94-14.7a277.86,277.86,0,0,1-33.14-13.55,194.34,194.34,0,0,1-30.75-18.48,110.2,110.2,0,0,1-13.59-11.9A56,56,0,0,1,65.62,268a27.87,27.87,0,0,1-2.49-9.11A20.76,20.76,0,0,1,63.3,254a22.25,22.25,0,0,1,.54-2.39l.63-2.14,5.08-17.09h0a1.92,1.92,0,0,1,3.69.08v0a47.18,47.18,0,0,0,6.52,13.82,103,103,0,0,0,9.73,12.3,158.71,158.71,0,0,0,23.72,20.86,191.85,191.85,0,0,0,119,36.59,157.74,157.74,0,0,0,31.33-3.94,99.86,99.86,0,0,0,14.94-4.75,46.43,46.43,0,0,0,13.12-7.81h0l.07-.05a1.92,1.92,0,0,1,2.7.22,2,2,0,0,1,.36,1.81c-.95,3.07-1.83,6.18-2.69,9.31S290.42,317.11,289.46,320.32Zm-3.54-1.08c.88-3,1.67-6.22,2.52-9.36s1.71-6.3,2.66-9.45l3.14,2h0A50.52,50.52,0,0,1,280,310.94a105,105,0,0,1-15.54,4.94,161.8,161.8,0,0,1-32.1,4,199.49,199.49,0,0,1-63.81-8.54A198.37,198.37,0,0,1,111,282.59a162.65,162.65,0,0,1-24.29-21.37,105.26,105.26,0,0,1-10.1-12.78,50.57,50.57,0,0,1-7-15l3.7.11h0l-5.35,17-.66,2.12a18.49,18.49,0,0,0-.48,1.95,17,17,0,0,0-.2,4,24.49,24.49,0,0,0,2.07,8c2.27,5.2,5.9,9.84,9.86,14.09A107.09,107.09,0,0,0,91.6,292.4a191.06,191.06,0,0,0,30.18,18.36,274.64,274.64,0,0,0,32.73,13.62,281.4,281.4,0,0,0,34.2,9.41,244.38,244.38,0,0,0,35.08,4.84c11.76.68,23.65.4,35.11-1.88a57.48,57.48,0,0,0,16.29-5.62C280.14,328.43,284.42,324.4,285.92,319.24Z"/><path class="cls-1" d="M208.7,229.53l1.84-1.54q-7.32-2.66-14.75-5c-21.17-6.57-43.07-11.14-65.35-12.21-11.12-.49-22.37-.19-33.46,2.15a56.83,56.83,0,0,0-16.11,5.88c-5,2.85-9.79,7.35-11.74,13.42s-.59,12.56,1.9,17.85a57.73,57.73,0,0,0,9.88,14.23,122.58,122.58,0,0,0,20.35,17.24,10.63,10.63,0,0,1,3.25-5.05,117.81,117.81,0,0,1-19.63-15.92A52.56,52.56,0,0,1,75.62,248c-2.28-4.58-3.3-9.68-2-14.31s5-8.43,9.43-11.1a52.83,52.83,0,0,1,14.78-5.77A126.8,126.8,0,0,1,130.33,214c21.93.71,43.74,4.89,64.85,11.08Q202,227.13,208.7,229.53Z"/><path class="cls-1" d="M292.79,284c-1.12-.14-2.23-.29-3.33-.48.29.55.61,1.07.87,1.63,2.27,4.78,3.26,10.19,1.75,15.07a15.63,15.63,0,0,1-1,2.3,10.59,10.59,0,0,1,1.63,3.34,19.38,19.38,0,0,0,2.19-4.78C296.62,295.28,295.29,289.13,292.79,284Z"/><path class="cls-1" d="M228.63,212.86c1.83-3,3.71-6,5.66-8.94q4.34-6.49,9-12.78,2.32-3.15,4.72-6.23l2.43-3.06,1.24-1.49a6.72,6.72,0,0,0,.89-1.2l14,3.15c.52-.37,1-.72,1.48-1s1.1-.77,1.89-1.34L252,177.42a15.82,15.82,0,0,0-1.75,1.7l-1.3,1.49-2.54,3c-1.67,2-3.31,4.07-4.92,6.14q-4.83,6.21-9.4,12.64c-3,4.3-5.94,8.67-8.69,13.17-.66,1.1-1.32,2.2-2,3.32Z"/><path class="cls-1" d="M360.29,66.41a37.51,37.51,0,0,0,11.85-6.67S372,67.28,360.29,66.41Z"/><path class="cls-1" d="M366.37,79.66c8.11-6.26,15.83-.12,21.64,1.1a55.72,55.72,0,0,0,9.08,1l6.48-5c-9.76-5.31-23.94-13.19-29.16-12.35-4.33.7-35.43,10.22-62.11,23.8C333.22,90.7,358.25,85.92,366.37,79.66Z"/><path class="cls-1" d="M257.85,188.87q2.25-1.77,4.25-3.3a7.06,7.06,0,0,1-5.47-2,9.73,9.73,0,0,1-2.53-7.2,18.2,18.2,0,0,1,.8-4.2c.43-1.47.87-2.95,1.36-4.43,1.94-5.93,4.11-11.83,6.36-17.68s4.64-11.66,7.15-17.4A172.47,172.47,0,0,1,278,115.93c.37-.69.78-1.3,1.19-1.92a10.48,10.48,0,0,1,1.31-1.8l1.49-1.67,1.63-1.62a72.31,72.31,0,0,1,7.07-6,138.16,138.16,0,0,1,15.72-10.08,296,296,0,0,1,34-15.9q8.76-3.48,17.65-6.56c3-1,5.95-2,8.94-2.94,1.5-.46,3-.91,4.5-1.33.75-.21,1.5-.4,2.24-.58a5.92,5.92,0,0,1,2-.19,32,32,0,0,1,8.67,2.68c2.85,1.23,5.67,2.61,8.46,4,3.31,1.68,6.58,3.46,9.86,5.22l1.55-1.2c-3.49-1.92-7-3.87-10.53-5.72-2.8-1.46-5.63-2.88-8.55-4.17A33.41,33.41,0,0,0,376,63.3a8.37,8.37,0,0,0-2.66.21c-.79.18-1.56.38-2.33.59-1.54.41-3.06.85-4.57,1.3q-4.55,1.36-9,2.87-9,3-17.82,6.43a300.1,300.1,0,0,0-34.51,15.72,141.35,141.35,0,0,0-16.15,10.14,77.08,77.08,0,0,0-7.41,6.14l-1.74,1.69-1.66,1.84a13.24,13.24,0,0,0-1.49,2c-.46.7-.94,1.39-1.32,2.08a176.2,176.2,0,0,0-8.58,17c-2.59,5.78-5,11.6-7.37,17.48s-4.57,11.78-6.6,17.8c-.52,1.5-1,3-1.45,4.57-.21.81-.45,1.54-.63,2.42a16.59,16.59,0,0,0-.35,2.64,13.53,13.53,0,0,0,3.57,10.11A10.63,10.63,0,0,0,257.85,188.87Z"/><path class="cls-1" d="M442.87,134.73c-.6.27-1.18.59-1.77.88l-29.22,23.6a1.86,1.86,0,0,0,1.58.24,13.94,13.94,0,0,0,4.74-2.75c1.28-1,2.47-2.08,3.65-3.13l6.95-6.28a85,85,0,0,1,14.85-11,.91.91,0,0,0,.39-1.14A.88.88,0,0,0,442.87,134.73Z"/><path class="cls-1" d="M315.68,114.74a33.77,33.77,0,0,1,3.6,16.66,39,39,0,0,1-1.14,8.44,28,28,0,0,1-1.45,4.34l5.58-4.32a43.45,43.45,0,0,0,.35-8.52,36.19,36.19,0,0,0-5.39-17.54.91.91,0,0,0-1.56.92Z"/><path class="cls-1" d="M269.59,174.71a21.79,21.79,0,0,0,6-4.35,35.2,35.2,0,0,0,4.89-6.09,30.74,30.74,0,0,0,5.07-14.77h0a.84.84,0,0,1,1.67,0,33.29,33.29,0,0,1-4.09,16.3,39,39,0,0,1-4.78,7.09,25.47,25.47,0,0,1-6.77,5.81,2.23,2.23,0,1,1-2.2-3.88.76.76,0,0,1,.18-.09Z"/><path class="cls-1" d="M376.51,97.78A63.23,63.23,0,0,0,377,87.59a.66.66,0,0,0-.61-.63.65.65,0,0,0-.68.62,63.14,63.14,0,0,1-2,12.39Z"/><path class="cls-1" d="M517.46,79a49.15,49.15,0,0,1,4.72,7.38,46.66,46.66,0,0,1,3.12,8.16c1.57,5.62,2,11.36,2.51,17,.24,2.83.64,5.53,1,8.43a68.35,68.35,0,0,1,.17,8.58,106.84,106.84,0,0,1-2.06,16.92.46.46,0,0,1-.54.36.45.45,0,0,1-.36-.53h0a106.15,106.15,0,0,0,1.5-16.78,66.5,66.5,0,0,0-.42-8.36c-.38-2.71-.9-5.59-1.23-8.38-.72-5.62-1.32-11.21-3-16.47a42.49,42.49,0,0,0-3.18-7.55A46.28,46.28,0,0,0,515,80.94l0,0a1.56,1.56,0,0,1,2.43-2Z"/><path class="cls-1" d="M318.58,72c18.93,4.39,49.51-5.13,55.13-7s22.58,3.67,33.61,4.1c1.71.06,4.67-.68,8.46-2l16.55-12.9c-28.06,10.1-52.13-4.85-56.65-6.68-4.92-2-23.24,5.33-31.06,12.68s-28.6,9.17-41.35,2.57C307.38,67.61,311.87,69.75,318.58,72Z"/><path class="cls-1" d="M313.06,71.78a44.18,44.18,0,0,0,15.12,2.84,91.59,91.59,0,0,0,15.15-1.41,242.8,242.8,0,0,0,28.9-6.76l10.33,2.15c3.59.71,7.21,1.35,10.86,1.87a94.53,94.53,0,0,0,11.12,1,37.92,37.92,0,0,0,5.79-.26l.38-.06,7.11-5.54a20.14,20.14,0,0,0-2.08-.81h0a2.35,2.35,0,0,0-2.07.37l0,0a9.77,9.77,0,0,1-4,1.41,33.77,33.77,0,0,1-5.1.4,91,91,0,0,1-10.63-.57c-3.57-.38-7.14-.88-10.71-1.46l-10.82-1.83h0a1.64,1.64,0,0,0-.69.06h0a240.62,240.62,0,0,1-28.82,7.14,81.73,81.73,0,0,1-14.61,1.44,41.55,41.55,0,0,1-14.15-2.62c-4.42-1.71-8.5-4.55-10.57-8.62s-1.89-9.08-.23-13.37,5.19-7.8,9.15-10.49a60.39,60.39,0,0,1,13.11-6.41c2.31-.86,4.66-1.62,7-2.37a53.37,53.37,0,0,0,7.27-2.61c2.29-1.21,4.39-2.54,6.54-3.78s4.33-2.37,6.54-3.41A85.28,85.28,0,0,1,366.58,13a62,62,0,0,1,14.33-1.57c9.86-.17,19.82.41,29.82.66,5,.13,10,.21,15.07.06s10-.66,14.89-.62,9.74.4,14.1,2a29.05,29.05,0,0,1,11.35,8.19c1.05,1.21,2.09,2.44,3.13,3.67L472,23.35l-3.28-3.89A41.88,41.88,0,0,0,463,14.14,29,29,0,0,0,456,10.29c-5-1.9-10.27-2.28-15.33-2.36s-10.15.42-15,.54-9.89,0-14.86-.13c-9.94-.31-19.9-.94-30-.83-5,.12-10.15.29-15.35,1.65-2.45.73-4.88,1.58-7.25,2.54s-4.64,2.16-6.87,3.38c-4.45,2.45-8.62,5.42-12.8,7.82a49.21,49.21,0,0,1-6.81,2.41c-2.38.75-4.78,1.53-7.15,2.4a63.75,63.75,0,0,0-13.71,6.7c-4.23,2.87-8.21,6.69-10.19,11.74A22.26,22.26,0,0,0,299.2,54,17,17,0,0,0,301,61.82C303.55,66.74,308.27,69.92,313.06,71.78Z"/><path class="cls-1" d="M581.55,193.17c-3-9.49-5.74-19.06-8.31-28.7-1.3-4.81-2.57-9.65-4.17-14.44a53.48,53.48,0,0,0-6.57-13.75c-5.87-8.23-12.07-16-18.25-23.83l-18.7-23.38c-3.54-4.39-7.11-8.75-10.66-13.13l-2.38,1.93c3.57,4.37,7.16,8.7,10.72,13.07L542,114.21c6.19,7.78,12.58,15.53,18.38,23.48,5.63,8,7.92,17.82,10.68,27.37s5.5,19.21,8.62,28.7a1,1,0,0,0,1.21.62A1,1,0,0,0,581.55,193.17Z"/><path class="cls-1" d="M369.37,62.18c5.48-4.87,10.54-10.07,14-16.41a46.8,46.8,0,0,0,5.48-20.92.57.57,0,0,1,.58-.55.58.58,0,0,1,.55.55,49,49,0,0,1-3.92,22.25c-3.11,7.07-8.12,13.13-13.3,18.56v0a2.43,2.43,0,0,1-3.52-3.36A.93.93,0,0,1,369.37,62.18Z"/><path class="cls-1" d="M388.85,65.89c4.62-2.78,9-5.85,12.37-10A34.49,34.49,0,0,0,408,41.54a.42.42,0,0,1,.5-.32.42.42,0,0,1,.32.47A35.92,35.92,0,0,1,403,57.25c-3.21,4.7-7.67,8.4-12.15,11.62h0a1.79,1.79,0,0,1-2.1-2.91Z"/><path class="cls-1" d="M413.78,65.11A132.14,132.14,0,0,0,430,53.91a72.37,72.37,0,0,0,7.21-6.67,32.42,32.42,0,0,0,5.58-7.93h0a.8.8,0,0,1,1.47.62,34,34,0,0,1-5.22,8.88,74.66,74.66,0,0,1-6.9,7.53A137.18,137.18,0,0,1,416.41,69.2a2.44,2.44,0,0,1-2.81-4l.16-.1Z"/><path class="cls-1" d="M478.7,140.12C469.34,110.67,492,105.56,491.87,97a20,20,0,0,1,.16-2.59c-28.91,23.38-63.56,51.37-94.4,76.26a29.38,29.38,0,0,1-4,12l.27.27c4.68,1.63,9.63,3.53,14.91,5.8,32.91,14.18,47.32,24.66,60.2,31.91,20.34-8.22,31.25-40.09,31.25-40.09S488.05,169.57,478.7,140.12Z"/><path class="cls-1" d="M579.48,446.54v-.05l-43.87-38.26a18.84,18.84,0,0,0-15.8-4.34c-10,1.83-18.56,2.49-24.71-5-12.34-15.05-45.16-36.64-53.32-43-7.38-5.74-17.56-36-20.47-47.37l-3.2-2.79c-3.56.07-10.21-.36-15.51-3.89-7.61-5.08-13.6-19.22-18.79-20.72s-15.12,4.22-28.31,3.49l.24,1.69c10.47,1,20.71,1.58,25.25-.71,2.13,5.53,21.95,24.51,29.92,28.68-.06,14.45,9.15,23.76,25.15,47.53s35.66,48,51.1,60c50.11,18,61.93-.11,92.32,24.73Z"/><path class="cls-1" d="M338.28,232.31a187.79,187.79,0,0,1-22.83,4.55c-13.7,10.85-38.16,29.87-56.53,44.08,15.48,2.85,29.05-8.5,38.91-13.81,10.11-5.45,25.72-19.73,33.71-19.72,5.41,0,12.86-1.3,17.11-2.16l-6.29-8Z"/><path class="cls-1" d="M329.13,235.77l6.07-1.58a1.06,1.06,0,0,0-.51-2.05h0l-6,1.42-6.07,1.26c-1.93.36-3.87.7-5.8,1l-4.09,3.23c3.48-.53,6.93-1.18,10.37-1.89Z"/><path class="cls-1" d="M581.23,446.8c-6-5.63-12.92-10.76-21-13.72A58,58,0,0,0,547.89,430c-4.19-.55-8.34-.8-12.42-1.09a180.73,180.73,0,0,1-24.14-2.81,163.33,163.33,0,0,1-23-6.38c-8.43-6.65-15.93-14.7-23.15-22.88-7.27-8.34-14.12-17.08-20.66-26-3.28-4.49-6.41-9-9.61-13.63l-9.7-13.62a128,128,0,0,1-9-13.88,32.7,32.7,0,0,1-4.1-15.42,1.2,1.2,0,0,0-.63-1h0a56.84,56.84,0,0,1-8.29-5.9c-2.66-2.19-5.25-4.49-7.77-6.85s-5-4.8-7.33-7.32c-1.18-1.26-2.32-2.55-3.4-3.87a18.53,18.53,0,0,1-2.7-4.07l0,0a1.07,1.07,0,0,0-1.43-.52,15.72,15.72,0,0,1-5.25,1.22,53.42,53.42,0,0,1-5.67.13c-3.81-.12-7.64-.55-11.46-1-7.66-.86-15.25-2.3-23.14-2.84s-15.68-.1-23.36,0A127.38,127.38,0,0,1,289,280.93h-.07a2,2,0,0,0-.35,0,137.83,137.83,0,0,1-26.71-2.24l-4.75,3.68,1.68.44c9.71,2.38,19.73,3,29.51,3.17,7.86,1.46,15.72,1.47,23.43,1.27l11.61-.41c3.84-.15,7.67-.31,11.43-.22,7.57.29,15.33,1,23.08,1.44,3.88.24,7.78.38,11.71.35a56.37,56.37,0,0,0,5.92-.33,20.56,20.56,0,0,0,5-1.12,29.41,29.41,0,0,0,2.55,3.67c1.11,1.38,2.27,2.7,3.45,4,2.38,2.59,4.84,5.07,7.38,7.49s5.13,4.76,7.83,7a62.91,62.91,0,0,0,8,5.86,33.94,33.94,0,0,0,1.08,7.9,39.86,39.86,0,0,0,3.15,8,131.26,131.26,0,0,0,8.85,14.36l9.41,13.8c3.06,4.61,6.17,9.3,9.37,13.88,6.41,9.16,13.13,18.12,20.34,26.72s14.85,16.88,23.8,24a2.27,2.27,0,0,0,.61.34h0a169.39,169.39,0,0,0,24,6.85,155.56,155.56,0,0,0,24.8,2.82c8.23.37,16.27.59,23.82,3s14.49,6.7,21,11.57a.92.92,0,0,0,1.18-1.4Z"/><path class="cls-1" d="M379.21,283.94c2.11-1.95,3.58-5.14,4.59-8.36a37.68,37.68,0,0,0,1.72-10.15v-.05a1.07,1.07,0,0,1,1.08-1,1,1,0,0,1,1,.94,40.17,40.17,0,0,1-.44,11.11,31.79,31.79,0,0,1-1.45,5.51,18.26,18.26,0,0,1-3,5.34l0,0a2.44,2.44,0,1,1-3.76-3.11A2.39,2.39,0,0,1,379.21,283.94Z"/><path class="cls-1" d="M409.63,312.21a40,40,0,0,0,6.86-5.27,85.25,85.25,0,0,0,6.24-6.49A152.93,152.93,0,0,0,433.83,286v0a1,1,0,0,1,1.71,1.07,157.68,157.68,0,0,1-10.14,15.56,88.77,88.77,0,0,1-6,7.26,44.38,44.38,0,0,1-7.25,6.47,2.44,2.44,0,0,1-2.75-4l.16-.1Z"/><path class="cls-1" d="M259.62,187.49c3.26-2.55,6.12-4.67,8.37-6.22,7.72-5.27,63.19-48.21,118-90.86-7.12,3.63-22.39,11.7-26.5,16.13-5.41,5.83-31.74,23.88-38.62,28.43s-14.58,10.58-20.9,14.87-16.31,15-28.64,23.95-15-1.42-14.48-9.08C250,166.49,249.37,184.68,259.62,187.49Z"/><polygon class="cls-1" points="450.28 40.3 504.4 84.44 554.32 43.83 499.29 1.93 450.28 40.3"/><path class="cls-1" d="M555.69,42.49h0A171.88,171.88,0,0,0,542.46,31c-4.53-3.63-9.15-7.12-13.79-10.57Q514.72,10.07,500.37.33a1.94,1.94,0,0,0-2.27.08h0L343.88,121.26l-38.65,30.07c-12.93,9.95-25.78,20.09-38.91,29.67-6.7,4.8-13,10-19.33,15.17l-18.82,15.7c-12.5,10.49-24.91,21.12-37.65,31.28h0a1.06,1.06,0,0,0-.15.15.91.91,0,0,0,.16,1.28l29,22.66c4.83,3.74,9.63,7.62,14.45,11.43s9.63,7.81,14.48,11.94L287.7,260.5l19.65-15.16,9.81-7.6,9.61-7.64.17-.14c-.8-.94-1.54-1.88-2.22-2.81l-.19.16-76.1,60.18c-4.7-3.4-9.44-7-14.19-10.64s-9.49-7.38-14.21-11.17l-27.47-21.81c12.53-9.91,24.7-20.2,37-30.38l18.88-15.58c6.34-5.13,12.69-10.28,19.28-14.95,13.31-9.6,26.16-19.62,39.17-29.51l38.83-29.86,77.5-59.94c25.42-19.73,50.88-39.39,76.17-59.32,9.11,6.23,18.15,12.6,27,19.17,4.62,3.42,9.21,6.89,13.69,10.47,3.91,3.14,7.77,6.35,11.36,9.75C526.79,64,501.86,84,477,104.14l-76.24,61.6-17.32,14c1.41.39,2.85.8,4.33,1.26l15.34-12.34,76.27-61.57c25.4-20.57,50.83-41,76.14-61.8l.15-.13A1.88,1.88,0,0,0,555.69,42.49Z"/><path class="cls-2" d="M321.61,194.65c3.61-9.71,16.84-23.9,51.47-17.35,8.25-7,16.61-14,24.35-20.29,11.61-9.44,23-16.9,29-21.07a3.78,3.78,0,0,0,.35-5.95c-10.34-9.17-29-22.29-37.33-28a3.39,3.39,0,0,0-4.07.19c-7.23,5.94-23.27,19.74-41.64,33.67-25.22,19.14-54,38.91-60.54,43.38-11.79,8.06-39.19,40-82.64,73.41L233,278.19c42-32.06,75.83-46.82,88.38-56.64C316.83,211.89,318.56,202.83,321.61,194.65Z"/><path class="cls-1" d="M501.34,384.29C491,370.6,482,355.94,473.3,341.16s-16.65-30-24.37-45.32l.09.17a21,21,0,0,0-3.69-4.05,56,56,0,0,0-4.57-3.59,73.49,73.49,0,0,0-10.17-5.92,67.73,67.73,0,0,0-11-4.16c-1.91-.56-3.69-.86-5.75-1.31s-4.08-1-6.08-1.51A284.21,284.21,0,0,1,362.5,257a184.18,184.18,0,0,1-21.22-12.3c-6.76-4.64-13.39-9.92-18.14-16.93A33.08,33.08,0,0,1,318,216.18a31.78,31.78,0,0,1-.19-12.59,45.26,45.26,0,0,1,1.53-6,38.49,38.49,0,0,1,2.31-5.82,28.69,28.69,0,0,1,8.18-9.5A35.93,35.93,0,0,1,341,176.69a52.78,52.78,0,0,1,12.2-2,91.86,91.86,0,0,1,24.37,2.42c16,3.56,31,10,45.7,16.86q11,5.16,21.7,11.08c7.12,3.92,14,8.31,20.87,12.47s14,7.92,21.69,10.18a127.24,127.24,0,0,0,23.67,4.35.63.63,0,0,1-.1,1.26c-8.09-.59-16.24-1.45-24.12-3.76a78.87,78.87,0,0,1-11.51-4.3c-3.71-1.74-7.28-3.72-10.79-5.76-13.94-8.31-27.79-16.49-42.45-23.32s-29.47-13.31-45.14-16.94a86.12,86.12,0,0,0-23.78-2.49,50,50,0,0,0-11.7,1.95,33.32,33.32,0,0,0-10.47,5.24,24.83,24.83,0,0,0-7.43,8.83,36.66,36.66,0,0,0-2,5.5,42.59,42.59,0,0,0-1.33,5.74,28.44,28.44,0,0,0,.43,11.52,30.29,30.29,0,0,0,5.06,10.32c4.62,6.29,11.05,11.1,17.74,15.37,3.37,2.12,6.84,4.1,10.36,6s7.08,3.78,10.68,5.56c7.19,3.57,14.57,6.79,22,10s14.92,6,22.53,8.33c1.9.54,3.8,1.1,5.68,1.48s4.1.84,6.07,1.44a71.36,71.36,0,0,1,11.66,4.55,77,77,0,0,1,10.73,6.38,51.15,51.15,0,0,1,4.9,4,24.22,24.22,0,0,1,4.31,5,.56.56,0,0,1,.09.17q11.07,23.06,23.43,45.55c4.1,7.49,8.29,14.94,12.69,22.26s9,14.52,13.87,21.51a.72.72,0,0,1-.17,1A.75.75,0,0,1,501.34,384.29Z"/><path class="cls-1" d="M453.17,295.46a22.58,22.58,0,0,0,4.72,6.85,51.19,51.19,0,0,0,6.7,5.8,82.65,82.65,0,0,0,15.61,9,.64.64,0,0,1,.34.84.65.65,0,0,1-.8.35,84.08,84.08,0,0,1-16.68-7.93,53.88,53.88,0,0,1-7.56-5.57,26,26,0,0,1-6.15-7.68,2.08,2.08,0,1,1,3.73-1.86,1,1,0,0,1,.07.15Z"/><path class="cls-1" d="M438.13,220.1a43.36,43.36,0,0,1-1,12.29,66.68,66.68,0,0,1-3.66,11.75A69,69,0,0,1,427.76,255a45.63,45.63,0,0,1-8,9.42,1.19,1.19,0,0,1-1.81-1.51h0c2-3.4,3.93-6.79,5.71-10.26s3.44-7,5-10.57,2.92-7.21,4.21-10.89,2.37-7.41,3.36-11.26h0a1,1,0,0,1,1.9.16Z"/><path class="cls-1" d="M472.18,218.68a61.81,61.81,0,0,0,10.48-11.14,125.22,125.22,0,0,0,8.59-13.18,209.38,209.38,0,0,0,13.47-28.77,1.39,1.39,0,0,1,1.81-.82,1.42,1.42,0,0,1,.84,1.76A211.37,211.37,0,0,1,495,196.38a128.79,128.79,0,0,1-8.3,14.05,66.24,66.24,0,0,1-10.91,12.62,2.83,2.83,0,1,1-3.72-4.26l.09-.07Z"/><path class="cls-1" d="M474.89,216.28c-2.52,2.34-9.1,1.12-13.58-1.54l1.1,1.29s8.55,7.44,10.92,4.25S474.89,216.28,474.89,216.28Z"/><path class="cls-1" d="M487,226.48a32.12,32.12,0,0,0,6.78-6,65.6,65.6,0,0,0,5.61-7.47.66.66,0,0,1,.91-.19.67.67,0,0,1,.22.86,67.63,67.63,0,0,1-5,8.18,34.56,34.56,0,0,1-6.73,7.18,1.56,1.56,0,0,1-1.91-2.47Z"/><path class="cls-1" d="M397.77,254.07a47.42,47.42,0,0,0,6.67-9.15,33.8,33.8,0,0,0,2.39-5.15,12.57,12.57,0,0,0,.88-5.33v-.07a.84.84,0,0,1,1.65-.29,14.28,14.28,0,0,1-.13,6.35,35.62,35.62,0,0,1-1.83,5.89,51,51,0,0,1-5.88,10.85,2.44,2.44,0,0,1-4-2.84Z"/><path class="cls-1" d="M442.7,266c-14.07-17.45-29.37-6-40.49-10.82s-24-19.52-36-21.81c-19.29-5-37.44-15.9-47.51-26.48-.72,9.46,2.65,19.75,16,30.57,19.36,15.66,65.19,34.79,80.58,37.57s31.53,13.55,35.44,20c0,0,4.12,10.42,11.36,24.93C455.85,307.6,456.67,283.29,442.7,266Z"/><circle class="cls-1" cx="237.5" cy="36.53" r="6.95"/></g></g></svg>