<svg xmlns="http://www.w3.org/2000/svg" viewBox="0 0 573.88 500"><defs><style>.cls-1{fill:#f1574b;}.cls-2{fill:#5c5856;}</style></defs><title>Asset 2</title><g id="Layer_2" data-name="Layer 2"><g id="Layer_1-2" data-name="Layer 1"><path class="cls-1" d="M533.25,46.91,356,1.42c-10.21-2.3-39.65,8.51-48.39,23.06a28.13,28.13,0,0,1,28.92-9.59L513.77,60.38a50.58,50.58,0,0,1,38,49V403a28.2,28.2,0,0,1-25.3,28l.18.06c19,.08,44.59-20.34,44.59-41.57V95.91A50.58,50.58,0,0,0,533.25,46.91Z"/><path class="cls-2" d="M573.25,198.07l-.48-64.42-.1-32.21c0-2.7,0-5.33-.09-8.12a51.57,51.57,0,0,0-1.07-8.2,52,52,0,0,0-38.14-39.47l-7.81-2L510,39.7l-62.41-16-62.41-16-15.61-4-7.8-2-3.9-1A17.14,17.14,0,0,0,353.65,0C348-.13,342.66,1.3,337.47,3a83.5,83.5,0,0,0-14.92,6.62,53.07,53.07,0,0,0-13,10.06,24.65,24.65,0,0,0-4.62,7.13,16.92,16.92,0,0,0-1,3.63A28.31,28.31,0,0,1,315.05,18a57.54,57.54,0,0,1,8.78-6.23,81.42,81.42,0,0,1,14.41-6.56c5-1.65,10.22-3,15.32-3a14.63,14.63,0,0,1,3.74.65l3.9,1,7.8,2,15.59,4L447,26,509.36,42l15.59,4,7.8,2a50.72,50.72,0,0,1,7.42,2.54,49.21,49.21,0,0,1,29.62,42.84c.1,2.57,0,5.31,0,8l-.09,32.21-.48,64.42c-.36,43-.77,85.89-.59,128.84l.33,64.27a31.66,31.66,0,0,1-4.66,14.21,50.12,50.12,0,0,1-9.92,11.8,54,54,0,0,1-13,8.54c-1.06.49-2.15.94-3.25,1.35A27.93,27.93,0,0,1,520.86,431l5.2,1.77.1,0a1.35,1.35,0,0,0,.5.07h0A41.69,41.69,0,0,0,543,429a58.12,58.12,0,0,0,14-8.89,54.43,54.43,0,0,0,10.93-12.58,36.06,36.06,0,0,0,5.5-16l.09-2.16,0-2,0-4,.07-8,.09-16.11.17-32.21C574,284,573.61,241,573.25,198.07Z"/><path class="cls-2" d="M78.51,482.69c29.67,18.63,23.86-5.4,23.86-30.74V344.2c0-8.76-35.88-74.63-44.3-90C47.3,238.81,24.67,224.87.8,212.73V433.15Z"/><path class="cls-2" d="M70.49,239.63a33.85,33.85,0,0,0-8.78-.29c-2.82.36-5.1,1.51-5.38,3.9s.68,5.4,1.87,8.07,2.81,5.48,4.25,8.2q8.77,16.42,17.29,33c5.75,11,11.43,22.06,16.72,33.32,1.32,2.82,2.6,5.66,3.81,8.54.6,1.44,1.19,2.89,1.72,4.38a24.4,24.4,0,0,1,1.32,4.69,21.17,21.17,0,0,1,.09,2.44l0,2.33,0,4.65.07,9.31c.25,24.83.29,49.65.75,74.48l.32,18.58c.19,6.15.65,12.32.73,18.69a40.52,40.52,0,0,1-1,9.92,12.79,12.79,0,0,1-2.59,5.26,9.1,9.1,0,0,1-5.83,3,15.06,15.06,0,0,1-5.7-.46A31.89,31.89,0,0,1,85.4,490a75.49,75.49,0,0,1-8.69-4.46,3.38,3.38,0,1,1,3.4-5.85l.15.09,0,0A68.52,68.52,0,0,0,88,484.3a23.62,23.62,0,0,0,3.86,1.53,9.44,9.44,0,0,0,3.5.51,3.38,3.38,0,0,0,2.3-1,7.5,7.5,0,0,0,1.55-3,36,36,0,0,0,1.15-8.53c.23-6-.1-12.27-.09-18.53l.24-18.65c.46-24.83.51-49.65.76-74.48l.07-9.31,0-4.65,0-2.33a15.66,15.66,0,0,0,0-2.21,45.92,45.92,0,0,0-2.89-8.53q-1.8-4.26-3.77-8.46C89.38,315.47,83.71,304.43,78,293.43s-11.81-21.82-17.84-32.67c-1.49-2.75-3.06-5.31-4.54-8.21A28.1,28.1,0,0,1,53.76,248a12.74,12.74,0,0,1-.59-5.22,6.93,6.93,0,0,1,3-5,11.77,11.77,0,0,1,5-1.92,37.82,37.82,0,0,1,9.78-.17,2,2,0,0,1-.33,4h-.11Z"/><path class="cls-2" d="M58.7,258.28C45.56,235.37,3.73,223.34,1,213.36l62.14,22.89S48.76,237.32,58.7,258.28Z"/><path class="cls-2" d="M270.58,279.94l0,9.06-.35,72.36L270,397.54l0,9a33.85,33.85,0,0,1-1.15,9.33,35.16,35.16,0,0,1-9.4,16.06,34.53,34.53,0,0,1-7.55,5.59c-2.81,1.48-5.47,2.62-8.21,4l-16.37,7.69c-10.94,5.09-21.74,10.44-32.62,15.64S173,475.39,162.2,480.72l-16.23,8c-2.68,1.35-5.44,2.62-8.07,4a63.86,63.86,0,0,1-8.64,3.77A56.63,56.63,0,0,1,110.65,500a35,35,0,0,1-9.75-1.28,27.25,27.25,0,0,1-4.72-1.79c-1.59-.82-2.85-1.61-4.14-2.35l-15.55-9.33-15.35-9.6q-15.33-9.7-30.35-19.76T.84,435.54A2,2,0,0,1,3,432.23q15.52,9.3,30.85,18.91l30.67,19.13,30.66,19.07c1.3.8,2.59,1.63,3.7,2.19a22.81,22.81,0,0,0,3.68,1.48,29.58,29.58,0,0,0,8.13,1.16,54.66,54.66,0,0,0,16.85-2.74,59.17,59.17,0,0,0,8-3.2c2.74-1.33,5.49-2.51,8.23-3.77L160.33,477c11-5,22-9.93,32.95-15s21.92-10.06,32.82-15.23L242.48,439c2.68-1.3,5.56-2.54,8.08-3.89a32.14,32.14,0,0,0,7-5.12,31.63,31.63,0,0,0,8.56-14.82,30.56,30.56,0,0,0,1-8.59l0-9-.17-36.19L266.51,289l0-9a42.15,42.15,0,0,0-3.75-16.69c-1.19-2.53-2.74-5.29-4.11-7.93l-16.89-32-8.44-16-4.22-8-1.05-2-1.08-1.85c-.33-.63-.77-1.18-1.16-1.79a20.19,20.19,0,0,0-1.28-1.72,41.43,41.43,0,0,0-11.8-10.25v0a4.38,4.38,0,0,0-2.78-5.31s-6.21-2.19-15.76-5.53a2,2,0,0,1,2.27-.73,106.29,106.29,0,0,1,16.93,7.26,47.28,47.28,0,0,1,14.42,12,17.55,17.55,0,0,1,1.4,1.93,20,20,0,0,1,1.32,2l1.18,2.07,1.05,2,4.22,8,8.46,16,16.87,32c1.39,2.72,2.83,5.22,4.2,8.14a46.27,46.27,0,0,1,3,9A44.68,44.68,0,0,1,270.58,279.94Z"/><path class="cls-2" d="M102.08,340.81c6.7-3.26,13.5-6.34,20.25-9.52l20.42-9.24c13.62-6.16,27.35-12.1,41.09-18s27.54-11.73,41.41-17.37l20.8-8.46c7-2.71,13.91-5.52,20.92-8.14a1.54,1.54,0,0,1,2,.91,1.56,1.56,0,0,1-.78,1.95c-6.72,3.27-13.51,6.35-20.26,9.53l-20.39,9.22c-13.59,6.15-27.28,12.06-41,18s-27.45,11.7-41.29,17.33l-20.77,8.43c-7,2.71-13.91,5.52-20.94,8.15l-.28.11a1.55,1.55,0,0,1-1.22-2.84Z"/><path class="cls-2" d="M105.46,284.34l24.08,46.23a1.22,1.22,0,0,1,.14.59l-.91,48.42a.41.41,0,0,1-.82,0L127,331.16l.14.59-22.5-47a.44.44,0,0,1,.2-.59A.44.44,0,0,1,105.46,284.34Z"/><path class="cls-2" d="M229.25,231.81,253.32,278a1.14,1.14,0,0,1,.14.59l-.91,48.42a.4.4,0,0,1-.41.4.4.4,0,0,1-.4-.4l-.92-48.42.14.59-22.5-47a.43.43,0,0,1,.21-.58A.43.43,0,0,1,229.25,231.81Z"/><path class="cls-1" d="M180,337.94l66.44-29.46a2.27,2.27,0,0,1,3.18,2.07v18.76a5.42,5.42,0,0,1-3.32,5l-66.39,28.06a2.26,2.26,0,0,1-3.14-2.09V342.9A5.44,5.44,0,0,1,180,337.94Z"/><polygon class="cls-1" points="176.77 455.05 138.93 471.98 138.93 459.35 176.77 442.42 176.77 455.05"/><path class="cls-1" d="M219.72,218.81,189.79,232.2a2.92,2.92,0,0,1-3.67-1.11l-5.2-8.25a5.32,5.32,0,0,1,2.33-7.69l29.93-13.39a2.92,2.92,0,0,1,3.67,1.11l5.2,8.25A5.32,5.32,0,0,1,219.72,218.81Z"/><path class="cls-2" d="M99.11,80.07a89.74,89.74,0,0,1,12.51-9A151.34,151.34,0,0,1,125,63.8c4.56-2.2,9.22-4.19,14-5.93a91.71,91.71,0,0,1,14.85-4.16,4.54,4.54,0,0,1,3.79,7.87,89.66,89.66,0,0,1-12.51,9q-6.51,4-13.35,7.26c-4.56,2.19-9.22,4.18-14,5.92a89.72,89.72,0,0,1-14.85,4.16,4.53,4.53,0,0,1-3.79-7.86Z"/><path class="cls-2" d="M119.12,41.58a89,89,0,0,1,9,12.5q4,6.51,7.26,13.36c2.19,4.56,4.18,9.22,5.92,14a89.72,89.72,0,0,1,4.16,14.85,4.53,4.53,0,0,1-7.86,3.79,89.74,89.74,0,0,1-9-12.51q-4-6.51-7.25-13.35a151.37,151.37,0,0,1-5.93-14,91.71,91.71,0,0,1-4.16-14.85,4.53,4.53,0,0,1,7.87-3.78Z"/><circle class="cls-2" cx="318.46" cy="455.31" r="11.58"/><path class="cls-2" d="M3,211.3l53.32,20.77a65.59,65.59,0,0,0,27.31,4.53,67.62,67.62,0,0,0,26.83-7l51.79-24.32,25.89-12.16,13-6.08,6.47-3,1.62-.76.41-.19.25-.14a3,3,0,0,0,.46-.33,2.78,2.78,0,0,0,0-4,2.81,2.81,0,0,0-.94-.58l-1.66-.59L201,175.05l-13.49-4.75-27-9.5L147.07,156c-4.51-1.55-9.06-3-13.58-4.46l-27.19-8.87-6.8-2.21a20.36,20.36,0,0,0-3.22-.89,14.38,14.38,0,0,0-3.21-.17,14.14,14.14,0,0,0-3.16.55,13.73,13.73,0,0,0-1.52.54l-1.63.7-6.56,2.85L54,155.47,27.63,166.68,1.25,177.76a.7.7,0,0,1-.9-.37.68.68,0,0,1,.35-.89l26.05-11.85,26.1-11.71L79,141.33l6.54-2.91,1.65-.73a17.34,17.34,0,0,1,5.7-1.37,16.59,16.59,0,0,1,3.92.2,23,23,0,0,1,3.67,1l6.81,2.21,27.22,8.83c4.53,1.49,9.09,2.91,13.6,4.46l13.5,4.73,27,9.48L202.1,172l6.75,2.37,1.71.6a6.06,6.06,0,0,1,2.07,1.29,6.06,6.06,0,0,1-.09,8.8,6.25,6.25,0,0,1-1,.72L211,186l-.4.19L209,187,202.53,190l-12.94,6.1-25.88,12.19L112,232.7a70.35,70.35,0,0,1-28.13,7.35,69.1,69.1,0,0,1-28.69-4.87l-53.24-21a1.58,1.58,0,0,1-.88-2A1.55,1.55,0,0,1,3,211.3Z"/><path class="cls-2" d="M341,381.94c48,12.27,95.83,25.32,143.75,37.94l18,4.7,9,2.35c3,.74,6.07,1.69,8.86,2.13A26.15,26.15,0,0,0,537.33,426a25.45,25.45,0,0,0,6.75-5.42,24.14,24.14,0,0,0,4.61-7.3,23.29,23.29,0,0,0,1.94-8.39c0-.73.09-1.42.09-2.18v-2.32l0-4.65-.16-18.58L550.15,340c-.46-49.55-1.06-99.11-1.25-148.66-.06-12.39,0-24.78.07-37.17l.32-37.16,0-4.65c0-1.55,0-3.13,0-4.53l-.07-2.18c0-.72-.16-1.44-.23-2.16l-.26-2.16-.43-2.13a47.26,47.26,0,0,0-6.57-16A48.24,48.24,0,0,0,514,63c-47.89-12.75-95.73-25.7-143.67-38.23l-18-4.73-9-2.37c-3-.75-6-1.7-8.92-2.17a26.83,26.83,0,0,0-17.22,3.13,26,26,0,0,0-6.94,5.54,24.55,24.55,0,0,0-4.75,7.5c-2.58,5.47-2,11.58-2.05,17.82L303.66,68l.32,37.16c.33,49.56,1,99.11.54,148.67-.26,12.38-.64,24.77-.8,37.16s0,24.78.19,37.17c.07,3.07.06,6.26.26,9.23l.15,2.23c.06.74.21,1.47.31,2.21l.34,2.2.51,2.17a48.19,48.19,0,0,0,7.23,16.1A49.76,49.76,0,0,0,341,381.94Zm-1.46,5.69a52.25,52.25,0,0,1-38.07-40.5l-.45-2.38-.27-2.4c-.07-.8-.19-1.6-.22-2.4l-.06-2.41c-.08-3.22.11-6.23.12-9.35.2-12.39.31-24.78.2-37.17s-.55-24.78-.81-37.16c-.49-49.56.21-99.11.54-148.67L300.82,68,301,49.44l0-4.64c0-1.54,0-3.1.16-4.73a32.24,32.24,0,0,1,.71-4.78,32.8,32.8,0,0,1,1.59-4.56,29.63,29.63,0,0,1,12.69-14.09,29,29,0,0,1,18.65-3.39c3.23.55,6.12,1.4,9.15,2.13l9,2.25,18,4.51c48.05,12.1,96.21,23.79,144.32,35.67a54,54,0,0,1,31.46,22,53.21,53.21,0,0,1,7.79,18l.54,2.41.35,2.44c.1.82.24,1.64.3,2.46l.13,2.47c.12,1.69.1,3.2.12,4.75l0,4.65.31,37.16c.09,12.39.14,24.78.07,37.17-.18,49.55-.79,99.11-1.25,148.66l-.36,37.17-.16,18.58,0,4.65,0,2.32c0,.79-.09,1.64-.14,2.46a32.44,32.44,0,0,1-.74,4.89,32,32,0,0,1-1.62,4.68,30.33,30.33,0,0,1-13,14.41A29.73,29.73,0,0,1,520,432.56c-3.33-.58-6.17-1.42-9.21-2.16l-9-2.27-18-4.53C435.69,411.57,387.5,400,339.51,387.63Z"/><path class="cls-2" d="M369.37,225.89c1.11,22.36,1.5,44.72,1.63,67.08.05,11.18.08,22.36-.18,33.54s-.65,22.36-1.45,33.54a1.48,1.48,0,0,1-1.59,1.39,1.5,1.5,0,0,1-1.38-1.39c-.8-11.18-1.23-22.36-1.45-33.54s-.23-22.36-.18-33.54c.13-22.36.52-44.72,1.63-67.08a1.49,1.49,0,0,1,3,0Z"/><path class="cls-2" d="M321.68,248.4q24.9,5.65,49.66,11.84t49.5,12.48c16.47,4.27,32.93,8.55,49.33,13.11s32.75,9.27,49,14.35a1.49,1.49,0,0,1-.75,2.88c-16.66-3.55-33.23-7.44-49.74-11.54s-33-8.42-49.42-12.78-32.87-8.81-49.25-13.41-32.77-9.19-49.08-14a1.49,1.49,0,0,1,.75-2.88Z"/><path class="cls-2" d="M321.68,317.41q24.9,5.65,49.66,11.84t49.5,12.48c16.47,4.27,32.93,8.55,49.33,13.11s32.75,9.27,49,14.35a1.49,1.49,0,0,1-.75,2.88c-16.66-3.55-33.23-7.44-49.74-11.54s-33-8.42-49.42-12.78-32.87-8.81-49.25-13.41-32.77-9.19-49.08-14a1.49,1.49,0,0,1,.75-2.88Z"/><path class="cls-1" d="M512.1,152.77c-.75-2.85-2.57-5.07-4.14-7.2-1.7-2.32-3.35-4.66-5.95-5.79s-5.48-1-8.33-.64a21.78,21.78,0,0,0-8.07,2.11,31.57,31.57,0,0,0-6.77,4.95,40.4,40.4,0,0,0-5,6.63c-.59.87-1.13,1.8-1.67,2.73a30,30,0,0,1,5.46,41.22c2.5,1.08,5,2,7.74,1.69s5-1.92,7.56-3.33c2.31-1.26,4.9-2.35,7-4.36a40.16,40.16,0,0,0,5.52-6.22c1.5-2.21,2.16-5,3.29-7.6a43.2,43.2,0,0,0,2.59-7.77c.64-2.8,2-5.45,2-8.1A32.19,32.19,0,0,0,512.1,152.77Z"/><path class="cls-2" d="M513.34,150.8a19.14,19.14,0,0,0-10.07-11.41c-3.73-1.62-7.87-1.1-12,.12l4.49,1.63c3.5,1.52,5.74,5.51,6.76,10.07a30.68,30.68,0,0,1-.13,11.2,43.68,43.68,0,0,1-3.32,10.45c-1.55,3.57-2.88,7.09-5,9.82-2.55,3.26-6,5.2-8.92,6.91a17.61,17.61,0,0,1-4.46,1.93,30.3,30.3,0,0,1-4.16,6.67c.32.17.64.34,1,.48,4.59,2,9.83,1.36,14.84-.85a32.6,32.6,0,0,0,10.94-8.54,41.85,41.85,0,0,0,10.39-24.6C514.2,159.64,514.75,154.86,513.34,150.8Z"/><path class="cls-2" d="M496.66,152.36a7.5,7.5,0,0,0-.89-1.35,7.89,7.89,0,0,0-5.95-3.33,13.63,13.63,0,0,0-6.47,1.46,22.33,22.33,0,0,0-7.17,5.82c-.66.78-1.28,1.62-1.88,2.49a29.8,29.8,0,0,1,7.27,11.22c0-.75,0-1.5.07-2.24a16.25,16.25,0,0,1,4.5-10.39c2.08-2.18,5.67-4,8.93-2.59a15.36,15.36,0,0,0,2.05,1A4.66,4.66,0,0,0,496.66,152.36Z"/><path class="cls-2" d="M518.21,157.21a19.25,19.25,0,0,0-3.89-10.68,17.47,17.47,0,0,0-9.15-6.51h0a16,16,0,0,0-3.16-1.56,13,13,0,0,0-3.49-.64,22.34,22.34,0,0,0-6.92.89,20.75,20.75,0,0,0-5.34,1.4,26.41,26.41,0,0,0-4.72,2.87,25.94,25.94,0,0,0-4.07,3.71,37.89,37.89,0,0,0-3.15,4.45q-1.33,2-2.54,4.14c.25.19.49.37.73.57a45.48,45.48,0,0,1,2.72-4.1,37.47,37.47,0,0,1,3.22-4.19,29.43,29.43,0,0,1,4-3.4,28.86,28.86,0,0,1,4.45-2.7,19.22,19.22,0,0,1,5-1.38l.08,0a23.58,23.58,0,0,1,6.57-1.12,15.13,15.13,0,0,1,3.28.37,16.67,16.67,0,0,1,3.1,1.23l0,0h0l.05,0a16.61,16.61,0,0,1,8.51,6.55,18.11,18.11,0,0,1,3.5,10.12,77.82,77.82,0,0,1-.86,11.05,40.39,40.39,0,0,1-2.91,10.58A41.7,41.7,0,0,1,499.85,196a24.69,24.69,0,0,1-9.88,4.36,14.86,14.86,0,0,1-10.42-1.59l-.09,0h0l-1.67-.59c-.29-.12-.56-.27-.84-.41-.22.28-.47.55-.7.83.36.2.72.43,1.1.6l1.71.63a16.12,16.12,0,0,0,11.18,1.9,25.71,25.71,0,0,0,10.54-4.43,43.24,43.24,0,0,0,13.94-17.76,41.6,41.6,0,0,0,2.84-11A78.43,78.43,0,0,0,518.21,157.21Z"/><path class="cls-2" d="M464.66,195.63a45.81,45.81,0,0,1,1.91,7.12c.45,2.38.75,4.26,1.86,5.81a12.21,12.21,0,0,0,2.08,2.28l1.36,1.17a13.07,13.07,0,0,1,1.33,1.45,12.1,12.1,0,0,1,2.6,7.1.78.78,0,0,1-1.54.17l0-.09a10.09,10.09,0,0,0-3-5.42,9.09,9.09,0,0,0-1.19-1l-1.44-.91a15.25,15.25,0,0,1-3-2.47,12,12,0,0,1-2.25-3.44c-.55-1.22-.92-2.39-1.3-3.47a42.22,42.22,0,0,0-2.61-6.06,2.86,2.86,0,0,1,5-2.71,3,3,0,0,1,.16.37Z"/><path class="cls-2" d="M432.87,139.8l.1,0a21,21,0,0,1,7.73,5.51,18.48,18.48,0,0,1,3.13,5.19,31.65,31.65,0,0,1,3.53-1c.45-.09.89-.13,1.34-.2-.47-.84-1-1.68-1.55-2.51a22.2,22.2,0,0,0-3.8-4.22,24.13,24.13,0,0,0-9.78-5,1.14,1.14,0,0,0-.7,2.16Z"/><path class="cls-2" d="M421.72,185.52a30.81,30.81,0,0,1,.1-12.58,31.43,31.43,0,0,1,5.09-11.39,33.25,33.25,0,0,1,44-9,31.64,31.64,0,0,1,9.17,8.47,30.4,30.4,0,0,1,5,24.16A31.69,31.69,0,0,1,480,196.6a33.24,33.24,0,0,1-44.12,9,31.72,31.72,0,0,1-9.13-8.53A30.72,30.72,0,0,1,421.72,185.52Zm4.42-.91a29.54,29.54,0,0,0,11.65,18.06,28.19,28.19,0,0,0,10.15,4.53,27,27,0,0,0,21.5-4.41,28.1,28.1,0,0,0,7.54-8.17,29.83,29.83,0,0,0-8-39.25,28.27,28.27,0,0,0-10.17-4.6,26.95,26.95,0,0,0-21.6,4.4,28.21,28.21,0,0,0-7.56,8.22A29.65,29.65,0,0,0,426.14,184.61Z"/><path class="cls-2" d="M446.24,194.5a21.68,21.68,0,0,1-6.88,10.21c-3.27,2.64-6.92,3.83-10.08,5a22.41,22.41,0,0,0-8.21,4.53,21,21,0,0,0-5.32,7.87l0,.11a1.14,1.14,0,0,1-2.17-.65,23.9,23.9,0,0,1,4.75-9.9,21.85,21.85,0,0,1,4.11-3.92,41.75,41.75,0,0,1,4.7-2.87c3-1.66,5.88-3.18,7.69-5.23a14,14,0,0,0,3.4-7.31,4.17,4.17,0,1,1,8.2,1.57,4.56,4.56,0,0,1-.13.53Z"/><path class="cls-2" d="M465.77,157.52a19.44,19.44,0,0,0,8.23-2.77,42.29,42.29,0,0,0,3.92-2.93,24,24,0,0,1,4.95-3.21,15.43,15.43,0,0,1,5.92-1.4,39.65,39.65,0,0,1,5.49.14,57.36,57.36,0,0,1,10.55,1.89,1.14,1.14,0,0,1-.45,2.23h-.06a55,55,0,0,0-10.1-.32,35.06,35.06,0,0,0-4.88.58,10.48,10.48,0,0,0-4,1.57c-2.32,1.45-4.2,4.27-7.26,6.9a27,27,0,0,1-10.66,5.49l-.09,0a4.17,4.17,0,1,1-2.14-8.07A5.54,5.54,0,0,1,465.77,157.52Z"/><path class="cls-2" d="M375.78,169.91l-.11.11a38.15,38.15,0,0,1-7.75,5.84,36.23,36.23,0,0,1-9,3.64,81.66,81.66,0,0,1-9.73,2.06,13.74,13.74,0,0,1-4.58-.18,18.06,18.06,0,0,1-4.46-1.57,15,15,0,0,1-6.8-6.48l-.07-.13,0-.07,0,0a17.82,17.82,0,0,1-1.1-2.7,13.53,13.53,0,0,1-.42-2.77,23.7,23.7,0,0,1,.6-5.74v0l0-.2a17.84,17.84,0,0,1,.78-4.31,29.81,29.81,0,0,1,1.87-4.07,31.69,31.69,0,0,1,2.41-3.84,34.18,34.18,0,0,1,3.25-3.41,32.6,32.6,0,0,1,7.6-5.88,24,24,0,0,1,2.66-1.28c-.31-.82-.59-1.64-.86-2.45-1,.58-2,1.18-2.93,1.73a66.32,66.32,0,0,0-8.42,5.57,33.79,33.79,0,0,0-4,3.29,24.21,24.21,0,0,0-5.53,9.09,18.07,18.07,0,0,0-.71,5.41l0-.25a20.6,20.6,0,0,0,.13,6.82,12.62,12.62,0,0,0,1.2,3.31,12.32,12.32,0,0,0,2.05,2.7,16.46,16.46,0,0,0,6.88,8.23,20.76,20.76,0,0,0,5.08,2.23,17.4,17.4,0,0,0,5.62.64,35.56,35.56,0,0,0,5.36-.63c1.72-.31,3.38-.61,5.15-1a39.59,39.59,0,0,0,10.16-3.81,41.68,41.68,0,0,0,9.58-7.45Q377.73,171.17,375.78,169.91Z"/><path class="cls-2" d="M358.52,177.23c1.9.68,4.92,1,5.05-1.4.12-2.14,1.48-4.93-1.54-5.84a3.55,3.55,0,0,0-4.23,2.46C357.35,173.79,357,176.37,358.52,177.23Z"/><path class="cls-2" d="M379,155.47l.09.11c.23.28.5.88.87,1,1.13.27,1.93-2,2.18-2.71,1.16-3.23,2.73-5.36-.05-6.3-2.52-.86-4,.43-5.33,2.47a2.64,2.64,0,0,0-.59,1.8,2.85,2.85,0,0,0,.83,1.4C377.65,154,378.35,154.69,379,155.47Z"/><path class="cls-2" d="M371.77,143.63l0,.05c.12.14.25.44.44.49.56.14,1-1,1.09-1.36.58-1.61,1.36-2.68,0-3.15s-2,.22-2.66,1.24a1.33,1.33,0,0,0-.3.9,1.5,1.5,0,0,0,.42.7C371.1,142.88,371.45,143.24,371.77,143.63Z"/><path class="cls-2" d="M354.48,146.56c-.55-1-1.07-2.08-1.57-3.11-.24,0-.49,0-.74,0-4.7.4-6.38,4.77-9.12,7.95s-7.55,5.65-7.22,10.53a12.31,12.31,0,0,0,1.32,5.38,11.91,11.91,0,0,0,4,3.72,14.55,14.55,0,0,0,4.67,2.51c1.35.32,3.42,1,4.7.62s1.66-2.15,2-3.27.81-2.52,1.22-3.77a5.87,5.87,0,0,1,1.31-2.57,4.51,4.51,0,0,1,2.26-.93,15.71,15.71,0,0,1,3.7-.2,12,12,0,0,0,3.17,0,5.31,5.31,0,0,0,2.15-1.07A67.34,67.34,0,0,1,354.48,146.56Z"/><path class="cls-1" d="M435,134.13c-.44,0-.88,0-1.32,0-6.72-.48-12.83-2-17.83-4.73-6.38-3.53-11.26-8.58-12.83-15a22.66,22.66,0,0,1-.43-2.44,18,18,0,0,1-.73-2.33,21.71,21.71,0,0,1,.35-11.05c-1.73-.7-3.45-1.33-5.12-2a47.09,47.09,0,0,0-12.25-3.09c-4.51-.46-9-1.17-12.87-.06-4.23,1.21-7.22,4.57-10.24,7.71s-5.89,6.34-6.93,10.62c-1,4,.11,8.19.74,12.68.57,4,.75,8.31,2.52,12.42a61,61,0,0,0,6,11.29c2.38,3.34,6,5.78,9.18,8.82A67.3,67.3,0,0,0,383,164.8c3.7,2.42,6.78,5.78,10.59,7.25a49,49,0,0,0,12.65,2.65c4.51.47,8.69-1,12.6-2.09,4.24-1.21,8.5-2.33,11.52-5.47s4.35-7.36,5.39-11.64c1-4,1.93-8.27,1.29-12.77A48.75,48.75,0,0,0,435,134.13Z"/><path class="cls-2" d="M431.77,157.46c-4.06,4.23-11,5.31-18.12,4.34-5.12-.7-10.51-3.08-16.06-6.2a67.72,67.72,0,0,1-13.28-10.38c-4.3-4.15-8.66-7.95-11.44-12.48-3.33-5.42-4.27-11.46-5.17-16.55-1.25-7.07-.25-12.47,3.82-16.7,4.27-4.44,10.24-6.2,17.82-4.91a130.62,130.62,0,0,1,13.35,4.2,1.25,1.25,0,0,1,0-.19c-2.68-1.32-8.06-3.91-10.78-4.83-5.71-1.92-11.87-1.71-17.07-1.05a26.69,26.69,0,0,0-16.16,7.61c-5.32,5.53-7.23,13.42-6.72,21.82.4,6.6,2.73,13.47,6.43,20.33A67.21,67.21,0,0,0,371.05,159a66.51,66.51,0,0,0,17.22,11.61c7,3.43,13.58,6.79,20.19,6.94,8.42.18,16.5-2.85,21.82-8.39,4.34-4.5,5.81-10.74,6.25-17.31Z"/><path class="cls-2" d="M426.64,133.15a37.69,37.69,0,0,1-10.78-3.8c-6.38-3.53-11.26-8.58-12.83-15a22.66,22.66,0,0,1-.43-2.44,18,18,0,0,1-.73-2.33,20.51,20.51,0,0,1-.42-7.11c-4.34-2.21-8.45-4.25-12.54-4.44-5.53-.25-10.8,1.61-14.22,5.16-2.78,2.89-3.65,7-3.84,11.27l3-3.6c5-5.24,11.82-.85,15.53,2.84,2.83,2.82,5.36,6.07,8.92,7.94,1.47.77,3.07,1.28,4.6,1.93a24.92,24.92,0,0,1,12.54,12c2,4.17,2.73,10.32-1.05,14.26a21.19,21.19,0,0,0-2.5,2.42,7.11,7.11,0,0,0,3.21.44,11,11,0,0,0,2.43-.56c3.64-1.22,6.42-3.16,8-6.77a20.93,20.93,0,0,0,1.37-10.1C426.87,134.56,426.76,133.85,426.64,133.15Z"/><path class="cls-2" d="M438.38,144.27a40.27,40.27,0,0,0-1.62-8.33c-.17-.6-.36-1.19-.56-1.77-.79,0-1.6,0-2.38-.08.27.82.55,1.64.79,2.46a45.32,45.32,0,0,1,1.49,7.86,29.55,29.55,0,0,1-.67,7.91v.14a36.58,36.58,0,0,1-1.92,10.06,21.9,21.9,0,0,1-2.31,4.52,26.19,26.19,0,0,1-3.43,3.81l0,0-.05.05,0,0a25.62,25.62,0,0,1-14,8.76,27.94,27.94,0,0,1-16.45-.45,125.85,125.85,0,0,1-15.44-7.16,61.81,61.81,0,0,1-13.69-9.81,64.19,64.19,0,0,1-17.53-28.44,37.85,37.85,0,0,1-1-16.56,22.86,22.86,0,0,1,7.87-14.15.57.57,0,0,0,.11-.11l.05,0,1.73-2.1a25.4,25.4,0,0,1,9.88-6.48,36.3,36.3,0,0,1,12-1.74,29.5,29.5,0,0,1,11.76,2.21C396,96.23,399,97.77,402,99.34c.16-.64.34-1.27.55-1.91-3-1.36-6-2.7-9.09-3.86a32.87,32.87,0,0,0-12.29-1.75,51.86,51.86,0,0,0-12.23,1.74,24.64,24.64,0,0,0-10.83,6.17l-1.82,2.12a24.79,24.79,0,0,0-8.74,15.09,39.7,39.7,0,0,0,.73,17.55,66.7,66.7,0,0,0,18.1,29.6,64.5,64.5,0,0,0,14.33,10c2.59,1.36,5.17,2.57,7.78,3.81a64,64,0,0,0,8.12,3.26,27,27,0,0,0,8.76,1.35,33,33,0,0,0,8.72-1.29,26.87,26.87,0,0,0,14.28-9.69,23.73,23.73,0,0,0,3.94-3.7,19.58,19.58,0,0,0,2.79-4.7,33.7,33.7,0,0,0,2.43-10.45A31.17,31.17,0,0,0,438.38,144.27Z"/><path class="cls-2" d="M399.71,110.06a20.37,20.37,0,0,1,1.2-11.32,73.37,73.37,0,0,1,4.54-9.93A32.19,32.19,0,0,1,412.32,80c2.81-2.42,5.69-4.47,8.63-6.57a2.73,2.73,0,0,1,3.18,4.43h0L424,78h0l-3.13-4.47A35.35,35.35,0,0,1,428,70.69c2.43-.62,4.82-1.09,7.16-1.66a96.23,96.23,0,0,1,14.39-2.55,53.88,53.88,0,0,1,7.49-.56,34.36,34.36,0,0,1,7.62,1.21,32.76,32.76,0,0,1,3.63,1.19A24.84,24.84,0,0,1,471.92,70a26.29,26.29,0,0,1,6.15,5l-.28-.24a34,34,0,0,1,3.6,3.32,24,24,0,0,1,3.07,4,18.18,18.18,0,0,1,2.05,4.67,18.85,18.85,0,0,1,.54,5v0l-.08-.31c2.3,4.9,2.32,10.51,1,15.69a29.67,29.67,0,0,1-3.07,7.42,24.54,24.54,0,0,1-5.29,6.28,54.86,54.86,0,0,1-6.25,4.67c-2.13,1.39-4.16,2.73-6.42,4.08a57,57,0,0,1-14.46,6.13A61.85,61.85,0,0,1,437,137.48,55,55,0,0,1,421.38,135a35.33,35.33,0,0,1-7.36-3.35,34.84,34.84,0,0,1-6.44-4.89,23.12,23.12,0,0,1-7.25-14.63l.14.57Zm4.32-1,.71,2v0a2.56,2.56,0,0,1,.13.53c1.18,8.85,9.79,15,18.33,17.49A52.3,52.3,0,0,0,437,131a55.72,55.72,0,0,0,14-1.6,52.26,52.26,0,0,0,13-5.13c2.07-1.11,4.25-2.41,6.34-3.64a62.54,62.54,0,0,0,5.92-3.91,20.66,20.66,0,0,0,4.62-4.77,25.76,25.76,0,0,0,3.14-6.08,21.7,21.7,0,0,0,.68-13.58l-.06-.18a.59.59,0,0,1,0-.13v0A25.44,25.44,0,0,0,483.1,88a19.48,19.48,0,0,0-2.32-3.33,34.31,34.31,0,0,0-6.36-5.43l-.05,0-.22-.19A27,27,0,0,0,469,75.22c-.85-.43-1.87-.87-2.9-1.29s-2.08-.75-3.13-1.11-2.12-.65-3.2-.93q-.81-.21-1.62-.39c-.51-.11-1-.21-1.55-.28a46.22,46.22,0,0,0-6.79-.37A47.26,47.26,0,0,0,436,72.26a34.7,34.7,0,0,0-6.56,2.33,40.16,40.16,0,0,0-5.6,3.5,2.73,2.73,0,0,1-3.18-4.43l.05,0,0,0,3,4.54c-3.11,1.55-6.28,3.19-9.22,4.89A22.3,22.3,0,0,0,407.34,90c-1.88,2.87-3.67,6-4.14,9.36A23.42,23.42,0,0,0,404,109Z"/><path class="cls-2" d="M430.27,103.7a11,11,0,0,0-1.32,4.43c0,1.89,1.58,2.86,3.15,3.79,3,1.78,7.19,2.65,10.36.74a17.11,17.11,0,0,0,3.32-3.17,22.45,22.45,0,0,1,4.1-3.48,6.28,6.28,0,0,1,3.29-1.28,8.58,8.58,0,0,1,3.94,1.38l5,2.75c1.5.82,3.84,2.22,5.4,1.42,1.72-.88,3.21-3.66,4.31-5.34,1.42-2.18,1.87-4.86,2.4-7.29.57-2.63,1.18-5.25.53-7.94a17.77,17.77,0,0,0-4-7c-4.52-5.46-11.83-3.24-18.07-3.86-6.05-.6-12.18-3.51-17.51.76a13.13,13.13,0,0,0-4.77,12.52c.49,3.24,1.37,6.58.49,9.74A14.38,14.38,0,0,1,430.27,103.7Z"/><path class="cls-2" d="M462.23,121.43c-1.32,2.61-4.21,5.93-6.71,3.57-2.26-2.13-6.46-3.7-4.2-7.67,1.4-2.45,4.58-2.85,6.89-1.63C460,116.66,462.93,119,462.23,121.43Z"/><path class="cls-2" d="M419,119a1.5,1.5,0,0,0,0,.2c0,.52.35,1.41.05,1.89-.91,1.4-4-.19-5-.67-4.44-2.24-8.21-2.92-6.23-6.68,1.79-3.41,4.64-3.53,8.06-2.72a3.85,3.85,0,0,1,2.41,1.31,4.15,4.15,0,0,1,.53,2.29C418.93,116.08,418.93,117.55,419,119Z"/><path class="cls-2" d="M414.8,99.37v.1c0,.26.18.71,0,1-.46.7-2-.1-2.5-.34-2.21-1.12-4.1-1.46-3.11-3.34.89-1.7,2.32-1.76,4-1.36a2,2,0,0,1,1.21.65,2.24,2.24,0,0,1,.26,1.15C414.76,97.91,414.75,98.64,414.8,99.37Z"/></g></g></svg>