<svg xmlns="http://www.w3.org/2000/svg" viewBox="0 0 584.77 500"><defs><style>.cls-1{fill:#5c5856;}.cls-2{fill:#f1574b;}</style></defs><title>Asset 5</title><g id="Layer_2" data-name="Layer 2"><g id="Layer_1-2" data-name="Layer 1"><path class="cls-1" d="M50.71,83.62a110.73,110.73,0,0,1,16.86-8.9c5.78-2.51,11.65-4.69,17.61-6.6s12-3.54,18.17-4.86a111.83,111.83,0,0,1,18.9-2.55A5.61,5.61,0,0,1,125.54,71a111.31,111.31,0,0,1-16.87,8.91q-8.65,3.75-17.6,6.6T72.9,91.36A111.83,111.83,0,0,1,54,93.91a5.61,5.61,0,0,1-3.29-10.29Z"/><path class="cls-1" d="M81.81,39.89a110.83,110.83,0,0,1,8.9,16.87,186.65,186.65,0,0,1,6.6,17.61,187.48,187.48,0,0,1,4.86,18.16,111.83,111.83,0,0,1,2.55,18.9,5.61,5.61,0,0,1-10.28,3.3,112.27,112.27,0,0,1-8.91-16.87c-2.5-5.77-4.68-11.65-6.59-17.61a187.48,187.48,0,0,1-4.86-18.16,111.07,111.07,0,0,1-2.55-18.91,5.61,5.61,0,0,1,10.28-3.29Z"/><path class="cls-1" d="M400.45,438.94a60.45,60.45,0,0,1,10.24,2.17,102.12,102.12,0,0,1,9.75,3.4,100.54,100.54,0,0,1,9.38,4.33,61.88,61.88,0,0,1,8.87,5.56,3.08,3.08,0,0,1-2.22,5.49,61.75,61.75,0,0,1-10.25-2.16q-5-1.46-9.75-3.4c-3.18-1.29-6.31-2.72-9.37-4.33a61.33,61.33,0,0,1-8.87-5.56,3.08,3.08,0,0,1,2.22-5.5Z"/><path class="cls-1" d="M428.93,431.41a61.42,61.42,0,0,1-2.16,10.24,102.12,102.12,0,0,1-3.4,9.75,103.18,103.18,0,0,1-4.33,9.38,61.88,61.88,0,0,1-5.56,8.87,3.08,3.08,0,0,1-5.5-2.22,61.77,61.77,0,0,1,2.17-10.25q1.46-5,3.4-9.75a101.57,101.57,0,0,1,4.33-9.37,61.33,61.33,0,0,1,5.56-8.87,3.07,3.07,0,0,1,5.49,2.22Z"/><path class="cls-1" d="M156.87,448.27a17.48,17.48,0,0,1-.45,2.25,11.63,11.63,0,0,1-.4,1.12l-.33.86-1.38,3.39c-1,2.24-2,4.47-3.14,6.65a91.49,91.49,0,0,1-7.76,12.63A48.69,48.69,0,0,1,132.69,486a23,23,0,0,1-7.37,3.53,45.64,45.64,0,0,1-7.73.73c-4.91.19-9.76.22-14.62.14s-9.7-.17-14.54-.35c-9.69-.38-19.38-.92-29.05-1.91h0a.19.19,0,0,1-.21-.18.2.2,0,0,1,.09-.18h0l50.19-33h0l.58-.28a2.35,2.35,0,0,1,.61-.18c8.2-1.19,16.37-2.17,24.11-3S149.82,449.45,156.87,448.27Zm-1.17.94c-7.85,2.06-15.47,4.4-22.61,6.76s-13.89,4.63-20.6,6.68l1.2-.46h0L59.48,488.12l-.09-.38h0c9.69-.75,19.36-1.17,29-1.56s19.36-.64,28.91-1.15a50.25,50.25,0,0,0,6.69-.72,17.63,17.63,0,0,0,5.65-2.7,50.51,50.51,0,0,0,9.91-9.46A120.56,120.56,0,0,0,148,460.69c1.3-2,2.61-4,3.85-6.08l1.88-3.08.48-.78a2.32,2.32,0,0,1,.39-.51A14.68,14.68,0,0,0,155.7,449.21Z"/><path class="cls-2" d="M63.11,237.53c2.71,5.49,8.25,11.36,8.26,11.36-.23-9.49-2.6-26.82-12.49-35.82A13.37,13.37,0,0,0,57,211.62C58.62,221.72,60.39,232,63.11,237.53Z"/><path class="cls-1" d="M64,237.08a43.12,43.12,0,0,0,3.72,5.76c1.39,1.83,2.86,3.65,4.37,5.36h0l-1.72.72a73.37,73.37,0,0,0-2.89-20.13,43.08,43.08,0,0,0-4-9.34,24.64,24.64,0,0,0-6.63-7.61h0l.41-.27c.88,4.37,1.74,8.73,2.72,13.05A58,58,0,0,0,64,237.08Zm-1.79.89a59.26,59.26,0,0,1-3.55-13.07c-.81-4.4-1.39-8.82-1.92-13.24v0a.27.27,0,0,1,.22-.29.38.38,0,0,1,.19,0h0A25.21,25.21,0,0,1,64.25,219a44.51,44.51,0,0,1,4.43,9.42,75,75,0,0,1,3.69,20.47,1,1,0,0,1-.94,1,1,1,0,0,1-.76-.3l0,0h0A55.8,55.8,0,0,1,66,244.11,40.39,40.39,0,0,1,62.21,238Z"/><path class="cls-1" d="M40.23,259.36a11.79,11.79,0,0,0,3.42,4,13,13,0,0,0,2.42,1.44,13.68,13.68,0,0,0,2.71.9h.06a.63.63,0,0,1,.49.74.62.62,0,0,1-.58.49,14.19,14.19,0,0,1-3.26-.19A15.52,15.52,0,0,1,36.64,262l0,0a2.24,2.24,0,1,1,3.28-3A2.32,2.32,0,0,1,40.23,259.36Z"/><path class="cls-1" d="M38.32,253.1c0,1.56,1.24,5.08,2.06,6.55l-1.62.48-1.24-1.71Z"/><path class="cls-1" d="M36.79,316.8a5.83,5.83,0,0,0,.74,3.62,6.88,6.88,0,0,0,3.29,2.42c2.9,1.21,6.35,1.6,9.75,2.48a.86.86,0,0,1-.33,1.69h0c-3.3-.43-6.76-.31-10.38-1.26a10.28,10.28,0,0,1-5.25-3,9.83,9.83,0,0,1-2.24-6,2.22,2.22,0,1,1,4.43-.25A1.22,1.22,0,0,1,36.79,316.8Z"/><path class="cls-1" d="M3.48,377.87l1.05-1.33s2.16-1,5.42-2.72c.82-.86,1.63-1.73,2.44-2.62,1.79-2,3.56-4.05,5.21-6.2a52,52,0,0,0,8.3-14.31l0-.05a2.37,2.37,0,0,0,.11-.46,43.37,43.37,0,0,1,1.61-6.56q1-3.39,2.23-6.8c1.57-4.54,3.16-9.1,4.63-13.71,2.88-9.23,5.58-18.68,6.06-28.6a40.78,40.78,0,0,0-.32-7.48c-.32-2.35-.61-4.71-.82-7.09-.42-4.75-.65-9.54-.82-14.33-.3-9.58-.33-19.19-.36-28.81,0-2.42,0-4.82-.15-7.26,0-1.16-.18-2.56-.24-3.58a10.32,10.32,0,0,1,.46-3.22,18.5,18.5,0,0,1,8.25-10.42,9.93,9.93,0,0,1,6.29-1.25,10.72,10.72,0,0,1,5.7,3.11A32.53,32.53,0,0,1,66,225.88a63,63,0,0,1,3.47,13.71c.34,2.34.56,4.71.67,7.07,0,1.18.08,2.37.07,3.55s0,2.48.11,3.71c.47,5.08,2.37,9.65,3.78,14.18,1.35,4.15,2.5,8.35,3.49,12.6.37-2.14.8-4.36,1.28-6.64q-1-3.44-2.19-6.82c-1.52-4.59-3.42-9-3.9-13.56-.23-2.22-.1-4.7-.3-7.15s-.43-4.86-.78-7.27A64.7,64.7,0,0,0,68,225.09a34.43,34.43,0,0,0-8-12.41,12.8,12.8,0,0,0-6.8-3.62,12,12,0,0,0-7.6,1.44,20.57,20.57,0,0,0-9.31,11.63,12.61,12.61,0,0,0-.56,3.9c.08,1.37.2,2.36.23,3.61.09,2.37.09,4.77.11,7.16,0,9.61-.19,19.24,0,28.88.1,4.82.27,9.65.6,14.48.15,2.42.38,4.84.64,7.26a38,38,0,0,1,.1,6.92c-.71,9.32-3.57,18.51-6.67,27.5-1.57,4.51-3.27,9-5,13.49l-2.55,6.81a48.36,48.36,0,0,0-2,6.91,47.4,47.4,0,0,1-8.08,12.24c-1.64,1.91-3.4,3.75-5.24,5.51s-3.75,3.51-5.63,5l0,0A1.45,1.45,0,0,0,2,372a3.44,3.44,0,0,0-.14,4.87A3.37,3.37,0,0,0,3.48,377.87Z"/><path class="cls-2" d="M124.41,231.38c1.33,7.63,6,16.72,6,16.73,3.11-11.6,6.4-33.46-2.39-47.89a17.2,17.2,0,0,0-1.77-2.44C124.59,210.61,123.07,223.76,124.41,231.38Z"/><path class="cls-1" d="M125.65,231.17a53.54,53.54,0,0,0,2.47,8.3c1,2.71,2.16,5.45,3.38,8.06h0l-2.34.25a93.11,93.11,0,0,0,3.66-25.43,54.18,54.18,0,0,0-1.52-12.76A31,31,0,0,0,126,198h0l.58-.17c-.48,5.6-1,11.2-1.34,16.79-.17,2.8-.27,5.59-.24,8.37A46.88,46.88,0,0,0,125.65,231.17Zm-2.49.43a49.25,49.25,0,0,1-.31-8.64c.11-2.85.36-5.67.66-8.48.59-5.62,1.45-11.19,2.38-16.74v0a.32.32,0,0,1,.37-.27.37.37,0,0,1,.2.12h0a31.69,31.69,0,0,1,5.92,11.72,55.64,55.64,0,0,1,2,13,95.1,95.1,0,0,1-2.82,26.13,1.25,1.25,0,0,1-1.51.93,1.27,1.27,0,0,1-.81-.63l0,0h0a72.65,72.65,0,0,1-3.67-8.28A50.58,50.58,0,0,1,123.16,231.6Z"/><path class="cls-2" d="M87.71,388.05l-1.11.4Z"/><path class="cls-2" d="M83.4,389.65a96.58,96.58,0,0,1,19.84-17.73c7.13-18.55,21.69-60,23.23-80-4.6,17.19-16.71,32.11-21.46,46.83s-9,30.53-20.48,35.32c-5.77,2.41-61.4,13-65.63,24,0,0,4.21.08,10.37.11l.25-.64c28-2,28,2.67,43.16-3.67,3-1.25,6.82-2.8,11.15-4.45Z"/><path class="cls-1" d="M88.89,249.71a14.91,14.91,0,0,0,2.72,6.1,16.45,16.45,0,0,0,2.42,2.6,16,16,0,0,0,3,2.06l.07,0a.79.79,0,0,1-.55,1.46,17.85,17.85,0,0,1-3.89-1.4,19.52,19.52,0,0,1-9-9l0-.05A2.83,2.83,0,0,1,88.65,249,3.05,3.05,0,0,1,88.89,249.71Z"/><path class="cls-1" d="M88.81,241.44c-.63,1.87-.32,6.6.15,8.68H86.83l-.89-2.52Z"/><path class="cls-1" d="M64.64,318.21a7.36,7.36,0,0,0-.39,4.65A8.8,8.8,0,0,0,67.38,327c3.08,2.49,7.13,4.2,10.93,6.48a1.08,1.08,0,0,1-1,1.92h0c-3.85-1.69-8.08-2.79-12.14-5.22a13,13,0,0,1-5.29-5.49,12.37,12.37,0,0,1-.59-8.06h0a2.81,2.81,0,1,1,5.46,1.29C64.71,318,64.68,318.11,64.64,318.21Z"/><path class="cls-1" d="M94.51,221.64c.82-2.93,1.67-5.86,2.4-8.85.18-.75.38-1.48.53-2.26l.46-2.17a12.81,12.81,0,0,1,1.7-3.74,23.45,23.45,0,0,1,13.71-9.7,12.6,12.6,0,0,1,8.08.73,13.37,13.37,0,0,1,5.8,5.8A41,41,0,0,1,132,218.28a78.62,78.62,0,0,1-.67,17.86c-.42,3-1,5.91-1.71,8.81-.35,1.46-.74,2.9-1.17,4.33s-.88,3-1.19,4.54c-1.24,6.33-.56,12.54-.47,18.54s.07,11.93-.3,17.89a477.74,477.74,0,0,1-15.41,53.54c-3.14,8.75-6.58,17.38-10.41,25.78-1,2.16-2,4.31-3,6.43a95.64,95.64,0,0,1,11.18-7.52c2.85-7.56,5.4-15.2,7.74-22.88q4.17-13.5,7.55-27.19c2.3-9.12,4.42-18.24,6.22-27.5v-.05l0-.24c.19-6.13.15-12.27-.12-18.38s-.94-12.15.1-17.83c.27-1.45.62-2.79,1.05-4.29s.79-3,1.13-4.49c.67-3,1.21-6,1.64-9.1a81.13,81.13,0,0,0,.57-18.5,43.52,43.52,0,0,0-5.29-17.9,16.21,16.21,0,0,0-6.95-6.81,15.24,15.24,0,0,0-9.74-1,26,26,0,0,0-15.43,10.8,15.5,15.5,0,0,0-2.06,4.52l-.5,2.28c-.14.72-.34,1.45-.52,2.17-.72,2.91-1.58,5.83-2.41,8.74-3.41,11.65-7.08,23.25-10.28,35-1.6,5.88-3.11,11.79-4.42,17.77-.68,3-1.26,6-1.8,9A47.88,47.88,0,0,1,73,291.13c-4.15,11.07-10.86,21.22-17.87,31-3.53,4.89-7.19,9.7-10.87,14.55-1.84,2.44-3.71,4.85-5.52,7.35a62.2,62.2,0,0,0-4.94,7.65c-3.75,4.64-8.83,8.54-14.15,12-2.68,1.74-5.47,3.34-8.32,4.82s-5.8,2.92-8.62,4.11l-.07,0-.27.13a4.36,4.36,0,1,0,4,7.76c3.17-1.61,6-3.28,9-5.08s5.76-3.64,8.54-5.65c5.52-4,10.89-8.5,15.16-14.4l0-.06a3.2,3.2,0,0,0,.29-.51,54.38,54.38,0,0,1,4.3-7.39c1.65-2.48,3.36-5,5.11-7.45,3.51-4.95,7-9.93,10.46-15s6.68-10.28,9.73-15.64a101.83,101.83,0,0,0,7.81-16.87A51.48,51.48,0,0,0,79,283.27c.46-3,1-5.93,1.54-8.89,1.2-5.91,2.62-11.8,4.12-17.66C87.74,245,91.12,233.33,94.51,221.64Z"/><path class="cls-2" d="M220,343.89l4-13.76c2.49-6.84,10.09-22.49,11.2-32.39,0,0,1.73-9.59-3.64-17.58C227.07,290.15,209.16,329.06,220,343.89Z"/><path class="cls-1" d="M219.84,343.08c.64-2.66,1.23-5.25,1.89-7.78a53.46,53.46,0,0,1,2.39-7.72c2.13-5.2,4.39-10.29,6.34-15.5s3.73-10.5,4.24-16A25,25,0,0,0,231,280.48l1-.09h0c-2,5.23-4,10.38-5.89,15.61s-3.62,10.48-5.15,15.77a89.08,89.08,0,0,0-3.09,16.14,36.94,36.94,0,0,0,.15,8.08,19.42,19.42,0,0,0,.89,3.87,14.58,14.58,0,0,0,.74,1.83c.13.3.3.58.45.87s.1.14,0,.18A.47.47,0,0,0,219.84,343.08Zm.29,1.62a3.13,3.13,0,0,1-.89-.52,3.27,3.27,0,0,1-.57-.7c-.2-.31-.41-.62-.59-.94a15.16,15.16,0,0,1-1-2,22.41,22.41,0,0,1-1.23-4.2,37.12,37.12,0,0,1-.48-8.6,78.78,78.78,0,0,1,3-16.7,144.68,144.68,0,0,1,5.5-15.93c2.16-5.17,4.52-10.25,7.12-15.2h0a.56.56,0,0,1,.75-.29.58.58,0,0,1,.25.21,26.11,26.11,0,0,1,4,16.37c-.5,5.7-2.29,11.11-4.2,16.36s-4.16,10.41-6.23,15.57l-.74,1.92c-.23.64-.41,1.39-.63,2.08l-1.29,4.24C222,339.21,221,342,220.13,344.7Z"/><path class="cls-2" d="M215.55,324.56c-1.1,9.47-7,23.49-14.17,26.3s-31.81,15.22-37.06,20.81c0,0,40.28-10.38,44.25-11.67s10.86-20.07,10.86-20.07S214.37,338.35,215.55,324.56Z"/><path class="cls-1" d="M143.8,356a7,7,0,0,0,1.76,2.78,23.09,23.09,0,0,0,3,2.75,51.34,51.34,0,0,0,7.26,4.62l0,0a1.17,1.17,0,0,1-.92,2.14,55.07,55.07,0,0,1-8.45-3.56,27.81,27.81,0,0,1-4.05-2.58,12,12,0,0,1-3.61-4.19l-.12-.25a2.7,2.7,0,1,1,4.85-2.37A2.66,2.66,0,0,1,143.8,356Z"/><path class="cls-1" d="M88,387.93l.89-.93c1.93-2.12,4.07-4,6.16-6A96.54,96.54,0,0,1,109,371a85.78,85.78,0,0,1,32-11.29,2.29,2.29,0,0,0,2-2.1v0h0a43.31,43.31,0,0,1,2.39-12.74,85,85,0,0,1,5.22-12.27c2.06-4,4.34-7.87,6.69-11.73s4.83-7.65,7-11.76a77.93,77.93,0,0,1,6.9-11.51,89.21,89.21,0,0,1,8.56-10.33c6.15-6.38,13.44-12,21.78-14.45a26.54,26.54,0,0,1,12.63-.63,25.42,25.42,0,0,1,11.39,5c6.36,5.15,8,14.21,6.08,22.17a79.26,79.26,0,0,1-4.17,12.33c-1.69,4.11-3.58,8.18-5.39,12.38-.9,2.08-1.88,4.28-2.66,6.65s-1.39,4.44-2,6.65c-1.21,4.25-2.36,8.48-3.48,12.74-.52,1-1.24,2.31-1.93,3.45s-1.59,2.5-2.45,3.72c-1.21,1.72-2.53,3.37-3.89,5,3.56-.27,7.27-.41,11.13-.4.87-1.25,1.72-2.52,2.52-3.84a48.53,48.53,0,0,0,2.53-4.59,2.71,2.71,0,0,0,.25-.69l0,0c1.07-4.37,2.19-8.77,3.34-13.11l1.78-6.42c.56-2,1.34-4,2.17-6.08,1.66-4.18,3.34-8.46,4.84-12.85a84.77,84.77,0,0,0,3.7-13.7,35.69,35.69,0,0,0,.46-7.43,30.67,30.67,0,0,0-1.32-7.4,23.67,23.67,0,0,0-8.65-12.24,32.47,32.47,0,0,0-20.83-5.36,36.14,36.14,0,0,0-7,1.47,45,45,0,0,0-12.46,6.52,71.67,71.67,0,0,0-10.38,9.2A95.59,95.59,0,0,0,161.9,307.8c-2.16,3.85-4.75,7.62-7.18,11.46s-4.84,7.75-7,11.78c-4.09,7.52-7.77,15.54-9,24.46a90.5,90.5,0,0,0-32,11.61A100.23,100.23,0,0,0,92.08,377.6c-2.2,2-4.44,4-6.46,6.24l-1.55,1.62-.4.43-.49.57c-.32.39-.64.8-.94,1.23a21.93,21.93,0,0,0-1.84,3.12C82.76,389.89,85.32,388.91,88,387.93Z"/><path class="cls-2" d="M219.33,381.27c5.11,5.17,8,4.54,16.5,4.27s12.43,5.9,16.27,2.56,2.64-9.89-1.28-12.24c-3.7-2.22-10.23-5.71-15.19-4.16S214.05,374.72,219.33,381.27Z"/><path class="cls-2" d="M267.07,405.43s9.27-17.37-2.37-30.14c2.2,10-.31,18.42-11,20.87s-31.49,5.09-46.17,14-42.11,7-52.54,11.38S113.33,450,99.25,451.28s-60.89,2-76,13S5.13,500,5.13,500h0c34-.64,61.29-10.53,65.76-12.48,0,0,26.65-3.37,34-6.74s18.93-14.86,25.63-20.12S170.1,443.07,179,441.14C196.79,437.53,263.9,411.64,267.07,405.43Z"/><path class="cls-1" d="M65.23,396.33c1.87,2.27,3.94,4.59,5.94,6.95s4,4.79,5.89,7.32a81.18,81.18,0,0,1,5.28,7.91,40.09,40.09,0,0,1,3.89,8.9,1.95,1.95,0,0,1-3.69,1.23l0,0c-2-5.35-5.72-10.14-9.63-14.62-2-2.24-4.07-4.41-6.21-6.56s-4.35-4.25-6.58-6.55A3.43,3.43,0,1,1,65,396.1l.18.2Z"/><path class="cls-1" d="M146.16,377.86a142.54,142.54,0,0,1,11.6,10.73,50.68,50.68,0,0,1,9.3,13,1.21,1.21,0,0,1-.57,1.6,1.2,1.2,0,0,1-1.54-.48h0a47.9,47.9,0,0,0-9.86-11.33,139.05,139.05,0,0,0-12.18-9.29A2.67,2.67,0,1,1,146,377.7l.19.15Z"/><path class="cls-1" d="M144.21,383c-3.75-2.48-8.93-4.23-12.72-4.19s6.16-1.37,6.16-1.37l5.39.86Z"/><path class="cls-1" d="M275.31,265a6.32,6.32,0,0,1-.39,1.45l-.62,1.85-1.16,3.74q-1.12,3.76-2.15,7.56-2.06,7.59-3.76,15.26c-1.11,5.12-2.1,10.26-2.88,15.41A98.59,98.59,0,0,0,263,325.73h0l-.2-.82c1.92,3.29,5.06,6.57,8.47,7s6.86-1.94,9.45-5a53.91,53.91,0,0,0,6.71-10.64c2-3.81,3.88-7.72,5.69-11.65,3.59-7.86,6.89-15.88,9.92-24s5.88-16.33,8.38-24.57h0l2.8,3.11Zm-1.16-1.43,39.19-9.24a2.38,2.38,0,0,1,2.87,1.77,2.36,2.36,0,0,1,0,1.21l0,.13h0c-2.67,8.4-5.64,16.6-8.81,24.78s-6.6,16.22-10.35,24.15c-1.89,4-3.83,7.9-5.93,11.76a57.93,57.93,0,0,1-7.37,11.3,21.87,21.87,0,0,1-5.44,4.62,11.53,11.53,0,0,1-7.49,1.52,12.93,12.93,0,0,1-6.65-3.43,21.86,21.86,0,0,1-4.39-5.62l0,0a1.51,1.51,0,0,1-.19-.79h0a102.32,102.32,0,0,1,1.78-15.93c.93-5.22,2.07-10.39,3.34-15.52s2.68-10.21,4.19-15.27c.75-2.53,1.55-5,2.37-7.55l1.28-3.76.68-1.87A17.09,17.09,0,0,1,274.15,263.6Z"/><path class="cls-1" d="M335.16,120.06a37.75,37.75,0,0,0,8.67-10.58S346.44,116.6,335.16,120.06Z"/><path class="cls-1" d="M274.08,249.92c2.31,7.36,8.57,16.08,16.87,3.23s13.75-26.59,18.11-32.91,9.37-14.78,14.17-21.55S346.1,165.4,349.05,158s21.73-27.87,21.73-27.87S300,263,285.21,270.24C274.44,271.64,268.28,254.11,274.08,249.92Z"/><path class="cls-1" d="M386.8,114.77c-9.23-.78-33.38-5.17-39.15-1.78-3.8,2.23-29.48,22.5-49.53,45,20.53-5.26,42.25-18.88,47.57-27.71s14.8-5.88,20.68-6.86a57.75,57.75,0,0,0,11.42-3.33l9.56-4.87Z"/><path class="cls-1" d="M377.73,170.88a6.87,6.87,0,0,1-.24-5.45c-3.7-1-7.42-2-11.17-2.85a2.59,2.59,0,0,0-2.78,1.14l0,.06a127.26,127.26,0,0,1-9.19,12.31c-3.31,4-6.73,8-10.18,11.92s-7,7.81-10.51,11.69l-10.72,11.6a2.14,2.14,0,0,0-.48.83v0a53,53,0,0,1-3.66,8.29c-1.42,2.76-3,5.48-4.56,8.19-3.2,5.41-6.56,10.75-10,16.06l-10.39,15.88a20.36,20.36,0,0,1-5.86,6.25,7.54,7.54,0,0,1-7.21.87,9.76,9.76,0,0,1-5-5.83,17.79,17.79,0,0,1-.78-4.22c-.14-1.54-.27-3.09-.34-4.66-.35-6.26-.47-12.58-.49-18.88s.09-12.62.35-18.91a172.65,172.65,0,0,1,1.61-18.72c.1-.78.26-1.5.42-2.23a10.36,10.36,0,0,1,.57-2.17l.79-2.11.93-2.11a73.54,73.54,0,0,1,4.45-8.17,139,139,0,0,1,11.06-15.18,300.44,300.44,0,0,1,26.1-27.32q6.93-6.45,14.15-12.59,3.62-3.06,7.31-6c1.23-1,2.47-2,3.73-2.89.63-.46,1.25-.92,1.88-1.36a6.42,6.42,0,0,1,1.83-.92,32.42,32.42,0,0,1,9.1-.64c3.13.11,6.27.38,9.4.69,6.29.62,12.52,1.57,18.89,2.16a.87.87,0,0,0,.95-.77.88.88,0,0,0-.78-1h0c-6.24-.64-12.52-1.65-18.83-2.33-3.16-.35-6.33-.65-9.53-.8a33.94,33.94,0,0,0-9.78.64,8.3,8.3,0,0,0-2.41,1.17c-.68.46-1.33.93-2,1.4-1.29,1-2.55,1.91-3.8,2.89q-3.77,2.94-7.42,6c-4.89,4-9.67,8.24-14.36,12.52a301,301,0,0,0-26.6,27.32,143.18,143.18,0,0,0-11.44,15.4,75.53,75.53,0,0,0-4.7,8.46l-1,2.22-.89,2.33a11.63,11.63,0,0,0-.67,2.41c-.18.81-.38,1.64-.48,2.43A176.55,176.55,0,0,0,271.14,215c-.33,6.35-.49,12.71-.54,19.06s0,12.71.31,19.09c.07,1.6.18,3.2.31,4.82.1.83.14,1.61.29,2.49a16.73,16.73,0,0,0,.64,2.6,13.59,13.59,0,0,0,7,8.18,10.86,10.86,0,0,0,5.68.86,13.32,13.32,0,0,0,5.23-1.91,24.38,24.38,0,0,0,7.15-7.39L307.8,247c3.49-5.3,6.93-10.65,10.22-16.11,1.64-2.74,3.26-5.5,4.76-8.35a59.73,59.73,0,0,0,3.86-8.48l10.51-11.15c3.58-3.85,7.15-7.73,10.67-11.65s7-7.9,10.42-11.95c3-3.62,5.94-7.22,8.65-11.25C370.5,169,374.13,169.88,377.73,170.88Z"/><path class="cls-1" d="M322.24,212.36a23.77,23.77,0,0,0,.21-8.11,39.23,39.23,0,0,0-2-8.33,34,34,0,0,0-9.45-14.3h0a.92.92,0,0,1,1.13-1.44,36.43,36.43,0,0,1,11.45,14.48,43.31,43.31,0,0,1,3,8.9,28.31,28.31,0,0,1,.51,9.78,2.45,2.45,0,1,1-4.85-.68,1.55,1.55,0,0,1,0-.21Z"/><path class="cls-1" d="M289.66,254.63a21.65,21.65,0,0,0,4-6.25,35.48,35.48,0,0,0,2.36-7.49,31,31,0,0,0-.63-15.69h0a.84.84,0,0,1,1.57-.59,33.28,33.28,0,0,1,2.11,16.77,38.83,38.83,0,0,1-1.88,8.39,25.66,25.66,0,0,1-4.23,7.91,2.25,2.25,0,1,1-3.48-2.84l.13-.14Z"/><path class="cls-1" d="M357.5,172.58a52.48,52.48,0,0,0,3-18.93,65.52,65.52,0,0,0-3.17-19.38.65.65,0,0,1,.41-.82.66.66,0,0,1,.81.36,67.6,67.6,0,0,1,5,19.66,56.29,56.29,0,0,1-1.42,20.65,2.45,2.45,0,0,1-4.72-1.31l.06-.21Z"/><path class="cls-1" d="M487,74.49a49.74,49.74,0,0,1,7.12,5.2,46.63,46.63,0,0,1,5.9,6.51c3.52,4.68,6,9.92,8.54,15,1.26,2.57,2.62,5,4,7.56a69.56,69.56,0,0,1,3.28,8,108.49,108.49,0,0,1,4.25,16.61.47.47,0,0,1-.38.54.47.47,0,0,1-.54-.36v0a106.5,106.5,0,0,0-4.71-16.26,67.26,67.26,0,0,0-3.45-7.69c-1.34-2.4-2.87-4.91-4.2-7.41-2.73-5-5.33-10-8.81-14.34a42.78,42.78,0,0,0-5.73-5.92,46.3,46.3,0,0,0-6.8-4.63l0,0A1.57,1.57,0,1,1,487,74.47Z"/><path class="cls-1" d="M438.13,47.72s-47.39,54.14-57.88,57.77-28.41,4.66-33,8.42-29.79,23.83-49.13,26.62c-7.12.32-12.11-.05-17.69-3,14.36,1.54,33.18-7.74,37.82-17.48s19.15-23.29,24.48-23.22,38,6.28,61.35-20.18"/><path class="cls-1" d="M583,155.17q-9.48-11.47-18.09-23.67a110.64,110.64,0,0,0-9-11.63,50.74,50.74,0,0,0-11.54-8.75C527.42,101,510.16,91.2,493,81.41s-34.51-19.48-51.81-29.12l-13-7.21c-4.35-2.34-8.65-5-13-6.8a26,26,0,0,0-13.64-2,54.46,54.46,0,0,0-13.72,4.09c-2.25,1-4.47,2-6.71,3s-4.59,2.05-6.91,3c-4.64,1.87-9.31,3.58-14,5.24-9.35,3.34-18.77,6.42-27.76,10.24-2.23,1-4.43,2-6.53,3.14A41.21,41.21,0,0,0,320,68.92a86.63,86.63,0,0,0-10.6,9.87c-1.63,1.81-3.22,3.66-4.73,5.62a57,57,0,0,1-4.94,5.87c-3.88,3.35-7.78,6.22-11.38,9.55a57.47,57.47,0,0,0-9.58,10.84c-2.56,4-4.24,8.57-4,13.16s2,9.24,5.68,12a16.87,16.87,0,0,0,2.86,1.81,22,22,0,0,0,3.26,1.12,26.19,26.19,0,0,0,7,.78,43.17,43.17,0,0,0,14-2.92,81.57,81.57,0,0,0,13-6.65,242.23,242.23,0,0,0,24.1-17h0l0,0a1.47,1.47,0,0,1,.62-.29l10.81-2.23c3.55-.77,7.08-1.6,10.56-2.55a91.14,91.14,0,0,0,10.18-3.34,35.26,35.26,0,0,0,4.62-2.23,9.8,9.8,0,0,0,3.24-2.78h0l.23-.3a2.18,2.18,0,0,1,1.59-.84,31.31,31.31,0,0,1,4.2.14q2,.17,3.93.42c2.6.35,5.18.78,7.74,1.31s5.1,1.17,7.62,2a40.82,40.82,0,0,1,7.35,3,1.15,1.15,0,0,1,.45,1.55,1.13,1.13,0,0,1-1.45.49h0a38.89,38.89,0,0,0-7.11-2.22c-2.44-.54-4.93-.94-7.43-1.25s-5-.5-7.53-.61c-1.26-.07-2.51-.09-3.75-.09a28.78,28.78,0,0,0-3.5.17l1.82-1.14h0a14.13,14.13,0,0,1-5.07,4.25,38.29,38.29,0,0,1-5.33,2.35,94.76,94.76,0,0,1-10.78,3.12c-3.61.84-7.24,1.55-10.86,2.2l-10.76,1.81.65-.32h0a245.24,245.24,0,0,1-24.65,16.95,91,91,0,0,1-13.48,6.81,45.83,45.83,0,0,1-15,3.08,29.11,29.11,0,0,1-7.74-.87,24.91,24.91,0,0,1-3.75-1.31,19.86,19.86,0,0,1-3.4-2.15,16.51,16.51,0,0,1-4.92-6.31,19.16,19.16,0,0,1-1.25-3.77l-.42-1.93c-.08-.66-.09-1.33-.13-2-.3-5.36,1.67-10.52,4.44-14.81a60,60,0,0,1,10-11.37c3.68-3.39,7.78-6.42,11.4-9.53a48.05,48.05,0,0,0,4.47-5.61c1.49-2,2.94-4,4.52-6A67.74,67.74,0,0,1,317.52,65.8,37.74,37.74,0,0,1,324,61.49c2.26-1.22,4.56-2.27,6.88-3.27,9.27-3.88,18.72-6.91,28.05-10.18,4.67-1.63,9.31-3.3,13.87-5.11q3.4-1.36,6.74-2.88c2.26-1,4.55-2.06,6.87-3a57.71,57.71,0,0,1,14.7-4.27,29.49,29.49,0,0,1,15.4,2.31,69.76,69.76,0,0,1,6.81,3.41l6.5,3.62,13,7.29Q468.66,64,494.44,78.78c17.17,9.91,34.39,19.7,51.3,30.13,4.22,2.6,8.52,5.49,11.94,9.3a114.86,114.86,0,0,1,9.05,12q8.41,12.21,17.72,23.75a1,1,0,1,1-1.49,1.22Z"/><path class="cls-1" d="M342.13,112.77c3.35-6.56,6.2-13.28,7.13-20.48a46.88,46.88,0,0,0-2.5-21.6.58.58,0,0,1,.35-.73.57.57,0,0,1,.71.31,49.24,49.24,0,0,1,4.45,22.28c-.34,7.77-2.83,15.27-5.69,22.25v0A2.45,2.45,0,0,1,342,113Z"/><path class="cls-1" d="M361.73,109.14c3.33-4.29,6.31-8.76,8-13.84a34.72,34.72,0,0,0,1.15-16,.42.42,0,0,1,.35-.48.44.44,0,0,1,.47.32,36.26,36.26,0,0,1,.17,16.74c-1.3,5.57-4.13,10.66-7.15,15.32h0a1.8,1.8,0,0,1-3-2Z"/><path class="cls-1" d="M384.82,99.32A133.18,133.18,0,0,0,396,82.9,71.43,71.43,0,0,0,400.29,74a32.4,32.4,0,0,0,2.34-9.46v0a.82.82,0,0,1,.86-.75.81.81,0,0,1,.75.8,34.21,34.21,0,0,1-1.65,10.22,73.09,73.09,0,0,1-3.73,9.58,137.45,137.45,0,0,1-10.08,17.81,2.45,2.45,0,0,1-4.09-2.7l.11-.16Z"/><path class="cls-1" d="M508,176s-15.49-5.9-35-30.09-.1-37.26-3.37-45.18c-2.25-5.48-2-16.7-6.74-18.85-12.43,21-36.32,62.25-59.57,102.68l-.7.21-1.46,3.54s10.29,15.13,7.68,28.56c0,0,51.64,23.17,76.32,13.35S508,176,508,176Z"/><path class="cls-1" d="M374.11,286.71l-2.46-.7c-29.18,21-43.81,22.14-43.81,22.14s-52.67,48.27-31.28,50a100.77,100.77,0,0,0,14.15.17c16.28-2.4,25.08-18.58,32.56-27.36s16.92-27.89,24.41-30.78c5.07-2,11.57-5.92,15.25-8.27Z"/><path class="cls-1" d="M583.4,407.87c-10.88-3.23-21.1-8.09-31.08-13.28s-19.64-11-29.11-17c-4.73-3-9.41-6.21-14-9.3l-14.05-9.2a131.26,131.26,0,0,1-13.85-10,41.48,41.48,0,0,1-6.11-6.43,35.27,35.27,0,0,1-4.42-7.85l2,1.55h0a60.33,60.33,0,0,1-10.65-2.71c-3.38-1.13-6.7-2.37-10-3.71s-6.53-2.76-9.74-4.32c-1.61-.79-3.2-1.61-4.79-2.52-.79-.46-1.58-.93-2.38-1.47a13.61,13.61,0,0,1-2.48-2h3.63a20,20,0,0,1-5.63,3.54,54.47,54.47,0,0,1-5.67,2.13c-3.78,1.25-7.57,2.26-11.35,3.26-7.55,2-15.16,3.73-22.48,6.1s-14.33,5.82-21.54,8.81-14.57,5.82-22.35,7.37l.19-.05c-4.63,1.74-9.3,3.44-14.08,4.83a113.3,113.3,0,0,1-14.6,3.28,95.9,95.9,0,0,1-14.95,1.11c-2.51,0-5-.11-7.51-.28a8.51,8.51,0,0,1-4.26-1.34,5.4,5.4,0,0,1-2.23-4.42c0-3.1,1.24-5.47,2.39-7.78a60.36,60.36,0,0,1,4-6.45c2.91-4.1,6.05-8,9.31-11.74,6.53-7.52,13.43-14.61,20.57-21.57h0l.08-.08a2.42,2.42,0,0,1,1.39-.56,20.63,20.63,0,0,0,2.7-.43c1-.2,1.93-.46,2.9-.72,1.93-.56,3.86-1.2,5.77-1.93a108.49,108.49,0,0,0,11.27-5c3.7-1.85,7.3-3.91,10.88-6l5.29-3.3,5.21-3.44,0,0a.93.93,0,0,1,1.07,1.51l-5,3.78-5.14,3.66c-3.49,2.35-7,4.67-10.68,6.79a114,114,0,0,1-11.3,5.88c-1.95.89-3.95,1.68-6,2.41-1,.35-2.07.69-3.14,1a24.92,24.92,0,0,1-3.45.74l1.47-.64h0c-7.3,6.49-14.36,13.37-21,20.55a139.92,139.92,0,0,0-9.4,11.17,58.41,58.41,0,0,0-3.93,6c-1.1,2-2.12,4.28-2.13,6.15-.46,3.58,6.41,2.87,10.87,3.22a94.39,94.39,0,0,0,14.55-.81c9.67-1.27,19-4.3,28.22-7.75l.19-.05c7.51-1.44,14.78-4.17,21.95-7.1s14.27-6.19,21.72-8.74,15-4.35,22.39-6.74c3.69-1.17,7.35-2.45,10.85-3.95a49.17,49.17,0,0,0,5-2.52,13.26,13.26,0,0,0,3.89-3.11h0l.13-.13a2.44,2.44,0,0,1,3.45.07l.05,0a9.27,9.27,0,0,0,1.6,1.26c.65.45,1.36.87,2.08,1.29,1.45.83,3,1.61,4.5,2.36,3.08,1.5,6.24,2.89,9.44,4.19s6.43,2.51,9.68,3.59a56.89,56.89,0,0,0,9.66,2.5h0l.18,0A2.33,2.33,0,0,1,475.3,333c3.47,9.92,13.05,16.3,22.12,22.63l13.86,9.53c4.6,3.25,9.14,6.44,13.79,9.54,9.28,6.2,18.78,12.09,28.56,17.45s19.82,10.32,30.38,13.67h0a1.06,1.06,0,0,1-.63,2Z"/><path class="cls-1" d="M432.24,317c1.27-2.59,1.49-6.13,1.26-9.51a37.74,37.74,0,0,0-2.09-10.14l0,0A1.06,1.06,0,0,1,432,296a1.08,1.08,0,0,1,1.31.51A40.46,40.46,0,0,1,437,307a32.3,32.3,0,0,1,.66,5.7,18.14,18.14,0,0,1-.84,6.08v0a2.45,2.45,0,0,1-4.66-1.54A2.68,2.68,0,0,1,432.24,317Z"/><path class="cls-1" d="M471.06,332.42a39.85,39.85,0,0,0,4.52-7.44,84.41,84.41,0,0,0,3.47-8.36A152.68,152.68,0,0,0,484.18,299v0a1,1,0,0,1,2,.38,155.14,155.14,0,0,1-3.83,18.29,88,88,0,0,1-3,9,43.34,43.34,0,0,1-4.43,8.71,2.45,2.45,0,1,1-4-2.77l.11-.15Z"/><path class="cls-2" d="M450.33,103.37l2.09-3.58Z"/><path class="cls-2" d="M444.64,113.14l2.38-4.09Z"/><path class="cls-2" d="M449.5,104.79l-2.27,3.9Z"/><path class="cls-2" d="M453,98.77c.62-1.06,1.23-2.09,1.82-3.11C454.24,96.68,453.63,97.71,453,98.77Z"/><path class="cls-2" d="M441.47,118.59l2.43-4.17Z"/><path class="cls-2" d="M403.47,184.37q3.57-6.23,7.17-12.46Q407.06,178.14,403.47,184.37Z"/><path class="cls-2" d="M495.26,28.07c-6.44-7.55-33.51-24.7-45.84-26.1S438.59,19.61,431,27.63s1.16-.46-6.46,14.37S301,246.13,290.56,261.37s-25.67,52.14-35.09,75.4c-.9,2.63-1.23,4.39-.88,5.81,1.2-2.5,10.07-1,18.34,4.24,8.9,5.62,20.35,13.69,16.91,15.63,1.69-.31,3.28-1.34,5-3.33,15.54-19.7,40.05-51.21,48.13-67.82,1.1-2.28,4.16-7.88,8.61-15.86-4.67-6.51-5.81-13.91-5.92-21.09-.15-9.92,6.41-26.84,37.17-34,6.59-11.52,13.57-23.7,20.61-35.94l-.13.22c-9.71,3.19-17.33.18-10.72-14.05s36.9-75,55.55-95.25c8.82-10.43,17.37-2,15.4,5.51-.47.8-1,1.63-1.47,2.49,4.54-7.7,7.71-13,9-14.89,9.11-14,7.84-1,11-11.6S501.69,35.62,495.26,28.07Z"/><path class="cls-2" d="M457.36,91.35l-2,3.43C456,93.61,456.7,92.46,457.36,91.35Z"/><path class="cls-2" d="M461.61,84.11c-1.17,2-2.43,4.13-3.76,6.41C459.18,88.24,460.44,86.1,461.61,84.11Z"/><path class="cls-2" d="M425.06,146.92q1.41-2.46,2.81-4.87Q426.48,144.46,425.06,146.92Z"/><path class="cls-2" d="M418.12,158.94l3-5.24Z"/><path class="cls-2" d="M421.84,152.5l2.6-4.51Z"/><path class="cls-2" d="M411,171.21l6.52-11.31Z"/><path class="cls-2" d="M435.2,129.4c.9-1.56,1.8-3.11,2.69-4.63C437,126.29,436.1,127.84,435.2,129.4Z"/><path class="cls-2" d="M438.54,123.64c.73-1.27,1.46-2.51,2.18-3.75C440,121.13,439.27,122.37,438.54,123.64Z"/><path class="cls-2" d="M428.77,140.5l2.19-3.78Z"/><path class="cls-2" d="M432.08,134.78l2.45-4.23Z"/><path class="cls-2" d="M464.66,9.19c12,7.35,15,12.16,17,15.64s-6.54,15.1-12.89,17.91l14,11.1s13.71-16.31,14-22.33S472.28,10.39,464.66,9.19Z"/><path class="cls-1" d="M455.32,34.88l-1.89.58,7.35,8.68c-9.63,12-43.91,62-57.8,92.51-11.15,24.46-40.1,77.54-56.68,108.54S328.89,279.05,321.58,294c-3.71,41.09-39,58.76-39,58.76l.31.81c5.34,4,9.12,7.65,6.89,8.86,1.7-.3,3.29-1.34,5.06-3.34,15.54-19.7,40-51.21,48.11-67.82,1.11-2.28,4.16-7.88,8.62-15.87-4.67-6.5-5.81-13.9-5.92-21.08-.15-9.92,6.41-26.84,37.16-34,6.55-11.45,13.49-23.55,20.49-35.72-9.72,3.19-17.33.18-10.72-14.05s36.9-75,55.55-95.25c8.82-10.43,17.37-2,15.4,5.51-3.56,6-8.15,13.84-13.44,22.92,10.88-18.66,18.77-32,20.93-35.32,9.11-14,7.83-1,11-11.59a17.89,17.89,0,0,1,.66-1.81C476.07,47.17,466,40.25,455.32,34.88Z"/><path class="cls-1" d="M449.69,104.47c-.62,1.06-1.25,2.15-1.9,3.25Z"/><path class="cls-1" d="M445.7,111.31l-.42.72Z"/><ellipse class="cls-2" cx="406.73" cy="160.05" rx="5.79" ry="4" transform="translate(128.54 497.17) rotate(-71.95)"/><ellipse class="cls-2" cx="422.43" cy="132.43" rx="5.79" ry="4" transform="translate(165.63 493.04) rotate(-71.95)"/><ellipse class="cls-2" cx="438.14" cy="104.82" rx="5.79" ry="4" transform="translate(202.71 488.92) rotate(-71.95)"/><path class="cls-1" d="M498.43,30.08a8.36,8.36,0,0,0-2.18-3.78,31.66,31.66,0,0,0-2.64-2.56c-1.8-1.6-3.66-3-5.55-4.45-3.79-2.79-7.71-5.35-11.72-7.76S468.21,6.87,464,4.86A53.92,53.92,0,0,0,450.34.16a8.51,8.51,0,0,0-2-.15,6.7,6.7,0,0,0-2.08.16,9.24,9.24,0,0,0-3.95,1.67,15.21,15.21,0,0,0-4.66,6.3c-2,4.49-3.05,9-4.82,13a20.06,20.06,0,0,1-3.33,5.32c-.8.85-1.59,1.68-2.41,2.63a9.2,9.2,0,0,0-.64.81l-.17.22-.21.38a2.91,2.91,0,0,0-.19.43,3,3,0,0,0-.13.8,2.67,2.67,0,0,0,.11.75c.09.28.08.21.12.33s0,.09.06.14a.11.11,0,0,0,0,.1l0,.23a11.4,11.4,0,0,1-.81,2.8c-.38,1-.87,2-1.34,3.06-.95,2-2.12,4-3.21,6-4.58,8-9.31,16-14,23.89q-28.44,47.66-57.38,95l-28.93,47.37c-9.69,15.75-19.32,31.59-29.25,47.14A181.8,181.8,0,0,0,277.6,283c-4,8.37-7.72,16.86-11.35,25.38s-7.12,17.08-10.58,25.69a24.55,24.55,0,0,0-2.07,6.87,5.27,5.27,0,0,0,1.11,3.86,9.48,9.48,0,0,0,1.41,1.36,8,8,0,0,1-1.53-2.18,1.57,1.57,0,0,1,.76-2.13,3.62,3.62,0,0,1,0-.81,20.88,20.88,0,0,1,1.88-6.37c3.49-8.54,7-17.09,10.72-25.57s7.42-16.93,11.45-25.23a180.37,180.37,0,0,1,13.48-24.07c10.08-15.58,19.77-31.32,29.56-47l29.21-47.21q29.12-47.28,57.94-94.73c4.78-7.93,9.55-15.85,14.22-23.89,1.14-2,2.35-4.06,3.36-6.21.51-1.08,1-2.14,1.46-3.29a14.38,14.38,0,0,0,1.07-3.86c0-.21,0-.4,0-.63s-.05-.51-.09-.76c0-.08-.05-.17-.08-.25s.21-.27.35-.43c.69-.8,1.51-1.65,2.29-2.48a23.31,23.31,0,0,0,4.06-6.34c2-4.44,3.09-9,4.89-13A11.52,11.52,0,0,1,444.59,5a6.81,6.81,0,0,1,5.19-1A50.9,50.9,0,0,1,462.3,8.38a135.59,135.59,0,0,1,12,6.48c3.92,2.35,7.75,4.86,11.42,7.55,1.82,1.36,3.62,2.75,5.28,4.22a29.73,29.73,0,0,1,2.34,2.27,4.44,4.44,0,0,1,1.3,2.11c.39,1.44-.26,3.36-1.3,5.19a45.47,45.47,0,0,1-3.8,5.45c-2.79,3.62-5.93,7.18-8.17,11.68-.28.56-.52,1.15-.76,1.75l-.59,1.75a20.2,20.2,0,0,1-1,2.61h0c-.2,0-.46,0-.68,0a4.48,4.48,0,0,0-1.44.23,8.9,8.9,0,0,0-3.58,2.55A39.47,39.47,0,0,0,469,68c-1.22,2-2.48,4-3.64,6-4.76,8-9.43,15.94-14.1,23.94q-28,48-55.57,96.13L380.4,220.9c1.58-.41,3.25-.79,5-1.15L399,195.94q27.66-48.12,55.6-96.08c4.67-8,9.34-16,14.09-23.89,2.4-3.89,4.64-8.08,7.49-11.15a5.71,5.71,0,0,1,1.94-1.53c.28,0,.11-.11.85,0a3.28,3.28,0,0,0,.92,0,2.68,2.68,0,0,0,1.21-.42,3.81,3.81,0,0,0,1.2-1.3,13,13,0,0,0,.85-1.89c.24-.61.4-1.17.59-1.74l.51-1.54c.2-.48.39-1,.63-1.44,1.88-3.82,4.89-7.31,7.74-11a48.62,48.62,0,0,0,4.13-5.93,16.17,16.17,0,0,0,1.55-3.61A8.57,8.57,0,0,0,498.43,30.08Zm-69.07,2.09h0S429.35,32.19,429.36,32.17Z"/><path class="cls-1" d="M341.15,290.87c-4.07,8.07-9.3,15.74-14.52,23.31s-10.77,15-16.35,22.34S299,351.28,293.35,358.35a8.9,8.9,0,0,1-3.07,2.3c.47,1.08.12,1.84-1.39,2.11-1.84.34-5.52-.7-9.81-2.48.76.46,1.52.91,2.3,1.36a30.49,30.49,0,0,0,3.29,1.62,11.05,11.05,0,0,0,3.92.9,7.53,7.53,0,0,0,4.15-1.09l.88-.56.77-.63a13.75,13.75,0,0,0,1.4-1.35c5.94-7.35,11.53-14.57,17.2-21.95s11.18-14.79,16.54-22.37c2.66-3.81,5.31-7.63,7.82-11.56a129,129,0,0,0,7.09-12.15c2.74-5.16,5.57-10.31,8.42-15.45a29.56,29.56,0,0,1-2.4-3.35C347.29,279.35,344.14,285,341.15,290.87Z"/><path class="cls-1" d="M253.63,344.35a3,3,0,0,1-.08-2.09,2.82,2.82,0,0,1,1.52-1.52,7.47,7.47,0,0,1,3.15-.52,22.92,22.92,0,0,1,5.66.9,37.3,37.3,0,0,1,10.21,4.59c3.1,1.91,6.06,4,9,6.2,1.47,1.11,2.91,2.24,4.28,3.5a17.65,17.65,0,0,1,3.83,4.43,3.08,3.08,0,0,1,.37,2.08,2.22,2.22,0,0,1-.71,1.19,3,3,0,0,1-.95.52,4.3,4.3,0,0,1-1.67.23h-.81l-.72-.13a27.8,27.8,0,0,1-5.38-1.62,91.27,91.27,0,0,1-9.89-4.68c-3.18-1.75-6.33-3.56-9.41-5.52l-2.28-1.53-2.21-1.66a24.61,24.61,0,0,1-2.08-1.9c-.33-.36-.67-.69-1-1.09Zm1.92-.74c.19.31.36.63.53,1s.53.64.78,1a21,21,0,0,0,1.81,1.85l2,1.72,2.14,1.6a69.21,69.21,0,0,0,9.23,5.51,78.38,78.38,0,0,0,9.86,4.22,25.57,25.57,0,0,0,5.05,1.22l.62.08.54,0a2.27,2.27,0,0,0,1-.16c.3-.13.25-.19.2-.1a2.92,2.92,0,0,0-.23-.5,16.16,16.16,0,0,0-3.47-3.51c-1.36-1.09-2.79-2.15-4.24-3.19-2.9-2.07-5.95-3.95-9-5.91a43.59,43.59,0,0,0-9.33-4.62,20.52,20.52,0,0,0-5-1.12,5.46,5.46,0,0,0-2.17.18.79.79,0,0,0-.42.27A.86.86,0,0,0,255.55,343.61Z"/><path class="cls-2" d="M266.29,349.72c-.44-1.26,2.6-.94,5.4.83s6.47,4.37,4.7,4.7S267.06,351.57,266.29,349.72Z"/><path class="cls-1" d="M266,349.82a.9.9,0,0,1,0-.61.86.86,0,0,1,.45-.45,2.39,2.39,0,0,1,.92-.15,6.55,6.55,0,0,1,1.67.27,11,11,0,0,1,3,1.35c.91.56,1.79,1.18,2.65,1.82a9.28,9.28,0,0,1,2.39,2.34.9.9,0,0,1,.1.62.68.68,0,0,1-.48.48,1.73,1.73,0,0,1-.95,0,8.05,8.05,0,0,1-1.58-.48,26.75,26.75,0,0,1-2.91-1.38c-.94-.51-1.86-1-2.77-1.62A7.32,7.32,0,0,1,266,349.82Zm.56-.21a7.29,7.29,0,0,0,2.15,2.09,20,20,0,0,0,2.71,1.62,22.5,22.5,0,0,0,2.91,1.24,7.42,7.42,0,0,0,1.48.36,1.23,1.23,0,0,0,.62,0c.12-.09.07,0,0-.18a10,10,0,0,0-2.26-2c-.85-.61-1.75-1.16-2.64-1.74a13,13,0,0,0-2.75-1.36,6.32,6.32,0,0,0-1.45-.33,1.89,1.89,0,0,0-.65.05C266.54,349.44,266.55,349.42,266.57,349.61Z"/><path class="cls-1" d="M482.76,56.58a1.59,1.59,0,0,1-1.2-.55C469.25,41.6,447.1,31.66,431.88,27.54a1.57,1.57,0,1,1,.82-3C448.35,28.75,471.17,39,484,54a1.56,1.56,0,0,1-.17,2.21A1.59,1.59,0,0,1,482.76,56.58Z"/><path class="cls-1" d="M282,275.94a91,91,0,0,1,15,4,113.75,113.75,0,0,1,14.32,6.16,80.66,80.66,0,0,1,13.2,8.43c1,.8,2,1.73,3,2.59s1.87,1.88,2.76,2.86a18.68,18.68,0,0,1,3.87,7.06.67.67,0,0,1-.5.8.65.65,0,0,1-.76-.38l0-.06c-1.92-4.47-5.91-7.82-9.95-10.74a107.78,107.78,0,0,0-13-7.8c-4.52-2.33-9.17-4.4-13.88-6.33s-9.53-3.61-14.41-5.09a.79.79,0,0,1-.54-1A.8.8,0,0,1,282,275.94Z"/><path class="cls-1" d="M261.34,340.27c4.88-2.51,8.88-6.93,12.31-11.57a97.86,97.86,0,0,0,8.91-15.1,136.27,136.27,0,0,0,6.63-16.34,69.71,69.71,0,0,0,3.73-17.13v0a.57.57,0,0,1,1.14,0,70.74,70.74,0,0,1-3.31,17.6,137.17,137.17,0,0,1-6.25,16.76,98.93,98.93,0,0,1-8.7,15.72c-3.45,4.91-7.42,9.73-13.07,12.85a1.57,1.57,0,0,1-1.52-2.75l0,0Z"/><path class="cls-1" d="M276.24,349a81.08,81.08,0,0,1,7.27-16.68,159.8,159.8,0,0,1,9.61-15.22,136.69,136.69,0,0,1,11.3-14,67.22,67.22,0,0,1,13.7-11.73.67.67,0,0,1,.72,1.14l0,0a66,66,0,0,0-13.07,11.77A135.2,135.2,0,0,0,295,318.41a160.29,160.29,0,0,0-9.09,15.21,78.83,78.83,0,0,0-6.59,16.17l0,.06a1.57,1.57,0,0,1-3-.78Z"/><path class="cls-1" d="M284.06,355.43a1.57,1.57,0,0,1-.75-2.95c14.73-8.06,34.74-40.94,37.71-58a1.57,1.57,0,1,1,3.09.54c-3.11,17.9-23.5,51.59-39.3,60.22A1.56,1.56,0,0,1,284.06,355.43Z"/><path class="cls-1" d="M583.32,366.51c-14.74-9-28.5-19.5-42-30.19s-26.54-22-39.37-33.58l.15.13a20.89,20.89,0,0,0-4.94-2.45,56.56,56.56,0,0,0-5.59-1.7,71.94,71.94,0,0,0-11.7-1.83,66.41,66.41,0,0,0-11.8.1c-2,.17-3.77.53-5.87.86s-4.17.58-6.25.8a284.4,284.4,0,0,1-49.19-.81,185.8,185.8,0,0,1-24.37-3.79c-8-1.88-16.16-4.41-23.18-9.25a33.15,33.15,0,0,1-9-8.95,32.09,32.09,0,0,1-4.77-11.73,45.5,45.5,0,0,1-.77-6.23,38.92,38.92,0,0,1,0-6.29,28.75,28.75,0,0,1,4.2-11.88,36.16,36.16,0,0,1,8.43-9.26A52.58,52.58,0,0,1,368,224.13a92.41,92.41,0,0,1,23.72-6.61c16.26-2.49,32.73-1.91,49-.87,8.14.54,16.28,1.36,24.37,2.46s16.12,2.7,24.11,4.08,16,2.31,24,1.63A127.87,127.87,0,0,0,537,220.26a.63.63,0,0,1,.37,1.21c-7.8,2.4-15.75,4.57-24,5.28a79.56,79.56,0,0,1-12.35.16c-4.12-.27-8.19-.83-12.22-1.45-16.09-2.71-32.06-5.32-48.29-6.38s-32.48-1.71-48.48.59c-8,1.2-15.91,3-23.2,6.35a50.4,50.4,0,0,0-10.26,6.09,34,34,0,0,0-7.9,8.73,25.13,25.13,0,0,0-3.74,11,37.7,37.7,0,0,0,.1,5.9,42.43,42.43,0,0,0,.85,5.86,28.46,28.46,0,0,0,4.6,10.64,30.31,30.31,0,0,0,8.51,7.83c6.62,4.2,14.4,6.37,22.22,7.93,3.94.76,7.92,1.35,11.92,1.86s8,1,12,1.31c8.05.73,16.13,1,24.21,1.31s16.18.19,24.15-.4c2-.19,4-.36,5.87-.69s4.14-.71,6.21-.86a71.54,71.54,0,0,1,12.59,0,77.85,77.85,0,0,1,12.38,2.07,51.9,51.9,0,0,1,6.05,2,24.88,24.88,0,0,1,5.88,3.14l.14.12q18.78,17.58,38.58,34.16c6.58,5.52,13.21,11,20,16.22s13.71,10.33,20.84,15.1a.73.73,0,0,1-.77,1.23Z"/><path class="cls-1" d="M505.76,300.83a22.75,22.75,0,0,0,6.92,4.71,52.63,52.63,0,0,0,8.4,3A83.38,83.38,0,0,0,539,311.26a.64.64,0,0,1,.62.66.66.66,0,0,1-.62.63,85.43,85.43,0,0,1-18.52-1.35,55,55,0,0,1-9.12-2.47,26.24,26.24,0,0,1-8.57-5,2.1,2.1,0,0,1,2.82-3.11l.12.12Z"/><path class="cls-1" d="M464.18,235.7a43.62,43.62,0,0,1,3.57,11.87,67.15,67.15,0,0,1-.56,24.64,45.79,45.79,0,0,1-4,11.74,1.2,1.2,0,0,1-2.25-.75v0c.66-3.93,1.2-7.8,1.6-11.7s.68-7.8.78-11.71.11-7.82,0-11.74-.48-7.81-1-11.78v0a1,1,0,0,1,1.84-.53Z"/><path class="cls-1" d="M495.57,222a62.25,62.25,0,0,0,5.76-14.27,126.67,126.67,0,0,0,3.24-15.49,209.15,209.15,0,0,0,2.13-31.87,1.41,1.41,0,0,1,2.82-.09,212.66,212.66,0,0,1-.73,32.5,130.33,130.33,0,0,1-2.65,16.19,67.48,67.48,0,0,1-5.61,15.82,2.85,2.85,0,0,1-5-2.64l.06-.1Z"/><path class="cls-1" d="M497.23,218.71c-1.5,3.11-8.12,4.36-13.28,3.51l1.5.8s10.73,3.86,11.78,0S497.23,218.71,497.23,218.71Z"/><path class="cls-1" d="M512.29,223.86a32.21,32.21,0,0,0,4.16-8.09,65.74,65.74,0,0,0,2.54-9,.66.66,0,0,1,1.3.2,67.63,67.63,0,0,1-1.71,9.5,34.9,34.9,0,0,1-3.69,9.19A1.57,1.57,0,0,1,512.2,224,1,1,0,0,1,512.29,223.86Z"/><path class="cls-1" d="M438.74,282.26a47.61,47.61,0,0,0,2.91-11,33.09,33.09,0,0,0,.37-5.7,12.69,12.69,0,0,0-1.12-5.31l0-.07a.84.84,0,0,1,1.44-.87,14.48,14.48,0,0,1,2.2,6,36.79,36.79,0,0,1,.44,6.18,51.42,51.42,0,0,1-1.56,12.32,2.45,2.45,0,0,1-4.75-1.22A3,3,0,0,1,438.74,282.26Z"/><path class="cls-1" d="M485.18,277c-19.55-11.22-29.69,5.13-41.89,4.63s-29.64-9.53-41.7-7.31c-19.9,2.39-40.89-1.24-54.19-7.48,2.77,9.13,9.69,17.54,26.16,22.8,23.86,7.62,73.79,8.83,89.23,5.82s34.49,1.2,40.51,5.81c0,0,7.66,8.27,19.74,19.23C512.71,311.23,504.6,288.15,485.18,277Z"/><circle class="cls-1" cx="198.66" cy="134.84" r="10.65"/></g></g></svg>