<svg xmlns="http://www.w3.org/2000/svg" viewBox="0 0 583.47 500"><defs><style>.cls-1{fill:#5c5856;}.cls-2{fill:#f1574b;}</style></defs><title>Asset 3</title><g id="Layer_2" data-name="Layer 2"><g id="Layer_1-2" data-name="Layer 1"><path class="cls-1" d="M113.13,475c42.74,26.85,34.38-7.78,34.38-44.3V275.49c0-12.62-51.7-107.54-63.84-129.63C68.16,123.63,35.55,105.7,1.15,88.21V403.66Z"/><path class="cls-1" d="M439.9,79.28a91.92,91.92,0,0,1,12.72-9.17,153.81,153.81,0,0,1,13.58-7.38q7-3.36,14.24-6a92.48,92.48,0,0,1,15.1-4.23,4.61,4.61,0,0,1,3.85,8,90.74,90.74,0,0,1-12.72,9.17A153.81,153.81,0,0,1,473.09,77c-4.64,2.23-9.38,4.25-14.24,6a90.52,90.52,0,0,1-15.1,4.23,4.61,4.61,0,0,1-3.85-8Z"/><path class="cls-1" d="M460.24,40.13a90.74,90.74,0,0,1,9.17,12.72,152.41,152.41,0,0,1,7.38,13.58q3.34,7,6,14.24a92.48,92.48,0,0,1,4.23,15.1,4.61,4.61,0,0,1-8,3.85,91.92,91.92,0,0,1-9.17-12.72,153.81,153.81,0,0,1-7.38-13.58q-3.35-7-6-14.24A92.48,92.48,0,0,1,452.24,44a4.61,4.61,0,0,1,8-3.85Z"/><path class="cls-1" d="M379.4,461.92a61.32,61.32,0,0,1,10.23,2.17c3.31,1,6.55,2.11,9.74,3.39s6.3,2.72,9.35,4.32a61.33,61.33,0,0,1,8.87,5.56,3.08,3.08,0,0,1-2.22,5.49,61.65,61.65,0,0,1-10.24-2.17,102.65,102.65,0,0,1-9.73-3.39c-3.18-1.29-6.3-2.72-9.36-4.32a61.79,61.79,0,0,1-8.86-5.56,3.08,3.08,0,0,1,2.22-5.49Z"/><path class="cls-1" d="M407.84,454.4a61.31,61.31,0,0,1-2.16,10.23c-1,3.31-2.11,6.56-3.39,9.74s-2.72,6.3-4.33,9.36a61.72,61.72,0,0,1-5.55,8.86,3.08,3.08,0,0,1-5.49-2.22,62.33,62.33,0,0,1,2.16-10.23q1.46-5,3.4-9.74c1.29-3.18,2.72-6.3,4.32-9.36a61.79,61.79,0,0,1,5.56-8.86,3.07,3.07,0,0,1,5.48,2.22Z"/><circle class="cls-1" cx="556.99" cy="197.61" r="11.78"/><path class="cls-1" d="M1,33.92c13.11-7,26.61-13.15,40.22-19C48.08,12,54.91,9.13,61.81,6.41c3.44-1.38,6.9-2.71,10.38-4l2.61-1L76.11,1A6.1,6.1,0,0,1,77.69.6a25.36,25.36,0,0,1,5.74.24.55.55,0,0,1,.47.62.55.55,0,0,1-.52.47h0A32.87,32.87,0,0,0,78,2.47a4.57,4.57,0,0,0-1.08.39l-1.24.64L73.21,4.77c-3.32,1.66-6.64,3.31-10,4.9C56.54,12.88,49.79,16,43,19,29.48,25,15.82,30.73,1.77,35.58A.91.91,0,0,1,1,33.92Z"/><path class="cls-1" d="M101.57,124.82a49.73,49.73,0,0,0-12.66-.45,13.06,13.06,0,0,0-5.28,1.72,5.42,5.42,0,0,0-2.48,3.9,14,14,0,0,0,.49,5.7,38.43,38.43,0,0,0,2.19,5.94c1.81,3.86,4.07,7.88,6.14,11.81q12.65,23.67,24.92,47.55c8.26,15.88,16.35,31.84,24,48,1.91,4.06,3.76,8.14,5.51,12.29.88,2.07,1.73,4.16,2.5,6.3a36,36,0,0,1,1.92,6.76,27.15,27.15,0,0,1,.12,3.52l0,3.35,0,6.71.09,13.41.43,53.66q.23,26.84.69,53.66c.16,8.92.23,17.94.46,26.78s.94,17.75,1.05,26.93c0,2.31,0,4.63-.23,7a40.27,40.27,0,0,1-1.14,7.3,18.58,18.58,0,0,1-3.72,7.58,12.62,12.62,0,0,1-3.85,3,10.83,10.83,0,0,1-2.27.9,11.38,11.38,0,0,1-2.29.47,21,21,0,0,1-4.33.05,33.32,33.32,0,0,1-3.88-.72l-1.85-.49-1.75-.6c-1.2-.38-2.29-.85-3.41-1.3a110.71,110.71,0,0,1-12.52-6.42,4.88,4.88,0,0,1,4.91-8.44l.21.13.07.05a102.34,102.34,0,0,0,11,6.45c.93.43,1.87.91,2.8,1.24l1.4.55,1.37.42a22,22,0,0,0,2.68.64,12.83,12.83,0,0,0,2.36.09,4.83,4.83,0,0,0,3.31-1.44,10.79,10.79,0,0,0,2.24-4.29,51.35,51.35,0,0,0,1.65-12.3c.34-8.71-.14-17.68-.13-26.7s.25-17.91.36-26.88q.44-26.83.69-53.66l.44-53.66L146,288l.05-6.71,0-3.35a24.79,24.79,0,0,0-.07-3.18,34.65,34.65,0,0,0-1.73-6.13c-.74-2.06-1.57-4.12-2.42-6.17-1.71-4.1-3.53-8.17-5.41-12.22-7.51-16.19-15.77-32-24.06-47.88s-17-31.45-25.7-47.07l-3.28-5.85c-1.09-1.93-2.26-3.89-3.28-6a41.17,41.17,0,0,1-2.66-6.55,18.26,18.26,0,0,1-.84-7.54,10.24,10.24,0,0,1,4.28-7.21,17.62,17.62,0,0,1,7.25-2.75,56,56,0,0,1,14.09-.22,2.86,2.86,0,0,1-.48,5.69l-.14,0Z"/><path class="cls-1" d="M84.58,151.69c-18.94-33-79.46-49.1-83.43-63.48L91,120S70.26,121.49,84.58,151.69Z"/><path class="cls-1" d="M389.88,182.54l0,13.1-.34,70.64-5.2-3.1L384,195.64l-.05-13a59.6,59.6,0,0,0-5.53-24c-.44-.94-.91-1.86-1.38-2.79L375.52,153l-3-5.77-24.35-46.13L336,78l-6.1-11.52c-1-1.95-2-3.8-3.06-5.53a53.44,53.44,0,0,0-3.52-5.08A64.75,64.75,0,0,0,306.53,41a6.23,6.23,0,0,0-4-7.23l-23.05-8.11a2.88,2.88,0,0,1,3.63-1.75,138.71,138.71,0,0,1,24.33,10.75A71.65,71.65,0,0,1,328,52.16a65.62,65.62,0,0,1,3.9,5.63c1.22,2,2.25,4,3.25,5.87l6.1,11.54L353.4,98.27l24.34,46.14,3.05,5.76,1.5,2.88c.53,1,1.06,2,1.53,3.07a65.36,65.36,0,0,1,4.4,12.89A64.36,64.36,0,0,1,389.88,182.54Z"/><path class="cls-1" d="M384.73,346.69l0,5.46.06,13a46,46,0,0,1-1.37,12.39A45.33,45.33,0,0,1,371.2,399a45.92,45.92,0,0,1-10,7.44l-2.79,1.44-2.95,1.38-5.9,2.77L326,423.11q-23.6,11.11-47.31,22c-15.8,7.29-31.66,14.46-47.52,21.63l-23.79,10.77c-4,1.82-7.93,3.54-11.88,5.45a83.21,83.21,0,0,1-11.58,4.63,78.1,78.1,0,0,1-24.31,4,42.7,42.7,0,0,1-11.7-1.7,30.35,30.35,0,0,1-5.31-2.13c-.87-.44-1.58-.86-2.53-1.42l-2.78-1.7L115.11,471,93,457.18c-29.43-18.44-58.85-37-88.69-54.86a2.85,2.85,0,0,0-3.1,4.78Q44,437,88.13,464.93l22.15,13.84,22.38,13.49,2.8,1.67c.92.54,2.1,1.22,3.17,1.73a39.58,39.58,0,0,0,6.84,2.57A51,51,0,0,0,159.54,500a82.68,82.68,0,0,0,26.81-5.11,90.92,90.92,0,0,0,12.45-5.46c3.81-2,7.77-3.85,11.64-5.79l23.38-11.5c15.58-7.68,31.17-15.36,46.81-22.92s31.29-15.13,47-22.49l23.6-11.11,5.9-2.78,2.95-1.39,3-1.55A49.62,49.62,0,0,0,374,401.8a50.65,50.65,0,0,0,13.43-23.22A49.71,49.71,0,0,0,389,365.14l.07-13v-2.72Z"/><path class="cls-1" d="M4.59,83.44l50.8,19.49,25.37,9.8a95.89,95.89,0,0,0,25.44,6.35,94.23,94.23,0,0,0,51-9l49.28-23L255.8,64l24.66-11.48,12.36-5.69L299,44l1.55-.71.77-.36a6.16,6.16,0,0,0,.63-.31,3,3,0,0,0,1.31-1.17,3.51,3.51,0,0,0,0-3.48A3.36,3.36,0,0,0,302,36.72l-.44-.2c-.14-.07-.5-.19-.74-.28l-1.6-.57-12.79-4.62-25.53-9.4L235.42,12.2,210,2.59l.29.06c-2.95-.36-6.09-.47-9.15-.58h0a1,1,0,0,1,0-2L205.78,0c1.56,0,3.11,0,4.74.12l.21,0,.08,0,25.87,8.43,25.81,8.6,25.79,8.64,12.87,4.41,1.61.55c.29.11.48.16.86.31l1.11.49a9,9,0,0,1,3.58,3.4,9.36,9.36,0,0,1,0,9.47,8.94,8.94,0,0,1-3.59,3.42c-.4.23-.63.33-.88.45l-.77.37-1.53.74-6.13,2.94L283.17,58.3,258.61,70,209.42,93.24l-49.18,23.25a101.09,101.09,0,0,1-54.78,9.38A102.66,102.66,0,0,1,78.31,119L53,109,2.51,88.75a2.85,2.85,0,0,1,2.08-5.31Z"/><path class="cls-1" d="M147.09,270.61l7.46-3.63,7.31-3.44,14.63-6.85q14.69-6.75,29.41-13.35c19.64-8.82,39.39-17.4,59.16-25.91s39.63-16.84,59.56-25,39.92-16.15,60.06-23.82a2.24,2.24,0,0,1,1.76,4.12q-29.16,13.92-58.67,27.05c-19.64,8.81-39.39,17.38-59.16,25.9s-39.62,16.85-59.54,25c-9.95,4.11-19.94,8.13-29.93,12.14l-15,5.91-7.51,3-7.35,2.82-.38.15a2.23,2.23,0,0,1-1.78-4.08Z"/><path class="cls-1" d="M152,189.24l34.7,66.61a1.86,1.86,0,0,1,.2.85l-1.31,69.77a.59.59,0,0,1-1.18,0l-1.31-69.77.2.85L150.83,189.8a.63.63,0,0,1,.3-.84A.62.62,0,0,1,152,189.24Z"/><path class="cls-1" d="M330.32,113.55,365,180.16a1.86,1.86,0,0,1,.2.85l-1.31,69.77a.59.59,0,0,1-1.18,0L361.42,181l.2.85-32.43-67.75a.63.63,0,0,1,1.13-.56Z"/><path class="cls-2" d="M263.32,271.86l77.58-34.5,18.78,11.17V227a3.26,3.26,0,0,0-4.58-3l-95.74,42.45a7.83,7.83,0,0,0-4.64,7.15v25a3.25,3.25,0,0,0,4.52,3l31.09-13.14Z"/><path class="cls-1" d="M582.9,381.05h0a1.12,1.12,0,0,0-.53-.65l0,0-13.63-7.52,11.37,6.76a3.48,3.48,0,0,1,1.13,4.9,26.7,26.7,0,0,1,.17,2.83,40.21,40.21,0,0,1-.37,5.81,22.75,22.75,0,0,1-.57,2.8,5.14,5.14,0,0,1-1,2.14l-5.24,2.44-21.7,10.08-21.7,10.08-10.85,5-5.43,2.52a22,22,0,0,1-5.42,2A16.84,16.84,0,0,1,498,428.75c-3.35-1.94-6.78-4.13-10.16-6.18l-20.37-12.5L426.73,385c-27.14-16.7-54.14-33.55-81.15-50.33-26.86-16.9-53.72-33.8-79.64-51.05.19-3.21.3-6.33.34-9.47l.53-.15-3.49-2.15,18.23-8.1-19,5.21a3,3,0,0,0-2.21,2.89c0,4.9.14,9.86.38,14.69,28.41,16.23,55.86,32.81,83.33,49.4s54.64,33.33,81.81,50.11l40.79,25.16L487,423.83c3.43,2.09,6.72,4.22,10.26,6.28a18.43,18.43,0,0,0,12.14,1.72,23.92,23.92,0,0,0,5.77-2.11l5.44-2.5,10.87-5,21.74-10,21.74-10,2.72-1.25,1.36-.62.68-.31a6.93,6.93,0,0,0,.84-.45,6.37,6.37,0,0,0,1.73-3.08,25.68,25.68,0,0,0,.68-3.05,41.73,41.73,0,0,0,.5-6.11A23.81,23.81,0,0,0,582.9,381.05Z"/><path class="cls-2" d="M583.05,382.36l-1.47-.79a3.44,3.44,0,0,1-1.83,4.19l-66.63,30.8a17.64,17.64,0,0,1-16.65-1L263.32,271.86v13.23l233.15,143.7a17.64,17.64,0,0,0,16.65,1L579.75,399C582.29,397.82,583.87,386.44,583.05,382.36Z"/><polygon class="cls-1" points="385.35 263.65 373.32 339.73 404.11 358.62 415.7 281.82 385.35 263.65"/><path class="cls-1" d="M439.29,296l-4.49,29.27A4.74,4.74,0,0,0,437,330l26.45,16.22a1.27,1.27,0,0,0,1.93-.91l4.27-31.16Z"/><path class="cls-2" d="M324.8,283.77c-7.61.51-11.79-4.65-14-9.07s1-5.65,7-9.33,4.05-12.81,12.89-10.34,19.65,4.69,19.65,11.07-7.12,8.6-6.87,13S324.8,283.77,324.8,283.77Z"/><path class="cls-2" d="M438.78,380l81.87-35.73,61.12,37.14s4.28,2.71-7.56,6.9-59.7,28.49-69.26,29.84S438.78,380,438.78,380Z"/><path class="cls-1" d="M265.28,272l70.05,41.86c23,13.92,46.11,27.7,68.85,41.71l34.17,21.06L472.42,398l17.07,10.72L498,414a15.56,15.56,0,0,0,8.59,2.14,15.11,15.11,0,0,0,4.41-.84c1.34-.47,3-1.28,4.5-1.95l9.27-4.18,18.5-8.41,18.5-8.43,9.24-4.22,4.63-2.11,2.31-1.06,1.16-.52a2.27,2.27,0,0,0,.61-.42,2,2,0,0,0,.16-2.64,2.47,2.47,0,0,0-.56-.5l-1.1-.65-2.18-1.3-8.73-5.2-17.46-10.4L480,321.7l-70-41.42-70.09-41.21,0,0,1.8.11c-12.67,5.64-25.27,11.16-38,16.58Zm-3.92-.26,39.14-18.24c13.16-6.08,26.41-12.06,39.6-17.93h0a2,2,0,0,1,1.8.11h0L411.6,277.6l69.79,41.71,69.91,41.52,17.48,10.38,8.74,5.19,2.18,1.3,1.09.65a5.26,5.26,0,0,1,1.35,1.15,5,5,0,0,1-.33,6.62,5.18,5.18,0,0,1-1.47,1l-1.15.54-2.3,1.08-4.6,2.15-9.2,4.31-18.41,8.62-18.4,8.65-9.19,4.35c-1.57.71-3,1.46-4.79,2.16a19.53,19.53,0,0,1-16.42-1.34l-8.82-5.31-17.55-10.61-35.14-21.33-35.05-21.6c-23.4-14.43-46.46-29.09-69.58-43.62Z"/><path class="cls-1" d="M438,378.24c6.66-3.35,13.4-6.52,20.16-9.64s13.58-6.1,20.37-9.16,13.65-5.92,20.55-8.74l10.35-4.2c3.48-1.33,6.93-2.72,10.44-4a1.93,1.93,0,0,1,1.54,3.53c-3.32,1.71-6.69,3.29-10,4.94l-10.11,4.74c-6.76,3.14-13.56,6.16-20.39,9.12s-13.66,5.91-20.56,8.71-13.79,5.62-20.78,8.22a1.93,1.93,0,0,1-1.54-3.53Z"/><polygon class="cls-2" points="254.72 435.22 200.19 459.62 200.19 441.41 254.72 417.01 254.72 435.22"/><path class="cls-2" d="M316.59,94.82l-43.12,19.29a4.21,4.21,0,0,1-5.29-1.61l-7.49-11.88a7.67,7.67,0,0,1,3.36-11.08l43.12-19.3a4.22,4.22,0,0,1,5.3,1.61L320,83.73A7.68,7.68,0,0,1,316.59,94.82Z"/></g></g></svg>