<svg width="45" height="45" viewBox="0 0 45 45" fill="none" xmlns="http://www.w3.org/2000/svg">
<circle cx="22.5" cy="22.5" r="22.5" fill="white"/>
<path d="M26.75 14H18.25C15.9028 14 14 15.9028 14 18.25V26.75C14 29.0972 15.9028 31 18.25 31H26.75C29.0972 31 31 29.0972 31 26.75V18.25C31 15.9028 29.0972 14 26.75 14Z" stroke="#3D4146" stroke-opacity="0.8" stroke-width="1.5" stroke-linecap="round" stroke-linejoin="round"/>
<path d="M25.9001 21.9643C26.005 22.6717 25.8841 23.3942 25.5548 24.0289C25.2254 24.6637 24.7042 25.1785 24.0655 25.5C23.4267 25.8215 22.7027 25.9334 21.9967 25.8198C21.2906 25.7062 20.6384 25.3728 20.1327 24.8672C19.627 24.3615 19.2936 23.7092 19.18 23.0031C19.0664 22.2971 19.1783 21.5732 19.4998 20.9344C19.8214 20.2956 20.3361 19.7744 20.9709 19.4451C21.6057 19.1157 22.3282 18.9949 23.0356 19.0998C23.7572 19.2068 24.4252 19.543 24.941 20.0588C25.4568 20.5746 25.7931 21.2427 25.9001 21.9643Z" stroke="#3D4146" stroke-opacity="0.8" stroke-width="1.5" stroke-linecap="round" stroke-linejoin="round"/>
<path d="M27.175 17.8247H27.183" stroke="#3D4146" stroke-opacity="0.8" stroke-width="1.5" stroke-linecap="round" stroke-linejoin="round"/>
</svg>
