<svg width="80" height="80" viewBox="0 0 80 80" fill="none" xmlns="http://www.w3.org/2000/svg">
<rect opacity="0.1" width="80" height="80" rx="40" fill="#F1574B"/>
<path d="M54.7998 24H41.5999C40.3849 24 39.3999 24.9851 39.3999 26.2V34.9999C39.3999 36.2149 40.3849 37.1999 41.5999 37.1999H45.846L45.021 40.4999H39.3999V38.2999C39.398 36.7818 38.168 35.5518 36.6499 35.5499H31.1499C29.6318 35.5518 28.4018 36.7818 28.4 38.2999V40.4999H24.55C24.2463 40.4999 24 40.7461 24 41.0499V56.4498C24 56.7535 24.2463 56.9998 24.55 56.9998H26.75C27.0537 56.9998 27.3 56.7535 27.3 56.4498V43.7999H28.4V46.5498C28.4018 48.068 29.6318 49.2979 31.1499 49.2998H33.3499V52.5998H30.6C29.5308 52.5944 28.6129 53.3582 28.4236 54.4104C28.2345 55.4626 28.8291 56.4984 29.833 56.8658C30.8368 57.2331 31.9596 56.8255 32.4941 55.8998H37.5058C38.0413 56.8209 39.1606 57.2248 40.161 56.8577C41.1611 56.4906 41.7535 55.4583 41.566 54.4096C41.3786 53.3606 40.4652 52.5976 39.3999 52.5998H36.6499V49.2998H41.3249C42.3881 49.2998 43.2499 48.438 43.2499 47.3748C43.2499 46.3116 42.3881 45.4498 41.3249 45.4498H39.3999V43.7999H53.6998V56.4498C53.6998 56.7535 53.946 56.9998 54.2498 56.9998H56.4498C56.7535 56.9998 56.9998 56.7535 56.9998 56.4498V41.0499C56.9998 40.7461 56.7535 40.4999 56.4498 40.4999H51.3787L50.5537 37.1999H54.7998C56.0147 37.1999 56.9998 36.2149 56.9998 34.9999V26.2C56.9998 24.9851 56.0147 24 54.7998 24ZM26.2 55.8998H25.1V43.7999H26.2V55.8998ZM28.4 42.6999H25.1V41.5999H28.4V42.6999ZM30.6 55.8998C29.9925 55.8998 29.5 55.4072 29.5 54.7998C29.5 54.1923 29.9925 53.6998 30.6 53.6998C31.2074 53.6998 31.6999 54.1923 31.6999 54.7998C31.6999 55.4072 31.2074 55.8998 30.6 55.8998ZM39.3999 53.6998C40.0074 53.6998 40.4999 54.1923 40.4999 54.7998C40.4999 55.4072 40.0074 55.8998 39.3999 55.8998C38.7924 55.8998 38.2999 55.4072 38.2999 54.7998C38.2999 54.1923 38.7924 53.6998 39.3999 53.6998ZM37.5058 53.6998C37.3079 54.0328 37.2021 54.4125 37.1999 54.7998H32.7999C32.7978 54.4125 32.692 54.0328 32.4941 53.6998H33.8999C34.2037 53.6998 34.4499 53.4535 34.4499 53.1498V49.2998H35.5499V53.1498C35.5499 53.4535 35.7962 53.6998 36.0999 53.6998H37.5058ZM41.3249 46.5498C41.7806 46.5498 42.1499 46.9191 42.1499 47.3748C42.1499 47.8306 41.7806 48.1998 41.3249 48.1998H31.1499C30.2387 48.1998 29.5 47.461 29.5 46.5498V38.2999C29.5 37.3887 30.2387 36.6499 31.1499 36.6499H36.6499C37.5611 36.6499 38.2999 37.3887 38.2999 38.2999V45.9998C38.2999 46.3036 38.5462 46.5498 38.8499 46.5498H41.3249ZM55.8998 55.8998H54.7998V43.7999H55.8998V55.8998ZM50.9498 41.5999H55.8998V42.6999H39.3999V41.5999H50.9498ZM46.1543 40.4999L46.9793 37.1999H49.4204L50.2454 40.4999H46.1543ZM55.8998 34.9999C55.8998 35.6074 55.4072 36.0999 54.7998 36.0999H41.5999C40.9924 36.0999 40.4999 35.6074 40.4999 34.9999V34.4499H55.8998V34.9999ZM55.8998 33.3499H40.4999V26.2C40.4999 25.5925 40.9924 25.1 41.5999 25.1H54.7998C55.4072 25.1 55.8998 25.5925 55.8998 26.2V33.3499Z" fill="#F1574B"/>
<path d="M52.0498 48.1998H45.4498C45.297 48.1996 45.1506 48.2627 45.0464 48.3744C44.942 48.4861 44.8891 48.6365 44.8998 48.7888L45.4498 56.4887C45.4702 56.7771 45.7106 57.0006 45.9998 56.9998H51.4998C51.789 57.0006 52.0293 56.7771 52.0498 56.4887L52.5998 48.7888C52.6105 48.6365 52.5576 48.4861 52.4531 48.3744C52.3489 48.2627 52.2026 48.1996 52.0498 48.1998ZM50.9876 55.8998H46.5119L46.0406 49.2998H51.4589L50.9876 55.8998Z" fill="#F1574B"/>
<path d="M45.061 31.3113L49.461 26.9114L50.239 27.6891L45.8388 32.0891L45.061 31.3113Z" fill="#F1574B"/>
<path d="M44.5112 28.5611L46.7115 26.3611L47.4892 27.1388L45.2892 29.3391L44.5112 28.5611Z" fill="#F1574B"/>
<path d="M48.3608 31.3111L50.5608 29.1111L51.3386 29.8888L49.1386 32.0888L48.3608 31.3111Z" fill="#F1574B"/>
</svg>
