<svg width="80" height="80" viewBox="0 0 80 80" fill="none" xmlns="http://www.w3.org/2000/svg">
<rect opacity="0.1" width="80" height="80" rx="40" fill="#F1574B"/>
<path d="M55.292 51.8742L46.9434 43.5251C50.803 37.7776 49.2726 29.9896 43.5251 26.13C37.7776 22.2704 29.9896 23.8009 26.13 29.5484C22.2704 35.2959 23.8009 43.0839 29.5484 46.9435C33.775 49.7818 39.2985 49.7818 43.5251 46.9435L51.8737 55.2926C52.8176 56.2365 54.3481 56.2365 55.292 55.2926C56.236 54.3487 56.236 52.8182 55.292 51.8742ZM36.5478 48.0061C30.2225 47.9991 25.0965 42.8731 25.0895 36.5478C25.0895 30.2195 30.2195 25.0894 36.5478 25.0894C42.8761 25.0894 48.0061 30.2195 48.0061 36.5478C48.0061 42.876 42.8761 48.0061 36.5478 48.0061ZM54.539 54.5385C54.2855 54.7922 53.9415 54.9346 53.5829 54.9345C53.2243 54.9355 52.8803 54.7932 52.6273 54.539L44.4962 46.4073L46.4073 44.4961L54.5385 52.6278C55.0662 53.1553 55.0665 54.0107 54.539 54.5385Z" fill="#F1574B"/>
<path d="M36.8285 26.1591L36.8003 27.2249C39.5584 27.2964 42.1425 28.5882 43.8549 30.7515L44.6895 30.0885C42.7811 27.6784 39.9018 26.2391 36.8285 26.1591Z" fill="#F1574B"/>
<path d="M45.4672 31.2103L44.5532 31.7587C44.7518 32.0887 44.9298 32.4306 45.0862 32.7825L46.0583 32.3519C45.8848 31.9596 45.6875 31.5784 45.4672 31.2103Z" fill="#F1574B"/>
</svg>
