<svg width="80" height="80" viewBox="0 0 80 80" fill="none" xmlns="http://www.w3.org/2000/svg">
<rect opacity="0.1" width="80" height="80" rx="40" fill="#F1574B"/>
<path d="M56.9988 29.4862C56.965 26.6005 55.4882 25.0112 52.8405 25.0112C51.8158 25.0112 50.8283 25.2497 50.1828 25.4487C50.247 24.2692 50.248 23.5411 50.248 23.505L50.2481 23H29.7524V23.5049C29.7524 23.5222 29.7541 24.2617 29.8192 25.4493C29.1737 25.2502 28.1853 25.0112 27.1595 25.0112C24.5119 25.0112 23.0351 26.6004 23.0012 29.4862C22.9679 32.325 23.6153 34.8521 24.9255 36.9972C26.2118 39.1033 27.8559 40.3723 29.0086 41.066C30.8549 42.1771 32.7001 42.4103 33.9231 42.4103C34.2245 42.4103 34.515 42.3961 34.7867 42.368C34.8047 42.3662 34.8213 42.3641 34.8389 42.3621C35.4302 42.9989 36.0676 43.509 36.7488 43.888C37.2509 44.1674 37.6001 44.6546 37.7198 45.2146C37.0428 45.4253 36.5498 46.0578 36.5498 46.8033C36.5498 47.5654 37.0653 48.2091 37.7657 48.405V50.524H35.0336V52.7354H32.3375V56.9965H47.6628V52.7354H44.9668V50.524H42.2347V48.405C42.9351 48.209 43.4506 47.5654 43.4506 46.8033C43.4506 46.0578 42.9577 45.4253 42.2807 45.2146C42.4003 44.6546 42.7495 44.1675 43.2517 43.888C43.9311 43.51 44.573 42.9971 45.1628 42.3624C45.3718 42.3856 45.6851 42.4102 46.0769 42.4102C46.0771 42.4102 46.077 42.4102 46.0772 42.4102C47.3 42.4102 49.1452 42.1769 50.9913 41.0659C52.144 40.3722 53.7882 39.1032 55.0744 36.9971C56.3848 34.8521 57.0322 32.325 56.9988 29.4862ZM49.23 24.0098C49.2255 24.1944 49.2183 24.4266 49.2073 24.6983H30.7953C30.7838 24.4267 30.7762 24.1942 30.7713 24.0098H49.23ZM49.9167 28.6458C50.6009 28.4181 51.4875 28.1885 52.2818 28.1885C52.9478 28.1885 53.4273 28.3511 53.7071 28.672C54.0286 29.0408 54.1323 29.6604 54.015 30.5137C53.5267 34.0682 51.9855 36.8428 49.6751 38.3262C48.8703 38.843 48.0036 39.0565 47.2772 39.1323C48.8137 35.9029 49.5573 31.8511 49.9167 28.6458ZM30.6032 32.1629C31.0999 34.8268 31.7856 37.1143 32.6414 38.9619C32.6679 39.0193 32.6949 39.0758 32.7217 39.1323C31.9956 39.0563 31.1294 38.8429 30.325 38.3264C28.0146 36.8428 26.4733 34.0683 25.9851 30.5139C25.8678 29.6605 25.9714 29.0408 26.293 28.6722C26.5728 28.3513 27.0524 28.1887 27.7183 28.1887C28.5133 28.1887 29.4007 28.4186 30.0851 28.6465C30.2074 29.7396 30.3745 30.9362 30.6032 32.1629ZM33.9231 41.4005C32.8282 41.4005 31.177 41.1923 29.5294 40.2008C27.8443 39.1868 23.9333 36.1139 24.011 29.4981C24.0385 27.1584 25.0684 26.021 27.1595 26.021C28.2779 26.021 29.3824 26.3582 29.8873 26.536C29.9125 26.8747 29.9407 27.2145 29.9719 27.5528C29.2856 27.3512 28.477 27.1787 27.7183 27.1787C26.7476 27.1787 26.012 27.4578 25.5319 28.0083C25.01 28.6068 24.8259 29.496 24.9846 30.6511C25.2564 32.6301 25.8246 34.3792 26.6734 35.8499C27.4836 37.2538 28.5286 38.3729 29.7793 39.1759C31.0009 39.9604 32.3222 40.1582 33.2647 40.1771C33.2679 40.1827 33.2711 40.188 33.2743 40.1935C33.326 40.284 33.3782 40.373 33.4309 40.4609C33.4473 40.4883 33.4639 40.5155 33.4804 40.5427C33.5307 40.6253 33.5813 40.7071 33.6325 40.7872C33.6518 40.8174 33.6713 40.8468 33.6907 40.8767C33.7256 40.9303 33.7606 40.9834 33.796 41.0359C33.8301 41.0867 33.8644 41.137 33.8988 41.1867C33.9326 41.2354 33.9665 41.2838 34.0006 41.3316C34.0166 41.354 34.0324 41.3773 34.0484 41.3995C34.0077 41.4002 33.966 41.4005 33.9231 41.4005ZM46.6531 53.7453V55.9867H33.3475V53.7453H35.0337H44.9668H46.6531ZM42.2348 51.5339H43.957V52.7355H36.0435V51.5339H37.7658H42.2348ZM38.7756 50.5241V48.4667H41.225V50.5241H38.7756ZM42.4409 46.8033C42.4409 47.1636 42.1477 47.4568 41.7874 47.4568H38.2132C37.8528 47.4568 37.5597 47.1636 37.5597 46.8033C37.5597 46.4429 37.8528 46.1497 38.2132 46.1497H41.7874C42.1477 46.1497 42.4409 46.4429 42.4409 46.8033ZM44.9666 41.031C44.961 41.0382 44.9555 41.0454 44.9499 41.0527C44.9002 41.117 44.8501 41.1796 44.7998 41.2415C44.7875 41.2565 44.7753 41.2719 44.7629 41.2869C44.7076 41.3541 44.6518 41.4198 44.5957 41.484C44.593 41.487 44.5905 41.4902 44.5878 41.4933C44.0247 42.1356 43.4101 42.6444 42.7608 43.0056C41.9605 43.4508 41.4164 44.2415 41.2667 45.1398H38.7339C38.5841 44.2414 38.04 43.4508 37.2397 43.0056C36.6131 42.657 36.0472 42.1911 35.5359 41.6343L35.4124 41.4933C34.9104 40.9208 34.4372 40.2271 34.006 39.4318L33.8739 39.188C31.7026 34.9926 31.0459 28.929 30.8479 25.7081H49.1564C49.148 25.8482 49.1387 25.9929 49.1285 26.1432C49.128 26.1502 49.1275 26.1574 49.127 26.1643C49.1159 26.3272 49.1039 26.4904 49.0912 26.6539C49.0909 26.6587 49.0905 26.6634 49.0902 26.6683C49.0498 27.1863 49.002 27.7061 48.9475 28.2199L48.9145 28.5305C48.5476 31.8195 47.7727 36.0095 46.1386 39.1657L45.9943 39.4317C45.6732 40.0238 45.3289 40.5594 44.9666 41.031ZM50.4708 40.2008C48.823 41.1924 47.1722 41.4005 46.0773 41.4005C46.0773 41.4005 46.0771 41.4005 46.0771 41.4005C46.0341 41.4005 45.9923 41.4002 45.9516 41.3995C45.9523 41.3986 45.9529 41.3976 45.9536 41.3967C46.0192 41.3062 46.0837 41.2144 46.1473 41.1214C46.155 41.11 46.1627 41.0984 46.1704 41.0871C46.2242 41.0079 46.2771 40.9277 46.3294 40.8467C46.3429 40.8259 46.3564 40.805 46.3697 40.7841C46.4276 40.6932 46.4849 40.6017 46.5411 40.5086C46.5499 40.4941 46.5585 40.4791 46.5673 40.4644C46.6133 40.3875 46.6588 40.3099 46.7037 40.2316C46.7142 40.2132 46.725 40.1957 46.7355 40.1772C47.6781 40.1583 48.9993 39.9605 50.2209 39.176C51.4716 38.3729 52.5167 37.2538 53.3269 35.85C54.1756 34.3794 54.7437 32.6302 55.0157 30.6513C55.1743 29.4961 54.9902 28.6069 54.4684 28.0084C53.9883 27.4579 53.2527 27.1787 52.2819 27.1787C51.5234 27.1787 50.7146 27.3511 50.0284 27.5528C50.0602 27.2078 50.0875 26.8769 50.1108 26.5624C50.1115 26.5537 50.1122 26.5448 50.1129 26.5361C50.6179 26.3582 51.7224 26.0212 52.8407 26.0212C54.9318 26.0212 55.9617 27.1585 55.9893 29.4981C56.0667 36.1139 52.1558 39.1867 50.4708 40.2008Z" fill="#F1574B"/>
<path d="M35.773 39.3499L34.9297 39.9055C35.2176 40.3426 35.5271 40.7398 35.8495 41.0859L36.5884 40.3975C36.3044 40.0927 36.0301 39.7401 35.773 39.3499Z" fill="#F1574B"/>
<path d="M33.6056 33.7509L32.6211 33.9754C33.1053 36.0981 33.7518 37.8801 34.5424 39.2717L35.4204 38.7729C34.6786 37.467 34.068 35.7774 33.6056 33.7509Z" fill="#F1574B"/>
<path d="M52.4621 45.1453L52.4613 44.1355L51.6089 44.136L51.6083 43.2836L50.5984 43.2842L50.599 44.1368L49.7466 44.1374L49.7472 45.1472L50.5997 45.1466L50.6003 45.999L51.6101 45.9983L51.6095 45.1459L52.4621 45.1453Z" fill="#F1574B"/>
<path d="M30.4895 50.3892L30.4885 49.3793L29.7732 49.3801L29.7724 48.6647L28.7626 48.6657L28.7633 49.3811L28.0479 49.3818L28.049 50.3916L28.7643 50.3909L28.765 51.1064L29.7749 51.1053L29.7741 50.3899L30.4895 50.3892Z" fill="#F1574B"/>
<path d="M27.1958 42.1339H26.2432V43.1438H27.1958V42.1339Z" fill="#F1574B"/>
<path d="M33.3183 45.1217H32.3657V46.1315H33.3183V45.1217Z" fill="#F1574B"/>
<path d="M48.6723 48.1599H47.7197V49.1697H48.6723V48.1599Z" fill="#F1574B"/>
</svg>
