<svg width="80" height="80" viewBox="0 0 80 80" fill="none" xmlns="http://www.w3.org/2000/svg">
<rect opacity="0.1" width="80" height="80" rx="40" fill="#F1574B"/>
<path d="M51.3173 49.1129L44.579 47.2406C44.5271 47.2263 44.4737 47.2189 44.4203 47.2189H43.1184V45.4196C45.3044 44.3784 46.9471 42.3752 47.4958 39.9606H48.2859C49.4822 39.9606 50.4557 38.9874 50.4557 37.7911V36.6864C50.4557 36.0516 50.1817 35.4797 49.7456 35.0827V32.5052C49.7456 32.1783 49.4807 31.9135 49.1539 31.9135H36.8055C36.4787 31.9135 36.2138 32.1783 36.2138 32.5052C36.2138 32.8317 36.4787 33.0969 36.8055 33.0969H46.511V38.1854C46.511 41.9485 43.4495 45.0101 39.6864 45.0101C35.9236 45.0101 32.8621 41.9485 32.8621 38.1854V33.0969H34.0455C34.3724 33.0969 34.6373 32.8317 34.6373 32.5052C34.6373 32.1783 34.3724 31.9135 34.0455 31.9135H30.2189C29.8924 31.9135 29.6272 32.1783 29.6272 32.5052V35.0827C29.1914 35.4797 28.9174 36.0516 28.9174 36.6864V37.7911C28.9174 38.9874 29.8906 39.9606 31.0869 39.9606H31.8773C32.4257 42.3752 34.0684 44.3784 36.2544 45.4196V47.2189H34.9528C34.8991 47.2189 34.8457 47.2263 34.7941 47.2406L28.0558 49.1129C25.0792 49.939 23 52.674 23 55.7642V55.9073C23 56.2341 23.2649 56.499 23.5917 56.499C23.9186 56.499 24.1835 56.2341 24.1835 55.9073V55.7642C24.1835 53.2037 25.9059 50.9375 28.3726 50.253L33.806 48.7436C34.0052 50.0095 34.6058 51.1758 35.5412 52.084C36.6594 53.1696 38.1312 53.7674 39.6864 53.7674C41.2416 53.7674 42.7137 53.1696 43.8316 52.084C44.767 51.1755 45.3676 50.0095 45.5668 48.7436L51.0005 50.253C53.4669 50.9375 55.1893 53.2037 55.1893 55.7642V55.9073C55.1893 56.2341 55.4542 56.499 55.7811 56.499C56.1079 56.499 56.3728 56.2341 56.3728 55.9073V55.7642C56.3728 52.674 54.2936 49.9387 51.3173 49.1129ZM49.2723 37.7908C49.2723 38.3347 48.8298 38.7772 48.2859 38.7772H47.6725C47.6869 38.5818 47.6945 38.3844 47.6945 38.1854V35.7001H48.2859C48.8298 35.7001 49.2723 36.1426 49.2723 36.6864V37.7908ZM48.5621 34.5349C48.4715 34.5233 48.3796 34.5166 48.2859 34.5166H47.6942V33.0966H48.5621V34.5349ZM30.8107 33.0966H31.6786V34.5169H31.0869C30.9932 34.5169 30.9013 34.5233 30.8107 34.5349V33.0966ZM31.0869 38.7772C30.543 38.7772 30.1008 38.3347 30.1008 37.7908V36.6864C30.1008 36.1426 30.543 35.7004 31.0869 35.7004H31.6786V38.1854C31.6786 38.3844 31.6862 38.5818 31.7006 38.7772H31.0869ZM39.6864 46.1932C40.4667 46.1932 41.2214 46.0806 41.9349 45.8716V47.8107C41.9349 49.0506 40.9263 50.0592 39.6864 50.0592C38.4468 50.0592 37.4379 49.0506 37.4379 47.8107V45.8716C38.1517 46.0806 38.9061 46.1932 39.6864 46.1932ZM44.4191 48.4247C44.1197 50.791 42.1226 52.5839 39.6864 52.5839C37.2505 52.5839 35.2531 50.791 34.954 48.4247L35.0337 48.4024H36.3066C36.588 50.0137 37.996 51.2427 39.6864 51.2427C41.3771 51.2427 42.7849 50.0137 43.0662 48.4024H44.3394L44.4191 48.4247Z" fill="#F1574B"/>
<path d="M55.7811 58.0869C55.4542 58.0869 55.1893 58.3517 55.1893 58.6786V58.8165H50.0612V56.4893C50.0612 56.1624 49.7963 55.8975 49.4694 55.8975C49.1429 55.8975 48.8777 56.1624 48.8777 56.4893V58.8165H30.4951V56.4893C30.4951 56.1624 30.2302 55.8975 29.9034 55.8975C29.5765 55.8975 29.3116 56.1624 29.3116 56.4893V58.8165H24.1835V58.6786C24.1835 58.3517 23.9186 58.0869 23.5917 58.0869C23.2649 58.0869 23 58.3517 23 58.6786V59.4083C23 59.7351 23.2649 60 23.5917 60H55.7811C56.1079 60 56.3728 59.7351 56.3728 59.4083V58.6786C56.3728 58.3517 56.1079 58.0869 55.7811 58.0869Z" fill="#F1574B"/>
<path d="M36.3727 30.6509C37.6239 30.6509 38.775 30.2161 39.6851 29.491C40.6253 30.2423 41.7841 30.6509 43.0002 30.6509C45.9366 30.6509 48.3255 28.262 48.3255 25.3253C48.3255 22.3889 45.9366 20 42.9999 20C41.7487 20 40.5975 20.4349 39.6875 21.1603C38.7473 20.4089 37.5894 20 36.3727 20C33.4363 20 31.0474 22.3889 31.0474 25.3253C31.0474 28.262 33.4363 30.6509 36.3727 30.6509ZM36.3727 21.1835C37.2726 21.1835 38.1311 21.4719 38.8425 22.0032C38.494 22.4384 38.2117 22.9291 38.0124 23.4601C37.5745 23.0746 37.0007 22.8403 36.3727 22.8403C35.0024 22.8403 33.8876 23.9551 33.8876 25.3253C33.8876 26.6959 35.0024 27.8107 36.3727 27.8107C37.7432 27.8107 38.858 26.6959 38.858 25.3253C38.858 23.0417 40.7162 21.1835 43.0002 21.1835C45.2838 21.1835 47.142 23.0417 47.142 25.3253C47.142 27.6093 45.2838 29.4675 43.0002 29.4675C42.1008 29.4675 41.2418 29.1791 40.5304 28.6478C40.8789 28.2123 41.1612 27.7219 41.3605 27.1906C41.7984 27.5763 42.3721 27.8107 43.0002 27.8107C44.3704 27.8107 45.4852 26.6959 45.4852 25.3253C45.4852 23.9551 44.3704 22.8403 43.0002 22.8403C41.6296 22.8403 40.5148 23.9551 40.5148 25.3253C40.5148 27.6093 38.6566 29.4675 36.3727 29.4675C34.0887 29.4675 32.2308 27.6093 32.2308 25.3253C32.2308 23.0417 34.0887 21.1835 36.3727 21.1835ZM37.6746 25.3253C37.6746 26.0434 37.0905 26.6272 36.3727 26.6272C35.6549 26.6272 35.0711 26.0434 35.0711 25.3253C35.0711 24.6075 35.6549 24.0237 36.3727 24.0237C37.0905 24.0237 37.6746 24.6075 37.6746 25.3253ZM41.6983 25.3253C41.6983 24.6075 42.2821 24.0237 42.9999 24.0237C43.7177 24.0237 44.3018 24.6075 44.3018 25.3253C44.3018 26.0434 43.7177 26.6272 42.9999 26.6272C42.2821 26.6272 41.6983 26.0434 41.6983 25.3253Z" fill="#F1574B"/>
</svg>
