<svg width="22" height="18" viewBox="0 0 22 18" fill="none" xmlns="http://www.w3.org/2000/svg">
<path opacity="0.8" d="M15.5833 15.5833C15.5833 15.2066 15.4688 14.8555 15.2735 14.564C15.9867 14.3128 16.5 13.6318 16.5 12.8333C16.5 12.4566 16.3854 12.1055 16.1902 11.814C16.9033 11.5628 17.4167 10.8817 17.4167 10.0833C17.4167 9.7497 17.3268 9.4362 17.1701 9.1667L20.1667 9.1667C21.1777 9.1667 22 8.34445 22 7.33335C22 6.32225 21.1777 5.5 20.1667 5.5L9.4499 5.5L10.7103 2.9801C10.9001 2.6006 11 2.17525 11 1.75085C11 0.784695 10.2144 -5.15165e-07 9.24365 -5.57598e-07C8.77525 -5.78072e-07 8.33615 0.182402 8.00525 0.513347L2.0781 6.4405C0.737905 7.77975 3.3967e-06 9.56269 3.31384e-06 11.4583C3.17023e-06 14.7437 2.673 17.4167 5.95835 17.4167L13.75 17.4167C14.7611 17.4167 15.5833 16.5944 15.5833 15.5833ZM5.95835 16.5C3.1781 16.5 0.9167 14.2377 0.9167 11.4574C0.9167 9.8065 1.5593 8.2555 2.7271 7.0895L8.65425 1.16144C8.811 1.00379 9.0209 0.916695 9.24915 0.916695C9.70931 0.916695 10.0833 1.2907 10.0833 1.75085C10.0833 2.0341 10.0164 2.31645 9.8899 2.57035L8.29856 5.75395C8.22796 5.89604 8.23531 6.0656 8.31871 6.19944C8.40211 6.33419 8.54971 6.4167 8.70831 6.4167L20.1667 6.4167C20.6717 6.4167 21.0833 6.82735 21.0833 7.33335C21.0833 7.83935 20.6717 8.25 20.1667 8.25L11.4583 8.25C11.2053 8.25 11 8.45535 11 8.70835C11 8.96135 11.2053 9.1667 11.4583 9.1667L15.5833 9.1667C16.0884 9.1667 16.5 9.57735 16.5 10.0833C16.5 10.5893 16.0884 11 15.5833 11L11.4583 11C11.2053 11 11 11.2053 11 11.4583C11 11.7113 11.2053 11.9167 11.4583 11.9167L14.6667 11.9167C15.1718 11.9167 15.5833 12.3273 15.5833 12.8333C15.5833 13.3393 15.1717 13.75 14.6667 13.75L11.4583 13.75C11.2053 13.75 11 13.9553 11 14.2083C11 14.4613 11.2053 14.6667 11.4583 14.6667L13.75 14.6667C14.2551 14.6667 14.6667 15.0773 14.6667 15.5833C14.6667 16.0893 14.2551 16.5 13.75 16.5L5.95835 16.5Z" fill="#3D4146"/>
</svg>
