<svg width="103" height="80" viewBox="0 0 103 80" fill="none" xmlns="http://www.w3.org/2000/svg">
<path d="M14.3374 1.14422C22.833 3.75938 31.096 7.37762 38.8608 11.8786L40.3178 12.6861L41.749 13.6051L44.5556 15.43L45.9868 16.349C46.4366 16.6882 46.8865 17.0273 47.3493 17.3108L50.0614 19.29L51.4111 20.3075C51.8609 20.6466 52.2979 21.0415 52.692 21.3678L55.2968 23.557L56.5777 24.6173C57.0147 25.0122 57.3959 25.3942 57.8329 25.789L60.2874 28.1196C63.4915 31.2699 66.5325 34.6172 69.2859 38.1915C69.6542 38.6292 70.0225 39.0669 70.3351 39.4916L71.3028 40.8904L73.251 43.6321C73.919 44.5503 74.5183 45.5113 75.0619 46.4594L76.8042 49.3295C81.2814 57.1202 84.6733 65.5401 86.5857 74.263C86.6754 74.6362 86.4048 75.0432 86.0317 75.1329C85.6586 75.2226 85.2944 75.0207 85.149 74.6347C82.1342 66.3609 78.3774 58.5023 73.6853 51.1316L71.8485 48.4157C71.2363 47.5104 70.6798 46.618 69.9989 45.7556L68.0248 43.1253L67.0314 41.8381C66.7188 41.4133 66.3376 41.0313 65.9692 40.5936C63.2198 37.2551 60.3331 34.0023 57.2147 30.9893C54.1091 27.9207 50.8276 25.1048 47.4644 22.3874C44.1013 19.6701 40.5064 17.1926 36.8299 14.8137C29.6183 10.206 21.8616 6.17666 13.8344 2.55436C13.4144 2.33957 13.269 1.95354 13.4281 1.52064C13.617 1.21212 13.9473 1.0538 14.3374 1.14422Z" fill="#5C5856"/>
<path d="M76.1578 69.1484C75.3752 69.7086 75.3279 70.7174 75.9135 71.4094C78.2288 73.8929 83.6152 79.2204 86.5493 79.437C89.5718 79.6741 90.8758 70.4277 91.2217 66.5216C91.3371 65.6213 90.5948 64.8003 89.6486 64.8591C86.81 65.0354 81.0512 65.7401 76.1578 69.1484Z" fill="#5C5856"/>
</svg>
