<svg width="82" height="104" viewBox="0 0 82 104" fill="none" xmlns="http://www.w3.org/2000/svg">
<path d="M0.209513 87.1175C3.11217 78.7158 7.00942 70.5807 11.772 62.9735L12.6286 61.5448L13.5957 60.1457L15.5151 57.4028L16.4822 56.0037C16.8365 55.5656 17.1907 55.1276 17.4897 54.6747L19.5601 52.0315L20.6229 50.7172C20.9772 50.2792 21.3867 49.8559 21.7262 49.4731L24.0027 46.9443L25.106 45.7002C25.5155 45.2769 25.9102 44.9089 26.3198 44.4856L28.7325 42.1118C31.9899 39.0167 35.4388 36.0914 39.1046 33.4611C39.5546 33.1079 40.0046 32.7547 40.4398 32.4568L41.8706 31.5373L44.677 29.6835C45.6174 29.0471 46.5982 28.4808 47.5642 27.9698L50.492 26.3261C58.4305 22.1165 66.9609 19.013 75.7439 17.3985C76.1198 17.3216 76.5174 17.6058 76.5944 17.9817C76.6713 18.3577 76.4571 18.7149 76.0664 18.847C67.6948 21.5785 59.713 25.0659 52.1869 29.5045L49.4101 31.2478C48.4845 31.8289 47.5737 32.3547 46.6886 33.0059L43.9927 34.8893L42.6724 35.8384C42.2372 36.1364 41.8425 36.5044 41.3925 36.8576C37.9625 39.4918 34.6133 42.2662 31.496 45.2804C28.3235 48.2797 25.3976 51.4636 22.5674 54.7324C19.7372 58.0011 17.1389 61.5097 14.6362 65.1031C9.78591 72.1538 5.49501 79.7689 1.60173 87.6682C1.37277 88.0806 0.98202 88.2128 0.554785 88.0391C0.252867 87.8398 0.105875 87.5043 0.209513 87.1175Z" fill="#5C5856"/>
<path d="M70.2771 27.6467C70.8104 28.448 71.817 28.5296 72.5285 27.9678C75.0893 25.7383 80.5971 20.5363 80.9133 17.6113C81.2531 14.5986 72.0564 12.9808 68.1643 12.5023C67.2685 12.3563 66.4227 13.0702 66.4493 14.0179C66.529 16.8608 67.0373 22.6403 70.2771 27.6467Z" fill="#5C5856"/>
</svg>
