<svg width="700" height="468" viewBox="0 0 700 468" fill="none" xmlns="http://www.w3.org/2000/svg">
<g opacity="0.5">
<path opacity="0.5" d="M365.598 436.258C298.151 443.369 205.599 455.686 138.405 445.295C121.02 442.607 103.402 439.221 87.751 430.142C70.5928 419.814 57.1691 404.284 49.4273 385.805C46.0597 378.791 44.4413 371.065 44.7109 363.288C46.1279 346.019 60.7425 334.908 69.7524 320.961C88.0471 292.603 82.4424 253.408 78.5508 218.383C74.6592 183.358 76.1397 141.349 101.52 121.561C132.018 97.901 178.569 121.307 207.967 95.9116C220.763 84.8644 227.298 66.7487 238.571 53.7333C262.005 26.7079 306.251 29.5861 327.063 59.4686C344.448 84.4623 347.176 123.784 371.985 138.471C388.059 147.994 407.94 142.915 423.929 133.519C439.919 124.122 454.153 110.662 470.734 102.536C487.316 94.409 508.17 92.589 522.213 105.626C543.977 125.794 537.505 167.697 555.821 191.95C577.859 221.156 621.935 209.177 648.732 232.668C670.411 251.715 672.314 293.534 652.455 314.845C643.043 324.94 630.078 330.548 622.21 342.251C609.372 361.298 614.427 389.742 604.783 411.201C592.6 438.332 562.208 445.57 535.77 449.739C461.196 461.464 466.229 425.571 367.692 435.645" fill="#E4F1FF" fill-opacity="0.12"/>
</g>
<path d="M41.2007 97.7952C41.2007 97.7952 40.249 80.7376 30.2239 81.4995C16.138 82.5365 6.55709 82.092 1.62915 80.4202C-3.29878 78.7483 7.57229 89.6896 24.6192 88.2717L29.3567 102.959L41.2007 97.7952Z" fill="#FF9F8F"/>
<path d="M37.8795 85.4789C37.8795 85.4789 27.4949 73.162 24.6185 74.072C21.7421 74.982 30.7731 84.971 30.7731 84.971L37.8795 85.4789Z" fill="#FF9F8F"/>
<path d="M97.0359 95.2345C97.0359 95.2345 95.1747 78.3039 85.2342 79.5949C71.233 81.3938 61.652 81.4149 56.6184 80.0605C51.5847 78.7061 62.9633 89.0125 79.9891 86.7057L85.488 101.118L97.0359 95.2345Z" fill="#FF9F8F"/>
<path d="M130.77 35.0675C125.102 32.9511 122.31 25.9461 123.706 20.0416C124.577 17.1322 126.07 14.4476 128.082 12.1743C130.095 9.90101 132.578 8.0937 135.36 6.87805C139.251 4.93103 143.82 3.64007 146.379 0L146.252 6.1585C148.712 3.74806 151.957 2.30404 155.394 2.09032C158.831 1.87661 162.23 2.90747 164.969 4.99452C167.465 7.11084 169.199 9.86206 171.484 12.1265C173.768 14.391 177.173 16.084 180.219 14.9624C179.638 16.9247 178.776 18.7924 177.659 20.5072C181.53 21.9674 183.307 26.581 183.285 30.729C183.264 34.877 181.889 38.8768 181.572 43.0248C181.337 44.5634 181.604 46.1367 182.334 47.5114C182.717 48.1834 183.333 48.6919 184.066 48.9414C184.798 49.1908 185.596 49.164 186.31 48.8659C184.607 50.9683 182.362 52.5639 179.817 53.4795C180.661 55.5979 180.895 57.9109 180.491 60.1556C180.087 62.4003 179.062 64.4866 177.533 66.1774C174.463 69.5164 170.556 71.9718 166.217 73.2882C164.231 74.1909 162.015 74.457 159.872 74.0501C157.814 73.2044 156.075 71.7307 154.902 69.8386C152.481 66.8194 150.356 63.5734 148.557 60.1459" fill="#2D2F39"/>
<path d="M185.612 412.45L185.76 434.502C185.76 434.502 175.418 435.92 168.84 436.131C160.518 436.353 152.19 436.057 143.904 435.243C150.698 431.796 157.74 428.86 164.969 426.46L168.713 409.529L185.612 412.45Z" fill="#2D2F39"/>
<path d="M82.6117 406.609L76.4782 427.772C76.4782 427.772 66.1359 426.185 59.8543 424.534C51.8158 422.364 43.9189 419.7 36.2087 416.556C43.6673 415.185 51.2175 414.371 58.7968 414.122L67.2568 398.885L82.6117 406.609Z" fill="#2D2F39"/>
<path d="M139.759 190.998H140.14L160.147 189.961L184.005 194.405L185.549 210.468C185.601 211.173 185.601 211.88 185.549 212.584C188.404 227.399 194.833 291.227 195.404 302.295C196.039 314.993 187.79 422.058 187.79 422.058C170.87 425.55 161.12 423.603 161.12 423.603C161.12 423.603 156.488 341.066 155.156 315.014C154.691 305.766 149.171 259.99 147.563 237.134L148.113 237.43L141.514 237.769" fill="#FFA092"/>
<path d="M150.799 244.816C143.481 265.218 117.509 324.835 114.844 332.157C110.614 344.093 81.7868 418.059 81.7868 418.059C64.74 414.799 56.1954 407.985 56.1954 407.985C56.1954 407.985 77.3453 316.581 85.8053 292.053C90.5006 278.762 104.988 246.319 112.983 223.251C118.017 209.241 124.996 190.469 124.996 190.469L148.261 194.363L167.085 201.051" fill="#FFA092"/>
<path d="M129.268 24.8249C132.018 24.2747 149.509 20.5923 161.374 29.5655C161.374 33.7982 159.788 38.6445 159.851 42.8983C159.851 43.5544 160.105 44.4644 160.761 44.3798C161.416 44.2951 161.353 43.9988 161.543 43.7025C161.945 43.0676 162.326 42.4327 162.706 41.7767C161.818 44.0411 160.782 48.3584 162.474 48.9299C164.166 49.5013 166.471 44.9512 167.042 42.0306C167.459 41.8797 167.892 41.7802 168.332 41.7344C170.147 41.5407 171.964 42.0763 173.384 43.2233C174.804 44.3703 175.71 46.0348 175.904 47.8505C176.098 49.6663 175.562 51.4846 174.416 52.9054C173.27 54.3263 171.606 55.2333 169.792 55.427C168.776 55.427 167.677 55.427 166.852 58.284L167.359 78.8335C167.465 76.3151 167.55 76.9923 167.571 77.7118C167.562 81.8309 165.947 85.7839 163.069 88.7292C160.192 91.6746 156.279 93.3799 152.163 93.4819C148.048 93.584 144.056 92.0748 141.036 89.2756C138.016 86.4765 136.207 82.6084 135.994 78.4949C135.994 77.8176 135.994 77.1827 135.994 76.5267L135.867 67.7228C127.407 65.162 126.011 56.6544 126.921 49.0568C127.83 41.4592 129.184 25.2059 129.268 24.8249Z" fill="#FF9F8F"/>
<path d="M170.342 49.1842C169.717 48.257 168.813 47.5529 167.761 47.1737C167.761 47.1737 167.952 46.8351 168.755 46.5811C169.597 46.388 170.453 46.2677 171.314 46.2213C170.682 45.9279 169.978 45.8237 169.287 45.9213C168.597 46.019 167.95 46.3142 167.423 46.7716C166.894 47.2158 166.494 47.7934 166.263 48.4446C166.032 49.0958 165.98 49.7969 166.112 50.4751C166.112 50.4751 166.598 48.0414 167.507 47.5546L170.342 49.1842Z" fill="#A8425F"/>
<g style="mix-blend-mode:soft-light">
<path d="M135.867 67.7227C138.9 68.5676 142.067 68.8191 145.194 68.4634L136.1 76.9287L135.867 67.7227Z" fill="#542E54"/>
</g>
<path d="M131.468 32.2316C130.791 30.1153 133.731 28.3164 135.508 27.9989C136.057 27.9011 136.624 27.9745 137.131 28.2091C137.638 28.4438 138.06 28.8284 138.342 29.3111C138.722 30.4539 137.707 30.9829 136.84 31.4274L137.559 30.9829C136.841 31.4849 136.049 31.8706 135.211 32.1258C134.429 32.5067 133.668 33.2474 132.779 33.1839C132.489 33.1814 132.206 33.0883 131.971 32.9176C131.736 32.7469 131.56 32.5071 131.468 32.2316Z" fill="#FFCF91"/>
<path d="M153.887 33.501C152.808 33.6914 152.11 33.12 151.138 32.7603C150.235 32.5616 149.371 32.2186 148.578 31.7444C148.832 31.8658 149.079 32 149.319 32.1465C148.409 31.8502 147.415 31.3635 147.732 30.1995C148.05 29.0355 149.446 28.6758 150.376 28.6969C152.237 28.6969 155.283 30.263 154.796 32.5275C154.744 32.7533 154.632 32.9609 154.472 33.1284C154.312 33.296 154.11 33.4174 153.887 33.4798V33.501Z" fill="#FFCF91"/>
<path d="M149.34 49.1421C148.79 51.7028 146.104 54.2213 141.514 52.1049C143.029 52.3368 144.577 52.221 146.04 51.7663C147.367 51.2237 148.512 50.3133 149.34 49.1421Z" fill="#A8425F"/>
<g style="mix-blend-mode:soft-light">
<path d="M138.638 49.7766L144.539 49.5861L142.847 36.8882L140.541 36.9728L138.638 49.7766Z" fill="#542E54"/>
</g>
<g style="mix-blend-mode:soft-light" opacity="0.75">
<path d="M150.651 48.8023C150.614 47.7475 150.89 46.7054 151.445 45.808C152.001 44.9105 152.809 44.1981 153.769 43.7608C154.729 43.3235 155.797 43.1811 156.838 43.3515C157.879 43.522 158.846 43.9976 159.617 44.7183C160.387 45.439 160.927 46.3722 161.167 47.3999C161.407 48.4276 161.337 49.5035 160.966 50.4915C160.595 51.4794 159.939 52.3349 159.082 52.9496C158.225 53.5644 157.204 53.9108 156.15 53.945C155.451 53.9704 154.754 53.8574 154.099 53.6124C153.443 53.3674 152.843 52.9953 152.332 52.5174C151.821 52.0395 151.41 51.4653 151.121 50.8277C150.833 50.1902 150.673 49.5018 150.651 48.8023Z" fill="#542E54"/>
</g>
<g style="mix-blend-mode:soft-light" opacity="0.75">
<path d="M127.555 43.1733C127.895 43.0914 128.242 43.0418 128.591 43.0251C129.887 43.1421 131.096 43.7295 131.989 44.6765C132.882 45.6235 133.398 46.8647 133.44 48.1661C133.481 49.4675 133.046 50.7392 132.215 51.7414C131.384 52.7436 130.216 53.4071 128.93 53.6068C128.16 53.6407 127.393 53.4959 126.688 53.1835C126.667 51.7689 126.745 50.3546 126.921 48.9508C127.111 47.4271 127.344 45.3743 127.555 43.1733Z" fill="#542E54"/>
</g>
<path d="M46.1068 100.229C50.3368 112.927 62.4345 134.682 69.1814 130.154C79.2064 123.445 88.9989 101.943 88.9989 101.943L124.319 95.594C124.319 95.594 99.2566 152.756 69.7947 157.877C48.2641 161.644 34.4743 132.608 29.6098 114.281" fill="#FF948F"/>
<path d="M167.994 76.0605C163.154 81.0376 156.553 83.9109 149.615 84.0602C138.236 84.0602 136.121 76.9494 136.121 76.9494C129.924 77.6901 109.239 79.8064 101.795 86.1977C97.2897 89.2452 104.692 104.969 105.517 106.98L112.518 127.614L119.476 207.167C119.476 207.167 118.292 208.754 151.518 208.881H151.92C185.147 208.754 195.87 207.399 195.87 207.399L194.262 174.681V126.471L192.147 109.541C193.057 107.636 180.832 77.6266 167.994 76.0605Z" fill="#3D4146"/>
<path d="M129.311 75.9131H130.368C131.489 75.9131 133.625 76.8241 134.831 76.8241L129.311 75.9131Z" fill="#D9E3E9"/>
<path d="M196.018 171.422V118.514C196.525 110.049 197.456 79.0873 177.723 74.897L167.148 77.6694L142.508 132.376L136.163 76.9498L130.411 75.9975C126.921 76.1456 109.536 73.0346 96.5706 90.5154C92.9328 95.2772 89.2739 101.097 84.7266 107.806C84.7266 107.806 75.2091 122.239 67.0453 124.292C58.8814 126.345 43.7803 91.891 43.7803 91.891L21.6998 101.372C21.6998 101.372 34.9185 153.032 58.6064 158.132C78.9738 162.492 96.9725 146.64 104.819 138.281L107.463 169.877L75.7379 295.82C75.7379 295.82 112.327 316.094 153.379 317.618C191.322 319.036 220.256 312.433 220.256 307.544C220.277 304.941 196.018 171.422 196.018 171.422Z" fill="#F0F7FC"/>
<path opacity="0.02" d="M196.018 171.422V118.514C196.525 110.049 197.456 79.0873 177.723 74.897L167.148 77.6694L139.59 133.794L136.121 76.9498L130.368 75.9975C126.878 76.1456 109.493 73.0346 96.5283 90.5154C92.8905 95.2772 89.2316 101.097 84.6843 107.806C84.6843 107.806 75.1668 122.239 67.003 124.292C58.8391 126.345 43.738 91.891 43.738 91.891L21.6998 101.372C21.6998 101.372 34.9185 153.032 58.6064 158.132C78.9738 162.492 96.9725 146.64 104.819 138.281L107.463 169.877L75.7379 295.82C97.2865 308.711 121.699 316.042 146.781 317.152C184.702 318.57 217.802 307.819 217.802 302.931C217.844 300.328 196.018 171.422 196.018 171.422Z" fill="#542E54"/>
<path opacity="0.05" d="M74.765 158.047C74.4266 155.317 70.535 152.799 65.7128 152.27C60.3618 151.698 55.7723 153.667 55.4339 156.672V156.947C61.5897 159.393 68.3716 159.779 74.765 158.047Z" fill="#542E54"/>
<g style="mix-blend-mode:soft-light" opacity="0.75">
<path d="M92.8905 339.438C91.1562 346.739 86.4398 351.882 82.3156 350.908C78.1913 349.935 76.3301 343.226 78.0856 335.904C79.841 328.581 84.5575 323.46 88.6605 324.433C92.7636 325.407 94.646 332.115 92.8905 339.438Z" fill="#542E54"/>
</g>
<g style="mix-blend-mode:soft-light" opacity="0.75">
<path d="M177.66 347.713C177.279 355.204 173.557 361.109 169.348 360.897C165.139 360.686 162.072 354.421 162.453 346.908C162.834 339.395 166.683 333.491 170.786 333.724C174.889 333.956 177.998 340.2 177.66 347.713Z" fill="#542E54"/>
</g>
<path d="M136.629 41.6282C136.629 42.4747 136.375 43.1942 135.973 43.1942C135.571 43.1942 135.233 42.517 135.212 41.6705C135.19 40.824 135.487 40.0833 135.867 40.0833C136.248 40.0833 136.607 40.7605 136.629 41.6282Z" fill="#A8425F"/>
<path d="M150.884 41.2468C150.884 42.0933 150.609 42.8129 150.228 42.8129C149.847 42.8129 149.488 42.1357 149.467 41.2891C149.446 40.4426 149.72 39.7019 150.122 39.7019C150.524 39.7019 150.841 40.3791 150.884 41.2468Z" fill="#A8425F"/>
<path d="M166.958 133.201C174.212 126.154 189.038 108.229 191.767 95.3193C192.796 91.0142 192.1 86.4768 189.827 82.6792C187.554 78.8817 183.884 76.126 179.605 75.0026L178.463 74.7909C175.821 74.2212 173.071 74.442 170.553 75.4258C169.475 75.6973 168.416 76.0366 167.381 76.4417C157.483 81.1611 151.772 91.3829 142.001 105.732C142.001 105.732 132.483 120.186 124.319 122.218C116.156 124.249 101.054 89.8168 101.054 89.8168L79.2277 99.2345C79.2277 99.2345 92.4253 150.894 116.134 155.994C143.418 161.856 159.724 140.228 166.958 133.201Z" fill="#F2FBFF"/>
<path opacity="0.1" d="M132.293 155.931C131.955 153.18 128.063 150.683 123.22 150.133C117.89 149.561 113.3 151.529 112.962 154.556V154.81C119.118 157.252 125.896 157.646 132.293 155.931Z" fill="#542E54"/>
<path d="M19.7351 48.8783L18.3831 48.9435C17.2747 48.9969 16.4195 49.9394 16.4729 51.0485L17.8743 80.1353C17.9277 81.2443 18.8695 82.1001 19.9779 82.0466L21.33 81.9814C22.4383 81.9279 23.2935 80.9855 23.2401 79.8764L21.8388 50.7896C21.7853 49.6805 20.8435 48.8248 19.7351 48.8783Z" fill="#E7F1F7"/>
<path d="M30.2523 48.3717L28.9003 48.4369C27.7919 48.4903 26.9367 49.4328 26.9901 50.5419L28.3915 79.6287C28.4449 80.7378 29.3867 81.5935 30.4951 81.54L31.8472 81.4748C32.9556 81.4213 33.8108 80.4789 33.7573 79.3698L32.356 50.283C32.3025 49.1739 31.3607 48.3182 30.2523 48.3717Z" fill="#E7F1F7"/>
<path d="M41.4434 47.8131L40.0913 47.8783C38.9829 47.9318 38.1277 48.8742 38.1812 49.9833L39.5825 79.0701C39.6359 80.1792 40.5778 81.0349 41.6862 80.9814L43.0382 80.9162C44.1466 80.8627 45.0018 79.9203 44.9484 78.8112L43.547 49.7244C43.4936 48.6153 42.5517 47.7596 41.4434 47.8131Z" fill="#E7F1F7"/>
<path d="M51.7854 47.1881L50.4334 47.2533C49.325 47.3068 48.4698 48.2492 48.5232 49.3583L49.9246 78.4451C49.978 79.5542 50.9198 80.4099 52.0282 80.3564L53.3802 80.2912C54.4886 80.2378 55.3438 79.2953 55.2904 78.1862L53.8891 49.0994C53.8356 47.9903 52.8938 47.1346 51.7854 47.1881Z" fill="#E7F1F7"/>
<path d="M62.3027 46.6607L60.9507 46.7259C59.8423 46.7794 58.9871 47.7218 59.0405 48.8309L60.4419 77.9177C60.4953 79.0268 61.4372 79.8826 62.5456 79.8291L63.8976 79.7639C65.006 79.7104 65.8612 78.768 65.8077 77.6589L64.4064 48.5721C64.353 47.463 63.4111 46.6073 62.3027 46.6607Z" fill="#E7F1F7"/>
<path d="M73.495 46.1436L72.143 46.2089C71.0346 46.2623 70.1794 47.2048 70.2328 48.3138L71.6341 77.4006C71.6876 78.5097 72.6294 79.3655 73.7378 79.312L75.0898 79.2468C76.1982 79.1933 77.0534 78.2509 77 77.1418L75.5987 48.055C75.5452 46.9459 74.6034 46.0902 73.495 46.1436Z" fill="#E7F1F7"/>
<path d="M-6.10352e-05 80.2723L92.3195 75.9973L84.7478 80.2723L10.4057 83.1082L-6.10352e-05 80.2723Z" fill="#2C1B5C"/>
<path d="M93.0596 83.1713C93.0596 83.1713 82.0194 71.4046 79.2276 72.5897C76.4358 73.7749 85.9533 83.1713 85.9533 83.1713H93.0596Z" fill="#FF9F8F"/>
<path d="M390.555 468C430.083 468 462.126 462.012 462.126 454.625C462.126 447.238 430.083 441.25 390.555 441.25C351.027 441.25 318.984 447.238 318.984 454.625C318.984 462.012 351.027 468 390.555 468Z" fill="#818E94" fill-opacity="0.1"/>
<path d="M379.35 441.521H401.312V337.634H384.348L379.35 441.521Z" fill="#2D2F39"/>
<path d="M285.926 257.895C285.926 269.45 303.1 278.804 360.818 278.804C418.536 278.804 428.773 269.45 428.773 257.895C428.773 246.34 418.558 237.028 360.818 237.028C303.079 237.028 285.926 246.34 285.926 257.895Z" fill="#D9E3E9"/>
<path d="M385.5 303.671C385.5 303.671 280.977 306.803 279.433 344.283C277.974 379.266 430.042 374.737 464.559 361.214C499.075 347.691 585.854 247.758 599.791 209.897C613.729 172.036 568.532 165.877 531.139 166.999C493.746 168.121 458.954 174.131 382.941 301.237" fill="#3D4146"/>
<path d="M480.442 164.122C476.064 160.524 471.348 154.386 474.859 149.963C475.895 148.651 477.502 147.847 478.37 146.429C480.633 142.726 476.53 137.964 477.228 133.731C477.862 129.964 479.004 126.768 483.424 124.694C484.491 124.316 485.625 124.164 486.754 124.248C487.883 124.332 488.981 124.65 489.981 125.181C496.114 128.525 496.178 138.578 502.904 140.355C507.239 141.498 511.025 137.096 515.445 136.271C517.573 135.967 519.736 136.485 521.496 137.719C523.256 138.953 524.48 140.811 524.921 142.916C525.746 147.868 521.96 153.032 523.779 157.73C525.301 161.688 530.124 163.275 532.788 166.576C534.379 168.692 535.093 171.34 534.782 173.97C534.471 176.599 533.158 179.007 531.118 180.692C528.495 182.809 524.625 183.698 523.631 186.872C523.448 188.117 523.18 189.347 522.827 190.554C522.029 191.779 520.834 192.691 519.443 193.136C514.753 195.135 509.733 196.248 504.638 196.417C503.236 196.576 501.817 196.349 500.535 195.761C499.042 194.721 497.911 193.241 497.299 191.528C493.45 183.613 489.614 175.684 485.793 167.74" fill="#2D2F39"/>
<path d="M409.971 264.858C409.971 264.858 324.715 262.212 291.045 269.09C256.443 276.117 238.17 320.729 201.009 377.023C201.009 377.023 196.652 384.451 214.926 392.324L307.14 309.639L419.234 303.65L409.971 264.858Z" fill="#FFB1A3"/>
<path d="M378.944 264.964C378.944 264.964 330.299 262.17 304.581 267.08L308.049 302.55L371.985 303.248L378.944 264.964Z" fill="#3D4146"/>
<g style="mix-blend-mode:soft-light" opacity="0.75">
<path d="M409.971 264.858C409.971 264.858 324.715 262.212 291.045 269.09C256.443 276.117 238.17 320.729 201.009 377.023C201.009 377.023 196.652 384.451 214.926 392.324L307.14 309.639L419.234 303.65L409.971 264.858Z" fill="#3D4146"/>
</g>
<path d="M441.674 294.169C441.674 294.169 460.857 369.362 308.049 326.062L280.258 426.905C280.258 426.905 282.373 433.381 264.268 425.508C265.22 420.683 253.99 314.507 285.905 293.196C317.82 271.884 406.354 282.064 406.354 282.064L441.674 294.169Z" fill="#FFB1A3"/>
<path d="M372.683 284.434C372.683 284.434 356.694 273.302 310.122 283.736C310.122 283.736 320.549 312.941 315.007 328.179C315.007 328.179 362.256 342.781 392.839 339.988C423.422 337.194 435.922 331.649 439.369 316.348C442.816 301.047 372.683 284.434 372.683 284.434Z" fill="#2D2F39"/>
<path d="M352.527 236.309C347.092 235.251 343.243 234.806 343.243 234.806C339.795 234.468 331.399 234.171 331.251 235.801C331.251 236.224 331.652 236.838 333.027 237.219C334.761 237.706 336.898 238.044 339.372 238.743C334.021 237.325 325.075 237.261 324.927 239.631C324.779 242.002 334.042 241.748 337.342 242.637C331.631 241.663 324.525 242.15 323.763 243.483C323.002 244.816 331.737 247.208 336.453 247.42C331.335 246.488 324.588 246.467 324.398 247.97C324.208 249.472 334.719 251.504 339.203 251.97C337.088 254.086 334.973 256.901 336.623 257.282C338.272 257.663 345.336 253.705 348.72 251.843" fill="#FFB1A3"/>
<path d="M469.529 199.929C456.403 196.753 442.561 198.705 430.824 205.389C413.481 215.209 405.106 232.774 388.123 231.272C374.233 230.547 360.306 231.028 346.499 232.711C346.499 232.711 347.938 246.001 344.829 254.424C344.829 254.424 380.487 262.233 397.513 261.852C414.539 261.471 431.353 242.149 437.233 232.901C443.112 223.653 469.529 199.929 469.529 199.929Z" fill="#EDF3F9"/>
<g style="mix-blend-mode:soft-light">
<path d="M469.529 199.929C456.403 196.753 442.561 198.705 430.824 205.389C413.481 215.209 405.106 232.774 388.123 231.272C374.233 230.547 360.306 231.028 346.499 232.711C346.499 232.711 347.938 246.001 344.829 254.424C344.829 254.424 380.487 262.233 397.513 261.852C414.539 261.471 431.353 242.149 437.233 232.901C443.112 223.653 469.529 199.929 469.529 199.929Z" fill="#F2FBFF"/>
</g>
<path d="M509.862 193.919C510.05 193.537 510.089 193.099 509.972 192.69C509.855 192.281 509.59 191.93 509.228 191.705C508.867 191.481 508.435 191.399 508.016 191.476C507.598 191.553 507.223 191.782 506.965 192.12C506.845 192.31 506.764 192.522 506.727 192.743C506.69 192.965 506.697 193.192 506.748 193.41C506.799 193.629 506.893 193.835 507.025 194.017C507.156 194.199 507.323 194.353 507.514 194.469C507.899 194.706 508.362 194.781 508.801 194.678C509.241 194.575 509.622 194.302 509.862 193.919Z" fill="white"/>
<path d="M485.391 153.73C487.929 154.746 509.206 159.254 514.05 172.777C511.808 176.248 501.571 187.232 501.888 187.083C502.544 186.766 502.713 186.554 506.753 187.845C507.165 187.943 507.563 188.092 507.937 188.29C508.715 188.693 509.406 189.245 509.97 189.915C510.534 190.585 510.961 191.36 511.226 192.195C511.492 193.03 511.59 193.91 511.515 194.783C511.441 195.656 511.195 196.506 510.792 197.284C510.39 198.062 509.838 198.753 509.168 199.318C508.498 199.883 507.724 200.31 506.889 200.575C506.055 200.841 505.176 200.939 504.303 200.864C503.431 200.79 502.581 200.544 501.804 200.141C500.97 199.693 500.248 199.064 499.689 198.3L489.114 215.231C488.834 215.849 488.516 216.45 488.162 217.029C487.129 218.805 485.749 220.354 484.105 221.585C482.462 222.817 480.587 223.704 478.594 224.196C476.6 224.688 474.528 224.773 472.501 224.447C470.473 224.121 468.532 223.391 466.793 222.299C465.054 221.207 463.551 219.777 462.376 218.092C461.2 216.408 460.375 214.504 459.949 212.494C459.524 210.484 459.507 208.409 459.899 206.392C460.291 204.376 461.085 202.459 462.232 200.755C462.569 200.214 462.944 199.698 463.353 199.21L467.858 192.014C462.465 185.454 465.743 177.772 470.608 172.121C475.472 166.47 485.138 153.984 485.391 153.73Z" fill="#FFB1A3"/>
<path d="M505.484 195.4C505.475 194.319 505.127 193.268 504.49 192.395C504.852 192.264 505.248 192.264 505.611 192.395C506.397 192.684 507.154 193.045 507.874 193.474C507.516 192.899 507.001 192.438 506.391 192.146C505.78 191.853 505.098 191.741 504.426 191.824C503.758 191.899 503.123 192.153 502.587 192.559C502.051 192.965 501.635 193.508 501.381 194.13C501.381 194.13 503.073 192.416 504.088 192.501L505.484 195.4Z" fill="#A8425F"/>
<path d="M487.76 184.12C485.962 185.919 482.43 186.512 479.85 182.343C480.998 183.269 482.322 183.953 483.742 184.353C485.078 184.63 486.464 184.549 487.76 184.12Z" fill="#A8425F"/>
<g style="mix-blend-mode:soft-light" opacity="0.75">
<path d="M491.123 185.326C491.659 184.457 492.439 183.767 493.367 183.342C494.295 182.917 495.327 182.776 496.335 182.938C497.342 183.1 498.279 183.558 499.026 184.252C499.774 184.947 500.299 185.847 500.536 186.841C500.772 187.834 500.709 188.875 500.354 189.832C499.999 190.789 499.369 191.62 498.543 192.219C497.717 192.817 496.732 193.158 495.712 193.197C494.693 193.236 493.684 192.971 492.815 192.437C491.652 191.716 490.821 190.563 490.504 189.231C490.187 187.898 490.409 186.495 491.123 185.326Z" fill="#542E54"/>
</g>
<g style="mix-blend-mode:soft-light" opacity="0.75">
<path d="M474.203 167.634C474.883 167.881 475.504 168.269 476.025 168.771C476.546 169.274 476.956 169.881 477.227 170.553C477.498 171.224 477.625 171.945 477.6 172.669C477.574 173.393 477.397 174.104 477.079 174.754C476.761 175.405 476.31 175.982 475.755 176.447C475.2 176.912 474.554 177.255 473.858 177.454C473.162 177.652 472.432 177.702 471.715 177.6C470.998 177.498 470.311 177.246 469.698 176.861C469.061 176.47 468.519 175.942 468.112 175.316C468.849 174.188 469.654 173.107 470.523 172.078C471.644 170.851 472.849 169.306 474.203 167.634Z" fill="#542E54"/>
</g>
<g style="mix-blend-mode:soft-light" opacity="0.75">
<path d="M479.638 179.062L484.355 182.11L489.917 171.253L488.056 170.068L479.638 179.062Z" fill="#542E54"/>
</g>
<path d="M482.896 163.444C482.896 162.068 485.751 162.322 487.295 162.873C488.141 163.19 489.41 163.973 489.41 164.629C489.41 165.285 488.479 165.264 487.654 165.116H488.374C487.61 165.091 486.852 164.984 486.111 164.799C485.325 164.799 484.545 164.663 483.805 164.396C483.59 164.315 483.398 164.182 483.247 164.008C483.095 163.834 482.989 163.626 482.938 163.402L482.896 163.444Z" fill="#2C1B5C"/>
<path d="M499.921 174.618C499.238 174.09 498.669 173.427 498.25 172.671C497.708 172.079 497.226 171.434 496.812 170.746L497.193 171.338C496.664 170.682 496.135 169.878 496.791 169.582C497.447 169.285 498.589 169.962 499.244 170.534C500.535 171.656 502.142 174.11 500.936 174.767C500.768 174.828 500.587 174.847 500.41 174.821C500.233 174.795 500.065 174.725 499.921 174.618Z" fill="#2C1B5C"/>
<path d="M481.33 170.744C480.844 171.464 480.167 171.887 479.85 171.654C479.533 171.422 479.638 170.66 480.146 169.919C480.654 169.178 481.309 168.776 481.627 169.009C481.944 169.242 481.838 170.004 481.33 170.744Z" fill="#943A61"/>
<path d="M493.322 178.977C492.836 179.718 492.159 180.12 491.821 179.908C491.482 179.697 491.63 178.892 492.117 178.173C492.603 177.453 493.28 177.03 493.619 177.263C493.957 177.496 493.809 178.258 493.322 178.977Z" fill="#943A61"/>
<path d="M503.369 198.448C503.46 198.292 503.502 198.112 503.49 197.932C503.479 197.751 503.413 197.578 503.303 197.435C503.193 197.292 503.042 197.185 502.871 197.127C502.7 197.07 502.515 197.065 502.341 197.113C502.167 197.161 502.011 197.26 501.893 197.397C501.775 197.535 501.701 197.704 501.68 197.883C501.658 198.063 501.691 198.245 501.773 198.405C501.856 198.566 501.984 198.699 502.142 198.787C502.245 198.847 502.358 198.885 502.476 198.901C502.593 198.916 502.713 198.908 502.827 198.876C502.941 198.845 503.048 198.791 503.141 198.717C503.234 198.644 503.312 198.552 503.369 198.448Z" fill="#F5EBEF"/>
<path d="M452.144 315.121C430.826 320.611 408.467 320.611 387.15 315.121C361.643 308.518 345.252 280.921 367.819 262.89L408.004 256.541C408.004 256.541 416.464 207.866 455.443 199.866L463.184 199.358C463.184 199.358 458.954 205.347 465.955 212.331C472.955 219.315 489.219 214.659 489.219 214.659C489.219 214.659 499.562 225.897 499.16 238.193C499.16 238.193 490.848 232.225 472.997 257.24C455.147 282.254 452.144 315.121 452.144 315.121Z" fill="#EDF3F9"/>
<path d="M427.779 320.771C427.779 320.771 430.613 354.802 401.32 358.59C401.32 358.59 391.866 351.034 402.272 348.199C412.678 345.363 418.325 339.733 419.192 322.676C420.059 305.618 426.827 312.263 427.779 320.771Z" fill="#2D2F39"/>
<path d="M344.469 301.046C344.469 312.602 361.643 321.956 419.361 321.956C477.079 321.956 487.295 312.602 487.295 301.046C487.295 289.491 477.101 280.116 419.361 280.116C361.622 280.116 344.469 289.491 344.469 301.046Z" fill="#D9E3E9"/>
<path d="M372.683 282.339C372.683 279.999 371.99 277.711 370.691 275.766C369.392 273.821 367.545 272.304 365.385 271.409C363.224 270.513 360.847 270.279 358.554 270.736C356.261 271.192 354.154 272.319 352.5 273.973C350.847 275.628 349.721 277.736 349.265 280.031C348.809 282.325 349.043 284.704 349.938 286.866C350.832 289.027 352.348 290.875 354.292 292.175C356.236 293.475 358.522 294.169 360.86 294.169C363.996 294.169 367.003 292.922 369.22 290.704C371.438 288.485 372.683 285.476 372.683 282.339Z" fill="#3D4146"/>
<path d="M380.995 296.412C375.919 295.799 372.874 295.122 372.874 295.122V294.995C369.648 295.417 366.386 295.488 363.145 295.206C362.529 295.081 361.941 294.844 361.41 294.508C361.225 294.394 361.08 294.224 360.997 294.022C360.913 293.821 360.895 293.598 360.945 293.386C361.072 292.984 361.516 292.815 361.897 292.645C364.284 291.747 366.738 291.04 369.236 290.529C365.493 291.387 361.645 291.686 357.815 291.418C356.546 291.418 355.806 290.952 355.552 290.444C355.298 289.937 355.679 289.344 356.186 288.984C357.719 288.093 359.418 287.524 361.178 287.312C364.541 286.572 363.441 286.762 366.804 286.021C363.272 286.381 355.044 287.058 354.389 285.683C353.733 284.307 356.99 283.164 358.069 282.974C361.96 282.297 362.404 281.873 366.296 281.196C361.135 281.789 355.065 282.318 355.002 280.815C354.939 279.313 364.879 277.027 369.405 276.879C367.459 274.487 365.514 271.652 367.29 271.376C369.067 271.101 378.288 278.466 381.524 280.561C381.947 280.561 384.781 283.059 385.225 283.037" fill="#FFB1A3"/>
<path d="M379.747 296.286C436.514 301.958 448.738 309.915 494.866 263.419C494.866 263.419 510.433 235.78 490.636 230.257C475.98 226.151 447.639 270.805 437.191 274.403C426.742 278.001 406.798 279.906 393.918 279.694C389.18 279.694 379.367 278.572 375.327 278.953" fill="#FFB1A3"/>
<g style="mix-blend-mode:soft-light" opacity="0.75">
<path d="M430.93 299.756C430.93 297.047 434.864 293.513 439.602 292.476C444.762 291.312 449.479 292.751 450.177 295.672C450.177 295.672 450.177 295.841 450.177 295.926C444.331 299.217 437.589 300.559 430.93 299.756Z" fill="#542E54"/>
</g>
<path d="M483.276 215.865C495.311 210.765 507.726 216.521 510.052 231.737C513.119 251.715 479.787 280.032 463.395 289.894L448.083 266.614C448.083 266.614 471.644 220.859 483.276 215.865Z" fill="#EDF3F9"/>
<path d="M470.079 230.065C464.214 238.485 458.881 247.264 454.11 256.35C452.778 259.08 451.551 261.873 450.388 264.688C450.05 265.513 451.403 265.873 451.742 265.069C455.713 255.718 460.579 246.774 466.272 238.361C467.921 235.821 469.613 233.303 471.263 230.763C471.771 230.023 470.565 229.324 470.079 230.065Z" fill="#3D4146" fill-opacity="0.08"/>
<path d="M477.777 283.82L463.332 291.862L442.901 269.725L450.557 258.826L477.777 283.82Z" fill="#F2FBFF"/>
<g style="mix-blend-mode:soft-light" opacity="0.75">
<path d="M467.943 192.036L472.067 196.565L463.036 199.824L467.943 192.036Z" fill="#542E54"/>
</g>
<g style="mix-blend-mode:soft-light" opacity="0.75">
<path d="M282.056 301.576C277.678 307.48 276.811 314.274 280.11 316.708C283.409 319.141 289.649 316.369 294.027 310.359C298.405 304.348 299.272 297.661 295.972 295.227C292.673 292.793 286.434 295.671 282.056 301.576Z" fill="#542E54"/>
</g>
<g style="mix-blend-mode:soft-light" opacity="0.75">
<path d="M272.39 290.528C266.637 295.099 259.912 296.179 257.352 292.962C256.903 292.34 256.593 291.629 256.443 290.877C256.294 290.124 256.308 289.349 256.485 288.602C261.964 283.059 268.246 278.371 275.118 274.698C276.313 274.868 277.405 275.47 278.185 276.391C280.744 279.629 278.164 285.936 272.39 290.528Z" fill="#542E54"/>
</g>
<path d="M437.233 274.466L446.052 283.587L438.481 286.105L432.178 276.032L437.233 274.466Z" fill="white"/>
<path d="M435.33 275.164L439.581 280.603L437.466 281.302L433.447 275.863L435.33 275.164Z" fill="#FF5C87"/>
<path d="M249.16 361.787L214.411 393.109C214.411 393.109 206.501 389.024 200.938 385.935C193.582 381.735 186.579 376.943 180 371.607C180 371.607 196.603 371.607 202.017 374.76L226.911 334L249.16 361.787Z" fill="#2D2F39"/>
<path d="M292.06 388.747L280.575 434.46C280.575 434.46 269.133 434.46 263.042 433.782C250.965 432.237 239.333 430.883 239.333 430.883C239.333 430.883 256.253 423.899 262.365 424.83L260.145 381.086L292.06 388.747Z" fill="#2D2F39"/>
<path d="M484.334 150.259C484.065 152.822 484.795 155.389 486.371 157.427C487.947 159.465 490.247 160.817 492.794 161.2C494.528 161.391 496.305 161.095 498.039 161.327C498.918 161.364 499.769 161.653 500.489 162.159C501.209 162.666 501.768 163.369 502.1 164.184C502.459 165.412 502.1 166.809 502.65 167.93C503.707 170.047 506.88 169.433 508.614 171.02C509.231 171.776 509.567 172.722 509.567 173.697C509.567 174.673 509.231 175.619 508.614 176.374C507.33 177.841 505.849 179.123 504.215 180.184C502.1 181.962 497.129 185.496 498.97 188.649C500.81 191.802 511.977 183.866 515.657 179.443C517.425 177.472 518.714 175.118 519.422 172.565C519.808 170.508 519.737 168.392 519.214 166.366C518.692 164.34 517.73 162.453 516.397 160.841C513.692 157.609 510.162 155.174 506.182 153.793" fill="#2C1B5C"/>
<path d="M628.429 468C667.956 468 700 462.012 700 454.625C700 447.238 667.956 441.25 628.429 441.25C588.901 441.25 556.857 447.238 556.857 454.625C556.857 462.012 588.901 468 628.429 468Z" fill="#818E94" fill-opacity="0.1"/>
<path d="M635.911 441.521H624.929L628.597 40.9556H635.911V441.521Z" fill="#818E94" fill-opacity="0.2"/>
<path d="M437.804 278.741C443.021 275.417 448.925 273.323 455.07 272.619C461.215 271.915 467.439 272.619 473.272 274.678C479.398 276.847 485.091 280.086 490.087 284.244C495.084 288.534 500.323 292.534 505.78 296.222C517.245 303.31 530.635 306.639 544.082 305.745C550.328 305.337 556.388 303.451 561.764 300.243C565.78 297.773 569.42 294.736 572.571 291.228C579.644 283.181 584.383 273.352 586.277 262.805C587.969 253.853 587.545 244.711 587.545 235.632V115.319C587.512 115.093 587.398 114.887 587.225 114.739C587.053 114.59 586.832 114.508 586.604 114.508C586.376 114.508 586.156 114.59 585.983 114.739C585.811 114.887 585.697 115.093 585.663 115.319V240.859C585.663 244.838 585.769 248.816 585.557 252.774C585.161 264.083 581.663 275.065 575.448 284.519C569.864 292.73 561.552 299.904 551.844 302.55C545.23 304.183 538.359 304.493 531.625 303.46C525.018 302.575 518.593 300.647 512.59 297.746C506.654 294.698 501.102 290.954 496.051 286.593C491.241 282.323 485.971 278.603 480.336 275.503C474.875 272.669 468.892 270.985 462.755 270.556C456.618 270.126 450.459 270.96 444.656 273.006C441.875 274.057 439.221 275.42 436.746 277.069C435.731 277.725 436.746 279.376 437.698 278.699L437.804 278.741Z" fill="#F1574B"/>
<path d="M609.415 50.6648H562.229C562.229 50.6648 554.129 114.281 585.854 114.281C617.579 114.281 609.415 50.6648 609.415 50.6648Z" fill="#818E94" fill-opacity="0.2"/>
<path d="M567.813 80.5901C569.018 93.161 573.269 106.409 585.875 106.409C598.48 106.409 602.499 93.7113 603.831 81.5213" fill="#F1574B"/>
<path d="M580.482 112.715C580.815 115.52 582.456 119.987 585.489 119.987C588.522 119.987 590.101 115.671 590.475 112.917" fill="#818E94" fill-opacity="0.2"/>
<path d="M569.611 72.7809H602.033L603.768 63.9558H567.876L569.611 72.7809Z" fill="white"/>
<path d="M579.574 50.6968L592.292 50.9038C591.877 48.144 589.783 43.6318 585.922 43.6318C582.061 43.6318 580.032 47.9508 579.574 50.6968ZM583.937 47.3851C583.932 47.1389 584.044 46.8975 584.257 46.6914C584.47 46.4854 584.775 46.3241 585.133 46.2279C585.492 46.1318 585.887 46.1053 586.269 46.1516C586.652 46.198 587.004 46.3151 587.28 46.4883C587.557 46.6614 587.746 46.8826 587.824 47.1239C587.901 47.3652 587.864 47.6156 587.716 47.8433C587.568 48.071 587.316 48.2658 586.993 48.4029C586.67 48.54 586.289 48.6132 585.9 48.6132C585.396 48.6024 584.919 48.4683 584.569 48.2392C584.219 48.01 584.024 47.7038 584.024 47.3851H583.937Z" fill="#818E94" fill-opacity="0.2"/>
<path d="M563.815 41.2055H689.785V31.1106L563.815 34.8988V41.2055Z" fill="#818E94" fill-opacity="0.2"/>
</svg>
