<svg width="45" height="45" viewBox="0 0 45 45" fill="none" xmlns="http://www.w3.org/2000/svg">
<circle cx="22.5" cy="22.5" r="22.5" fill="white"/>
<path d="M30 16.0073C29.3036 16.4986 28.5324 16.8743 27.7164 17.12C27.2784 16.6164 26.6962 16.2595 26.0488 16.0974C25.4013 15.9354 24.7196 15.9762 24.0961 16.2142C23.4725 16.4522 22.937 16.876 22.5622 17.4282C22.1873 17.9804 21.9911 18.6345 22 19.3019V20.0291C20.7219 20.0623 19.4555 19.7788 18.3135 19.204C17.1714 18.6292 16.1893 17.7809 15.4545 16.7346C15.4545 16.7346 12.5455 23.28 19.0909 26.1891C17.5931 27.2058 15.8088 27.7156 14 27.6437C20.5455 31.28 28.5455 27.6437 28.5455 19.28C28.5448 19.0775 28.5253 18.8754 28.4873 18.6764C29.2295 17.9444 29.7533 17.0202 30 16.0073V16.0073Z" stroke="#3D4146" stroke-opacity="0.8" stroke-width="1.4" stroke-linecap="round" stroke-linejoin="round"/>
</svg>
